<svg width="19" height="19" viewBox="0 0 19 19" fill="none" xmlns="http://www.w3.org/2000/svg">
<path d="M6.45508 1.30977C6.45508 1.14408 6.58939 1.00977 6.75508 1.00977H14.0322C14.2478 1.00977 14.3928 1.23059 14.3099 1.42966C13.5443 3.2675 13.4766 4.00942 14.2956 5.88576C14.3832 6.08647 14.2381 6.31366 14.0191 6.31366H6.75508C6.58939 6.31366 6.45508 6.17935 6.45508 6.01366V1.30977Z" fill="#FF511B"/>
<path d="M6.63086 13.3848L6.63086 1.00977" stroke="#607288" stroke-linecap="round"/>
<path d="M11.8384 11.991C12.2678 11.5473 12.9789 11.5473 13.4083 11.991L17.7452 16.4722C18.4168 17.1661 17.9255 18.3272 16.9602 18.3272H8.28644C7.32115 18.3272 6.82987 17.1661 7.50151 16.4722L11.8384 11.991Z" fill="white"/>
<path fill-rule="evenodd" clip-rule="evenodd" d="M16.9602 17.2337L12.6233 12.7522L8.28644 17.2337H16.9602ZM13.4083 11.991C12.9789 11.5473 12.2678 11.5473 11.8384 11.991L7.50151 16.4725C6.82987 17.1665 7.32115 18.3277 8.28644 18.3277H16.9602C17.9255 18.3277 18.4168 17.1665 17.7452 16.4725L13.4083 11.991Z" fill="#FFB800"/>
<path d="M5.5413 10.326C5.97792 9.80801 6.77515 9.80801 7.21176 10.326L12.4387 16.5268C13.0382 17.238 12.5331 18.3263 11.6034 18.3263H1.14964C0.219926 18.3263 -0.285163 17.238 0.314407 16.5268L5.5413 10.326Z" fill="white"/>
<path fill-rule="evenodd" clip-rule="evenodd" d="M11.6034 17.2323L6.37653 11.0315L1.14964 17.2323L11.6034 17.2323ZM7.21176 10.326C6.77515 9.80801 5.97792 9.80801 5.5413 10.326L0.314407 16.5268C-0.285163 17.2381 0.219926 18.3263 1.14964 18.3263H11.6034C12.5331 18.3263 13.0382 17.2381 12.4387 16.5268L7.21176 10.326Z" fill="#69BC00"/>
</svg>
