<svg width="19" height="19" viewBox="0 0 19 19" fill="none" xmlns="http://www.w3.org/2000/svg">
<path fill-rule="evenodd" clip-rule="evenodd" d="M5.20272 14.6084H2.92773C2.37545 14.6084 1.92773 14.1607 1.92773 13.6084V2.6124C1.92773 2.06011 2.37545 1.6124 2.92773 1.6124H15.1727C15.725 1.6124 16.1727 2.06011 16.1727 2.6124V8.7684H17.1727V13.614C17.1727 13.6121 17.1727 13.6103 17.1727 13.6084V2.6124C17.1727 1.50783 16.2773 0.612397 15.1727 0.612397H2.92773C1.82316 0.612397 0.927734 1.50783 0.927734 2.6124V13.6084C0.927734 14.713 1.82317 15.6084 2.92773 15.6084H5.20272V14.6084Z" fill="#623AD6"/>
<path d="M4.89062 5.97363L13.2135 5.97363" stroke="#623AD6" stroke-width="1.2" stroke-linecap="round" stroke-linejoin="round"/>
<path d="M15.9152 13.8775C15.9152 15.3066 14.7568 16.465 13.3277 16.465C11.8987 16.465 10.7402 15.3066 10.7402 13.8775C10.7402 12.4485 11.8987 11.29 13.3277 11.29C14.7568 11.29 15.9152 12.4485 15.9152 13.8775Z" stroke="#623AD6"/>
<ellipse cx="13.327" cy="13.8777" rx="0.95" ry="0.949994" fill="#623AD6"/>
<path d="M12.7243 10.0498C12.8141 9.79305 13.0564 9.62109 13.3284 9.62109C13.6 9.62109 13.842 9.79244 13.9321 10.0486L14.3019 11.0987H12.3574L12.7243 10.0498Z" fill="#623AD6"/>
<path d="M13.9339 17.7422C13.8441 17.9989 13.6018 18.1709 13.3298 18.1709C13.0582 18.1709 12.8163 17.9995 12.7261 17.7434L12.3563 16.6933L14.3008 16.6933L13.9339 17.7422Z" fill="#623AD6"/>
<path d="M9.60877 12.4755C9.43205 12.2778 9.40445 11.9901 9.54018 11.7604C9.67567 11.531 9.94383 11.4105 10.2071 11.4606L11.3365 11.6754L10.3643 13.3209L9.60877 12.4755Z" fill="#623AD6"/>
<path d="M17.0514 15.3184C17.2281 15.5161 17.2557 15.8039 17.12 16.0336C16.9845 16.2629 16.7163 16.3834 16.4531 16.3334L15.3236 16.1185L16.2958 14.4731L17.0514 15.3184Z" fill="#623AD6"/>
<path d="M10.2119 16.3329C9.94835 16.3835 9.67953 16.263 9.54381 16.0333C9.40831 15.804 9.43556 15.5168 9.61156 15.3191L10.3667 14.4707L11.3389 16.1162L10.2119 16.3329Z" fill="#623AD6"/>
<path d="M16.4463 11.4591C16.7099 11.4085 16.9787 11.529 17.1144 11.7587C17.2499 11.988 17.2226 12.2752 17.0466 12.4729L16.2915 13.3213L15.3193 11.6758L16.4463 11.4591Z" fill="#623AD6"/>
</svg>
