<svg width="240" height="109" viewBox="0 0 240 109" fill="none" xmlns="http://www.w3.org/2000/svg">
<rect y="0.386719" width="240" height="108.387" rx="10" fill=""/>
<g clip-path="url(#clip0_2572_64553)">
<path fill-rule="evenodd" clip-rule="evenodd" d="M155.439 70.1682V68.5342H143.26V70.1682H155.439Z" fill="#5F5E5E"/>
<path fill-rule="evenodd" clip-rule="evenodd" d="M150.017 60.8873C150.303 60.1668 150.443 59.3966 150.428 58.6216H147.79C147.79 63.0411 142.854 64.0807 142.854 64.0807V65.3815C146.457 64.9344 148.348 63.5229 149.352 62.0774C151.804 62.8925 152.805 65.6401 152.805 65.6401H155.59C154.364 62.3746 151.249 61.2231 150.02 60.8867L150.017 60.8873Z" fill="#5F5E5E"/>
<path fill-rule="evenodd" clip-rule="evenodd" d="M88.8292 68.9038V67.751H97.8883V58.5832H95.1781V64.189H89.7189C89.2781 64.1892 88.8471 64.0586 88.4804 63.8137C88.1138 63.5689 87.828 63.2209 87.6592 62.8136C87.4903 62.4063 87.4461 61.9582 87.5319 61.5257C87.6178 61.0933 87.83 60.6961 88.1417 60.3842C88.4533 60.0724 88.8504 59.86 89.2828 59.7739C89.7152 59.6877 90.1634 59.7318 90.5707 59.9004C90.9781 60.0689 91.3263 60.3545 91.5713 60.721C91.8164 61.0875 91.9472 61.5185 91.9474 61.9593C91.9521 62.3062 91.8738 62.6491 91.7189 62.9594C91.564 63.2698 91.3371 63.5385 91.057 63.7432H93.6566C94.1067 63.1846 94.356 62.4908 94.3643 61.7734C94.3643 59.6196 92.2092 57.9136 89.5337 57.9136C86.8582 57.9136 84.6709 59.6216 84.6709 61.7734C84.6709 63.8912 86.8582 65.5992 89.5337 65.5992H95.1793V66.3068H85.9344L85.9704 68.9064C86.0225 69.2223 86.1722 69.5139 86.3986 69.7403C86.625 69.9667 86.9167 70.1165 87.2326 70.1686H97.8877V68.9064L88.8292 68.9038Z" fill="#5F5E5E"/>
<path fill-rule="evenodd" clip-rule="evenodd" d="M104.424 64.1179H99.3738V65.3801H102.083C101.775 65.6437 101.525 65.9673 101.347 66.331C101.169 66.6946 101.067 67.0908 101.047 67.4953C101.047 69.5372 103.643 71.2104 106.798 71.2104C109.993 71.2104 112.555 69.5378 112.555 67.4953C112.541 66.8714 112.319 66.27 111.923 65.7873H108.767C109.026 65.9926 109.236 66.2518 109.383 66.5469C109.531 66.8419 109.612 67.1656 109.621 67.4953C109.621 68.7961 108.358 69.8344 106.798 69.8344C105.276 69.8344 104.015 68.7961 104.015 67.4953C104.034 67.0218 104.197 66.5652 104.482 66.1871C104.768 65.8089 105.162 65.5273 105.613 65.3801H112.891V64.1179H110.921V61.445H103.124V59.8489H112.743V58.6209L100.452 58.5874V61.4456C100.493 61.7659 100.639 62.0635 100.867 62.2915C101.096 62.5196 101.394 62.6651 101.714 62.7052H108.246V64.1205L104.424 64.1179Z" fill="#5F5E5E"/>
<path fill-rule="evenodd" clip-rule="evenodd" d="M127.743 66.1948H114.372V67.8327H119.682V70.8009H122.355V67.8327H127.743V66.1974V66.1948Z" fill="#5F5E5E"/>
<path fill-rule="evenodd" clip-rule="evenodd" d="M121.652 60.2912H120.536C120.02 60.3378 119.536 60.5641 119.17 60.9307C118.804 61.2972 118.578 61.7808 118.531 62.297C118.531 63.4485 119.682 64.3762 121.095 64.3762C122.542 64.3762 123.695 63.4485 123.695 62.297C123.678 61.976 123.584 61.6637 123.423 61.3859C123.261 61.1081 123.035 60.8729 122.764 60.6997H125.736C125.974 60.8958 126.17 61.1387 126.31 61.4135C126.45 61.6883 126.533 61.989 126.552 62.297C126.552 64.005 124.104 65.3797 121.094 65.3797C118.122 65.3797 115.674 64.0056 115.674 62.297C115.709 61.8724 115.854 61.4642 116.095 61.1126C116.336 60.7609 116.664 60.4779 117.047 60.2912H114.934V58.8444H119.684V57.8794H122.358V58.8444H127.408V60.2912H121.654H121.652Z" fill="#5F5E5E"/>
<path fill-rule="evenodd" clip-rule="evenodd" d="M132.123 66.1964V59.8837H136.876V58.5881H129.445L129.411 66.4956C129.449 66.8248 129.593 67.1329 129.82 67.3738C130.048 67.6147 130.348 67.7755 130.674 67.8324H138.88V70.8H141.552V58.5874H138.88V66.1964H132.123Z" fill="#5F5E5E"/>
<path fill-rule="evenodd" clip-rule="evenodd" d="M108.253 54.0287C108.253 54.0287 111.778 49.3608 120.447 49.3608C129.079 49.3608 132.239 54.0287 132.239 54.0287H108.253Z" fill="#DC0017"/>
<path fill-rule="evenodd" clip-rule="evenodd" d="M136.94 37.7388V42.8447L132.91 37.7394H128.375V48.1533H131.635V41.8025L136.776 48.1533H140.202V37.7388H136.94Z" fill="#5F5E5E"/>
<path fill-rule="evenodd" clip-rule="evenodd" d="M85.9131 48.1535H89.5072V37.7744H85.9131V48.1529V48.1535Z" fill="#5F5E5E"/>
<path fill-rule="evenodd" clip-rule="evenodd" d="M107.783 37.7744H100.391V48.1542H103.952V40.4602H105.934C105.934 40.4602 108.653 40.4924 108.653 43.0122C108.653 45.837 106.171 45.7019 106.171 45.7019H104.355V48.1542H107.714C108.357 48.1288 108.989 47.9745 109.571 47.7003C110.153 47.426 110.675 47.0376 111.104 46.5579C111.533 46.0783 111.862 45.5172 112.07 44.9081C112.278 44.299 112.362 43.6543 112.316 43.0122C112.316 38.2112 107.781 37.775 107.781 37.775L107.783 37.7744Z" fill="#5F5E5E"/>
<path fill-rule="evenodd" clip-rule="evenodd" d="M95.0503 37.7744H91.4548V48.1529H99.3823V45.6343H95.0503V37.7744Z" fill="#5F5E5E"/>
<path fill-rule="evenodd" clip-rule="evenodd" d="M120.209 46.2023C119.795 46.194 119.386 46.1039 119.006 45.9373C118.627 45.7707 118.284 45.5309 117.997 45.2315C117.71 44.9321 117.485 44.5791 117.335 44.1926C117.185 43.8062 117.112 43.3939 117.121 42.9793C117.096 42.5602 117.157 42.1404 117.301 41.7458C117.444 41.3511 117.666 40.9898 117.954 40.6842C118.242 40.3786 118.589 40.1351 118.975 39.9687C119.36 39.8023 119.776 39.7164 120.195 39.7164C120.615 39.7164 121.031 39.8023 121.416 39.9687C121.802 40.1351 122.149 40.3786 122.437 40.6842C122.725 40.9898 122.947 41.3511 123.09 41.7458C123.234 42.1404 123.295 42.5602 123.27 42.9793C123.29 43.8117 122.979 44.6182 122.406 45.2223C121.833 45.8264 121.044 46.1787 120.212 46.2023H120.209ZM126.929 41.4335C126.426 39.2154 124.309 37.5035 121.654 37.2018C120.648 37.1064 119.635 37.1167 118.631 37.2327C115.879 37.5691 113.727 39.4521 113.426 41.8362C113.313 42.5825 113.313 43.3414 113.426 44.0878C113.693 46.5703 116.046 48.5189 118.967 48.7556C119.872 48.8676 120.787 48.8559 121.689 48.7209C124.345 48.4532 126.427 46.7414 126.931 44.5239C127.116 43.5017 127.116 42.4544 126.931 41.4322L126.929 41.4335Z" fill="#5F5E5E"/>
<path fill-rule="evenodd" clip-rule="evenodd" d="M150.78 41.0298H154.341C154.341 41.0298 154.107 36.9995 148.299 36.9995C142.316 36.9995 141.374 40.5609 141.374 42.8453C141.374 45.0968 142.517 48.5205 148.058 48.5205C150.139 48.519 152.174 47.9004 153.904 46.743V41.9716H147.924V44.155H150.378V45.4661C150.378 45.4661 150.31 46.0702 148.664 46.0702C147.017 46.0702 145.237 45.2287 145.237 42.7803C145.237 40.3601 146.681 39.4531 148.431 39.4531C148.431 39.4531 150.444 39.3836 150.779 41.0298H150.78Z" fill="#5F5E5E"/>
</g>
<defs>
<clipPath id="clip0_2572_64553">
<rect width="110.327" height="34.21" fill="white" transform="translate(65 36.9995)"/>
</clipPath>
</defs>
</svg>
