<svg width="240" height="109" viewBox="0 0 240 109" fill="none" xmlns="http://www.w3.org/2000/svg">
<rect width="240" height="108.387" rx="10" fill=""/>
<g clip-path="url(#clip0_2572_64137)">
<path fill-rule="evenodd" clip-rule="evenodd" d="M83.785 47.1715C82.9739 47.4996 81.9063 46.7481 81.3993 45.4896C80.8924 44.2312 81.1369 42.9489 81.948 42.6208C82.7592 42.2928 83.8268 43.0443 84.3337 44.3028C84.8407 45.5612 84.5961 46.8435 83.785 47.1715Z" fill="white" stroke="#A7A8AB"/>
<path fill-rule="evenodd" clip-rule="evenodd" d="M83.3187 46.0126C82.9788 46.1498 82.5016 45.7621 82.2571 45.1478C82.0066 44.5335 82.0841 43.9192 82.4181 43.782C82.7581 43.6448 83.2352 44.0325 83.4857 44.6468C83.7303 45.2611 83.6587 45.8754 83.3187 46.0126Z" fill="white" stroke="#A7A8AB"/>
<path fill-rule="evenodd" clip-rule="evenodd" d="M76.0615 43.6167C76.0615 43.6167 75.0416 43.6048 75.0416 44.4756C75.0416 45.3463 76.0615 45.3463 76.0615 45.3463H78.6858L77.5108 65.0521C77.5108 65.0521 75.3876 65.1833 72.9661 61.569L73.8667 61.3722L71.4989 59.1475L71.0337 62.3085L71.9164 62.0282C71.9164 62.0282 73.2882 65.3085 75.4651 66.6207C77.642 67.9268 78.8289 68.3384 79.7892 69.9606C79.7892 69.9606 81.1073 68.4636 82.974 67.3901C84.8408 66.3165 86.4333 65.5233 87.8349 62.0938L88.7951 62.398L88.3418 59.2489L86.0516 61.2231L86.9581 61.5928C86.9581 61.5928 85.8548 64.3722 82.1987 64.9745L80.6898 45.3463H83.5108C83.5108 45.3463 84.5009 45.3344 84.5009 44.4756C84.5009 43.6167 83.5108 43.6167 83.5108 43.6167H76.0615Z" fill="white" stroke="#A7A8AB"/>
<path fill-rule="evenodd" clip-rule="evenodd" d="M86.8397 52.9318C86.0286 53.2598 84.961 52.5083 84.454 51.2499C83.9471 49.9914 84.1916 48.7091 85.0027 48.3811C85.8139 48.0531 86.8814 48.8046 87.3884 50.063C87.8894 51.3215 87.6449 52.6038 86.8397 52.9318Z" fill="white" stroke="#A7A8AB"/>
<path fill-rule="evenodd" clip-rule="evenodd" d="M86.369 51.7753C86.0291 51.9125 85.5519 51.5248 85.3074 50.9105C85.0569 50.2962 85.1344 49.6819 85.4684 49.5447C85.8084 49.4075 86.2855 49.7952 86.536 50.4095C86.7806 51.0298 86.709 51.6381 86.369 51.7753Z" fill="white" stroke="#A7A8AB"/>
<path fill-rule="evenodd" clip-rule="evenodd" d="M79.8182 38.3804C78.5061 38.3804 77.4385 39.5434 77.4385 40.9808C77.4385 42.4181 78.5061 43.5812 79.8182 43.5812C81.1303 43.5812 82.1979 42.4181 82.1979 40.9808C82.1979 39.5434 81.1363 38.3804 79.8182 38.3804ZM79.8182 42.5315C79.0369 42.5315 78.3987 41.8337 78.3987 40.9808C78.3987 40.1219 79.0369 39.4301 79.8182 39.4301C80.6055 39.4301 81.2377 40.1279 81.2377 40.9808C81.2436 41.8396 80.6055 42.5315 79.8182 42.5315Z" fill="white" stroke="#A7A8AB"/>
<path fill-rule="evenodd" clip-rule="evenodd" d="M81.0291 41.493C81.0291 41.493 80.7011 41.2127 80.4208 41.5109C80.1404 41.8031 80.4625 42.0894 80.4625 42.0894L81.9655 43.5089C81.9655 43.5089 82.2518 43.8011 82.5381 43.5029C82.8184 43.2047 82.5261 42.9184 82.5261 42.9184L81.0291 41.493Z" fill="white" stroke="#A7A8AB"/>
<path fill-rule="evenodd" clip-rule="evenodd" d="M84.001 46.1228C84.001 46.1228 83.6729 45.5502 83.2972 45.7411C82.9274 45.9379 83.2435 46.5164 83.2435 46.5164L84.7226 49.3196C84.7226 49.3196 85.003 49.8862 85.3787 49.6894C85.7545 49.4926 85.4682 48.926 85.4682 48.926L84.001 46.1228Z" fill="white" stroke="#A7A8AB"/>
<path d="M80.0045 54.3343H78.8295L75.6148 51.555C75.6148 51.555 74.8573 51.0659 73.9806 51.0659C73.1098 51.0659 60.0005 51.0659 60.0005 51.0659C60.0005 51.0659 60.5134 53.4755 62.5711 53.4993H75.5909H62.5711C62.5711 53.4993 61.7898 55.8254 64.8076 56.1594H77.6068H64.8017C64.8017 56.1594 64.8434 58.3005 66.746 58.8373H80.0045" fill="white"/>
<path d="M80.0045 54.3343H78.8295L75.6148 51.555C75.6148 51.555 74.8573 51.0659 73.9806 51.0659C73.1098 51.0659 60.0005 51.0659 60.0005 51.0659C60.0005 51.0659 60.5134 53.4755 62.5711 53.4993H75.5909H62.5711C62.5711 53.4993 61.7898 55.8254 64.8076 56.1594H77.6068H64.8017C64.8017 56.1594 64.8434 58.3005 66.746 58.8373H80.0045" stroke="#A7A8AB"/>
<path d="M79.8301 54.3348H81.005L84.2197 51.5555C84.2197 51.5555 84.9772 51.0664 85.848 51.0664C86.7187 51.0664 99.8281 51.0664 99.8281 51.0664C99.8281 51.0664 99.3152 53.4759 97.2575 53.4998H84.2436H97.2635C97.2635 53.4998 98.0448 55.8258 95.0329 56.1598H82.2337H95.0329C95.0329 56.1598 94.9911 58.301 93.0885 58.8378H79.8301" fill="white"/>
<path d="M79.8301 54.3348H81.005L84.2197 51.5555C84.2197 51.5555 84.9772 51.0664 85.848 51.0664C86.7187 51.0664 99.8281 51.0664 99.8281 51.0664C99.8281 51.0664 99.3152 53.4759 97.2575 53.4998H84.2436H97.2635C97.2635 53.4998 98.0448 55.8258 95.0329 56.1598H82.2337H95.0329C95.0329 56.1598 94.9911 58.301 93.0885 58.8378H79.8301" stroke="#A7A8AB"/>
<path d="M79.8076 54.9059L87.4001 52.1206L83.4577 56.1226L83.4637 56.1286L79.8076 54.9059Z" fill="#EC1C30" stroke="#A7A8AB" stroke-width="0.2"/>
<path d="M79.8038 46.0737L77.5433 51.4177L77.4956 51.4296L79.8038 54.9067V46.0737Z" fill="#F2E914" stroke="#A7A8AB" stroke-width="0.2"/>
<path d="M79.8017 54.9067L75.1377 61.8729L79.8017 59.028V54.9067Z" fill="#F2E914" stroke="#A7A8AB" stroke-width="0.2"/>
<path d="M79.8028 54.9067L76.1468 56.1294L75.103 61.8968L75.1388 61.8729L79.8028 54.9067Z" fill="#EC1C30" stroke="#A7A8AB" stroke-width="0.2"/>
<path d="M79.803 54.9059L72.2046 52.1206L76.1469 56.1226V56.1286L79.803 54.9059Z" fill="#F2E914" stroke="#A7A8AB" stroke-width="0.2"/>
<path d="M77.4945 51.4292L72.1982 52.1151L72.2042 52.121L79.8026 54.9063L77.4945 51.4292Z" fill="#EC1C30" stroke="#A7A8AB" stroke-width="0.2"/>
<path d="M79.8076 46.0737L82.0621 51.4177L82.1158 51.4296L79.8076 54.9067V46.0737Z" fill="#EC1C30" stroke="#A7A8AB" stroke-width="0.2"/>
<path d="M79.8076 54.9067L84.4657 61.8729L79.8076 59.028V54.9067Z" fill="#EC1C30" stroke="#A7A8AB" stroke-width="0.2"/>
<path d="M79.8076 54.9067L83.4637 56.1294L84.5074 61.8968L84.4657 61.8729L79.8076 54.9067Z" fill="#F2E914" stroke="#A7A8AB" stroke-width="0.2"/>
<path d="M82.1158 51.4292L87.406 52.1151L87.4001 52.121L79.8076 54.9063L82.1158 51.4292Z" fill="#F2E914" stroke="#A7A8AB" stroke-width="0.2"/>
<path d="M109.992 54.0588C109.753 54.1124 109.365 54.1661 108.829 54.2198C108.292 54.2735 107.809 54.2973 107.391 54.2973H105.858V47.0926H109.491V48.3271H107.26V53.021H108.095C108.453 53.021 108.823 52.9912 109.204 52.9375C109.586 52.8778 109.848 52.8361 109.992 52.8063V54.0588ZM112.729 56.7128V51.1721H111.781V56.2357H110.427V46.6393H111.781V49.7168H112.729V46.4663H114.071V56.7128H112.729Z" fill="#221E1F"/>
<path d="M115.764 49.1581V48.0368H121.812V49.1581H115.764ZM116.826 50.0348C117.363 49.6949 118.013 49.5279 118.782 49.5279C119.593 49.5279 120.249 49.7008 120.756 50.0348C121.263 50.3748 121.52 50.8042 121.52 51.3231C121.52 51.8122 121.263 52.2237 120.75 52.5637C120.237 52.9036 119.581 53.0706 118.77 53.0706C118.007 53.0706 117.357 52.8976 116.826 52.5637C116.289 52.2237 116.027 51.8062 116.027 51.3112C116.027 50.7982 116.295 50.3748 116.826 50.0348ZM117.1 56.5358V53.6968H118.579V55.2893H124.281V56.5358H117.1ZM117.16 47.4881V46.4146H120.38V47.4881H117.16ZM117.881 51.8301C118.15 51.9314 118.454 51.9851 118.8 51.9851C119.134 51.9851 119.432 51.9314 119.683 51.8301C119.933 51.7287 120.058 51.5557 120.058 51.3112C120.058 51.0666 119.933 50.8877 119.683 50.7744C119.432 50.6611 119.134 50.6014 118.8 50.6014C118.466 50.6014 118.162 50.6551 117.887 50.7684C117.613 50.8758 117.482 51.0547 117.482 51.2992C117.482 51.5497 117.613 51.7287 117.881 51.8301ZM123.983 50.7625V53.9116H122.575V46.4682H123.983V49.4444H125.301V50.7625H123.983Z" fill="#221E1F"/>
<path d="M126.399 52.0214V46.8564H131.326V52.0214H126.399ZM127.455 56.5363V53.0234H128.875V55.2898H134.737V56.5363H127.455ZM129.942 48.097H127.801V50.7749H129.942V48.097ZM133.115 53.763V46.4688H134.547V53.763H133.115Z" fill="#221E1F"/>
<path d="M141.435 51.5209V52.9941H144.423V56.7754H142.992V54.2585H137.016V52.9941H139.926V51.515H136.032V50.2684H142.718C142.807 49.9643 142.903 49.5825 143.004 49.1352C143.105 48.682 143.153 48.2943 143.153 47.9662H137.028V46.7197H144.668C144.668 47.3102 144.608 47.9364 144.495 48.5985C144.382 49.2605 144.256 49.8211 144.119 50.2684H145.598V51.515H141.435V51.5209Z" fill="#221E1F"/>
<path d="M155.175 51.5209V52.9941H158.163V56.7754H156.732V54.2585H150.756V52.9941H153.666V51.515H149.771V50.2684H156.457C156.547 49.9643 156.642 49.5825 156.744 49.1352C156.845 48.682 156.893 48.2943 156.893 47.9662H150.768V46.7197H158.408C158.408 47.3102 158.348 47.9364 158.235 48.5985C158.121 49.2605 157.996 49.8211 157.859 50.2684H159.338V51.515H155.175V51.5209Z" fill="#221E1F"/>
<path d="M160.561 51.8843V46.755H161.992V48.1089H164.169V46.755H165.565V51.8843H160.561ZM162.237 53.3574C162.869 52.9638 163.8 52.767 165.034 52.767C166.281 52.767 167.217 52.9638 167.849 53.3574C168.482 53.751 168.798 54.2341 168.798 54.8186C168.798 55.3972 168.482 55.8862 167.855 56.2799C167.223 56.6735 166.287 56.8703 165.034 56.8703C163.8 56.8703 162.863 56.6735 162.237 56.2799C161.605 55.8862 161.295 55.3972 161.295 54.8186C161.295 54.2341 161.605 53.751 162.237 53.3574ZM164.163 49.3554H161.986V50.6258H164.163V49.3554ZM166.633 55.4866C167.026 55.3137 167.223 55.093 167.223 54.8306C167.223 54.5562 167.026 54.3355 166.633 54.1685C166.239 54.0015 165.708 53.918 165.046 53.918C164.372 53.918 163.835 54.0015 163.436 54.1685C163.036 54.3355 162.833 54.5562 162.833 54.8306C162.833 55.099 163.036 55.3196 163.436 55.4866C163.835 55.6596 164.372 55.7431 165.046 55.7431C165.714 55.7431 166.239 55.6596 166.633 55.4866ZM168.529 49.928V52.7431H167.11V46.4688H168.529V48.6934H169.8V49.928H168.529Z" fill="#221E1F"/>
<path d="M175.883 53.5518V56.7129H174.428V53.5518H170.372V52.3053H179.945V53.5518H175.883ZM171.529 51.2198V46.6035H172.961V47.6711H177.332V46.6035H178.764V51.2198H171.529ZM177.332 48.8938H172.961V49.9793H177.332V48.8938Z" fill="#221E1F"/>
<path d="M107.757 62.7484L108.938 58.7285H109.689V63.315H109.206V59.2534L108.002 63.321H107.489L106.284 59.2772V63.321H105.801V58.7345H106.558L107.757 62.7484Z" fill="#221E1F"/>
<path d="M110.565 58.7295H111.054V59.2782H110.565V58.7295ZM110.565 60.0297H111.054V63.3219H110.565V60.0297Z" fill="#221E1F"/>
<path d="M112.404 60.4162C112.482 60.2671 112.613 60.1538 112.792 60.0643C112.971 59.9808 113.167 59.9331 113.382 59.9331C114.044 59.9331 114.372 60.3506 114.372 61.1737V63.3088H113.883V61.2214C113.883 60.6309 113.686 60.3387 113.287 60.3387C113.006 60.3387 112.792 60.452 112.643 60.6727C112.493 60.8933 112.416 61.1975 112.416 61.5912V63.3148H111.921V60.0047H112.404V60.4162Z" fill="#221E1F"/>
<path d="M115.194 58.7295H115.683V59.2782H115.194V58.7295ZM115.194 60.0297H115.683V63.3219H115.194V60.0297Z" fill="#221E1F"/>
<path d="M116.404 62.3608H116.875C116.881 62.5755 116.959 62.7485 117.102 62.8797C117.245 63.0109 117.436 63.0705 117.681 63.0705C117.895 63.0705 118.074 63.0169 118.205 62.9095C118.343 62.8021 118.408 62.6471 118.408 62.4383C118.408 62.2833 118.361 62.164 118.265 62.0864C118.188 62.0208 118.027 61.9493 117.782 61.8777L117.382 61.7524C116.786 61.5675 116.488 61.2813 116.488 60.8817C116.488 60.5715 116.589 60.327 116.786 60.154C116.983 59.9811 117.263 59.8916 117.621 59.8916C118.003 59.8916 118.295 59.993 118.51 60.1958C118.695 60.3747 118.79 60.5894 118.784 60.8339H118.319C118.283 60.4582 118.038 60.2733 117.597 60.2733C117.424 60.2733 117.281 60.321 117.162 60.4165C117.042 60.5119 116.983 60.6312 116.983 60.7743C116.983 60.9473 117.031 61.0725 117.12 61.162C117.198 61.2336 117.329 61.2992 117.52 61.3469L117.86 61.4363C118.188 61.5258 118.432 61.6332 118.587 61.7524C118.784 61.9075 118.879 62.1222 118.879 62.4025C118.879 62.7186 118.772 62.9691 118.557 63.154C118.343 63.333 118.038 63.4284 117.651 63.4284C117.257 63.4284 116.953 63.333 116.738 63.1361C116.524 62.9512 116.41 62.6888 116.404 62.3608Z" fill="#221E1F"/>
<path d="M119.703 59.0454H120.186V60.0056H120.67V60.4172H120.186V62.6239C120.186 62.779 120.216 62.8804 120.282 62.9221C120.33 62.9579 120.431 62.9758 120.586 62.9639H120.592C120.598 62.9699 120.622 62.9699 120.664 62.9639V63.3337L120.479 63.3516C120.419 63.3575 120.353 63.3575 120.288 63.3516C119.894 63.3516 119.691 63.1309 119.691 62.6955V60.4172H119.274V60.0056H119.691V59.0454H119.703Z" fill="#221E1F"/>
<path d="M121.767 60.4771C121.851 60.3161 121.964 60.1849 122.107 60.0894C122.256 59.994 122.411 59.9463 122.572 59.9463C122.626 59.9463 122.674 59.9523 122.728 59.9582V60.4234C122.668 60.3996 122.602 60.3876 122.537 60.3876C122.334 60.3876 122.161 60.4771 122.018 60.656C121.851 60.8469 121.767 61.0974 121.767 61.4016V63.3161H121.284V60.0059H121.767V60.4771Z" fill="#221E1F"/>
<path d="M124.386 62.7677L125.215 59.9824H125.734L124.828 62.8631C124.571 63.6802 124.362 64.211 124.195 64.4556C124.148 64.5271 124.064 64.5868 123.951 64.6345C123.838 64.6882 123.718 64.712 123.587 64.712L123.45 64.6882C123.402 64.6822 123.354 64.6822 123.289 64.6763V64.217C123.337 64.2349 123.39 64.2468 123.456 64.2647C123.521 64.2767 123.575 64.2886 123.617 64.2886C123.778 64.2886 123.897 64.1633 123.987 63.9188L124.142 63.4715L123.05 59.9884H123.575L124.386 62.7677Z" fill="#221E1F"/>
<path d="M129.394 59.8853C129.841 59.8853 130.187 60.0463 130.438 60.3684C130.682 60.6904 130.807 61.1258 130.807 61.6745C130.807 62.2232 130.682 62.6526 130.438 62.9747C130.193 63.2908 129.847 63.4518 129.394 63.4518C128.947 63.4518 128.601 63.2908 128.356 62.9687C128.124 62.6586 128.01 62.2292 128.01 61.6745C128.01 61.1258 128.13 60.6845 128.368 60.3684C128.607 60.0463 128.947 59.8853 129.394 59.8853ZM129.394 60.267C129.102 60.267 128.875 60.3922 128.726 60.6427C128.577 60.8932 128.499 61.2391 128.499 61.6745C128.499 62.1099 128.571 62.4439 128.72 62.6944C128.875 62.9509 129.102 63.0821 129.394 63.0821C129.686 63.0821 129.913 62.9509 130.068 62.6944C130.217 62.4499 130.295 62.1099 130.295 61.6745C130.295 61.2391 130.217 60.8992 130.068 60.6427C129.913 60.3922 129.686 60.267 129.394 60.267Z" fill="#221E1F"/>
<path d="M131.632 60.0293V59.4091C131.632 59.1407 131.691 58.9558 131.811 58.8544C131.93 58.747 132.133 58.6934 132.425 58.6934H132.622V59.1109H132.431C132.228 59.1109 132.127 59.2122 132.127 59.421V60.0293H132.622V60.4349H132.121V63.3216H131.638V60.4349H131.226V60.0293H131.632Z" fill="#221E1F"/>
<path d="M137.794 62.6122V58.7295H138.277V63.316H137.675L135.534 59.4034V63.316H135.044V58.7295H135.683L137.794 62.6122Z" fill="#221E1F"/>
<path d="M139.959 61.4668L140.782 61.3416C140.89 61.3237 140.961 61.2819 141.003 61.2163C141.045 61.1507 141.063 61.0434 141.063 60.8943C141.063 60.4887 140.818 60.2799 140.335 60.2799C139.905 60.2799 139.679 60.4887 139.655 60.9121H139.172C139.178 60.602 139.291 60.3575 139.506 60.1785C139.721 59.9996 140.001 59.9102 140.341 59.9102C140.693 59.9102 140.973 59.9817 141.188 60.1249C141.414 60.2859 141.534 60.5066 141.534 60.7988V62.7551C141.534 62.9459 141.599 63.0354 141.73 63.0354C141.766 63.0354 141.814 63.0294 141.868 63.0115V63.3336C141.772 63.3694 141.671 63.3873 141.581 63.3873C141.283 63.3873 141.116 63.2322 141.08 62.9161C140.848 63.2561 140.478 63.4231 139.977 63.4231C139.691 63.4231 139.464 63.3336 139.291 63.1487C139.118 62.9638 139.035 62.7372 139.035 62.4688C139.035 62.2004 139.118 61.9738 139.285 61.8008C139.44 61.6278 139.667 61.5145 139.959 61.4668ZM140.198 61.7889C139.762 61.8485 139.542 62.0692 139.542 62.4628C139.542 62.8207 139.721 62.9996 140.084 62.9996C140.353 62.9996 140.579 62.9161 140.764 62.7432C140.949 62.5702 141.045 62.3555 141.045 62.0871V61.61C140.967 61.6636 140.794 61.7054 140.52 61.7471L140.198 61.7889Z" fill="#221E1F"/>
<path d="M142.618 59.0454H143.101V60.0056H143.584V60.4172H143.101V62.6239C143.101 62.779 143.131 62.8804 143.196 62.9221C143.244 62.9579 143.346 62.9758 143.501 62.9639H143.507C143.513 62.9699 143.536 62.9699 143.578 62.9639V63.3337L143.393 63.3516C143.334 63.3575 143.268 63.3575 143.202 63.3516C142.809 63.3516 142.606 63.1309 142.606 62.6955V60.4172H142.188V60.0056H142.606V59.0454H142.618Z" fill="#221E1F"/>
<path d="M144.191 58.7295H144.68V59.2782H144.191V58.7295ZM144.191 60.0297H144.68V63.3219H144.191V60.0297Z" fill="#221E1F"/>
<path d="M146.793 59.8853C147.24 59.8853 147.592 60.0463 147.837 60.3684C148.081 60.6904 148.206 61.1258 148.206 61.6745C148.206 62.2232 148.081 62.6526 147.837 62.9747C147.592 63.2908 147.246 63.4518 146.793 63.4518C146.346 63.4518 146 63.2908 145.755 62.9687C145.522 62.6586 145.409 62.2292 145.409 61.6745C145.409 61.1258 145.528 60.6845 145.767 60.3684C146.006 60.0463 146.346 59.8853 146.793 59.8853ZM146.793 60.267C146.501 60.267 146.274 60.3922 146.125 60.6427C145.976 60.8932 145.898 61.2391 145.898 61.6745C145.898 62.1099 145.97 62.4439 146.119 62.6944C146.274 62.9509 146.501 63.0821 146.793 63.0821C147.085 63.0821 147.312 62.9509 147.467 62.6944C147.616 62.4499 147.693 62.1099 147.693 61.6745C147.693 61.2391 147.616 60.8992 147.467 60.6427C147.306 60.3922 147.085 60.267 146.793 60.267Z" fill="#221E1F"/>
<path d="M149.362 60.4162C149.44 60.2671 149.571 60.1538 149.75 60.0643C149.929 59.9808 150.126 59.9331 150.341 59.9331C151.003 59.9331 151.331 60.3506 151.331 61.1737V63.3088H150.842V61.2214C150.842 60.6309 150.645 60.3387 150.245 60.3387C149.965 60.3387 149.75 60.452 149.601 60.6727C149.452 60.8933 149.374 61.1975 149.374 61.5912V63.3148H148.879V60.0047H149.362V60.4162Z" fill="#221E1F"/>
<path d="M152.965 61.4668L153.789 61.3416C153.896 61.3237 153.967 61.2819 154.009 61.2163C154.051 61.1507 154.069 61.0434 154.069 60.8943C154.069 60.4887 153.824 60.2799 153.341 60.2799C152.912 60.2799 152.685 60.4887 152.661 60.9121H152.178C152.184 60.602 152.297 60.3575 152.512 60.1785C152.727 59.9996 153.007 59.9102 153.347 59.9102C153.699 59.9102 153.979 59.9817 154.194 60.1249C154.421 60.2859 154.54 60.5066 154.54 60.7988V62.7551C154.54 62.9459 154.606 63.0354 154.737 63.0354C154.773 63.0354 154.82 63.0294 154.874 63.0115V63.3336C154.779 63.3694 154.677 63.3873 154.588 63.3873C154.29 63.3873 154.123 63.2322 154.087 62.9161C153.854 63.2561 153.484 63.4231 152.983 63.4231C152.697 63.4231 152.47 63.3336 152.297 63.1487C152.125 62.9638 152.041 62.7372 152.041 62.4688C152.041 62.2004 152.125 61.9738 152.292 61.8008C152.441 61.6278 152.667 61.5145 152.965 61.4668ZM153.198 61.7889C152.763 61.8485 152.542 62.0692 152.542 62.4628C152.542 62.8207 152.721 62.9996 153.085 62.9996C153.353 62.9996 153.58 62.9161 153.765 62.7432C153.95 62.5702 154.045 62.3555 154.045 62.0871V61.61C153.967 61.6636 153.794 61.7054 153.52 61.7471L153.198 61.7889Z" fill="#221E1F"/>
<path d="M155.489 58.7295H155.984V63.316H155.489V58.7295Z" fill="#221E1F"/>
<path d="M158.691 58.7295H160.343C160.88 58.7295 161.309 58.9442 161.619 59.3736C161.912 59.7792 162.061 60.304 162.061 60.9541C162.061 61.6579 161.924 62.2186 161.649 62.6301C161.351 63.0893 160.916 63.316 160.337 63.316H158.691V58.7295ZM159.18 62.9164H160.236C161.124 62.9164 161.572 62.2663 161.572 60.9601C161.572 59.7494 161.124 59.141 160.23 59.141H159.18V62.9164Z" fill="#221E1F"/>
<path d="M162.581 61.7107C162.581 61.1501 162.718 60.6968 162.999 60.3628C163.267 60.0467 163.607 59.8916 164.024 59.8916C164.382 59.8916 164.686 60.0228 164.937 60.2912C165.187 60.5596 165.325 60.9055 165.342 61.3349C165.354 61.6391 165.36 61.8001 165.36 61.8061H163.112C163.13 62.6292 163.422 63.0407 163.983 63.0407C164.197 63.0407 164.382 62.9811 164.525 62.8558C164.669 62.7306 164.764 62.5695 164.812 62.3608H165.301C165.247 62.665 165.11 62.9214 164.883 63.1182C164.633 63.333 164.323 63.4403 163.941 63.4403C163.553 63.4403 163.237 63.2912 162.987 62.999C162.712 62.6888 162.581 62.2594 162.581 61.7107ZM163.13 61.3886H164.853C164.847 61.0725 164.776 60.8161 164.633 60.6192C164.478 60.4045 164.263 60.2972 163.989 60.2972C163.744 60.2972 163.541 60.3986 163.38 60.6073C163.213 60.8101 163.13 61.0725 163.13 61.3886Z" fill="#221E1F"/>
<path d="M166.196 60.0293V59.4091C166.196 59.1407 166.255 58.9558 166.375 58.8544C166.494 58.747 166.697 58.6934 166.989 58.6934H167.186V59.1109H166.995C166.792 59.1109 166.691 59.2122 166.691 59.421V60.0293H167.186V60.4349H166.685V63.3216H166.202V60.4349H165.79V60.0293H166.196Z" fill="#221E1F"/>
<path d="M167.621 61.7107C167.621 61.1501 167.758 60.6968 168.039 60.3628C168.307 60.0467 168.647 59.8916 169.064 59.8916C169.422 59.8916 169.726 60.0228 169.977 60.2912C170.227 60.5596 170.365 60.9055 170.383 61.3349C170.394 61.6391 170.4 61.8001 170.4 61.8061H168.152C168.17 62.6292 168.462 63.0407 169.023 63.0407C169.237 63.0407 169.422 62.9811 169.565 62.8558C169.709 62.7306 169.804 62.5695 169.852 62.3608H170.341C170.287 62.665 170.15 62.9214 169.923 63.1182C169.673 63.333 169.363 63.4403 168.981 63.4403C168.593 63.4403 168.277 63.2912 168.027 62.999C167.758 62.6888 167.621 62.2594 167.621 61.7107ZM168.17 61.3886H169.893C169.888 61.0725 169.816 60.8161 169.673 60.6192C169.518 60.4045 169.303 60.2972 169.029 60.2972C168.784 60.2972 168.581 60.3986 168.42 60.6073C168.253 60.8101 168.17 61.0725 168.17 61.3886Z" fill="#221E1F"/>
<path d="M171.574 60.4162C171.652 60.2671 171.783 60.1538 171.962 60.0643C172.141 59.9808 172.338 59.9331 172.553 59.9331C173.215 59.9331 173.543 60.3506 173.543 61.1737V63.3088H173.054V61.2214C173.054 60.6309 172.857 60.3387 172.457 60.3387C172.177 60.3387 171.962 60.452 171.813 60.6727C171.664 60.8933 171.586 61.1975 171.586 61.5912V63.3148H171.091V60.0047H171.574V60.4162Z" fill="#221E1F"/>
<path d="M174.205 62.3608H174.676C174.682 62.5755 174.76 62.7485 174.903 62.8797C175.046 63.0109 175.237 63.0705 175.481 63.0705C175.696 63.0705 175.875 63.0169 176.006 62.9095C176.143 62.8021 176.209 62.6471 176.209 62.4383C176.209 62.2833 176.161 62.164 176.066 62.0864C175.988 62.0208 175.827 61.9493 175.583 61.8777L175.183 61.7524C174.587 61.5675 174.289 61.2813 174.289 60.8817C174.289 60.5715 174.39 60.327 174.587 60.154C174.784 59.9811 175.064 59.8916 175.422 59.8916C175.803 59.8916 176.096 59.993 176.31 60.1958C176.495 60.3747 176.591 60.5894 176.585 60.8339H176.12C176.084 60.4582 175.845 60.2733 175.398 60.2733C175.225 60.2733 175.082 60.321 174.963 60.4165C174.843 60.5119 174.784 60.6312 174.784 60.7743C174.784 60.9473 174.825 61.0725 174.921 61.162C174.998 61.2336 175.13 61.2992 175.32 61.3469L175.666 61.4363C175.994 61.5258 176.239 61.6332 176.394 61.7524C176.591 61.9075 176.686 62.1222 176.686 62.4025C176.686 62.7186 176.579 62.9691 176.364 63.154C176.149 63.333 175.845 63.4284 175.458 63.4284C175.064 63.4284 174.76 63.333 174.545 63.1361C174.33 62.9512 174.217 62.6888 174.205 62.3608Z" fill="#221E1F"/>
<path d="M177.229 61.7107C177.229 61.1501 177.366 60.6968 177.646 60.3628C177.914 60.0467 178.254 59.8916 178.666 59.8916C179.024 59.8916 179.328 60.0228 179.578 60.2912C179.829 60.5596 179.966 60.9055 179.984 61.3349C179.996 61.6391 180.002 61.8001 180.002 61.8061H177.753C177.771 62.6292 178.064 63.0407 178.624 63.0407C178.839 63.0407 179.024 62.9811 179.167 62.8558C179.31 62.7306 179.405 62.5695 179.453 62.3608H179.942C179.889 62.665 179.751 62.9214 179.525 63.1182C179.274 63.333 178.964 63.4403 178.582 63.4403C178.195 63.4403 177.879 63.2912 177.628 62.999C177.36 62.6888 177.229 62.2594 177.229 61.7107ZM177.771 61.3886H179.495C179.489 61.0725 179.417 60.8161 179.274 60.6192C179.119 60.4045 178.904 60.2972 178.63 60.2972C178.386 60.2972 178.183 60.3986 178.022 60.6073C177.861 60.8101 177.777 61.0725 177.771 61.3886Z" fill="#221E1F"/>
</g>
<defs>
<clipPath id="clip0_2572_64137">
<rect width="120" height="37.2093" fill="white" transform="translate(60.0005 35.5894)"/>
</clipPath>
</defs>
</svg>
