<svg width="241" height="109" viewBox="0 0 241 109" fill="none" xmlns="http://www.w3.org/2000/svg">
    <rect x="0.974121" y="0.386719" width="240" height="108.387" rx="10" fill=""/>
    <path d="M200.721 45.0928H198.361V63.5625H200.721V45.0928Z" fill="#164194"/>
    <path d="M187.917 45.6401V47.5518H193.841C193.841 47.5518 194.179 56.1843 187.25 58.7531L188.195 60.6549C188.195 60.6549 196.44 58.5042 195.982 45.6501L187.917 45.6401Z" fill="#164194"/>
    <path d="M155.179 48.9261H153.148V45.0928H150.758V54.8105H153.148V50.9174H155.179V48.9261Z" fill="#164194"/>
    <path d="M141.896 63.5626H153.148V55.5972H141.896V63.5626ZM144.196 57.5885H150.858V61.6608H144.226L144.196 57.5885Z" fill="#164194"/>
    <path d="M166.968 54.8105H169.317V45.0928H166.928V48.9261H163.921V50.9174H166.968V54.8105Z" fill="#164194"/>
    <path d="M182.928 48.9261H180.32V50.9174H182.958V57.0807H185.308V45.0928H182.928V48.9261Z" fill="#164194"/>
    <path d="M163.433 55.0591C159.998 55.0591 157.21 57.0504 157.21 59.5595C157.21 62.0686 159.998 64.06 163.433 64.06C166.868 64.06 169.656 62.0686 169.656 59.5595C169.656 57.0504 166.868 55.0591 163.433 55.0591ZM163.433 62.0786C161.302 62.0786 159.57 60.9535 159.57 59.5595C159.57 58.1656 161.302 57.0504 163.433 57.0504C165.564 57.0504 167.306 58.1755 167.306 59.5595C167.306 60.9435 165.564 62.0786 163.433 62.0786Z" fill="#164194"/>
    <path d="M144.017 50.2603C144.724 52.5205 147.841 54.5815 147.841 54.5815L149.066 52.8789C144.814 50.7083 145.083 45.4512 145.083 45.4512H142.892C142.892 45.4512 143.201 50.7083 138.91 52.8789L140.134 54.5815C140.134 54.5815 143.311 52.5205 144.017 50.2603Z" fill="#164194"/>
    <path d="M159.889 50.2603C160.595 52.5205 163.453 54.4023 163.453 54.4023L164.678 52.7096C160.695 50.7183 160.984 45.4512 160.984 45.4512H158.823C158.823 45.4512 159.132 50.7083 155.139 52.7096L156.364 54.4023C156.364 54.4023 159.182 52.5205 159.889 50.2603Z" fill="#164194"/>
    <path d="M176.317 55.6074H174.017V63.5629H175.252H176.317H185.308V61.5914H176.317V55.6074Z" fill="#164194"/>
    <path d="M176.606 50.8773C177.423 53.1872 180.848 55.0292 180.848 55.0292L182.042 53.3963C178.319 51.5742 177.94 49.3439 177.93 47.6115H181.316V45.6201H171.966V47.6115H175.292C175.292 49.3439 174.904 51.5941 171.18 53.3963L172.365 55.0292C172.365 55.0292 175.75 53.1872 176.606 50.8773Z" fill="#164194"/>
    <path d="M131.522 46.7156C132.756 53.7749 113.55 63.0148 88.6282 67.356C63.7064 71.6971 42.5185 69.4867 41.2839 62.4374C40.0492 55.388 59.2657 46.1481 84.1874 41.8069C109.109 37.4658 130.297 39.6662 131.522 46.7156Z" fill="#164194"/>
    <path d="M108.075 57.2002L107.945 49.8721H110.265V59.1119H106.94L104.63 51.5348H104.58L104.709 59.1119H102.409V49.8721H105.874L108.025 57.2002H108.075Z" fill="white"/>
    <path d="M66.0364 50.7383L64.752 59.2115H62.2329L63.9654 49.8721H68.1173L69.8399 59.2115H67.3308L66.0862 50.7383H66.0364Z" fill="white"/>
    <path d="M76.9296 57.0111L78.0846 49.8721H81.8982L82.0973 59.2115H79.7674L79.6977 50.818H79.6479L78.0947 59.2115H75.725L74.1618 50.818H74.112L74.0522 59.2115H71.7124L71.9115 49.8721H75.725L76.88 57.0111H76.9296Z" fill="white"/>
    <path d="M58.3 56.5828C58.3644 56.8073 58.3644 57.0454 58.3 57.2698C58.2545 57.4706 58.1348 57.6468 57.965 57.7632C57.7951 57.8795 57.5876 57.9273 57.384 57.8971C57.2652 57.9114 57.1448 57.9 57.0308 57.8637C56.9168 57.8276 56.812 57.7672 56.7233 57.6871C56.6347 57.6068 56.5642 57.5086 56.5167 57.3988C56.4692 57.289 56.4458 57.1703 56.4481 57.0508V56.1447H53.939V56.8715C53.939 58.9525 55.5818 59.5798 57.3342 59.5798C59.0866 59.5798 60.4108 59.0023 60.6399 57.449C60.7236 56.938 60.7236 56.4168 60.6399 55.9057C60.2416 53.9144 56.6572 53.3767 56.4281 52.2815C56.3987 52.1169 56.3987 51.9483 56.4281 51.7836C56.4668 51.5911 56.5761 51.4199 56.7345 51.3038C56.893 51.1877 57.0892 51.1352 57.2844 51.1564C57.399 51.1461 57.5145 51.1607 57.623 51.1993C57.7314 51.2379 57.8302 51.2995 57.9125 51.38C57.9948 51.4604 58.0588 51.5577 58.0999 51.6653C58.141 51.7728 58.1583 51.8879 58.1507 52.0027V52.5802H60.4805V51.923C60.4805 49.9317 58.6585 49.5732 57.3342 49.5732C55.6714 49.5732 54.3472 50.1209 54.0684 51.6442C53.9842 52.0615 53.9842 52.4915 54.0684 52.9088C54.4965 54.8204 57.8121 55.388 58.3 56.5828Z" fill="white"/>
    <path d="M88.6685 56.5624C88.7429 56.782 88.7429 57.0199 88.6685 57.2395C88.6275 57.4387 88.5118 57.6146 88.3452 57.7312C88.1785 57.8479 87.9736 57.8964 87.7724 57.8667C87.655 57.8811 87.5359 57.8699 87.4231 57.8342C87.3103 57.7985 87.2066 57.739 87.1187 57.6596C87.031 57.5804 86.9612 57.4832 86.9142 57.3746C86.8673 57.266 86.8441 57.1487 86.8464 57.0304V56.1343H84.3672V56.8412C84.3672 58.9022 85.9901 59.5295 87.7326 59.5295C89.475 59.5295 90.7793 58.962 90.9984 57.4187C91.0825 56.9144 91.0825 56.3996 90.9984 55.8953C90.6101 53.9637 87.0953 53.3862 86.8365 52.3009C86.807 52.1396 86.807 51.9743 86.8365 51.813C86.8729 51.6221 86.9806 51.4519 87.1378 51.3373C87.295 51.2227 87.4897 51.1721 87.6828 51.1957C87.7961 51.1854 87.9103 51.1998 88.0175 51.2378C88.1248 51.276 88.2225 51.3369 88.3039 51.4164C88.3853 51.4959 88.4485 51.5921 88.4891 51.6984C88.5297 51.8048 88.5467 51.9186 88.5391 52.0321V52.5996H90.849V51.9524C90.849 49.9611 89.0369 49.6226 87.7326 49.6226C86.0897 49.6226 84.7455 50.1702 84.4966 51.6736C84.4173 52.0881 84.4173 52.5138 84.4966 52.9282C84.9148 54.81 88.2005 55.3875 88.6685 56.5624Z" fill="white"/>
    <path d="M96.5141 57.8176C96.7213 57.8384 96.9287 57.7802 97.0948 57.6547C97.2609 57.5291 97.3735 57.3455 97.4102 57.1405C97.4209 57.0213 97.4209 56.9013 97.4102 56.7821V49.8721H99.7699V56.573C99.7699 56.7422 99.7699 57.0907 99.7699 57.1803C99.6006 58.9228 98.2266 59.4903 96.5041 59.4903C94.7816 59.4903 93.4076 58.9228 93.2483 57.1803C93.2369 56.9781 93.2369 56.7753 93.2483 56.573V49.8721H95.608V56.7821C95.5975 56.9013 95.5975 57.0213 95.608 57.1405C95.6489 57.3453 95.7641 57.5277 95.9313 57.6527C96.0986 57.7776 96.3062 57.8364 96.5141 57.8176Z" fill="white"/>
    <path d="M115.999 57.718C116.22 57.749 116.444 57.6968 116.628 57.5717C116.812 57.4465 116.943 57.2573 116.995 57.041C116.995 56.9315 116.995 56.802 116.995 56.6825V55.3284H115.999V53.9644H119.315V56.4735C119.315 56.6527 119.315 56.7821 119.315 57.0908C119.155 58.7834 117.682 59.3908 116.029 59.3908C114.376 59.3908 112.893 58.7834 112.733 57.0908C112.733 56.7821 112.733 56.6527 112.733 56.4735V52.4908C112.733 52.3215 112.733 52.0327 112.733 51.8734C112.942 50.131 114.356 49.5635 116.019 49.5635C117.682 49.5635 119.126 50.1211 119.295 51.8734C119.307 52.079 119.307 52.2852 119.295 52.4908V52.7994H116.935V52.2817C116.95 52.1627 116.95 52.0422 116.935 51.9232C116.894 51.7147 116.776 51.5293 116.604 51.4039C116.433 51.2784 116.22 51.2222 116.009 51.2462C115.797 51.2242 115.585 51.281 115.412 51.4059C115.239 51.5308 115.119 51.715 115.073 51.9232C115.057 52.0688 115.057 52.2158 115.073 52.3613V56.6328C115.063 56.752 115.063 56.8719 115.073 56.9912C115.108 57.2068 115.222 57.4013 115.394 57.536C115.565 57.6709 115.782 57.7358 115.999 57.718Z" fill="white"/>
</svg>
