<svg width="240" height="109" viewBox="0 0 240 109" fill="none" xmlns="http://www.w3.org/2000/svg">
<rect width="240" height="108.387" rx="10" fill=""/>
<g clip-path="url(#clip0_4780_86259)">
<path d="M110.525 50.5645H105.757V50.6904C105.727 51.2567 105.592 51.8125 105.36 52.33C105.36 52.33 101.122 63.1565 100.959 63.5729C100.787 63.1617 95.9747 51.8702 95.9747 51.8702L95.8934 51.6905C95.7291 51.3814 95.63 51.0419 95.6022 50.693V50.5946L95.509 50.5677H90.3352V50.8091L90.3948 50.8379C91.3786 51.1973 91.5229 52.5051 91.5229 53.2573L91.5183 64.5777C91.5183 65.8893 91.3786 67.3571 90.3181 68.289L90.2866 68.3231V68.5389H94.8775V68.2989L94.8204 68.2733C93.817 67.8234 93.7324 66.6888 93.7324 65.6054V65.2774V64.9561C93.7324 64.9561 93.7409 54.6719 93.7409 53.8069C94.0747 54.6103 98.6872 65.564 98.6872 65.564C99.3608 67.1203 99.7608 67.8555 101.095 68.8675L101.195 68.9429L107.108 53.8141C107.108 54.7408 107.104 66.3307 107.104 66.3307C107.104 67.1676 106.976 67.9808 106.064 68.272L105.998 68.2903V68.5376H111.159V68.3094L111.121 68.2792C110.68 67.9919 110.324 67.5929 110.089 67.1228C109.854 66.6528 109.748 66.1286 109.781 65.6041V52.3365C109.781 52.0381 109.84 51.0445 110.553 50.836L110.618 50.8117V50.5664H110.522" fill="#1B1617"/>
<path d="M114.256 60.2654C114.255 58.4704 114.791 56.7161 115.797 55.2294C116.803 53.7426 118.232 52.5919 119.899 51.9259C121.566 51.2599 123.394 51.1093 125.147 51.4936C126.901 51.8779 128.499 52.7794 129.734 54.0815C128.702 52.5028 127.249 51.2452 125.538 50.4516C123.827 49.658 121.928 49.3602 120.056 49.5921C118.184 49.824 116.415 50.5763 114.95 51.7635C113.485 52.9506 112.382 54.5251 111.766 56.3078C111.151 58.0906 111.048 60.0102 111.47 61.8485C111.891 63.6868 112.819 65.37 114.15 66.7069C115.48 68.0438 117.159 68.9807 118.995 69.4112C120.831 69.8417 122.751 69.7484 124.537 69.1421C124.107 69.2092 123.673 69.2445 123.237 69.2477C122.057 69.2482 120.889 69.0161 119.799 68.5648C118.708 68.1134 117.717 67.4516 116.883 66.6172C116.049 65.7828 115.387 64.7921 114.935 63.7017C114.484 62.6114 114.252 61.4428 114.253 60.2627" fill="#D51F1E"/>
<path d="M123.854 52.387C122.382 52.2525 120.901 52.537 119.584 53.2079C118.266 53.8787 117.165 54.9086 116.408 56.1784C117.174 55.289 118.156 54.6115 119.259 54.2112C120.363 53.8108 121.551 53.7011 122.709 53.8924C123.867 54.0837 124.956 54.5697 125.872 55.3037C126.788 56.0376 127.5 56.9949 127.94 58.0835C128.379 59.172 128.531 60.3552 128.381 61.5195C128.231 62.6837 127.784 63.7897 127.083 64.7313C126.382 65.6728 125.45 66.4183 124.378 66.8959C123.306 67.3736 122.129 67.5674 120.96 67.4588C120.45 67.4126 119.946 67.3067 119.461 67.1433C120.488 67.6887 121.623 67.9993 122.784 68.0525C123.946 68.1058 125.105 67.9004 126.177 67.4512C127.25 67.0021 128.209 66.3204 128.986 65.4553C129.763 64.5902 130.339 63.5634 130.67 62.449C131.002 61.3345 131.082 60.1603 130.905 59.0111C130.728 57.8619 130.298 56.7664 129.646 55.8037C128.994 54.841 128.136 54.0351 127.134 53.4442C126.133 52.8534 125.013 52.4923 123.855 52.387" fill="#D51F1E"/>
<path d="M140.724 58.0705C142.42 57.2625 143.257 56.1194 143.257 54.5775C143.257 52.0696 141.108 50.5645 137.517 50.5645H131.024V50.8071L131.084 50.834C132.256 51.2668 132.23 52.8723 132.216 54.0476L132.21 54.447V64.6269L132.216 64.9968C132.23 66.1976 132.246 67.8293 131.082 68.2713L131.024 68.2943V68.5369H136.023C137.929 68.5455 139.893 68.5455 141.664 67.6844C142.608 67.2715 143.418 66.6014 144 65.7504C144.583 64.8995 144.914 63.902 144.957 62.8718C144.957 60.5233 143.341 58.7119 140.727 58.0698L140.724 58.0705ZM135.157 52.6126C135.31 52.5943 136.881 52.4283 136.881 52.4283C137.319 52.3798 137.762 52.4209 138.183 52.5492C138.605 52.6776 138.996 52.8904 139.332 53.1747C139.587 53.4077 139.789 53.6923 139.926 54.0096C140.062 54.3269 140.129 54.6696 140.123 55.0149C140.123 57.5943 136.647 57.7242 135.951 57.7242H135.157V52.6126ZM140.806 65.467C140.337 65.8475 139.795 66.1266 139.213 66.2868C138.631 66.447 138.022 66.4847 137.424 66.3976C137.424 66.3976 135.557 66.2291 135.158 66.195V59.6924C135.325 59.6865 136.957 59.5927 136.957 59.5927C137.643 59.5269 138.335 59.5973 138.994 59.7999C139.652 60.0025 140.265 60.3333 140.795 60.7732C141.116 61.0722 141.369 61.4358 141.539 61.8401C141.709 62.2444 141.79 62.6802 141.779 63.1184C141.797 63.5574 141.719 63.9949 141.55 64.4006C141.382 64.8063 141.127 65.1704 140.803 65.4676L140.806 65.467Z" fill="#1B1617"/>
<path d="M150.77 50.5645H145.54V50.8058L145.605 50.8347C146.774 51.2675 146.752 52.8848 146.734 54.064V54.4726V64.6603V65.0171C146.75 66.2146 146.769 67.8549 145.605 68.272L145.54 68.2949V68.5376H150.863V68.2949L150.797 68.272C149.638 67.8293 149.657 66.2061 149.668 65.0171L149.672 64.6603V54.4719L149.668 54.1151C149.657 52.913 149.638 51.276 150.797 50.8301L150.863 50.8058V50.5645H150.771" fill="#1B1617"/>
<path d="M151.958 54.9313C151.958 58.0748 154.738 59.3156 157.193 60.4161C159.276 61.35 161.249 62.2347 161.249 64.115C161.249 65.8857 159.063 66.8288 157.484 66.8288C155.335 66.7939 153.264 66.0105 151.63 64.6134L151.409 64.4206L152.268 68.1307L152.317 68.1477C153.879 68.7067 155.527 68.9841 157.186 68.9669C161.23 68.9669 164.517 66.413 164.517 63.2781C164.517 60.5302 161.744 59.2598 159.294 58.1416C157.202 57.1881 155.228 56.283 155.228 54.6316C155.228 52.8871 157.051 52.2706 158.619 52.2706C160.173 52.2734 161.666 52.8711 162.793 53.941L162.95 54.1122V50.753L162.884 50.7301C161.571 50.3283 160.205 50.1266 158.832 50.1319C155.658 50.1319 151.958 51.3852 151.958 54.93" fill="#1B1617"/>
<path d="M80.1267 41.807H76.4396V38.7246H74.7095V46.6209H76.4396V43.3489H80.1267V46.6209H81.8554V38.7246H80.1267V41.807Z" fill="#00336A"/>
<path d="M117.71 39.1726C117.432 39.5184 117.294 39.9561 117.323 40.399V46.6189H119.051V44.0979H122.724V46.6189H124.455V38.7194H119.064C118.819 38.6985 118.572 38.7281 118.339 38.8061C118.106 38.8842 117.891 39.0091 117.708 39.1732L117.71 39.1726ZM119.489 40.2639H122.724V42.5593H119.051V40.7138C119.04 40.5934 119.062 40.4722 119.117 40.3642C119.199 40.2612 119.329 40.2685 119.491 40.2639H119.489Z" fill="#00336A"/>
<path d="M105.468 38.7198H100.063V46.62H101.795V40.2649H105.04C105.203 40.2695 105.332 40.2649 105.414 40.3646C105.469 40.4722 105.492 40.5937 105.479 40.7142V46.6167H107.209V40.3968C107.241 39.9538 107.103 39.5155 106.824 39.1703C106.641 39.0061 106.426 38.8811 106.193 38.8031C105.959 38.725 105.713 38.6956 105.468 38.7165" fill="#00336A"/>
<path d="M96.8028 44.6236C96.8163 44.7451 96.7935 44.8679 96.7372 44.9764C96.6545 45.0807 96.5227 45.0708 96.3601 45.0748H93.117V38.7197H91.3882V46.6199H96.7942C97.0269 46.6613 97.266 46.647 97.492 46.578C97.718 46.509 97.9244 46.3874 98.0943 46.2231C98.2641 46.0588 98.3925 45.8566 98.469 45.633C98.5455 45.4095 98.5678 45.1709 98.5342 44.937V38.7204H96.8054V44.6229" fill="#00336A"/>
<path d="M115.885 40.4022C115.917 39.9586 115.78 39.5192 115.5 39.1732C115.318 39.0091 115.104 38.8842 114.871 38.8062C114.639 38.7281 114.393 38.6986 114.149 38.7193H108.741V46.6195H114.149C114.393 46.6412 114.639 46.6122 114.872 46.5344C115.104 46.4565 115.318 46.3314 115.5 46.167C115.78 45.8204 115.917 45.3807 115.885 44.9367V40.4029V40.4022ZM114.162 44.6238C114.172 44.7452 114.15 44.8672 114.096 44.9767C114.012 45.0809 113.88 45.0711 113.718 45.075H110.476V40.2645H113.722C113.885 40.2704 114.016 40.2645 114.101 40.3642C114.154 40.4737 114.177 40.5956 114.166 40.717L114.162 44.6238Z" fill="#00336A"/>
<path d="M86.6235 42.1796L84.5248 38.7246H82.4707L85.6974 43.7011V46.6202H87.5482V43.7011L90.7795 38.7246H88.7228L86.6241 42.1796" fill="#00336A"/>
<path d="M128.038 38.7197H126.193V46.6199H128.038V38.7197Z" fill="#00336A"/>
</g>
<defs>
<clipPath id="clip0_4780_86259">
<rect width="99.871" height="30.9677" fill="white" transform="translate(70.0645 38.71)"/>
</clipPath>
</defs>
</svg>
