<svg width="240" height="109" viewBox="0 0 240 109" fill="none" xmlns="http://www.w3.org/2000/svg">
<rect width="240" height="108.387" rx="10" fill=""/>
<g clip-path="url(#clip0_2572_64392)">
<path fill-rule="evenodd" clip-rule="evenodd" d="M121.64 44.0071C121.64 43.2516 121.031 42.6792 120.239 42.6792C119.451 42.6792 118.847 43.2516 118.847 44.0071V48.0916H117.267V43.9339C117.267 43.215 116.622 42.606 115.871 42.606C115.078 42.606 114.469 43.215 114.469 43.9339V53.7192H114.364C114.364 53.7192 107.125 53.7192 106.767 53.7192C106.374 53.7192 106.374 53.2888 106.374 53.2888V46.3287H113.041V44.0071H103.434C103.434 44.0071 103.393 49.7767 103.434 52.8263C103.434 55.9813 106.479 56.0545 106.479 56.0545H114.474V57.1993H117.272V50.4223H118.852V57.2726H121.645V44.0071H121.64Z" fill="#164194"/>
<path fill-rule="evenodd" clip-rule="evenodd" d="M143.473 50.3128H142.328C142.328 49.5252 142.328 47.483 142.328 45.5873C142.328 43.1467 139.677 43.3664 139.677 43.3664H125.519V45.656C125.519 45.656 138.958 45.6239 139.352 45.656C139.782 45.6972 139.782 46.0955 139.782 46.0955V50.3174H125.015V52.6481H132.868V57.1997H135.698V52.6481H143.478V50.3128H143.473Z" fill="#164194"/>
<path fill-rule="evenodd" clip-rule="evenodd" d="M150.749 53.2895V52.6072H165.269V50.3818H146.88V52.6072H147.956C147.956 52.7492 147.956 53.1796 147.956 54.2191C147.956 56.4078 150.644 56.623 150.644 56.623H151.935H152.26H164.807V54.2603H152.155C152.155 54.2603 152.081 54.2603 151.939 54.2603C151.798 54.2603 151.619 54.2603 151.367 54.2603C150.795 54.2603 150.758 53.7566 150.758 53.7566V53.7199V53.2895H150.749Z" fill="#164194"/>
<path fill-rule="evenodd" clip-rule="evenodd" d="M156.234 42.3912C152.223 42.3912 150.213 44.0442 150.213 46.1185C150.213 48.1608 152.182 49.8459 156.234 49.8092C160.176 49.8092 162.255 48.1608 162.255 46.1185C162.255 44.0442 160.067 42.3546 156.234 42.3912ZM156.234 47.5151C154.013 47.5884 152.937 46.9061 152.937 46.1185C152.937 45.3309 153.976 44.6807 156.234 44.6807C158.459 44.6487 159.535 45.3309 159.535 46.1185C159.531 46.9061 158.418 47.4785 156.234 47.5151Z" fill="#164194"/>
<path fill-rule="evenodd" clip-rule="evenodd" d="M184.478 53.1059V43.6136C184.478 42.8947 183.869 42.2856 183.082 42.2856C182.326 42.2856 181.681 42.8947 181.681 43.6136V43.6822H180.284V43.6456C180.284 42.9267 179.638 42.3177 178.887 42.3177C178.095 42.3177 177.486 42.9267 177.486 43.6456V43.6777H173.58V43.6136C173.58 42.8947 172.971 42.2856 172.184 42.2856C171.433 42.2856 170.787 42.8947 170.787 43.6136V43.6822H166.771V45.9763H167.957C167.742 46.3335 167.6 46.7685 167.6 47.231C167.6 48.9893 169.285 50.4592 172.188 50.4226C175.055 50.4226 176.777 48.9893 176.777 47.231C176.777 46.7685 176.671 46.3335 176.419 45.9763H177.491V49.8136C174.162 50.102 172.472 51.604 172.472 53.4722C172.472 55.5511 174.446 57.2316 178.498 57.1949C182.441 57.1949 184.52 55.5511 184.52 53.4722C184.515 53.3577 184.515 53.2158 184.478 53.1059ZM172.184 48.449C171.002 48.449 170.357 47.9087 170.357 47.2264C170.357 46.5441 170.824 46.013 172.184 46.013C173.654 46.013 174.011 46.5487 174.011 47.2264C174.015 47.9133 173.406 48.449 172.184 48.449ZM180.284 45.9763H181.681V50.244C181.25 50.102 180.788 49.9555 180.284 49.8868V45.9763ZM178.498 54.9008C176.273 54.9695 175.197 54.2918 175.197 53.4997C175.197 52.7121 176.236 52.071 178.498 52.071C180.714 52.0344 181.832 52.7167 181.832 53.4997C181.827 54.2964 180.682 54.8642 178.498 54.9008Z" fill="#164194"/>
<path fill-rule="evenodd" clip-rule="evenodd" d="M115.275 65.8957H114.598L113.311 61.9761H114.035L114.937 64.9021L115.88 61.9761H116.64L117.588 64.9112L118.499 61.9761H119.25L117.918 65.8957H117.235L116.223 62.9606L115.275 65.8957Z" fill="black"/>
<path fill-rule="evenodd" clip-rule="evenodd" d="M122.437 65.8957H121.76L120.478 61.9761H121.206L122.103 64.9021L123.046 61.9761H123.806L124.754 64.9112L125.666 61.9761H126.412L125.084 65.8957H124.406L123.39 62.9606L122.437 65.8957Z" fill="black"/>
<path fill-rule="evenodd" clip-rule="evenodd" d="M129.255 65.8957H128.577L127.295 61.9761H128.019L128.921 64.9021L129.864 61.9761H130.624L131.572 64.9112L132.483 61.9761H133.234L131.897 65.8957H131.219L130.203 62.9606L129.255 65.8957Z" fill="black"/>
<path d="M135.437 64.9292H134.581V65.7031H135.437V64.9292Z" fill="black"/>
<path fill-rule="evenodd" clip-rule="evenodd" d="M140.785 65.7808H140.025V65.3824C139.897 65.5564 139.727 65.6847 139.516 65.7671C139.301 65.8587 139.031 65.9044 138.701 65.9044C138.019 65.9044 137.529 65.6892 137.232 65.2542C136.993 64.9108 136.874 64.43 136.874 63.8164C136.874 63.2532 137.039 62.7953 137.374 62.4427C137.712 62.0947 138.157 61.9207 138.701 61.9207C139.04 61.9207 139.329 61.9756 139.558 62.0855C139.69 62.1405 139.819 62.2367 139.956 62.3649L140.025 62.4198V60.7622H140.785V65.7808ZM137.886 64.9749C138.088 65.2588 138.404 65.3962 138.825 65.3962C139.155 65.3962 139.434 65.2817 139.645 65.0573C139.897 64.8101 140.02 64.4483 140.02 63.9813C140.02 63.4776 139.91 63.0929 139.686 62.8228C139.462 62.5526 139.136 62.4152 138.706 62.4152C138.298 62.4152 138.01 62.5618 137.831 62.8594C137.689 63.1067 137.616 63.4501 137.616 63.8988C137.621 64.3705 137.708 64.7322 137.886 64.9749Z" fill="black"/>
<path fill-rule="evenodd" clip-rule="evenodd" d="M146.184 65.1579C146.179 65.6158 146.079 65.9546 145.882 66.1836C145.561 66.5316 144.975 66.7056 144.128 66.7056C143.739 66.7056 143.395 66.6506 143.111 66.5361C142.727 66.3942 142.502 66.1744 142.429 65.863H143.171C143.212 65.9775 143.336 66.0737 143.542 66.1332C143.698 66.1881 143.894 66.211 144.119 66.211C144.687 66.211 145.062 66.1057 145.25 65.8997C145.373 65.7714 145.433 65.5333 145.433 65.1945V65.1304C145.332 65.2449 145.163 65.3502 144.916 65.4463C144.645 65.5425 144.384 65.5974 144.123 65.5974C143.464 65.5974 142.983 65.3822 142.676 64.9472C142.438 64.6221 142.324 64.2054 142.324 63.7063C142.324 63.1797 142.484 62.7447 142.809 62.4013C143.144 62.0441 143.588 61.8701 144.128 61.8701C144.476 61.8701 144.778 61.9296 145.03 62.0533C145.195 62.1403 145.328 62.241 145.428 62.3692V62.0075H146.179V65.1579H146.184ZM143.308 64.6587C143.487 64.9426 143.757 65.0846 144.123 65.0846C144.481 65.0846 144.774 64.993 145.007 64.8053C145.291 64.5763 145.433 64.2421 145.433 63.8025C145.433 63.3537 145.364 63.0195 145.222 62.7951C145.035 62.4974 144.696 62.3509 144.21 62.3509C143.757 62.3509 143.441 62.5112 143.263 62.8317C143.143 63.0332 143.089 63.3308 143.089 63.7155C143.093 64.1093 143.166 64.4252 143.308 64.6587Z" fill="black"/>
<path fill-rule="evenodd" clip-rule="evenodd" d="M148.378 65.7717V60.7622H149.138V62.4152C149.298 62.2458 149.472 62.1176 149.674 62.0352C149.898 61.9528 150.15 61.907 150.434 61.907C150.937 61.907 151.349 62.0672 151.675 62.3786C152.041 62.7312 152.224 63.244 152.224 63.9034C152.224 64.4987 152.073 64.9703 151.771 65.3229C151.446 65.703 150.992 65.8953 150.402 65.8953C150.077 65.8953 149.797 65.8403 149.573 65.7213C149.426 65.6526 149.284 65.5427 149.138 65.3916V65.7762H148.378V65.7717ZM149.417 62.8502C149.229 63.1158 149.133 63.473 149.133 63.9034C149.133 64.311 149.229 64.6498 149.417 64.9245C149.637 65.2359 149.925 65.3916 150.296 65.3916C150.658 65.3916 150.947 65.2359 151.162 64.9245C151.354 64.6452 151.459 64.3018 151.459 63.9034C151.459 63.4776 151.359 63.125 151.162 62.8502C150.947 62.5572 150.658 62.4152 150.296 62.4152C149.921 62.4152 149.628 62.5572 149.417 62.8502Z" fill="black"/>
<path d="M154.147 64.9292H153.295V65.7031H154.147V64.9292Z" fill="black"/>
<path fill-rule="evenodd" clip-rule="evenodd" d="M158.272 63.2576C158.23 62.9828 158.13 62.7722 157.965 62.6211C157.773 62.4379 157.502 62.3509 157.136 62.3509C156.715 62.3509 156.399 62.4791 156.197 62.7264C156.014 62.9553 155.923 63.2988 155.923 63.7475C155.923 64.2466 156.005 64.6267 156.175 64.8969C156.376 65.2311 156.724 65.396 157.209 65.396C157.521 65.396 157.773 65.3044 157.965 65.1258C158.143 64.961 158.249 64.732 158.272 64.4389H159.032C158.986 64.8511 158.839 65.1808 158.588 65.4234C158.267 65.7348 157.791 65.8951 157.164 65.8951C156.504 65.8951 156.001 65.689 155.643 65.2769C155.323 64.9152 155.158 64.4344 155.158 63.8483C155.158 63.2392 155.327 62.7676 155.662 62.4196C156.019 62.0533 156.541 61.8701 157.241 61.8701C157.773 61.8701 158.194 61.9983 158.514 62.2548C158.821 62.5066 158.991 62.8409 159.018 63.253H158.272V63.2576Z" fill="black"/>
<path fill-rule="evenodd" clip-rule="evenodd" d="M160.548 62.4333C160.919 62.0533 161.432 61.8701 162.082 61.8701C162.765 61.8701 163.287 62.0441 163.644 62.3921C163.987 62.7356 164.157 63.2255 164.157 63.862C164.157 64.4618 163.996 64.9381 163.68 65.2906C163.323 65.6936 162.797 65.8951 162.082 65.8951C161.409 65.8951 160.887 65.6844 160.516 65.2678C160.191 64.9014 160.026 64.4298 160.026 63.862C160.026 63.2667 160.2 62.7951 160.548 62.4333ZM161.07 64.9381C161.281 65.2449 161.611 65.3914 162.064 65.3914C162.554 65.3914 162.911 65.2311 163.131 64.9243C163.31 64.6679 163.406 64.3016 163.406 63.8208C163.406 63.3904 163.31 63.0515 163.131 62.7997C162.907 62.502 162.549 62.3463 162.064 62.3463C161.597 62.3463 161.258 62.4974 161.047 62.7997C160.873 63.0515 160.786 63.3995 160.786 63.8345C160.786 64.3062 160.883 64.6725 161.07 64.9381Z" fill="black"/>
<path d="M165.928 64.9292H165.076V65.7031H165.928V64.9292Z" fill="black"/>
<path fill-rule="evenodd" clip-rule="evenodd" d="M171.562 65.7808H170.609L169.08 63.8485L168.393 64.4117V65.7808H167.628V60.7622H168.393V63.6012L170.408 61.9802H171.433L169.675 63.3951L171.562 65.7808Z" fill="black"/>
<path fill-rule="evenodd" clip-rule="evenodd" d="M173.429 62.0077V62.4748C173.566 62.3008 173.74 62.168 173.951 62.0856C174.212 61.9802 174.564 61.9253 174.99 61.9253V62.4519C174.45 62.4519 174.052 62.5526 173.786 62.7495C173.562 62.9144 173.452 63.1158 173.452 63.3723V65.7763H172.687V62.0077H173.429Z" fill="black"/>
<path d="M96.7994 51.5493C97.0741 52.4102 97.2069 53.2802 97.2069 54.1914C97.2069 61.5362 87.8657 67.4889 76.3449 67.4889C73.0388 67.4889 69.9114 66.9944 67.1365 66.1243C69.0368 64.2836 71.2118 62.6626 77.0958 61.9803C83.0394 61.2935 97.1886 60.6066 96.7994 51.5493Z" fill="url(#paint0_radial_2572_64392)"/>
<path d="M87.3617 50.1432C87.3617 48.9847 86.423 48.394 84.5227 48.394C84.1885 48.394 83.7992 48.4124 83.3917 48.4444C83.2543 48.9847 83.2131 50.1432 83.2131 51.9428V52.1031V52.5197H83.7443C86.1712 52.5243 87.3617 51.6085 87.3617 50.1432Z" fill="#164194"/>
<path d="M63.3212 48.3208C62.7397 48.3208 62.2039 48.3757 61.6773 48.4994C61.5766 49.0763 61.5446 50.2852 61.5446 52.1077V54.6627C61.5446 56.2562 61.5766 57.2453 61.627 57.6162C61.7094 58.2069 62.1444 58.3489 63.5593 58.3489C66.2838 58.3489 67.8132 56.5264 67.8132 53.431C67.8132 50.1799 66.2014 48.3208 63.3212 48.3208Z" fill="#164194"/>
<path d="M94.079 49.8825C93.992 47.7807 92.4809 45.6973 90.8737 44.6487C87.1143 42.3271 81.9904 40.8984 76.3444 40.8984C64.819 40.8984 55.4824 46.8557 55.4824 54.1913C55.4824 59.4206 60.2126 63.9447 67.0948 66.1197C68.7387 63.0655 72.9285 61.591 79.8566 60.341C81.7019 60.0067 83.561 59.6221 85.301 59.1001C85.2369 59.1001 85.1728 59.1046 85.1133 59.1046C84.115 59.1046 83.1947 58.9993 82.375 58.9993H81.0471C81.5142 58.5689 81.5325 56.8838 81.5325 53.8754V53.1519C81.5325 50.0061 81.5325 48.234 81.0471 47.7807H82.691C83.941 47.7807 85.1178 47.6571 86.2306 47.6571C88.1904 47.6571 89.2481 48.463 89.2481 49.7726C89.2481 51.0318 88.2316 52.0117 86.2168 52.6253C88.5796 52.8726 89.8755 53.9899 89.8755 55.652C89.8755 56.3801 89.6373 57.0349 89.184 57.5844C92.2016 56.0046 94.2347 53.6419 94.079 49.8825ZM63.688 59.0863C62.5753 59.0863 61.6229 58.9993 60.8261 58.9993H59.6951C60.0935 58.5689 60.1118 56.8838 60.1118 53.8754V53.1519C60.1118 50.0061 60.1118 48.234 59.6951 47.7807H60.9131C62.296 47.7807 63.5049 47.5701 64.6038 47.5701C67.713 47.5701 69.508 49.6352 69.508 52.8726C69.508 56.6732 67.2917 59.0863 63.688 59.0863ZM79.5818 56.5633C79.5818 57.6164 79.6001 58.404 79.7696 58.9077C77.9883 59.0222 76.7245 59.2099 75.9781 59.2099C72.3012 59.2099 70.323 57.2181 70.323 53.6968C70.323 49.9649 72.8003 47.5701 76.9718 47.5701C77.6998 47.5701 78.5836 47.6342 79.5818 47.7807L79.5635 49.8321C78.7484 48.8705 77.6678 48.3806 76.3353 48.3806C73.7115 48.3806 72.0493 50.2992 72.0493 53.4175C72.0493 56.5679 73.858 58.3537 76.784 58.3537C77.219 58.3537 77.6174 58.317 78.0158 58.2117C78.1165 57.5661 78.1486 56.8838 78.1486 56.1466C78.1486 54.695 78.0524 53.7655 77.7319 53.3625H79.9619C79.6139 53.8891 79.5818 54.9377 79.5818 56.5633Z" fill="#164194"/>
<path d="M83.2131 55.3271C83.2131 56.884 83.3093 57.8135 83.3734 58.0013C83.4696 58.2852 84.019 58.4592 84.9394 58.4592C86.7756 58.4592 87.8517 57.4793 87.8517 55.7988C87.8517 54.1686 86.6795 53.1704 84.4495 53.1704H83.2131V55.3271Z" fill="#164194"/>
</g>
<defs>
<radialGradient id="paint0_radial_2572_64392" cx="0" cy="0" r="1" gradientUnits="userSpaceOnUse" gradientTransform="translate(67.1169 69.9553) scale(23.1419 28.7264)">
<stop offset="0.005618" stop-color="#164194"/>
<stop offset="0.1122" stop-color="#104496"/>
<stop offset="0.2284" stop-color="#004B9B"/>
<stop offset="0.3488" stop-color="#0056A4"/>
<stop offset="0.4213" stop-color="#005FAB"/>
<stop offset="0.487" stop-color="#0066A8"/>
<stop offset="0.6236" stop-color="#007798"/>
<stop offset="0.8172" stop-color="#219070"/>
<stop offset="1" stop-color="#4FA730"/>
</radialGradient>
<clipPath id="clip0_2572_64392">
<rect width="129.032" height="26.5904" fill="white" transform="translate(55.4824 40.8984)"/>
</clipPath>
</defs>
</svg>
