<svg width="240" height="109" viewBox="0 0 240 109" fill="none" xmlns="http://www.w3.org/2000/svg">
<rect y="0.386719" width="240" height="108.387" rx="10" fill=""/>
<g clip-path="url(#clip0_2572_64818)">
<path d="M94.0349 49.9052C94.0318 48.0848 93.5972 46.2912 92.7668 44.6712C91.9364 43.0513 90.7338 41.6513 89.2578 40.586C87.7817 39.5207 86.0741 38.8204 84.2751 38.5426C82.4761 38.2648 80.6368 38.4174 78.9082 38.9879C77.1795 39.5583 75.6107 40.5304 74.3303 41.8244C73.05 43.1184 72.0946 44.6974 71.5425 46.432C70.9904 48.1666 70.8573 50.0074 71.1542 51.8034C71.451 53.5994 72.1694 55.2994 73.2503 56.7641C73.496 57.0951 73.7597 57.4125 74.0401 57.7147C74.9408 58.8897 76.0132 60.6079 76.0132 62.0767C76.0392 62.8932 76.3833 63.6672 76.9719 64.2336C77.5606 64.8 78.3473 65.1139 79.1642 65.1085H85.8957C86.7059 65.1053 87.4833 64.7883 88.0647 64.224C88.6461 63.6597 88.9861 62.892 89.0133 62.0822C89.0133 60.6134 90.0803 58.8952 90.9837 57.7202C91.2641 57.418 91.5278 57.1007 91.7736 56.7697C93.2488 54.7857 94.0421 52.3775 94.0349 49.9052ZM82.5175 51.4266C79.3748 51.4266 77.834 55.4588 74.5833 54.051C71.9311 52.9037 71.9921 48.8493 73.835 46.8457C76.5897 43.8416 82.4897 44.055 82.5175 44.0578C84.1119 44.0333 85.7021 44.2301 87.2425 44.6425L84.0278 51.7509C83.5512 51.5426 83.0375 51.4324 82.5175 51.4266ZM86.7464 53.4718C86.3779 53.2252 86.0148 52.9536 85.6379 52.6903L88.9912 45.2827C89.396 45.4653 89.7845 45.6823 90.1523 45.9312L86.7464 53.4718ZM90.4544 54.051C89.8218 54.3455 89.1095 54.4225 88.4286 54.27L91.5768 47.3168C93.0373 49.4313 92.9098 52.9896 90.4544 54.051Z" fill="#E60012"/>
<path d="M82.5173 71.3574C84.1801 71.3574 85.5657 70.5814 85.9786 69.5283H79.0504C79.4661 70.5953 80.8601 71.3574 82.5173 71.3574Z" fill="#E60012"/>
<path d="M86.7383 66.3555H78.297C78.0397 66.3555 77.793 66.4577 77.6111 66.6396C77.4292 66.8215 77.327 67.0682 77.327 67.3254C77.327 67.5827 77.4292 67.8294 77.6111 68.0113C77.793 68.1932 78.0397 68.2954 78.297 68.2954H86.7383C86.9956 68.2954 87.2423 68.1932 87.4242 68.0113C87.6061 67.8294 87.7083 67.5827 87.7083 67.3254C87.7083 67.0682 87.6061 66.8215 87.4242 66.6396C87.2423 66.4577 86.9956 66.3555 86.7383 66.3555Z" fill="#E60012"/>
<path d="M104.488 57.9192H107.154C106.154 54.7599 104.954 50.9688 103.931 47.8179H100.528L97.3328 57.9192H99.9877L102.246 50.6252L104.488 57.9192Z" fill="#E60012"/>
<path d="M168.624 54.8181V47.8179H152.623V50.1374H166.083V52.4986H152.623V59.5099H159.396V61.9099H152.623V64.2211H168.624V61.9016H161.848V59.5099H168.624V57.1821H155.25V54.8181H168.624Z" fill="#E60012"/>
<path d="M148.106 54.8597H146.34V47.8179H143.885V64.2211H146.34V57.1821H148.106V64.2211H150.622V47.8179H148.106V54.8597Z" fill="#E60012"/>
<path d="M137.045 50.1374H142.546V47.8179H134.59V64.2211H142.565V61.9016H137.045V50.1374Z" fill="#E60012"/>
<path d="M126.947 47.8179H116.854V50.1374H124.059C124.059 51.5065 121.241 55.68 116.854 55.68V57.9996C122.258 58.0024 126.947 53.4131 126.947 47.8179Z" fill="#E60012"/>
<path d="M116.854 61.4866H129V64.2218H131.453V59.167H116.854V61.4866Z" fill="#E60012"/>
<path d="M133.204 51.7089H131.434V47.8291H128.981V57.8917H131.434V54.0396H133.204V51.7089Z" fill="#E60012"/>
<path d="M112.328 47.8179V51.6977H110.56V47.8179H108.108V57.9192H110.56V54.0394H112.328V57.9192H114.842V47.8179H112.328Z" fill="#E60012"/>
<path d="M110.183 59.0367C109.272 59.0443 108.383 59.3215 107.629 59.8332C106.874 60.345 106.288 61.0685 105.944 61.9127C105.6 62.7568 105.513 63.6839 105.695 64.5771C105.877 65.4704 106.319 66.29 106.965 66.9326C107.612 67.5753 108.434 68.0123 109.328 68.1887C110.223 68.3651 111.149 68.2729 111.991 67.9238C112.833 67.5748 113.553 66.9844 114.061 66.227C114.568 65.4696 114.84 64.579 114.842 63.6675C114.841 63.0573 114.719 62.4534 114.485 61.8902C114.25 61.3271 113.906 60.8158 113.473 60.3856C113.041 59.9555 112.527 59.6149 111.963 59.3834C111.398 59.1519 110.793 59.0341 110.183 59.0367ZM110.183 65.8679C109.745 65.8679 109.316 65.7379 108.952 65.4942C108.587 65.2506 108.303 64.9044 108.135 64.4993C107.967 64.0942 107.923 63.6484 108.009 63.2183C108.094 62.7883 108.306 62.3932 108.616 62.0832C108.926 61.7731 109.321 61.562 109.751 61.4764C110.181 61.3909 110.627 61.4348 111.032 61.6026C111.437 61.7704 111.783 62.0546 112.027 62.4191C112.27 62.7837 112.4 63.2124 112.4 63.6509C112.4 64.2389 112.167 64.8028 111.751 65.2185C111.335 65.6343 110.771 65.8679 110.183 65.8679Z" fill="#E60012"/>
</g>
<defs>
<clipPath id="clip0_2572_64818">
<rect width="97.6241" height="32.97" fill="white" transform="translate(71 38.3877)"/>
</clipPath>
</defs>
</svg>
