<svg width="200" height="91" viewBox="0 0 200 91" fill="none" xmlns="http://www.w3.org/2000/svg">
<path d="M123.464 38.3208H121.327V46.0722H122.562C123.133 46.0722 123.467 45.6834 123.467 45.1777V42.8041H125.454V40.8983H123.467V38.3208H123.464ZM126.33 47.6137H140.759V45.9389H126.33V47.6137ZM130.974 51.2569V48.7828H128.627V51.7191C128.627 52.5402 129.157 53.2172 130.503 53.2172H139.206V51.5424H131.278C131.11 51.5424 130.976 51.4146 130.976 51.2596L130.974 51.2569ZM106.124 40.0364H103.78V41.6622H106.124V43.0706H103.78V44.6856H106.124V46.325H107.361C107.932 46.325 108.261 45.9389 108.261 45.4332V38.3208H106.124V40.0364ZM103.557 46.499C101.156 46.499 99.1989 48.0596 99.1961 50.0063C99.2016 51.9529 101.156 53.5081 103.557 53.5135C105.95 53.5081 107.91 51.9529 107.91 50.0063C107.91 48.0596 105.95 46.5017 103.557 46.499ZM103.557 51.8007C102.38 51.8007 101.436 50.9905 101.434 50.0036C101.434 49.0139 102.377 48.2064 103.557 48.2064C104.737 48.2064 105.67 49.0166 105.672 50.0036C105.67 50.9878 104.729 51.8007 103.557 51.8007ZM133.548 44.8677C135.984 44.8623 137.98 43.3425 137.983 41.4311C137.983 39.5253 135.984 38.0027 133.548 38C131.104 38.0027 129.114 39.5253 129.108 41.4311C129.114 43.3425 131.104 44.8623 133.548 44.8677ZM133.548 39.6476C134.796 39.653 135.791 40.4578 135.794 41.4311C135.794 42.4072 134.796 43.2147 133.548 43.2147C132.3 43.2147 131.297 42.4072 131.297 41.4311C131.297 40.4551 132.295 39.6503 133.548 39.6476ZM103.497 38.8836V38.8075H95.9009V40.4578H100.996C100.556 42.5268 98.1875 44.2288 95.61 44.8949L95.5366 44.9167L95.9363 46.3304L96.0097 46.3168C99.8541 45.5365 103.359 43.3098 103.497 38.8863V38.8836ZM113.766 51.7191C113.766 52.5402 114.294 53.2172 115.645 53.2172H121.591C122.94 53.2172 123.467 52.5402 123.467 51.7191V47.244H113.766V51.7191ZM116.045 48.897H121.208V51.2596C121.208 51.4201 121.072 51.5424 120.903 51.5424H116.346C116.181 51.5424 116.045 51.4173 116.045 51.2596V48.897ZM119.973 44.7943L120.009 44.7726V43.231L119.889 43.3017C119.372 43.6198 118.611 43.7313 117.627 43.7313H114.193C114.025 43.7313 113.891 43.6035 113.891 43.4458V38.8048H111.453V43.9053C111.453 44.7236 111.983 45.4033 113.329 45.4033H117.314C118.407 45.4033 119.247 45.2293 119.973 44.7916V44.7943ZM148.972 43.4838C148.972 42.5323 148.537 41.6786 147.789 41.1158H149.124V39.615H146.672V38.3127H144.388V39.615H141.92V41.113H143.287C142.539 41.6758 142.104 42.5295 142.104 43.4811C142.107 45.1804 143.611 46.5507 145.538 46.5507C147.431 46.5507 148.969 45.1804 148.969 43.4811L148.972 43.4838ZM145.541 45.0743C144.579 45.0743 143.94 44.3566 143.937 43.4539C143.94 42.5513 144.581 41.8308 145.541 41.8281C146.498 41.8281 147.14 42.5486 147.145 43.4539C147.14 44.3566 146.498 45.0743 145.541 45.0743ZM152.974 38.3127V41.1538H151.979V38.3127H149.954V45.9253H151.109C151.658 45.9253 151.979 45.5501 151.979 45.0635V42.9564H152.974V45.9253H154.127C154.676 45.9253 154.997 45.5501 155 45.0635V38.3127H152.974ZM150.432 46.567C148.037 46.5697 146.079 48.1113 146.077 50.0389C146.079 51.9638 148.037 53.5054 150.432 53.5108C152.833 53.5054 154.79 51.9665 154.793 50.0389C154.793 48.1113 152.833 46.5697 150.432 46.567ZM150.432 51.8415C149.244 51.8415 148.292 51.0285 148.29 50.0416C148.29 49.052 149.244 48.2418 150.432 48.2418C151.62 48.2418 152.577 49.0547 152.583 50.0416C152.577 51.0285 151.623 51.8415 150.432 51.8415Z" fill="#655C4F"/>
<path d="M89.1174 41.3849H90.3273C90.4061 41.3849 90.4714 41.3197 90.4714 41.2408V38.9597C90.4714 38.8809 90.4061 38.8184 90.3273 38.8184H88.628C86.6623 38.8184 85.621 39.4464 85.0256 40.7813L81.3307 49.8323C81.1078 50.3733 80.7843 50.6289 80.1481 50.6289V38.9597C80.1481 38.8809 80.0828 38.8184 80.004 38.8184H77.2906C77.209 38.8184 77.1465 38.8809 77.1465 38.9597V52.948C77.1465 53.084 77.2607 53.2009 77.3966 53.2009H80.4444C82.4101 53.2009 83.3073 52.5728 83.9 51.2379L87.5487 42.2984C87.8396 41.665 88.261 41.3876 89.1174 41.3876V41.3849Z" fill="#D71820"/>
<path d="M55.9296 46.0084C57.0226 45.5544 57.9225 44.5376 57.9225 42.8492C57.9225 40.3397 55.7692 38.8145 53.1727 38.8145H45.1414C45.0625 38.8145 45 38.877 45 38.9558V41.2396C45 41.3185 45.0625 41.3837 45.1414 41.3837H52.6127C53.8198 41.3837 54.6327 42.1205 54.6327 43.0286C54.6327 43.9367 53.8171 44.6708 52.6127 44.6708H48.1756V42.977C48.1756 42.8954 48.113 42.8329 48.0315 42.8329H45.1414C45.0625 42.8329 45 42.8954 45 42.977V53.0556C45 53.1344 45.0625 53.197 45.1414 53.197H53.0531C56.0112 53.197 58.1291 51.8185 58.1291 49.0046C58.1291 47.6234 57.3135 46.4788 55.9296 46.0084ZM52.7676 50.6929H48.1756V47.3189H52.7676C54.0047 47.3189 54.8421 48.0747 54.8421 49.0046C54.8421 49.9344 54.0047 50.6929 52.7676 50.6929Z" fill="#D71820"/>
<path d="M91.9324 53.0302L87.2751 47.076C87.2615 47.0569 87.2424 47.0597 87.2343 47.0787L85.9809 50.1455C85.9728 50.1645 85.9728 50.1863 85.9836 50.2026L88.02 52.9296C88.1641 53.1226 88.3272 53.196 88.5692 53.196H91.8481C91.946 53.196 91.984 53.1036 91.927 53.0302H91.9324Z" fill="#D71820"/>
<path d="M63.2291 42.834H60.5103C60.4315 42.834 60.3662 42.8965 60.3662 42.9781V53.0567C60.3662 53.1356 60.4287 53.1981 60.5103 53.1981H63.2291C63.3052 53.1981 63.3705 53.1356 63.3705 53.0567V42.9781C63.3705 42.8965 63.3052 42.834 63.2291 42.834Z" fill="#D71820"/>
<path d="M74.4089 38.8184H71.6928C71.6139 38.8184 71.5514 38.8809 71.5514 38.9597V50.6316C70.9125 50.6316 70.5917 50.3733 70.3687 49.835L66.6711 40.7841C66.0757 39.4491 65.0344 38.8211 63.0714 38.8211H60.5103C60.4315 38.8211 60.3662 38.8836 60.3662 38.9625V41.2408C60.3662 41.3197 60.4287 41.3849 60.5103 41.3849H62.5793C63.4357 41.3849 63.8572 41.6622 64.1508 42.2957L67.7967 51.2352C68.3921 52.5701 69.2893 53.1982 71.255 53.1982H74.3001C74.4388 53.1982 74.553 53.084 74.553 52.9453V38.9597C74.553 38.8809 74.4904 38.8184 74.4089 38.8184Z" fill="#D71820"/>
</svg>
