<svg width="240" height="109" viewBox="0 0 240 109" fill="none" xmlns="http://www.w3.org/2000/svg">
<rect width="240" height="108.387" rx="10" fill=""/>
<g clip-path="url(#clip0_2572_64254)">
<path d="M119.149 64.5618L113.134 57.1751L121.867 46.4211H117.105C114.964 46.4211 113.501 47.0764 112.203 48.5946L107.6 54.2522V44.6206V38.71H102.987C101.903 38.71 101.021 39.5891 101.021 40.6791V44.6206V64.5618V69.6777H105.634C106.724 69.6777 107.6 68.7986 107.6 67.7086V64.5586V59.9974L111.34 64.5813L114.52 68.4969C115.162 69.3079 116.009 69.6809 116.871 69.6809H123.314L119.149 64.5618Z" fill="#091C49"/>
<path d="M130.982 69.6777C127.433 69.6777 124.971 67.2284 124.971 63.6697V40.6759C124.971 39.5891 125.854 38.71 126.944 38.71H131.56V62.4337C131.56 63.4102 132.351 64.205 133.321 64.205H138.025V67.7118C138.025 68.7986 137.143 69.6809 136.056 69.6809H130.982V69.6777Z" fill="#091C49"/>
<path d="M108.229 53.4542L108.239 53.4444C108.239 53.4444 108.229 53.4509 108.226 53.4542H108.229ZM138.976 44.7114L138.574 45.1396C138.551 45.1461 137.318 46.4113 133.766 46.4113H116.985C114.334 46.4113 113.088 47.4916 112.135 48.6594L111.606 49.3082C111.593 49.3245 111.58 49.3374 111.567 49.3504L108.239 53.4477C109.449 52.5361 111.11 51.9911 112.803 51.9911H133.766C136.313 51.9911 138.752 51.2352 138.957 49.331C138.982 49.1785 138.979 49.0844 138.979 49.0844V44.7114H138.976Z" fill="#E50012"/>
</g>
<defs>
<clipPath id="clip0_2572_64254">
<rect width="37.9587" height="30.9677" fill="white" transform="translate(101.021 38.71)"/>
</clipPath>
</defs>
</svg>
