<svg width="240" height="109" viewBox="0 0 240 109" fill="none" xmlns="http://www.w3.org/2000/svg">
<rect y="0.386719" width="240" height="108.387" rx="10" fill=""/>
<g clip-path="url(#clip0_4780_86968)">
<path d="M43 62.5502V46.418H54.4097V50.2868H47.5847V52.4269H53.3538V56.1332H47.5847V58.6329H54.6882V62.5502H43Z" fill="#13235D"/>
<path d="M56.8338 62.5502V46.418H62.3794C63.7873 46.418 64.834 46.4837 65.5226 46.6289C66.2112 46.7741 66.8111 47.0092 67.3222 47.3376C68.3108 47.9911 69.0545 48.9177 69.5564 50.107C70.0522 51.2929 70.3001 52.7588 70.3001 54.4979C70.3001 56.3234 69.991 57.8619 69.3697 59.1031C68.7576 60.3478 67.8456 61.2744 66.6428 61.8794C66.1776 62.1249 65.593 62.2909 64.8921 62.398C64.1913 62.4983 63.0711 62.5502 61.5225 62.5502H56.8276H56.8338ZM61.4184 58.467H62.658C63.7965 58.467 64.5892 58.1766 65.036 57.5992C65.4767 57.0287 65.6971 55.9915 65.6971 54.5014C65.6971 53.0112 65.4706 52.0189 65.0176 51.4139C64.5708 50.8089 63.7965 50.5046 62.713 50.5046H61.4215V58.4704L61.4184 58.467Z" fill="#13235D"/>
<path d="M72.4819 62.5502V46.418H77.1584V62.5502H72.4819Z" fill="#13235D"/>
<path d="M84.4673 62.5502V56.5792L79.2124 46.418H84.299L86.7566 51.9118L89.2387 46.418H94.1876L89.0551 56.5758V62.5467H84.4704L84.4673 62.5502Z" fill="#13235D"/>
<path d="M91.9902 62.5502L97.0156 46.418H101.658L106.681 62.5467H102.133L101.6 60.4135H97.0554L96.4984 62.5467H91.9902V62.5502ZM97.8848 57.0287H100.768L99.3416 51.4416L97.8848 57.0287Z" fill="#13235D"/>
<path d="M123.789 56.2962H128.129C128 58.4225 127.339 60.0717 126.142 61.2437C124.943 62.4123 123.327 62.9966 121.285 62.9966C118.996 62.9966 117.199 62.2429 115.883 60.7251C114.57 59.2108 113.916 57.1329 113.916 54.4949C113.916 51.8569 114.567 49.7928 115.868 48.2716C117.166 46.7538 118.935 45.9932 121.178 45.9932C123.244 45.9932 124.872 46.5567 126.06 47.6804C127.247 48.8144 127.911 50.429 128.052 52.5242H123.657C123.596 51.6944 123.357 51.0755 122.947 50.6503C122.543 50.2319 121.968 50.0279 121.233 50.0279C120.34 50.0279 119.663 50.3944 119.213 51.1378C118.76 51.8776 118.54 52.9944 118.54 54.4914C118.54 55.9885 118.782 57.0707 119.259 57.8244C119.737 58.5781 120.441 58.9549 121.365 58.9549C122.078 58.9549 122.638 58.7233 123.057 58.26C123.474 57.8002 123.718 57.1467 123.792 56.2893L123.789 56.2962Z" fill="#13235D"/>
<path d="M129.445 54.4978C129.445 51.8702 130.109 49.7958 131.437 48.2745C132.769 46.7567 134.58 45.9961 136.873 45.9961C139.165 45.9961 140.971 46.7533 142.296 48.2745C143.624 49.7923 144.282 51.8667 144.282 54.4978C144.282 57.1289 143.624 59.193 142.296 60.7177C140.971 62.2389 139.165 62.9996 136.873 62.9996C134.58 62.9996 132.769 62.2389 131.437 60.7177C130.112 59.193 129.445 57.1185 129.445 54.4978ZM134.072 54.4978C134.072 56.0191 134.299 57.1462 134.752 57.8619C135.205 58.5741 135.912 58.9337 136.873 58.9337C137.834 58.9337 138.538 58.5775 138.981 57.8653C139.428 57.1566 139.649 56.0329 139.649 54.4978C139.649 52.9627 139.428 51.8287 138.981 51.1165C138.535 50.4112 137.834 50.0482 136.873 50.0482C135.912 50.0482 135.205 50.4077 134.752 51.1234C134.299 51.8391 134.072 52.9627 134.072 54.4944V54.4978Z" fill="#13235D"/>
<path d="M146.375 62.5502V46.418H157.179V50.4804H150.966V52.9766H155.909V56.8766H150.966V62.5502H146.379H146.375Z" fill="#13235D"/>
<path d="M158.924 62.5502V46.418H169.728V50.4804H163.509V52.9766H168.457V56.8766H163.509V62.5502H158.924Z" fill="#13235D"/>
<path d="M171.466 62.5502V46.418H182.882V50.2868H176.054V52.4269H181.826V56.1332H176.054V58.6329H183.16V62.5502H171.466Z" fill="#13235D"/>
<path d="M185.306 62.5502V46.418H196.721V50.2868H189.893V52.4269H195.669V56.1332H189.893V58.6329H197V62.5502H185.306Z" fill="#13235D"/>
</g>
<defs>
<clipPath id="clip0_4780_86968">
<rect width="154" height="17" fill="white" transform="translate(43 46)"/>
</clipPath>
</defs>
</svg>
