<svg width="240" height="109" viewBox="0 0 240 109" fill="none" xmlns="http://www.w3.org/2000/svg">
<rect width="240" height="108.387" rx="10" fill=""/>
<g clip-path="url(#clip0_2572_64298)">
<path d="M146.054 58.144C146.076 58.0144 146.089 57.8836 146.095 57.7524C146.104 57.5732 146.101 57.3936 146.088 57.2146C144.967 57.4783 143.828 57.6592 142.68 57.7557C142.497 57.77 142.328 57.7804 142.17 57.7804C141.152 57.7772 140.695 57.3739 140.888 56.2794C140.937 55.9994 141.041 55.4152 141.162 54.713L141.168 54.6738H144.329L144.687 52.6434H141.524L141.531 52.603C141.761 51.2976 141.959 50.1575 141.959 50.1562L141.967 50.117H146.197L146.553 48.0879H139.941L138.427 56.6801C137.97 59.2907 139.708 59.743 141.337 59.7476C141.518 59.7476 141.696 59.741 141.871 59.7345C142.784 59.6962 143.692 59.5871 144.587 59.4082C145.588 59.1908 145.935 58.7862 146.054 58.144Z" fill="#4AA335"/>
<path d="M126.924 57.9966C125.827 57.9966 125.26 57.5313 125.483 56.2638C125.582 55.6947 125.646 55.3429 125.683 55.1321C125.72 54.9213 125.732 54.8482 125.732 54.8482C125.76 54.6831 125.771 54.61 125.771 54.61L125.776 54.5663H128.908C131.012 54.5597 131.584 53.3947 131.775 52.3675L132.529 48.0861H124.644L124.284 50.123H129.766L129.407 52.1541C129.405 52.2287 129.387 52.3021 129.354 52.3694C129.321 52.4366 129.275 52.4963 129.218 52.5444C129.161 52.5926 129.094 52.6282 129.022 52.6488C128.951 52.6695 128.875 52.6748 128.801 52.6644H123.727L122.983 56.8806C122.544 59.3763 124.289 60.0048 126.051 60.0088C126.116 60.0088 126.178 60.0088 126.241 60.0088C128.026 59.9883 129.805 59.8039 131.557 59.4579C132.022 59.3973 132.447 59.1601 132.743 58.7955L132.816 58.8118L132.363 61.3767C132.181 62.4575 132.468 63.0084 133.504 63.0084H134.483L137.205 47.5757H134.796C134.706 48.0874 133.787 53.3125 133.099 57.203L133.094 57.235L133.063 57.2415C131.102 57.7 129.097 57.9515 127.083 57.9921C127.027 57.9947 126.974 57.9966 126.924 57.9966Z" fill="#4AA335"/>
<path d="M145.49 54.6485H147.393L146.207 61.3708C146.024 62.4516 146.31 63.0025 147.346 63.0025H148.184L150.906 47.5698H148.641C148.585 47.889 148.203 50.0571 147.756 52.5887L147.748 52.6325H145.845L145.49 54.6485Z" fill="#4AA335"/>
<path d="M150.878 63.0093H151.857L154.578 47.5767H152.169C152.03 48.3638 149.92 60.3204 149.736 61.3744C149.554 62.4533 149.841 63.0028 150.878 63.0093Z" fill="#4AA335"/>
<path d="M159.58 55.4319C162.53 55.4273 164.223 53.891 164.681 51.3241C165.139 48.7572 163.978 47.2209 161.026 47.2163C158.126 47.2209 156.418 48.7513 155.958 51.3241C155.516 53.8903 156.683 55.4254 159.58 55.4319ZM160.674 49.2271C162.119 49.2271 162.664 50.0345 162.436 51.3241C162.372 51.9278 162.076 52.4829 161.609 52.8708C161.142 53.2586 160.542 53.4486 159.937 53.4002C158.546 53.4002 157.998 52.6059 158.222 51.3241C158.282 50.7259 158.57 50.1737 159.027 49.7827C159.483 49.3917 160.073 49.192 160.674 49.2252V49.2271Z" fill="#4AA335"/>
<path d="M159.441 61.4048L159.506 61.0596H165.18C167.173 61.053 167.706 60.2725 167.921 59.0983L168.41 56.3193H157.959L157.623 58.2336H165.699L165.693 58.2773L165.617 58.7035C165.57 58.9711 165.469 59.2302 165.062 59.2315H157.436L157.128 60.978C156.706 63.4085 157.905 64.114 160.022 64.1231H165.851C166.931 64.1146 167.548 63.7315 167.736 62.6938L167.821 62.2011H160.481C159.702 62.2004 159.35 61.9328 159.441 61.4048Z" fill="#4AA335"/>
<path d="M167.589 55.3299H168.568L169.934 47.5757H167.528C167.443 48.0573 166.632 52.6612 166.449 53.693C166.263 54.7758 166.552 55.3233 167.589 55.3299Z" fill="#4AA335"/>
<path fill-rule="evenodd" clip-rule="evenodd" d="M86.4054 45.893C85.4767 45.3213 84.3665 45.0537 82.4895 45.0537H77.8256C74.5571 45.0537 72.964 46.7584 72.361 49.8181C71.4433 54.4774 70.2548 60.41 70.1282 61.0548C69.8221 62.5931 70.6308 63.1166 72.1038 63.1166H78.3947C81.1966 63.1166 82.855 62.6917 84.1061 61.9124C84.7983 61.4898 85.3967 60.9302 85.865 60.2681C86.3332 59.606 86.6612 58.8552 86.829 58.0617C87.5698 54.3664 83.9351 53.8195 83.9351 53.8195C84.9037 53.5691 85.7794 53.0445 86.4573 52.3087C87.1351 51.5728 87.5862 50.6571 87.7564 49.6712C87.7564 49.6712 88.3183 47.0724 86.4054 45.893ZM81.7494 57.319C81.6489 57.924 81.179 58.6968 79.5747 58.6968H75.974L76.5412 55.8479H79.86C80.6386 55.8479 81.9844 55.8623 81.7487 57.319H81.7494ZM82.3655 50.6182C82.2232 51.6364 81.4661 51.9438 79.8241 51.9438H77.3087C77.3087 51.9438 77.4739 50.9733 77.5796 50.4322C77.5933 50.2883 77.6353 50.1484 77.7031 50.0207C77.7709 49.893 77.8632 49.7798 77.9747 49.6878C78.0862 49.5957 78.2147 49.5265 78.353 49.4842C78.4913 49.4418 78.6365 49.4271 78.7805 49.4409H81.0184C81.2279 49.4415 82.5378 49.388 82.3655 50.6182ZM101.954 52.1787H99.3149C97.0894 52.1787 96.643 53.702 96.4387 54.7358C96.3643 55.1359 96.1515 56.1181 96.1515 56.1181H99.5153C98.9873 58.4312 97.3759 58.8391 96.3049 58.8391C95.5282 58.8391 93.4254 59.1001 93.5148 56.3061C93.6223 54.8258 93.9779 53.374 94.5669 52.0117C95.4871 50.2632 96.7108 49.4526 99.2386 49.3462C100.134 49.3183 101.03 49.3526 101.921 49.4487C102.35 49.5161 102.79 49.4609 103.189 49.2895C103.589 49.118 103.932 48.8372 104.179 48.4795C104.659 47.7007 105.039 46.8643 105.31 45.9903C104.774 45.7497 104.221 45.5498 103.655 45.3924C102.379 45.0852 101.071 44.9249 99.7581 44.9147C96.956 44.7893 94.2067 45.7052 92.0398 47.4861C89.3352 49.8357 88.6786 53.7738 88.6786 53.7738C87.2232 59.523 90.213 61.697 90.213 61.697C92.2362 63.467 95.741 63.2752 95.741 63.2752C97.9912 63.3453 100.187 62.5779 101.904 61.1214C103.422 59.5765 104.394 57.5789 104.674 55.4316C105.028 53.4671 104.199 52.1787 101.954 52.1787H101.954ZM115.687 45.0354C110.912 45.0354 107.931 46.8505 106.865 52.18C106.865 52.18 105.052 61.3002 105.042 61.3609C104.993 61.5832 104.991 61.8134 105.036 62.0365C105.082 62.2596 105.174 62.4706 105.306 62.6558C105.341 62.6957 105.379 62.733 105.42 62.7674C105.764 63.0187 106.186 63.1393 106.611 63.1074H109.933L111.173 57.1343L111.217 56.8961H115.309C117.371 56.8961 118.988 56.1221 119.477 54.2255C119.635 53.6236 119.737 53.0086 119.783 52.3882C118.036 52.2089 116.277 52.1731 114.524 52.2812C113.277 52.4078 112.408 52.6571 111.871 53.5141L112.144 52.1807C112.645 50.0269 114.167 49.416 115.802 49.416H118.537C120.178 49.416 121.213 48.8404 121.517 47.3661C121.765 46.1684 121.964 45.0328 121.964 45.0328L115.687 45.0354Z" fill="#4AA335"/>
</g>
<defs>
<clipPath id="clip0_2572_64298">
<rect width="99.871" height="30.9677" fill="white" transform="translate(70.064 38.7095)"/>
</clipPath>
</defs>
</svg>
