<svg width="200" height="92" viewBox="0 0 200 92" fill="none" xmlns="http://www.w3.org/2000/svg">
<path d="M54.7212 43.0556C54.6529 42.7734 54.6691 42.475 54.7069 42.3203C54.8021 41.8745 55.1059 41.3766 55.9886 41.3766C56.8084 41.3766 57.2901 41.8853 57.2901 42.6475V43.514H60.7831V42.5307C60.7813 39.4854 58.0362 39 56.0569 39C53.5689 39 51.5375 39.8251 51.1654 42.1118C51.0629 42.7392 51.0467 43.2911 51.1942 43.9994C51.8 46.8613 56.776 47.6901 57.5005 49.5004C57.6353 49.8365 57.5958 50.2698 57.5274 50.534C57.4124 51.005 57.096 51.4796 56.1594 51.4796C55.2839 51.4796 54.7608 50.9709 54.7608 50.2051L54.7554 48.8586H51V49.9282C51 53.058 53.4575 54 56.0893 54C58.7211 54 60.6968 53.1371 61.0348 50.7947C61.2037 49.5866 61.0761 48.8011 61.0204 48.5026C60.4289 45.5652 55.1203 44.6933 54.7212 43.0556ZM100.252 43.0898C100.189 42.8129 100.207 42.5199 100.239 42.3653C100.34 41.9177 100.64 41.4287 101.508 41.4287C102.317 41.4287 102.79 41.932 102.79 42.6889V43.5446H106.241V42.5684C106.241 39.5519 103.538 39.0773 101.578 39.0773C99.1118 39.0773 97.0984 39.8899 96.7299 42.1604C96.6328 42.7788 96.6076 43.3271 96.764 44.0264C97.3645 46.8559 102.29 47.6775 103.006 49.468C103.131 49.8078 103.096 50.2392 103.031 50.4945C102.923 50.9601 102.61 51.4293 101.681 51.4293C100.809 51.4293 100.286 50.9277 100.286 50.1727V48.8298H96.5699V49.8977C96.5699 52.9915 98.9932 53.9263 101.605 53.9263C104.217 53.9263 106.171 53.0724 106.502 50.7552C106.66 49.5579 106.542 48.7795 106.477 48.4847C105.898 45.5814 100.647 44.7095 100.25 43.088L100.252 43.0898ZM132.042 50.7174L128.745 39.4458H123.55V53.3007H126.987L126.787 41.6678L130.329 53.3007H135.312V39.4458H131.853L132.044 50.7174H132.042ZM65.9892 39.4458L63.3951 53.4463H67.1775L69.1316 40.4867L71.0389 53.4463H74.7943L72.211 39.4458H65.9874H65.9892ZM87.1355 39.4458L85.3684 50.3902L83.6031 39.4458H77.8918L77.5898 53.4463H81.0881L81.1834 40.4867L83.5905 53.4463H87.1409L89.5499 40.4867L89.6451 53.4463H93.1524L92.8396 39.4458H87.1355ZM119.669 39.4458H116.127V49.8024C116.132 49.9821 116.127 50.1853 116.096 50.3345C116.023 50.6814 115.728 51.352 114.752 51.352C113.776 51.352 113.484 50.6832 113.416 50.3345C113.38 50.1853 113.377 49.9821 113.38 49.8024V39.4458H109.84V49.4824C109.837 49.7413 109.857 50.2698 109.871 50.4082C110.116 53.0238 112.176 53.8724 114.75 53.8724C117.324 53.8724 119.388 53.0238 119.638 50.4082C119.658 50.2698 119.683 49.7413 119.669 49.4824V39.4458ZM143.979 45.5868V47.629H145.413V49.655C145.417 49.8365 145.408 50.0307 145.377 50.1871C145.32 50.5646 144.962 51.2082 143.943 51.2082C142.924 51.2082 142.578 50.5646 142.517 50.1871C142.492 50.0307 142.481 49.8347 142.481 49.655V43.257C142.481 43.0304 142.497 42.7824 142.544 42.5954C142.614 42.2538 142.916 41.5815 143.936 41.5815C145.007 41.5815 145.273 42.2898 145.334 42.5954C145.374 42.7967 145.377 43.1347 145.377 43.1347V43.9113H148.903V43.4529C148.903 43.4529 148.919 42.9729 148.876 42.5271C148.611 39.9006 146.447 39.0701 143.966 39.0701C141.485 39.0701 139.36 39.9078 139.051 42.5271C139.023 42.7662 138.981 43.1976 138.981 43.4529V49.3386C138.981 49.5956 138.99 49.7934 139.037 50.2626C139.267 52.8171 141.48 53.7214 143.955 53.7214C146.431 53.7214 148.644 52.8153 148.879 50.2626C148.921 49.7934 148.926 49.5956 148.931 49.3386V45.5868H143.979Z" fill="#1428A0"/>
</svg>
