<svg width="240" height="109" viewBox="0 0 240 109" fill="none" xmlns="http://www.w3.org/2000/svg">
<rect width="240" height="108.387" rx="10" fill=""/>
<path d="M51.5972 43.3877C51.3246 43.6081 51.031 43.8285 50.7374 44.0385C50.2099 44.4545 49.7252 44.9221 49.2905 45.4345L48.9444 45.8963C48.872 45.9937 48.8055 46.0953 48.7452 46.2007C48.7164 46.251 48.6919 46.3037 48.6718 46.3582C48.6251 46.4381 48.5865 46.5225 48.5565 46.6101C48.5035 46.7679 48.4615 46.9292 48.4307 47.0929V47.4602V47.8066C48.4851 48.4202 48.6082 49.0258 48.7976 49.612C49.0912 50.2207 49.4058 50.819 49.7413 51.4173C50.318 52.0471 50.8947 52.6874 51.4504 53.3382C51.9118 52.7818 52.3732 52.215 52.8135 51.6482L53.2644 50.8715C53.5778 50.3508 53.8077 49.7841 53.946 49.1921L54.0194 48.5519C54.0719 48.2709 54.0719 47.9826 54.0194 47.7017C54.0095 47.5913 53.9884 47.4823 53.9564 47.3763L53.8201 46.9249C53.7087 46.5796 53.5573 46.2485 53.3693 45.9383C53.1281 45.5604 52.9079 45.1721 52.6982 44.7837L52.5619 44.5738L51.6706 43.3877" fill="#D51317"/>
<path d="M43.0343 47.4785C42.7543 47.4162 42.4778 47.3391 42.2059 47.2475L41.8809 47.1846C41.8809 47.2475 41.8809 47.3105 41.8809 47.3735L41.9647 48.0873V48.3916L42.0172 48.7695C42.1448 49.8005 42.4839 50.7939 43.0133 51.6875C43.4666 52.3371 44.0268 52.905 44.67 53.3669C45.3225 53.7307 46.0314 53.9826 46.767 54.1121C47.7158 54.0832 48.6568 53.9315 49.5666 53.6608C49.5717 53.5979 49.5717 53.5347 49.5666 53.4718L49.4408 52.8106C49.2356 51.9228 48.8501 51.0868 48.3084 50.3545L47.7632 49.7457C47.3414 49.2406 46.8338 48.8142 46.2637 48.4861L45.9911 48.3497C45.7556 48.2321 45.5141 48.127 45.2676 48.0348C44.734 47.8653 44.1867 47.7424 43.6319 47.6674L43.4222 47.6044C43.2827 47.5736 43.146 47.5314 43.0133 47.4785" fill="#D51317"/>
<path d="M58.4396 48.2816C57.8278 48.1673 57.1973 48.2069 56.6047 48.3971C56.3674 48.4915 56.1393 48.6075 55.9231 48.7435C55.3678 49.121 54.8607 49.5651 54.4132 50.066C54.2024 50.3349 54.0295 50.6316 53.8994 50.9477C53.7835 51.2217 53.6505 51.4882 53.501 51.7454L53.3752 52.0498C53.3118 52.2069 53.2592 52.3683 53.2179 52.5326L52.9033 53.8027L53.2074 53.8552L54.3503 54.0021C54.603 54.0457 54.8595 54.0632 55.1157 54.0546C56.1463 54.0068 57.1546 53.7384 58.0726 53.2674L58.2509 53.1834C58.7191 52.9543 59.1679 52.6875 59.593 52.3857C60.1383 52.0198 60.6052 51.5488 60.9666 51.0002C61.0732 50.8395 61.1679 50.6711 61.2497 50.4963C61.4183 50.0586 61.5242 49.5993 61.5642 49.1318L60.1592 48.649H60.0019L59.6035 48.5441C59.226 48.4601 58.8276 48.3866 58.4396 48.3236" fill="#D51317"/>
<path d="M45.7945 58.9195C46.1248 58.79 46.4247 58.5935 46.6753 58.3423L47.2205 57.7964C47.6422 57.3445 48.0278 56.8602 48.3739 56.348L48.5207 56.1065L48.8667 55.6132C48.098 55.2564 47.3063 54.9513 46.497 54.7C46.0042 54.5636 45.5114 54.4481 45.0186 54.3432C44.8232 54.3276 44.6268 54.3276 44.4314 54.3432L43.3829 54.2907C43.1146 54.2817 42.8465 54.3099 42.586 54.3747C41.4428 54.6728 40.3724 55.2014 39.4404 55.9281L39 56.285C39.3896 56.8919 39.8169 57.4738 40.2792 58.0273L40.5099 58.2793L41.0237 58.7936L41.6528 59.0875C42.0576 59.2986 42.4989 59.4304 42.953 59.4758H43.2885C43.9716 59.4327 44.6473 59.3095 45.3017 59.1085C45.4405 59.068 45.5742 59.0116 45.7001 58.9405" fill="#D51317"/>
<path d="M57.7502 54.2813C57.6421 54.2708 57.5332 54.2708 57.4251 54.2813C57.1945 54.2813 56.9638 54.3128 56.7331 54.3757C56.4081 54.4807 56.083 54.6067 55.7685 54.7326C55.0083 55.0269 54.3002 55.4416 53.6714 55.9607L53.944 56.4645C54.1131 56.7717 54.2986 57.0695 54.4997 57.3567C54.7104 57.6201 54.9496 57.8595 55.2127 58.0704L55.3805 58.1859C55.4834 58.2693 55.5961 58.3398 55.716 58.3958L55.8838 58.5008L56.1354 58.6372L56.6702 58.8472L56.9009 58.9416C57.1669 59.0282 57.4409 59.088 57.7187 59.1201C58.0543 59.1201 58.3793 59.1201 58.7148 59.1201H59.4383H59.8158C60.015 59.1201 60.2143 59.1201 60.403 59.0571L60.8014 58.9941C61.2698 58.9172 61.7416 58.8227 62.217 58.7107L62.7517 58.5323H62.8775C62.9983 58.4926 63.1143 58.4398 63.2236 58.3748C62.9813 57.741 62.6976 57.1239 62.3742 56.5275L62.1855 56.2126C62.0073 55.9902 61.8146 55.7799 61.6088 55.5828L61.2313 55.2679C61.1188 55.1846 60.9996 55.1109 60.8748 55.0475C60.1569 54.7135 59.3938 54.4872 58.61 54.3757H58.4317C58.219 54.3549 58.0048 54.3549 57.7921 54.3757" fill="#D51317"/>
<path d="M56.4499 59.9009C56.1654 59.5757 55.8453 59.2834 55.4957 59.0297C54.4576 58.3167 53.3199 57.7614 52.1194 57.3818V57.5917C51.8683 58.3571 51.6893 59.1442 51.5847 59.9429C51.574 60.1457 51.574 60.3489 51.5847 60.5517C51.5949 60.9377 51.6476 61.3214 51.7419 61.6958C51.7813 61.8302 51.834 61.9603 51.8992 62.0842C52.067 62.3571 52.2452 62.6195 52.4235 62.8714C52.4772 62.946 52.5368 63.0162 52.6017 63.0813C52.8869 63.3721 53.1955 63.6389 53.5245 63.879C54.1206 64.2912 54.7564 64.6428 55.4223 64.9286L55.8522 65.0861L57.2048 65.5584C57.4565 65.6634 57.7291 65.7683 57.9912 65.8523V64.2359C57.9802 63.8845 57.9487 63.534 57.8968 63.1863C57.8755 62.8724 57.8335 62.5603 57.771 62.2521C57.696 61.8205 57.5394 61.4073 57.3097 61.0345C57.0523 60.6373 56.7722 60.2553 56.4708 59.8904" fill="#D51317"/>
<path d="M50.2264 57.4014C49.1779 57.8212 48.1293 58.2725 47.0808 58.7659L46.5565 59.1018C46.2315 59.4376 45.8959 59.7525 45.5604 60.0569C45.227 60.3712 44.9721 60.7595 44.816 61.1905C44.7703 61.3511 44.7456 61.5169 44.7426 61.6839C44.7144 62.2877 44.7495 62.8927 44.8474 63.4892C44.9839 64.1369 45.1625 64.7751 45.3822 65.3995L45.529 65.9978H45.7072C46.4812 65.7459 47.2409 65.4516 47.9825 65.1161L48.1713 65.0111C48.6626 64.7511 49.1145 64.4224 49.5134 64.035C49.6119 63.9398 49.6998 63.8342 49.7755 63.7201C49.8404 63.6587 49.9 63.592 49.9538 63.5207C50.5429 62.7299 50.8758 61.7775 50.908 60.7916C50.908 60.6447 50.908 60.5083 50.908 60.3613C50.908 60.2144 50.8346 59.7945 50.7821 59.5111V59.3327C50.7821 59.1543 50.6773 58.9758 50.6353 58.7869C50.5095 58.3355 50.3837 57.8737 50.2369 57.4223" fill="#D51317"/>
<path d="M198.349 54.1568V53.0547H187.779V54.1568H198.349Z" fill="black"/>
<path d="M187.779 54.1479H188.985V47.9971H187.779V54.1479Z" fill="black"/>
<path d="M183.173 61.7262H184.515V47.9971H183.173V61.7262Z" fill="black"/>
<path d="M176.202 49.3271C177.217 49.7962 178.081 50.5421 178.693 51.4796C179.305 52.417 179.641 53.5081 179.662 54.6278C179.672 55.3416 179.558 56.0518 179.326 56.727L180.375 57.2518C180.691 56.414 180.844 55.5232 180.826 54.6278C180.803 53.0793 180.28 51.5798 179.335 50.3538C178.39 49.1277 177.073 48.2409 175.583 47.8262L170.927 56.6535H172.385L176.191 49.3061" fill="black"/>
<path d="M167.807 52.7939L168.206 51.6813H166.507V47.9971H165.27V61.7262H166.507V52.7939H167.807Z" fill="black"/>
<path d="M167.772 61.7262H168.988V47.9971H167.772V61.7262Z" fill="black"/>
<path d="M141.755 56.9609H143.097V47.9971H141.755V56.9609Z" fill="black"/>
<path d="M152.163 61.7262H153.495V47.9971H152.163V61.7262Z" fill="black"/>
<path d="M152.943 57.4527V56.3506H141.755V57.4527H152.943Z" fill="black"/>
<path d="M148.592 52.8121V51.71H141.755V52.8121H148.592Z" fill="black"/>
<path d="M148.592 49.0992V47.9971H141.755V49.0992H148.592Z" fill="black"/>
<path d="M153.173 52.8121V51.71H149.954V52.8121H153.173Z" fill="black"/>
<path d="M157.252 56.9609H158.584V47.9971H157.252V56.9609Z" fill="black"/>
<path d="M166.165 57.4527V56.3506H157.252V57.4527H166.165Z" fill="black"/>
<path d="M199.306 56.69V55.5879H189.324V56.69H199.306Z" fill="black"/>
<path d="M199.307 61.7212V60.6191H189.912V61.7212H199.307Z" fill="black"/>
<path d="M199.306 59.1753V58.0732H189.324V59.1753H199.306Z" fill="black"/>
<path d="M190.656 61.7257V58.1045H189.324V61.7257H190.656Z" fill="black"/>
<path d="M199.31 54.7986V47.9971H197.968V54.7986H199.31Z" fill="black"/>
<path d="M199.31 58.3232V56.3604H197.968V58.3232H199.31Z" fill="black"/>
<path d="M179.23 50.4824V51.5845H183.907V50.4824H179.23Z" fill="black"/>
<path d="M198.631 50.4824V51.5845H201.273V50.4824H198.631Z" fill="black"/>
<path d="M179.866 52.6895V53.8021H183.903V52.6895H179.866Z" fill="black"/>
<path d="M129.285 47.5967C128.314 47.5974 127.374 47.935 126.625 48.5517C125.875 49.1685 125.362 50.0263 125.174 50.9791C124.985 51.9319 125.132 52.9206 125.59 53.7769C126.048 54.6332 126.789 55.3041 127.685 55.6752C128.582 56.0463 129.58 56.0947 130.508 55.8121C131.436 55.5296 132.238 54.9335 132.777 54.1256C133.315 53.3177 133.557 52.3478 133.462 51.3812C133.366 50.4146 132.938 49.5112 132.252 48.8248C131.862 48.435 131.399 48.1259 130.89 47.9152C130.381 47.7045 129.836 47.5962 129.285 47.5967ZM132.273 51.7952C132.267 52.5869 131.951 53.3445 131.392 53.9044C130.832 54.4642 130.075 54.7811 129.285 54.7866C128.524 54.7415 127.809 54.4072 127.287 53.8521C126.764 53.2971 126.473 52.5632 126.473 51.8004C126.473 51.0377 126.764 50.3038 127.287 49.7488C127.809 49.1937 128.524 48.8594 129.285 48.8142C130.074 48.8197 130.829 49.1352 131.388 49.6928C131.947 50.2503 132.265 51.0053 132.273 51.7952Z" fill="black"/>
<path d="M99.9146 51.6883H98.2055C97.5031 50.2649 96.369 49.1003 94.9655 48.361L94.2315 47.9726L94.0637 47.8887L89.4292 56.6635H90.8028L94.5985 49.4631C95.8683 50.2192 96.8387 51.3907 97.3456 52.7799C97.7223 54.0018 97.6929 55.3129 97.2618 56.5166L98.3103 57.1464C98.5316 56.5448 98.6727 55.9166 98.7297 55.278C98.8233 54.4449 98.7629 53.6017 98.5515 52.7904H99.8622V61.7227H101.099V47.9936H99.8622V51.6883" fill="black"/>
<path d="M102.415 61.7262H103.631V47.9971H102.415V61.7262Z" fill="black"/>
<path d="M81.2345 56.6513L82.3564 57.1761C82.6052 56.5267 82.7571 55.8441 82.8073 55.1504C82.9048 54.0304 82.7142 52.904 82.2535 51.8787C81.7928 50.8534 81.0773 49.9634 80.1754 49.2934C79.7864 48.9836 79.3725 48.7063 78.9382 48.4642C78.6655 48.2963 78.3719 48.1599 78.0888 48.0129L77.8582 47.8975L73.2236 56.6828H74.6706L78.4349 49.4614C79.8159 50.2248 80.8601 51.4798 81.3603 52.9776C81.6968 54.186 81.6529 55.4689 81.2345 56.6513Z" fill="black"/>
<path d="M85.7864 60.6241H78.0902V56.6565H76.7585V61.7262H87.1076V47.9971H85.7864V60.6241Z" fill="black"/>
<path d="M136.656 60.6241H129.735V56.6565H128.393V61.7262H137.977V47.9971H136.656V60.6241Z" fill="black"/>
<path d="M118.204 47.9971V61.7262H119.421V47.9971H118.204Z" fill="black"/>
<path d="M106.693 57.3387C107.923 57.2836 109.124 56.9406 110.198 56.3373C111.273 55.734 112.191 54.8871 112.879 53.8645H115.71V61.7891H116.937V47.9971H115.71V50.4847H113.97C114.009 49.6712 113.92 48.8566 113.708 48.0706L107.301 48.0075V49.1307H112.701C112.751 49.4077 112.776 49.6888 112.774 49.9704C112.776 51.2533 112.371 52.5036 111.617 53.5411C110.863 54.5786 109.8 55.3498 108.58 55.7433C107.832 56.0005 107.053 56.1558 106.263 56.2051L106.714 57.3177L106.693 57.3387ZM115.731 52.6889H113.456C113.592 52.3474 113.705 51.9967 113.791 51.6393H115.71V52.7414" fill="black"/>
</svg>
