<svg width="240" height="109" viewBox="0 0 240 109" fill="none" xmlns="http://www.w3.org/2000/svg">
<rect width="240" height="108.387" rx="10" fill=""/>
<g clip-path="url(#clip0_4780_86456)">
<path d="M160.207 63.4729C162.171 63.4729 163.74 62.0676 163.74 60.3209C163.74 58.5742 162.171 57.1689 160.207 57.1689C158.244 57.1689 156.675 58.5742 156.675 60.3209C156.675 62.0676 158.25 63.4729 160.207 63.4729ZM160.207 58.6464C161.015 58.6464 161.665 59.4147 161.665 60.3209C161.665 61.2271 161.008 61.9954 160.207 61.9954C159.406 61.9954 158.75 61.2271 158.75 60.3209C158.75 59.4147 159.406 58.6464 160.207 58.6464ZM163.307 67.9382H166.708V69.2121H168.836V58.3838C168.836 57.7993 168.356 57.32 167.772 57.32H166.708V66.4673H163.307V67.9382ZM149.957 68.5686H151.014C151.599 68.5686 152.071 68.0892 152.071 67.5048V58.7909C152.058 58.4888 151.887 58.305 151.559 58.2918H140.908V59.7693H149.957V68.5686ZM160.936 71.2412V68.4569H158.809V72.2065C158.822 72.5217 159.006 72.7121 159.347 72.7252H168.258C168.672 72.7252 169 72.3903 169 71.9832V71.2346H160.936V71.2412ZM148.473 65.0883C148.473 64.5038 148.007 64.0376 147.422 64.0376H146.365V70.5517H145.078V65.0883C145.078 64.5038 144.612 64.0376 144.027 64.0376H142.977V70.5517H139.608V72.0292H152.544C152.951 72.0292 153.286 71.6943 153.286 71.2937V70.5583H148.473V65.0948V65.0883ZM160.93 67.7215V65.5085H165.697V64.031H155.263V65.5085H158.782V67.7215H160.93Z" fill="#231815"/>
<path d="M89.925 66.7165C89.7214 66.0139 87.1998 57.3 87.1998 57.3H84.5994C84.5994 57.3 82.0976 66.0073 81.894 66.7099C81.7298 66.0008 79.7139 57.3 79.7139 57.3H76.5947L80.1801 72.7381H83.1351C83.1351 72.7381 85.6961 63.8009 85.8865 63.1574C86.0704 63.8009 88.651 72.7381 88.651 72.7381H91.652L95.2308 57.3H92.1116C92.1116 57.3 90.0957 66.0073 89.9315 66.7165H89.925ZM126.311 57.3V67.0842C125.956 66.5523 119.764 57.3 119.764 57.3H116.789V72.7381H119.947V62.9801C120.302 63.5054 126.534 72.7381 126.534 72.7381H129.469V57.3H126.311ZM89.5638 41.7109C89.4062 41.4745 85.9128 36.3525 85.9128 36.3525H79.6548C79.6548 36.3525 74.5131 41.573 74.1848 41.9079V36.3525H71V51.7906H74.1848V45.5786C74.5197 45.9201 80.2655 51.7906 80.2655 51.7906H84.0544C84.0544 51.7906 76.7064 43.8385 76.575 43.694C76.6801 43.5824 81.2176 38.7887 82.8987 37.0092C84.1726 39.0383 87.9418 45.073 87.9681 45.119V51.7906H91.1529V45.119C91.1857 45.0664 96.636 36.3525 96.636 36.3525H93.2148C93.2148 36.3525 89.7214 41.4745 89.5572 41.7109H89.5638Z" fill="#231815"/>
<path d="M105.252 35C100.254 35 96.1831 39.0647 96.1831 44.0685C96.1831 48.0216 98.7309 51.3968 102.27 52.6313C102.901 51.6529 104.004 51.0028 105.252 51.0028C106.499 51.0028 107.602 51.6529 108.233 52.6313C111.772 51.3902 114.32 48.0281 114.32 44.0685C114.32 39.0647 110.249 35 105.245 35H105.252ZM105.252 49.5516C102.231 49.5516 99.7685 47.0891 99.7685 44.0685C99.7685 41.0478 102.231 38.5854 105.252 38.5854C108.272 38.5854 110.735 41.0413 110.735 44.0685C110.735 47.0957 108.272 49.5516 105.252 49.5516Z" fill="#EE7800"/>
<path d="M108.239 56.46C107.609 57.4384 106.512 58.0885 105.252 58.0885C103.991 58.0885 102.901 57.4318 102.27 56.46C98.7309 57.6945 96.1831 61.0632 96.1831 65.0228C96.1831 70.0266 100.254 74.0913 105.252 74.0913C110.249 74.0913 114.327 70.0266 114.327 65.0228C114.327 61.0697 111.779 57.701 108.239 56.46ZM105.252 70.5059C102.231 70.5059 99.7685 68.0435 99.7685 65.0228C99.7685 62.0022 102.231 59.5397 105.252 59.5397C108.272 59.5397 110.735 61.9956 110.735 65.0228C110.735 68.05 108.272 70.5059 105.252 70.5059Z" fill="#EE7800"/>
</g>
<defs>
<clipPath id="clip0_4780_86456">
<rect width="98" height="39.091" fill="white" transform="translate(71 35)"/>
</clipPath>
</defs>
</svg>
