<svg width="240" height="109" viewBox="0 0 240 109" fill="none" xmlns="http://www.w3.org/2000/svg">
<rect y="0.386719" width="240" height="108.387" rx="10" fill=""/>
<g clip-path="url(#clip0_4780_87029)">
<path d="M90.6797 44.6963C89.0909 43.1258 87.1991 41.9555 85.1373 41.2436C83.9812 39.8472 82.2223 38.958 80.2564 38.958C78.2904 38.958 76.5315 39.8502 75.3754 41.2436C73.3136 41.9555 71.4249 43.1258 69.833 44.6963C67.0479 47.4494 65.5146 51.1069 65.5146 54.9997C65.5146 58.8925 67.0479 62.55 69.833 65.303C72.6181 68.0561 76.3182 69.5716 80.2564 69.5716C84.1945 69.5716 87.8946 68.0561 90.6797 65.303C93.4648 62.55 94.9981 58.8925 94.9981 54.9997C94.9981 51.1069 93.4648 47.4494 90.6797 44.6963Z" fill="white"/>
<path d="M85.8079 42.4135C86.2592 43.266 86.5127 44.2377 86.5127 45.246C86.5127 48.7935 83.7863 51.4335 80.2531 51.4335C76.7199 51.4335 73.9935 48.7966 73.9935 45.246C73.9935 44.2377 74.2501 43.211 74.6983 42.4135C69.7741 44.528 66.3398 49.3771 66.3398 55.0208C66.3398 62.6046 72.5778 68.7524 80.25 68.7524C87.9223 68.7524 94.1602 62.6046 94.1602 55.0208C94.1602 49.3771 90.7259 44.528 85.8017 42.4135H85.8079ZM80.2562 39.7949C77.332 39.7949 74.9796 42.0835 74.9796 44.858C74.9796 46.4683 75.9811 47.5346 77.4525 47.6324C78.9827 47.7302 80.2006 46.5844 80.2593 44.9741C80.318 43.5777 81.3381 42.4349 82.828 42.4349C84.318 42.4349 85.2608 43.6174 85.4772 45.0321C85.4772 45.0719 85.5544 45.0719 85.5544 45.0321C85.573 42.0652 83.2206 39.7949 80.2562 39.7949ZM70.6613 55.311C70.6613 56.5149 71.1126 57.7738 72.2099 58.4155L71.7772 58.8433C71.0322 58.4949 70.4047 57.8533 69.9719 57.0405C69.5979 57.8349 68.853 58.5927 68.1482 58.9013L67.737 58.5316C68.7973 57.7555 69.3259 56.5333 69.3259 55.311V53.7588H70.6613V55.311ZM75.9193 54.6724C75.9193 55.0024 76.4294 55.311 77.332 55.311C78.2346 55.311 78.7446 54.9994 78.7446 54.6724C78.7446 54.3608 78.2531 54.0521 77.332 54.0521C76.4108 54.0521 75.9193 54.3638 75.9193 54.6724ZM80.08 54.6724C80.08 55.4302 79.0599 55.8549 77.332 55.8549C75.604 55.8549 74.5839 55.4271 74.5839 54.6724C74.5839 53.9758 75.604 53.5083 77.332 53.5083C79.0599 53.5083 80.08 53.9727 80.08 54.6724ZM83.5143 56.7869C81.944 56.7869 80.7879 56.1483 80.7879 55.1766C80.7879 54.2049 81.944 53.5877 83.5143 53.5877C85.0846 53.5877 86.2407 54.2263 86.2407 55.1766C86.2407 56.1269 85.1031 56.7869 83.5143 56.7869ZM83.5143 56.2246C84.3582 56.2246 84.9084 55.8183 84.9084 55.1766C84.9084 54.5349 84.3582 54.1499 83.5143 54.1499C82.6704 54.1499 82.1202 54.5563 82.1202 55.1766C82.1202 55.7969 82.6704 56.2246 83.5143 56.2246ZM72.5283 56.1849H71.4093V55.5463H72.5283V53.606H73.8637V59.1335H72.5283V56.1849ZM75.0785 59.1335C74.8838 59.1335 74.7447 58.9991 74.7447 58.8035V57.7952H78.5901V57.5049H74.7447V56.9824H76.6488V56.6341H74.4325V56.0902H80.2408V56.6341H78.0429V56.9824H79.9255V58.3024H76.0801V58.5927H79.9656V59.1366H75.0816L75.0785 59.1335ZM84.2005 57.7555V59.1335H82.8064V57.7555H80.6271V57.1933H86.3952V57.7555H84.1974H84.2005ZM91.6966 57.7555V59.1335H90.3241V57.7555H89.0876V59.1335H87.7152V57.7555H86.8311V57.1933H92.5992V57.7555H91.6966ZM89.7151 56.7869C88.1448 56.7869 86.9887 56.1483 86.9887 55.1766C86.9887 54.2049 88.1448 53.5877 89.7151 53.5877C91.2854 53.5877 92.4415 54.2263 92.4415 55.1766C92.4415 56.1269 91.304 56.7869 89.7151 56.7869ZM89.7151 56.2246C90.559 56.2246 91.1092 55.8183 91.1092 55.1766C91.1092 54.5349 90.559 54.1499 89.7151 54.1499C88.8712 54.1499 88.321 54.5563 88.321 55.1766C88.321 55.7969 88.8712 56.2246 89.7151 56.2246Z" fill="#E60012"/>
<path d="M116.417 55.8192V54.0653H135.205V55.8192H116.417ZM134.716 49.5155C134.716 50.1053 134.512 50.6369 134.104 51.1075C133.696 51.578 133.112 51.9722 132.351 52.2961C131.591 52.6169 130.661 52.8675 129.56 53.0417C128.46 53.2158 127.211 53.3044 125.811 53.3044C124.41 53.3044 123.183 53.2158 122.083 53.0417C120.982 52.8675 120.052 52.62 119.291 52.2961C118.531 51.9722 117.95 51.578 117.548 51.1075C117.146 50.6369 116.948 50.1083 116.948 49.5155C116.948 48.9228 117.149 48.3942 117.548 47.9236C117.95 47.453 118.528 47.0589 119.291 46.735C120.052 46.4142 120.982 46.1667 122.083 45.9986C123.183 45.8305 124.426 45.748 125.811 45.748C127.195 45.748 128.46 45.8367 129.56 46.0108C130.661 46.185 131.591 46.4325 132.351 46.7564C133.112 47.0772 133.696 47.4714 134.104 47.9358C134.512 48.4003 134.716 48.9258 134.716 49.5186V49.5155ZM118.537 63.9378C118.185 63.9378 117.916 63.8339 117.733 63.6261C117.551 63.4183 117.458 63.1525 117.458 62.8317V59.5897H129.888V58.7036H117.458V56.9528H134.188V61.2642H121.758V62.1503H134.29V63.9439H118.537V63.9378ZM121.226 49.5155C121.226 49.7844 121.328 50.038 121.532 50.2825C121.736 50.5239 122.033 50.7439 122.42 50.9364C122.806 51.1319 123.285 51.2847 123.857 51.4008C124.429 51.5139 125.081 51.5719 125.814 51.5719C126.546 51.5719 127.223 51.5139 127.801 51.4008C128.379 51.2878 128.861 51.1319 129.248 50.9364C129.634 50.7408 129.928 50.5239 130.123 50.2825C130.321 50.0411 130.419 49.7844 130.419 49.5155C130.419 49.2467 130.321 49.0083 130.123 48.7608C129.925 48.5133 129.634 48.2933 129.248 48.1069C128.861 47.9205 128.379 47.7678 127.801 47.6547C127.223 47.5417 126.562 47.4836 125.814 47.4836C125.066 47.4836 124.429 47.5417 123.857 47.6547C123.285 47.7678 122.809 47.9205 122.42 48.1069C122.033 48.2964 121.736 48.5103 121.532 48.7517C121.328 48.993 121.226 49.2497 121.226 49.5186V49.5155ZM128.073 55.4769V57.3714H123.569V55.4769H128.073Z" fill="#E60012"/>
<path d="M136.283 59.4673V57.634H154.889V59.4673H136.283ZM145.575 56.3048C144.299 56.3048 143.121 56.1795 142.039 55.932C140.96 55.6845 140.03 55.3362 139.248 54.884C138.466 54.4348 137.86 53.894 137.424 53.2615C136.988 52.632 136.772 51.9262 136.772 51.147C136.772 50.3679 136.988 49.6804 137.424 49.0418C137.86 48.4031 138.466 47.8593 139.248 47.4101C140.03 46.9609 140.96 46.6126 142.039 46.362C143.118 46.1145 144.299 45.9893 145.575 45.9893C146.852 45.9893 148.03 46.1145 149.111 46.362C150.19 46.6095 151.124 46.9609 151.912 47.4101C152.7 47.8593 153.312 48.4031 153.745 49.0418C154.181 49.6804 154.397 50.3801 154.397 51.147C154.397 51.914 154.181 52.632 153.745 53.2615C153.309 53.894 152.7 54.4348 151.912 54.884C151.124 55.3331 150.19 55.6845 149.111 55.932C148.033 56.1795 146.852 56.3048 145.575 56.3048ZM145.575 54.4715C146.255 54.4715 146.873 54.3951 147.43 54.2393C147.986 54.0834 148.462 53.8634 148.855 53.5731C149.247 53.2829 149.554 52.9345 149.773 52.5251C149.989 52.1156 150.098 51.6573 150.098 51.144C150.098 50.6306 149.989 50.1754 149.773 49.7629C149.557 49.3534 149.251 49.0051 148.855 48.7148C148.459 48.4276 147.986 48.2045 147.43 48.0487C146.873 47.8929 146.255 47.8165 145.575 47.8165C144.895 47.8165 144.28 47.8929 143.73 48.0487C143.18 48.2045 142.707 48.4245 142.314 48.7148C141.918 49.0051 141.615 49.3534 141.396 49.7629C141.18 50.1723 141.071 50.6337 141.071 51.144C141.071 51.6543 141.18 52.1156 141.396 52.5251C141.612 52.9345 141.918 53.2829 142.314 53.5731C142.707 53.8634 143.18 54.0834 143.73 54.2393C144.28 54.3951 144.895 54.4715 145.575 54.4715ZM147.838 59.1434V63.9376H143.334V59.1434H147.838Z" fill="#E60012"/>
<path d="M156.048 59.4673V57.634H174.654V59.4673H156.048ZM165.34 56.3048C164.064 56.3048 162.886 56.1795 161.804 55.932C160.725 55.6845 159.795 55.3362 159.013 54.884C158.231 54.4348 157.625 53.894 157.189 53.2615C156.753 52.632 156.537 51.9262 156.537 51.147C156.537 50.3679 156.753 49.6804 157.189 49.0418C157.625 48.4031 158.231 47.8593 159.013 47.4101C159.795 46.9609 160.725 46.6126 161.804 46.362C162.883 46.1145 164.064 45.9893 165.34 45.9893C166.617 45.9893 167.795 46.1145 168.877 46.362C169.955 46.6095 170.889 46.9609 171.677 47.4101C172.465 47.8593 173.077 48.4031 173.51 49.0418C173.946 49.6804 174.162 50.3801 174.162 51.147C174.162 51.914 173.946 52.632 173.51 53.2615C173.074 53.894 172.465 54.4348 171.677 54.884C170.889 55.3331 169.955 55.6845 168.877 55.932C167.798 56.1795 166.617 56.3048 165.34 56.3048ZM163.343 59.0456V63.9406H158.92V59.0456H163.343ZM165.34 54.4745C166.02 54.4745 166.639 54.3981 167.195 54.2423C167.751 54.0865 168.227 53.8665 168.62 53.5762C169.013 53.2859 169.319 52.9376 169.538 52.5281C169.755 52.1187 169.863 51.6604 169.863 51.147C169.863 50.6337 169.755 50.1784 169.538 49.7659C169.322 49.3565 169.016 49.0081 168.62 48.7179C168.224 48.4306 167.751 48.2076 167.195 48.0518C166.639 47.8959 166.02 47.8195 165.34 47.8195C164.66 47.8195 164.045 47.8959 163.495 48.0518C162.945 48.2076 162.472 48.4276 162.079 48.7179C161.684 49.0081 161.381 49.3565 161.161 49.7659C160.945 50.1754 160.837 50.6368 160.837 51.147C160.837 51.6573 160.945 52.1187 161.161 52.5281C161.377 52.9376 161.684 53.2859 162.079 53.5762C162.472 53.8665 162.945 54.0865 163.495 54.2423C164.045 54.3981 164.66 54.4745 165.34 54.4745ZM171.779 59.0456V63.9406H167.356V59.0456H171.779Z" fill="#E60012"/>
<path d="M104.741 51.5444C104.741 55.4342 106.2 59.5103 109.755 61.5789L108.358 62.96C105.947 61.8325 103.916 59.7608 102.522 57.1269C101.316 59.6997 98.9052 62.1442 96.6209 63.1494L95.2886 61.9578C98.7136 59.4492 100.429 55.4983 100.429 51.5475V46.5303H104.744V51.5475L104.741 51.5444Z" fill="#E60012"/>
<path d="M110.769 54.4042H107.152V52.3356H110.769V46.0625H115.084V63.9375H110.769V54.4042Z" fill="#E60012"/>
</g>
<defs>
<clipPath id="clip0_4780_87029">
<rect width="125" height="44" fill="white" transform="translate(58 33)"/>
</clipPath>
</defs>
</svg>
