<svg width="240" height="109" viewBox="0 0 240 109" fill="none" xmlns="http://www.w3.org/2000/svg">
<rect width="240" height="108.387" rx="10" fill=""/>
<path d="M70.382 60.3178H63.1149C62.9328 60.3161 62.7587 60.2429 62.6303 60.1138C62.5018 59.9848 62.4294 59.8104 62.4286 59.6283V52.3612C62.452 51.9222 62.6067 51.5002 62.8727 51.1501L70.7453 41.796C67.6044 40.9127 64.2593 41.0956 61.2335 42.3161C58.2076 43.5366 55.6717 45.7258 54.0227 48.5411C52.3737 51.3565 51.7046 54.6391 52.1201 57.8752C52.5356 61.1114 54.0123 64.1185 56.3191 66.426C58.6258 68.7334 61.6325 70.211 64.8685 70.6275C68.1045 71.044 71.3874 70.3759 74.2032 68.7277C77.0191 67.0796 79.2091 64.5444 80.4305 61.5189C81.6519 58.4934 81.8358 55.1484 80.9534 52.0072L71.5963 59.8768C71.245 60.1424 70.8218 60.296 70.382 60.3178Z" fill="#063D65"/>
<path d="M84.2393 46.8919L71.053 58.7894C71.0368 58.8066 71.0278 58.8294 71.0278 58.853C71.0278 58.8767 71.0368 58.8994 71.053 58.9167C71.0706 58.9322 71.0932 58.9408 71.1166 58.9408C71.1401 58.9408 71.1627 58.9322 71.1803 58.9167L85.0902 47.7366C85.1717 47.6883 85.2411 47.6221 85.293 47.5429C85.345 47.4638 85.3781 47.3738 85.39 47.2798C85.4018 47.1859 85.392 47.0905 85.3613 47.0009C85.3306 46.9113 85.2799 46.8299 85.2129 46.763C85.146 46.696 85.0646 46.6453 84.975 46.6146C84.8854 46.5839 84.79 46.5741 84.6961 46.5859C84.6021 46.5978 84.5121 46.6309 84.433 46.6829C84.3538 46.7348 84.2875 46.8042 84.2393 46.8857V46.8919Z" fill="#B38541"/>
<path d="M75.0154 37.706L63.8353 51.5538C63.8188 51.5703 63.8096 51.5926 63.8096 51.6159C63.8096 51.6392 63.8188 51.6615 63.8353 51.678C63.8518 51.6945 63.8741 51.7037 63.8974 51.7037C63.9207 51.7037 63.9431 51.6945 63.9595 51.678L75.8632 38.5476C75.946 38.5001 76.0167 38.4342 76.0699 38.355C76.1231 38.2757 76.1573 38.1853 76.1699 38.0907C76.1824 37.9962 76.1731 37.8999 76.1425 37.8096C76.1119 37.7192 76.0608 37.6371 75.9934 37.5696C75.9259 37.5021 75.8438 37.4511 75.7534 37.4205C75.663 37.3899 75.5668 37.3805 75.4722 37.3931C75.3777 37.4057 75.2872 37.4399 75.208 37.4931C75.1288 37.5463 75.0629 37.617 75.0154 37.6998V37.706Z" fill="#B38541"/>
<path d="M77.624 37.7179L66.2575 51.5502C66.2493 51.5583 66.2427 51.5679 66.2382 51.5786C66.2338 51.5893 66.2314 51.6007 66.2314 51.6123C66.2314 51.6239 66.2338 51.6353 66.2382 51.646C66.2427 51.6566 66.2493 51.6663 66.2575 51.6744C66.2748 51.6906 66.2976 51.6996 66.3212 51.6996C66.3449 51.6996 66.3676 51.6906 66.3849 51.6744L78.6209 38.7148C78.9811 38.3577 79.0495 37.839 78.7731 37.5626C78.4967 37.2862 77.9811 37.3546 77.624 37.7179Z" fill="#B38541"/>
<path d="M80.1646 38.3952L68.6243 51.5629C68.6081 51.5802 68.5991 51.6029 68.5991 51.6266C68.5991 51.6502 68.6081 51.673 68.6243 51.6903C68.6324 51.6985 68.642 51.7051 68.6527 51.7096C68.6634 51.714 68.6748 51.7164 68.6864 51.7164C68.6979 51.7164 68.7094 51.714 68.7201 51.7096C68.7307 51.7051 68.7404 51.6985 68.7485 51.6903L81.1708 39.3952C81.5311 39.035 81.5994 38.5195 81.323 38.2431C81.0466 37.9667 80.5249 38.0381 80.1646 38.3952Z" fill="#B38541"/>
<path d="M83.41 41.5967L71.0683 53.9973C71.0515 54.0142 71.042 54.0371 71.042 54.0609C71.042 54.0848 71.0515 54.1077 71.0683 54.1246C71.0859 54.1401 71.1086 54.1487 71.132 54.1487C71.1555 54.1487 71.1781 54.1401 71.1957 54.1246L84.3696 42.6339C84.7454 42.2892 84.8416 41.7799 84.5776 41.4911C84.3137 41.2023 83.7888 41.2519 83.41 41.5967Z" fill="#B38541"/>
<path d="M82.0559 39.7238L71.0559 51.5903C71.0397 51.6075 71.0308 51.6303 71.0308 51.6539C71.0308 51.6776 71.0397 51.7003 71.0559 51.7176C71.0637 51.7258 71.0731 51.7323 71.0835 51.7367C71.0939 51.7412 71.1051 51.7434 71.1165 51.7434C71.1278 51.7434 71.139 51.7412 71.1494 51.7367C71.1598 51.7323 71.1692 51.7258 71.177 51.7176L83.0652 40.7207C83.4286 40.3605 83.4938 39.8449 83.2205 39.5685C82.9472 39.2921 82.4161 39.3636 82.0559 39.7238Z" fill="#B38541"/>
<path d="M84.1366 44.0842L71.0559 56.3761C71.0476 56.3842 71.0411 56.3938 71.0366 56.4045C71.0321 56.4152 71.0298 56.4266 71.0298 56.4382C71.0298 56.4498 71.0321 56.4612 71.0366 56.4719C71.0411 56.4825 71.0476 56.4922 71.0559 56.5003C71.0637 56.509 71.0733 56.5159 71.084 56.5206C71.0947 56.5254 71.1063 56.5278 71.118 56.5278C71.1297 56.5278 71.1413 56.5254 71.152 56.5206C71.1627 56.5159 71.1722 56.509 71.1801 56.5003L85.1366 45.0842C85.4969 44.7239 85.5652 44.2084 85.2888 43.932C85.0124 43.6556 84.5 43.7239 84.1366 44.0842Z" fill="#B38541"/>
<path d="M146.652 48.7002H144.286V60.1971H146.652V48.7002Z" fill="#4D4D4D"/>
<path d="M148.925 53.1719H145.689V54.8054H148.925V53.1719Z" fill="#4D4D4D"/>
<path d="M138.345 64.7675H146.789V63.134H139.118V58.9663H136.755V63.1713C136.755 63.5936 136.922 63.9986 137.22 64.2978C137.518 64.597 137.922 64.7659 138.345 64.7675Z" fill="#4D4D4D"/>
<path d="M139.832 48.9756V50.3265C139.832 54.1805 141.739 55.8793 142.873 56.5563L141.497 57.8327C140.699 57.3762 139.134 56.1588 138.547 54.3234C137.963 56.1588 136.398 57.3762 135.606 57.8327L134.23 56.5594C135.36 55.8824 137.27 54.1837 137.27 50.3296V48.9787L139.832 48.9756Z" fill="#4D4D4D"/>
<path d="M118.155 48.6836H115.792V64.9134H118.155V48.6836Z" fill="#4D4D4D"/>
<path d="M111.55 56.7773H109.183V60.1873H111.55V56.7773Z" fill="#4D4D4D"/>
<path d="M115.798 59.2588H106.022V60.8954H115.798V59.2588Z" fill="#4D4D4D"/>
<path d="M106.335 53.7654C106.335 51.8368 108.143 50.2778 110.372 50.2778C112.602 50.2778 114.41 51.8306 114.41 53.7654C114.41 55.7002 112.602 57.253 110.372 57.253C108.143 57.253 106.335 55.6847 106.335 53.7654ZM110.372 55.6567C110.751 55.6804 111.129 55.5896 111.455 55.3962C111.782 55.2028 112.043 54.9157 112.205 54.5721C112.366 54.2285 112.421 53.8443 112.362 53.4693C112.302 53.0943 112.131 52.7458 111.871 52.469C111.611 52.1923 111.274 52 110.904 51.9172C110.533 51.8344 110.146 51.8648 109.793 52.0045C109.44 52.1443 109.137 52.3869 108.924 52.7008C108.71 53.0148 108.596 53.3857 108.596 53.7654C108.585 54.2481 108.764 54.7159 109.095 55.0679C109.425 55.4199 109.881 55.628 110.363 55.6474L110.372 55.6567Z" fill="#4D4D4D"/>
<path d="M111.55 47.8867H109.183V49.8153H111.55V47.8867Z" fill="#4D4D4D"/>
<path d="M114.73 49.4014H106.022V51.038H114.73V49.4014Z" fill="#4D4D4D"/>
<path d="M98.6026 55.293H96.2393V59.1035H98.6026V55.293Z" fill="#4D4D4D"/>
<path d="M104.177 54.8955H91.5432V56.5322H104.177V54.8955Z" fill="#4D4D4D"/>
<path d="M101.699 48.9756H92.4536V50.6123H100.938V55.8918H103.301V50.5688C103.301 50.3588 103.26 50.1508 103.179 49.9569C103.099 49.763 102.98 49.587 102.832 49.4389C102.683 49.2909 102.506 49.1737 102.311 49.0942C102.117 49.0147 101.909 48.9744 101.699 48.9756Z" fill="#4D4D4D"/>
<path d="M101.699 58.2954H92.2422V59.929H100.938V64.8979H103.301V59.8917C103.302 59.6814 103.26 59.4732 103.18 59.2789C103.099 59.0847 102.981 58.9082 102.832 58.7599C102.683 58.6115 102.507 58.494 102.312 58.4143C102.117 58.3346 101.909 58.2942 101.699 58.2954Z" fill="#4D4D4D"/>
<path d="M187.466 53.2642H184.227V54.8977H187.466V53.2642Z" fill="#4D4D4D"/>
<path d="M189 48.6836H186.637V64.9134H189V48.6836Z" fill="#4D4D4D"/>
<path d="M182.382 48.1494H180.019V50.3202H182.382V48.1494Z" fill="#4D4D4D"/>
<path d="M182.481 51.1994V52.2119C182.481 55.6435 184.248 57.215 185.534 58.451L184.208 59.6653C183.571 59.3143 181.761 57.4665 181.202 56.2025C180.484 57.7367 178.664 59.4137 178.189 59.6653L176.869 58.423C178.171 57.1808 179.919 55.628 179.919 52.1839V51.187L182.481 51.1994Z" fill="#4D4D4D"/>
<path d="M184.848 50.1411H177.547V51.7778H184.848V50.1411Z" fill="#4D4D4D"/>
<path d="M159.87 51.6655H156.634V53.3022H159.87V51.6655Z" fill="#4D4D4D"/>
<path d="M161.407 48.7236H159.041V57.8292H161.407V48.7236Z" fill="#4D4D4D"/>
<path d="M154.873 48.9756V49.8452C154.873 53.6992 156.792 55.401 157.922 56.0812L156.599 57.3017C155.807 56.842 154.18 55.6805 153.59 53.8389C153.006 55.6805 151.379 56.842 150.581 57.3017L149.261 56.0812C150.394 55.401 152.31 53.6992 152.31 49.8452V48.9756H154.873Z" fill="#4D4D4D"/>
<path d="M157.242 48.9736H149.941V50.6072H157.242V48.9736Z" fill="#4D4D4D"/>
<path d="M151.873 61.6991C151.873 59.5252 153.972 57.7612 156.565 57.7612C159.158 57.7612 161.251 59.5252 161.251 61.6991C161.251 63.873 159.152 65.6401 156.565 65.6401C153.978 65.6401 151.873 63.8761 151.873 61.6991ZM156.565 63.9941C157.017 63.9886 157.457 63.8496 157.83 63.5946C158.204 63.3396 158.493 62.9799 158.662 62.5608C158.832 62.1418 158.873 61.682 158.782 61.2393C158.69 60.7967 158.47 60.3909 158.149 60.0731C157.828 59.7552 157.42 59.5394 156.976 59.4529C156.532 59.3663 156.073 59.4129 155.656 59.5867C155.239 59.7605 154.882 60.0537 154.631 60.4296C154.38 60.8055 154.246 61.2471 154.245 61.6991C154.246 62.0023 154.307 62.3022 154.425 62.5817C154.542 62.8612 154.713 63.1148 154.929 63.328C155.144 63.5412 155.4 63.7098 155.681 63.8241C155.961 63.9384 156.262 63.9962 156.565 63.9941Z" fill="#4D4D4D"/>
<path d="M174.786 52.0654H171.63V53.699H174.786V52.0654Z" fill="#4D4D4D"/>
<path d="M173.401 60.2058V64.9139H175.767V60.1654C175.766 59.7426 175.598 59.3374 175.298 59.0387C174.999 58.74 174.594 58.5723 174.171 58.5723H165.519V60.2058H173.401Z" fill="#4D4D4D"/>
<path d="M167.832 48.1494H165.469V50.3202H167.832V48.1494Z" fill="#4D4D4D"/>
<path d="M170.062 49.7393H163.239V51.3728H170.062V49.7393Z" fill="#4D4D4D"/>
<path d="M172.851 48.7236H170.786V57.6708H172.851V48.7236Z" fill="#4D4D4D"/>
<path d="M175.767 48.7236H173.696V57.6708H175.767V48.7236Z" fill="#4D4D4D"/>
<path d="M167.848 50.5476V50.0693H165.444V50.5476C165.444 54.6159 162.798 56.3022 162.798 56.3022L164.196 57.5258C165.225 56.7101 166.062 55.6786 166.649 54.5041C167.233 55.6796 168.07 56.7114 169.099 57.5258L170.5 56.3022C170.5 56.3022 167.848 54.6159 167.848 50.5476Z" fill="#4D4D4D"/>
<path d="M130.391 48.6836H128.245V64.9134H130.391V48.6836Z" fill="#4D4D4D"/>
<path d="M133.385 48.6836H131.236V64.9134H133.385V48.6836Z" fill="#4D4D4D"/>
<path d="M119.165 54.1369C119.165 51.227 120.947 48.8574 123.149 48.8574C125.351 48.8574 127.137 51.2177 127.137 54.1369C127.137 57.0562 125.351 59.4164 123.149 59.4164C120.947 59.4164 119.165 57.0437 119.165 54.1369ZM123.149 57.7083C124.081 57.7083 124.817 56.109 124.817 54.1369C124.817 52.1649 124.068 50.5655 123.149 50.5655C122.23 50.5655 121.481 52.1649 121.481 54.1369C121.481 56.109 122.23 57.7083 123.149 57.7083Z" fill="#4D4D4D"/>
<path d="M129.534 55.2578H125.518V56.8914H129.534V55.2578Z" fill="#4D4D4D"/>
<path d="M129.534 51.3799H125.518V53.0134H129.534V51.3799Z" fill="#4D4D4D"/>
</svg>
