<svg width="240" height="109" viewBox="0 0 240 109" fill="none" xmlns="http://www.w3.org/2000/svg">
<rect width="240" height="108.387" rx="10" fill=""/>
<g clip-path="url(#clip0_2572_64283)">
<path d="M63.4479 50.4883V52.1697C63.4234 52.4771 63.4586 52.7864 63.5515 53.0804C63.6216 53.2079 63.7904 53.2738 64.0594 53.2738L64.2913 53.2668L64.6311 53.2598H65.2924C65.5518 53.253 65.8032 53.1688 66.0143 53.018C66.2254 52.8672 66.3866 52.6566 66.4771 52.4135L66.655 52.0331C66.676 51.9893 66.7088 51.9525 66.7499 51.9267C66.7909 51.9009 66.8384 51.8873 66.8869 51.8874C67.0004 51.8874 67.0578 51.9518 67.0578 52.0975C67.0578 52.1396 67.0494 52.2516 67.0326 52.4387C67.0242 52.5718 67.02 52.6855 67.02 52.7799C67.02 52.9452 67.0396 53.334 67.0901 53.9463C67.1209 54.3421 67.1349 54.6889 67.1349 54.9845L67.1433 55.3817C67.1467 55.4314 67.1391 55.4812 67.1209 55.5275C67.1063 55.5458 67.0874 55.5604 67.066 55.5699C67.0445 55.5794 67.021 55.5836 66.9976 55.5821C66.8687 55.5919 66.7874 55.4953 66.7545 55.2872C66.718 54.9115 66.5547 54.5594 66.2914 54.2889C66.1546 54.1632 65.9843 54.08 65.801 54.0493C65.4405 54.0006 65.0767 53.9818 64.7131 53.9932H64.1884C64.0113 53.9756 63.8332 54.0154 63.6804 54.1067C63.5659 54.2297 63.5005 54.3905 63.4969 54.5586C63.4603 54.965 63.4453 55.3731 63.4521 55.7811V56.4816C63.428 57.0104 63.4856 57.5397 63.623 58.0509C63.6752 58.2356 63.7831 58.3998 63.9319 58.521C64.0977 58.6165 64.2883 58.6599 64.4791 58.6457C66.5756 58.6457 67.9478 58.0075 68.5956 56.731C68.632 56.6694 68.6656 56.6358 68.6881 56.633C68.7143 56.627 68.7416 56.6281 68.7672 56.6362C68.7928 56.6443 68.8158 56.6592 68.8338 56.6792C68.8764 56.7247 68.8995 56.785 68.8982 56.8473C68.895 57.3676 68.7525 57.8775 68.4856 58.3241C68.2939 58.6908 67.998 58.9926 67.6351 59.1914C67.2093 59.3829 66.7447 59.4726 66.2781 59.4534C65.9104 59.4502 65.543 59.4283 65.1775 59.3876L64.2794 59.3063C63.9495 59.2727 63.5032 59.2558 62.9365 59.2558C62.5616 59.2558 61.9893 59.2811 61.2187 59.3259C61.0085 59.3413 60.8537 59.3497 60.7612 59.3497C60.7362 59.3529 60.7108 59.3507 60.6867 59.3434C60.6625 59.3361 60.6402 59.3237 60.6212 59.3072C60.6022 59.2907 60.5868 59.2703 60.5762 59.2475C60.5655 59.2246 60.5598 59.1998 60.5594 59.1746C60.5552 59.0807 60.6099 59.0107 60.729 58.9644C60.955 58.8941 61.1611 58.7715 61.3308 58.6064C61.4679 58.4033 61.5546 58.1703 61.5837 57.9269C61.6481 57.5595 61.6763 57.1866 61.6677 56.8137V50.681C61.713 50.2679 61.614 49.8518 61.3875 49.5033C61.0509 49.2384 60.6393 49.0866 60.2113 49.0697C60.182 49.0698 60.153 49.0638 60.1262 49.0521C60.0994 49.0404 60.0753 49.0232 60.0555 49.0016C60.0358 48.98 60.0207 48.9546 60.0113 48.9269C60.0019 48.8991 59.9985 48.8698 60.0011 48.8406C60.0011 48.7215 60.0852 48.6592 60.2554 48.6592C60.2918 48.6592 60.3703 48.6634 60.4901 48.6732C60.5826 48.6802 60.7094 48.6816 60.8691 48.6816L61.6509 48.7138L64.5884 48.7446C66.2767 48.7446 67.3175 48.7213 67.7108 48.6746C67.7471 48.6708 67.7836 48.6689 67.8201 48.669C67.9658 48.669 68.0442 48.7544 68.0442 48.9261C68.0442 49.0452 68.0582 49.2547 68.0877 49.5622C68.1325 50.0071 68.1507 50.3328 68.1507 50.529C68.1507 50.9206 68.0512 51.123 67.8488 51.1335C67.7521 51.1335 67.7017 51.0229 67.7017 50.7882C67.7185 50.569 67.6752 50.3494 67.5764 50.153C67.4776 49.9566 67.3272 49.7908 67.1412 49.6736C66.577 49.4018 65.9515 49.2823 65.3268 49.3268H64.3782L63.8507 49.3871C63.588 49.4711 63.4591 49.7324 63.4591 50.1689L63.4479 50.4883Z" fill="#0E152E"/>
<path d="M72.8529 52.7114C72.986 52.7114 73.1591 52.8263 73.3692 53.054L73.8225 53.5444L74.1272 53.8631C74.1732 53.9283 74.1976 54.0062 74.1973 54.0859C74.1973 54.2036 74.0866 54.3661 73.8575 54.5763C73.7015 54.7113 73.5548 54.8567 73.4183 55.0114C73.1696 55.2797 72.9846 55.4142 72.8578 55.4142C72.7555 55.4142 72.6147 55.3217 72.4375 55.134C72.2 54.8755 72.0172 54.6905 71.8889 54.5735C71.6374 54.3479 71.5085 54.1707 71.5085 54.0474C71.5085 53.9241 71.622 53.7707 71.8427 53.5759C71.9548 53.4764 72.1229 53.3076 72.338 53.0736C72.5531 52.8396 72.7303 52.7114 72.8529 52.7114Z" fill="#0E152E"/>
<path d="M79.8812 56.9326C79.8812 57.8952 79.9979 58.4365 80.2314 58.5565C80.4739 58.6422 80.7316 58.6765 80.988 58.6574C82.738 58.6574 83.9783 58.1423 84.7087 57.112C84.935 56.7974 85.0751 56.6433 85.134 56.6433C85.2278 56.6433 85.2741 56.747 85.2741 56.9607C85.2774 57.605 85.0492 58.229 84.631 58.7191C84.4438 58.9434 84.2073 59.1215 83.9399 59.2394C83.6726 59.3572 83.3816 59.4117 83.0897 59.3986C82.9538 59.3986 82.7093 59.3888 82.3513 59.3636C82.2603 59.3552 81.9499 59.3398 81.421 59.3104L80.5803 59.2697C80.3001 59.2529 79.9729 59.2473 79.6135 59.2473C78.9657 59.2496 78.3185 59.2884 77.6751 59.3636C77.534 59.3826 77.3921 59.3943 77.2499 59.3986C77.0985 59.3986 77.0264 59.3328 77.0264 59.1955C77.0264 59.1016 77.0908 59.0357 77.2274 58.9979C77.374 58.9653 77.5114 58.9004 77.6297 58.8079C77.748 58.7154 77.8442 58.5977 77.9112 58.4634C78.0616 58.0455 78.1259 57.6016 78.1003 57.1582V50.697C78.1003 49.8717 77.7592 49.4058 77.0691 49.2958L76.6074 49.2174C76.4113 49.188 76.3111 49.1067 76.3111 48.9827C76.3066 48.9507 76.3096 48.9181 76.3198 48.8875C76.33 48.8568 76.3471 48.8289 76.3698 48.806C76.3925 48.783 76.4202 48.7656 76.4507 48.755C76.4812 48.7445 76.5137 48.7411 76.5458 48.7452C76.6213 48.7478 76.6965 48.7563 76.7707 48.7704C76.8407 48.7732 76.9418 48.783 77.074 48.7999L77.4068 48.8223C77.7227 48.8545 77.9595 48.8685 78.1129 48.8685C78.5113 48.8584 78.9088 48.8275 79.3039 48.776C79.7138 48.7341 80.1256 48.7135 80.5376 48.7144C80.8479 48.7144 81.0034 48.7844 81.0034 48.9351C81.0034 49.0612 80.8928 49.1298 80.6693 49.1403C80.146 49.1754 79.8875 49.5361 79.8875 50.215L79.8812 56.9326Z" fill="#0E152E"/>
<path d="M91.2245 49.672L94.747 57.7628C94.8819 58.1095 95.0939 58.4209 95.367 58.6735C95.6336 58.8864 95.9516 59.0253 96.2889 59.0764C96.3828 59.0904 96.429 59.1646 96.429 59.297C96.429 59.4295 96.3688 59.5072 96.2525 59.5023C96.1533 59.4921 96.0548 59.4762 95.9575 59.4547C95.3211 59.3509 94.6763 59.3077 94.0317 59.3258C93.4238 59.3031 92.8152 59.344 92.2158 59.4477C92.1496 59.4664 92.0814 59.4772 92.0127 59.4799C91.9831 59.4837 91.953 59.4806 91.9249 59.4708C91.8967 59.461 91.8712 59.4448 91.8503 59.4235C91.8295 59.4022 91.8138 59.3763 91.8047 59.3479C91.7956 59.3195 91.7931 59.2894 91.7976 59.2599C91.7976 59.1843 91.8522 59.131 91.9657 59.0918C92.2052 59.0274 92.4198 58.8924 92.5815 58.7044C92.734 58.5455 92.8212 58.3353 92.826 58.1152C92.7018 57.4492 92.4754 56.8065 92.1549 56.2097C92.0148 55.9119 91.86 55.7396 91.6932 55.6948C91.1019 55.6314 90.5068 55.6094 89.9124 55.6289H88.8615L88.168 55.755C87.976 55.8405 87.761 56.1803 87.52 56.7736L87.2769 57.3684C87.2069 57.532 87.1706 57.7081 87.1704 57.8861C87.1704 58.5355 87.6237 58.9103 88.5344 59.0147C88.7277 59.0413 88.8265 59.1184 88.8209 59.2424C88.8111 59.3825 88.7186 59.4526 88.5407 59.4526C88.4077 59.4464 88.2754 59.4301 88.1449 59.4035C87.8427 59.3418 87.5355 59.3085 87.2271 59.3041C86.984 59.3041 86.591 59.3279 86.0481 59.3811C85.6439 59.4217 85.3938 59.4414 85.2943 59.4414C85.1542 59.4414 85.0764 59.3811 85.0764 59.2522C85.0764 59.1485 85.1521 59.0715 85.2929 59.0161C85.5652 58.9351 85.8022 58.7645 85.9654 58.532C86.256 58.0608 86.5063 57.5658 86.7136 57.0524L88.8272 52.1801C88.9968 51.7912 89.1166 51.5257 89.1838 51.3814L89.9054 49.9039L90.2788 49.1767V49.1992C90.4413 48.8076 90.5513 48.6128 90.6101 48.6128C90.6942 48.6128 90.8336 48.8286 91.0368 49.2608L91.2245 49.672ZM91.5139 54.515L90.5023 52.1513C90.2606 51.5846 90.0868 51.3008 89.9845 51.3008C89.9229 51.3008 89.8094 51.4844 89.6448 51.8494L89.4991 52.1737L88.5939 54.2355L88.5099 54.4303C88.4778 54.4927 88.4592 54.5612 88.4552 54.6313C88.4552 54.8051 88.6402 54.8954 89.0108 54.8954H91.2981C91.4943 54.8954 91.5902 54.8394 91.5902 54.7329C91.5857 54.6872 91.5734 54.6427 91.5538 54.6012L91.5139 54.515Z" fill="#0E152E"/>
<path d="M100.938 50.5304L105.036 55.1324L105.3 55.4259C105.65 55.8203 105.884 56.0158 106.001 56.0158C106.107 56.0158 106.166 55.8589 106.176 55.5429C106.223 54.4034 106.246 53.3175 106.246 52.2853C106.31 51.4476 106.184 50.6064 105.879 49.8236C105.718 49.5919 105.501 49.4047 105.248 49.279C104.995 49.1534 104.715 49.0935 104.433 49.1048C104.263 49.0964 104.176 49.0347 104.176 48.9226C104.176 48.7867 104.251 48.7167 104.402 48.7167C104.703 48.7268 105.004 48.753 105.303 48.7951C105.525 48.8233 105.749 48.8392 105.973 48.8428C106.541 48.824 107.109 48.7745 107.672 48.6943C107.775 48.6844 107.846 48.6816 107.897 48.6816C108.06 48.6816 108.143 48.7517 108.143 48.8995C108.143 49.0312 108.06 49.1097 107.897 49.1349C107.23 49.261 106.897 49.8495 106.897 50.9101V51.2905L106.787 56.1279L106.757 56.7934L106.75 57.6509L106.757 58.2373L106.787 59.2083C106.787 59.3484 106.736 59.4226 106.63 59.4184C106.574 59.4101 106.519 59.3906 106.469 59.361C106.42 59.3315 106.377 59.2924 106.343 59.2461L99.2998 51.4131C99.1765 51.28 99.0897 51.2121 99.0427 51.2121C98.918 51.2121 98.8578 51.3284 98.8578 51.5623L98.848 51.7851V54.7884C98.8004 55.8685 98.8825 56.9504 99.0925 58.011C99.2611 58.5878 99.7645 58.9147 100.603 58.9918C100.757 59.0086 100.835 59.0744 100.835 59.1879C100.839 59.2206 100.836 59.2539 100.826 59.2852C100.815 59.3164 100.798 59.3448 100.774 59.3679C100.751 59.391 100.722 59.4083 100.69 59.4183C100.659 59.4283 100.626 59.4307 100.593 59.4254C100.492 59.4214 100.391 59.4106 100.291 59.3932C99.8135 59.3187 99.3306 59.2831 98.8473 59.2867C98.3779 59.2817 97.9089 59.3187 97.4461 59.3974C97.3154 59.4214 97.1831 59.4359 97.0503 59.4408C96.9102 59.4408 96.8402 59.3792 96.8402 59.2517C96.8402 59.1466 96.9144 59.073 97.0615 59.031C97.2391 58.9844 97.4048 58.9006 97.5475 58.7851C97.6903 58.6697 97.8069 58.5252 97.8896 58.3613C98.0847 57.902 98.1731 57.4045 98.1481 56.9062L98.2013 55.0665V51.7095C98.2013 50.1248 97.6147 49.2907 96.4415 49.2071C96.2846 49.1987 96.2026 49.1328 96.2026 49.0081C96.2026 48.8624 96.2923 48.7881 96.4667 48.7881L97.0027 48.8119L97.3298 48.8035C97.7327 48.8035 98.1663 48.7811 98.628 48.7335C98.7975 48.7167 98.9425 48.7111 99.056 48.7111C99.1901 48.7031 99.323 48.7401 99.4336 48.8161C99.6474 49.011 99.8436 49.2243 100.02 49.4537L100.552 50.0842C100.768 50.33 100.899 50.4758 100.938 50.5304Z" fill="#0E152E"/>
<path d="M110.411 50.8613C110.424 50.6523 110.395 50.4427 110.325 50.2455C110.254 50.0483 110.144 49.8676 110.001 49.7145C109.844 49.5738 109.66 49.4659 109.46 49.397C109.261 49.3281 109.049 49.2996 108.839 49.3131C108.679 49.3131 108.598 49.243 108.598 49.1071C108.594 49.0698 108.601 49.032 108.619 48.9987C108.636 48.9654 108.663 48.9382 108.697 48.9208C108.841 48.8856 108.989 48.8715 109.137 48.8787L110.316 48.8956C110.587 48.8956 110.824 48.8899 111.038 48.8787C111.364 48.8605 111.808 48.8213 112.379 48.7708C113.143 48.7008 113.749 48.6602 114.201 48.6602C115.721 48.5842 117.216 49.0635 118.408 50.0087C118.927 50.4443 119.34 50.9925 119.615 51.6117C119.89 52.2309 120.02 52.9046 119.994 53.5816C120.026 54.4593 119.85 55.3321 119.479 56.1286C119.109 56.925 118.556 57.6225 117.864 58.164C116.871 58.9792 115.624 59.4212 114.339 59.4131C114.121 59.4131 113.686 59.3906 113.031 59.3514C112.656 59.3318 112.276 59.3206 111.88 59.3206C111.268 59.3056 110.656 59.3313 110.047 59.3977C109.888 59.4294 109.728 59.4496 109.566 59.4579C109.447 59.4579 109.388 59.3822 109.388 59.233C109.388 59.1265 109.451 59.0593 109.583 59.0327C109.714 59.0187 109.841 58.9762 109.954 58.908C110.068 58.8399 110.165 58.7478 110.238 58.6382C110.376 58.3116 110.435 57.9571 110.409 57.6035L110.411 50.8613ZM112.194 50.441V57.2364L112.286 57.9454C112.457 58.5432 113.094 58.8416 114.198 58.8407C114.736 58.8633 115.272 58.7634 115.766 58.5484C116.259 58.3335 116.697 58.0092 117.047 57.6C117.789 56.6439 118.162 55.4528 118.098 54.2443C118.156 52.9238 117.705 51.6314 116.837 50.6343C116.427 50.1781 115.921 49.8171 115.357 49.5767C114.792 49.3362 114.182 49.2221 113.568 49.2423C113.182 49.2059 112.793 49.281 112.447 49.4588C112.278 49.5716 112.195 49.8974 112.195 50.441H112.194Z" fill="#0E152E"/>
<path d="M127.367 56.3174C127.319 56.9934 127.411 57.6721 127.638 58.3105C127.749 58.4952 127.905 58.6478 128.093 58.7531C128.281 58.8584 128.492 58.9128 128.707 58.9109C128.922 58.9319 129.033 59.016 129.033 59.1624C129.033 59.3088 128.946 59.3831 128.769 59.3831C128.714 59.3831 128.607 59.3761 128.45 59.3621C128.008 59.3242 127.579 59.306 127.166 59.306C126.82 59.306 126.512 59.3154 126.244 59.334L125.591 59.3929L125.074 59.4391C124.927 59.4545 124.828 59.4587 124.77 59.4587C124.587 59.4587 124.494 59.3887 124.494 59.2486C124.489 59.1995 124.502 59.1504 124.53 59.1099C124.559 59.0694 124.6 59.0402 124.648 59.0272C124.931 58.9612 125.186 58.8081 125.378 58.5894C125.527 58.3372 125.596 58.0453 125.575 57.7529V57.0159L125.584 56.7168V51.1214C125.625 50.6923 125.544 50.2602 125.35 49.8751C125.199 49.6905 125.01 49.5397 124.797 49.4324C124.583 49.3251 124.35 49.2638 124.111 49.2523C123.901 49.2187 123.795 49.1276 123.795 48.9812C123.791 48.9515 123.793 48.9212 123.802 48.8927C123.812 48.8642 123.827 48.8382 123.848 48.8168C123.869 48.7954 123.895 48.7792 123.923 48.7694C123.952 48.7596 123.982 48.7566 124.012 48.7605C124.105 48.7635 124.199 48.7719 124.292 48.7857C124.727 48.8278 125.164 48.848 125.601 48.8459C126.123 48.8459 126.756 48.8175 127.5 48.7605C128.371 48.6946 128.972 48.6582 129.304 48.6582C130.188 48.6261 131.054 48.9113 131.746 49.4624C132.052 49.7021 132.299 50.0093 132.467 50.3602C132.635 50.711 132.72 51.096 132.714 51.485C132.718 51.9831 132.568 52.4703 132.285 52.8798C131.989 53.3036 131.578 53.6345 131.101 53.834C131 53.8732 130.95 53.925 130.956 53.9881C130.967 54.0553 130.994 54.1187 131.035 54.173C131.077 54.2431 131.15 54.3664 131.241 54.5366L131.933 55.7605L132.732 57.1749C132.92 57.5448 133.167 57.882 133.463 58.1739C133.671 58.3587 133.94 58.4588 134.218 58.4542C134.33 58.4538 134.441 58.4435 134.551 58.4233C134.607 58.4076 134.664 58.3991 134.722 58.3981C134.814 58.3981 134.862 58.4598 134.862 58.5774C134.862 58.7274 134.652 58.8976 134.231 59.0895C133.881 59.2634 133.497 59.3611 133.106 59.3761C132.818 59.3626 132.536 59.2854 132.282 59.1499C132.028 59.0145 131.806 58.8242 131.634 58.5929C130.946 57.6739 130.36 56.6817 129.889 55.6344C129.725 55.2333 129.492 54.8641 129.201 54.5436C128.941 54.3702 128.63 54.2893 128.318 54.3138H127.835L127.484 54.3783C127.406 54.4203 127.367 54.5439 127.367 54.7489L127.367 56.3174ZM127.367 50.2716V52.9519C127.34 53.1702 127.384 53.3916 127.493 53.5824C127.676 53.6947 127.892 53.7407 128.105 53.7128C128.676 53.7265 129.248 53.7097 129.817 53.6623C130.049 53.6227 130.264 53.5129 130.432 53.3478C130.624 53.1691 130.774 52.9504 130.872 52.7072C130.97 52.464 131.014 52.2022 131 51.9403C131.012 51.5829 130.95 51.2267 130.819 50.8942C130.687 50.5616 130.488 50.2598 130.235 50.0075C129.98 49.7539 129.676 49.5551 129.342 49.4235C129.008 49.2919 128.65 49.2303 128.291 49.2425C128.16 49.2282 128.029 49.2403 127.903 49.2783C127.778 49.3162 127.661 49.3791 127.561 49.4631C127.406 49.7029 127.338 49.988 127.367 50.2716Z" fill="#0E152E"/>
<path d="M138.451 50.4892V52.1705C138.426 52.4778 138.461 52.787 138.553 53.0812C138.623 53.2087 138.792 53.2746 139.06 53.2746L139.294 53.2676L139.634 53.2606H140.294C140.553 53.2536 140.805 53.1693 141.016 53.0186C141.227 52.8678 141.388 52.6573 141.479 52.4143L141.655 52.0339C141.677 51.9902 141.71 51.9534 141.752 51.9277C141.793 51.902 141.841 51.8883 141.89 51.8882C142.002 51.8882 142.06 51.9526 142.06 52.0983C142.06 52.1404 142.051 52.2525 142.036 52.4395C142.027 52.5726 142.02 52.6868 142.02 52.7807C142.02 52.946 142.046 53.3348 142.09 53.9471C142.121 54.3429 142.138 54.6897 142.138 54.9854L142.146 55.3826C142.151 55.4325 142.142 55.4827 142.121 55.5283C142.107 55.5472 142.088 55.5622 142.066 55.5718C142.044 55.5813 142.02 55.5852 141.996 55.5829C141.869 55.5927 141.786 55.4961 141.758 55.288C141.72 54.914 141.556 54.5643 141.292 54.2967C141.155 54.1708 140.985 54.0875 140.801 54.0571C140.441 54.0086 140.077 53.9898 139.713 54.0011H139.186C139.009 53.9845 138.832 54.0242 138.679 54.1146C138.568 54.2395 138.504 54.3992 138.497 54.5664C138.461 54.9729 138.447 55.3809 138.454 55.7889V56.4895C138.43 57.0179 138.486 57.5469 138.619 58.0587C138.675 58.2427 138.784 58.4062 138.932 58.5288C139.098 58.6242 139.29 58.6677 139.481 58.6535C141.579 58.6535 142.951 58.0153 143.596 56.7389C143.632 56.6772 143.662 56.6436 143.69 56.6408C143.715 56.6347 143.742 56.6358 143.766 56.644C143.791 56.6521 143.813 56.667 143.83 56.687C143.874 56.7321 143.899 56.7922 143.9 56.8552C143.897 57.3756 143.754 57.8857 143.486 58.3319C143.296 58.7001 143 59.0024 142.635 59.1992C142.21 59.3909 141.746 59.4806 141.28 59.4612C140.913 59.4583 140.546 59.4363 140.181 59.3954L139.281 59.3141C138.951 59.2805 138.501 59.2637 137.941 59.2637C137.562 59.2637 136.99 59.2889 136.22 59.3337C136.01 59.3491 135.858 59.3576 135.766 59.3576C135.74 59.3614 135.715 59.3597 135.69 59.3527C135.666 59.3456 135.643 59.3334 135.624 59.3168C135.604 59.3001 135.589 59.2795 135.578 59.2563C135.567 59.2332 135.562 59.2079 135.562 59.1824C135.562 59.0885 135.615 59.0185 135.734 58.9723C135.959 58.9014 136.163 58.7788 136.332 58.6143C136.469 58.4109 136.556 58.1781 136.586 57.9347C136.65 57.5672 136.678 57.1945 136.671 56.8215V50.6888C136.715 50.2751 136.614 49.8592 136.386 49.5112C136.05 49.2461 135.639 49.0943 135.212 49.0775C135.182 49.0776 135.153 49.0716 135.126 49.0599C135.1 49.0482 135.076 49.031 135.056 49.0094C135.036 48.9879 135.021 48.9624 135.012 48.9347C135.002 48.907 134.999 48.8776 135.001 48.8484C135.001 48.7293 135.085 48.667 135.256 48.667C135.293 48.667 135.372 48.6712 135.489 48.681C135.583 48.688 135.709 48.6894 135.867 48.6894L136.653 48.7216L139.595 48.7525C141.28 48.7525 142.32 48.7291 142.715 48.6824C142.75 48.6787 142.786 48.6768 142.822 48.6768C142.972 48.6768 143.046 48.7623 143.046 48.9339C143.046 49.053 143.064 49.2625 143.095 49.57C143.134 50.0149 143.157 50.3406 143.157 50.5368C143.157 50.9284 143.054 51.1309 142.855 51.1414C142.755 51.1414 142.705 51.0307 142.705 50.796C142.722 50.5767 142.679 50.3569 142.58 50.1603C142.482 49.9638 142.331 49.7981 142.144 49.6814C141.578 49.4084 140.95 49.2888 140.323 49.3346H139.378L138.854 49.3949C138.59 49.4789 138.455 49.7403 138.455 50.1767L138.451 50.4892Z" fill="#0E152E"/>
<path d="M150.292 50.5928V56.4257C150.239 57.0689 150.37 57.714 150.671 58.285C150.833 58.4823 151.038 58.6398 151.27 58.7451C151.503 58.8504 151.756 58.9008 152.011 58.8924C152.197 58.9078 152.291 58.9989 152.291 59.1663C152.291 59.2854 152.211 59.3492 152.05 59.3492C152.015 59.3492 151.952 59.3492 151.855 59.3394L151.276 59.3183L150.306 59.2567C150.232 59.2511 150.126 59.2483 149.997 59.2483C149.696 59.2483 149.43 59.2567 149.191 59.2707L147.481 59.3702C147.357 59.3884 147.232 59.3991 147.107 59.4024C146.946 59.4024 146.868 59.3365 146.875 59.1992C146.871 59.1582 146.876 59.1168 146.889 59.0778C146.903 59.0387 146.924 59.003 146.952 58.973C147.047 58.9271 147.151 58.905 147.256 58.9085C147.433 58.9045 147.608 58.8635 147.769 58.7881C147.929 58.7127 148.072 58.6046 148.189 58.4707C148.422 58.1566 148.539 57.7707 148.517 57.3799L148.509 57.0177V50.1368C148.509 49.727 148.29 49.5252 147.85 49.5252C147.138 49.4859 146.424 49.5616 145.735 49.7494C145.52 49.8219 145.33 49.9555 145.188 50.134C145.027 50.4723 144.904 50.8276 144.822 51.1932L144.76 51.4153C144.703 51.6255 144.616 51.7327 144.495 51.7327C144.327 51.7327 144.245 51.6528 144.256 51.4924C144.268 51.2895 144.294 51.0875 144.332 50.8878L144.411 50.2153L144.505 49.5245L144.557 49.0502C144.556 49.0082 144.564 48.9664 144.58 48.9277C144.596 48.8889 144.621 48.8541 144.652 48.8255C144.683 48.797 144.719 48.7753 144.759 48.762C144.799 48.7487 144.841 48.744 144.883 48.7483C144.933 48.7483 145.023 48.7539 145.146 48.7651C145.347 48.7791 145.636 48.7875 146.007 48.7875L147.585 48.8015L149.472 48.8267C150.687 48.8267 151.973 48.7926 153.33 48.7245C153.597 48.716 153.771 48.7104 153.847 48.7104C154.127 48.7104 154.28 48.8295 154.296 49.0684L154.336 49.6289C154.336 49.7172 154.366 49.9252 154.406 50.2594C154.44 50.4772 154.459 50.6969 154.464 50.9172C154.464 51.0867 154.394 51.1743 154.254 51.1743C154.132 51.1743 154.052 51.0734 154.004 50.878C153.936 50.4639 153.714 50.0908 153.382 49.8342C152.978 49.5948 152.512 49.4828 152.043 49.5126C151.545 49.4681 151.044 49.531 150.572 49.6968C150.389 49.8117 150.292 50.113 150.292 50.5928Z" fill="#0E152E"/>
<path d="M160.086 49.672L163.611 57.7628C163.745 58.1093 163.957 58.4207 164.229 58.6735C164.496 58.8864 164.815 59.0253 165.152 59.0764C165.246 59.0904 165.292 59.1646 165.292 59.297C165.292 59.4295 165.232 59.5072 165.114 59.5023C165.015 59.4918 164.916 59.4759 164.818 59.4547C164.182 59.3507 163.538 59.3076 162.894 59.3258C162.287 59.3035 161.678 59.3443 161.079 59.4477C161.013 59.4662 160.946 59.477 160.878 59.4799C160.848 59.4838 160.818 59.4808 160.79 59.4711C160.761 59.4614 160.735 59.4453 160.714 59.4241C160.692 59.4029 160.676 59.377 160.667 59.3486C160.657 59.3201 160.654 59.2898 160.657 59.2599C160.657 59.1843 160.715 59.131 160.828 59.0918C161.068 59.0274 161.283 58.8924 161.446 58.7044C161.597 58.5452 161.685 58.3351 161.69 58.1152C161.566 57.4491 161.339 56.8063 161.018 56.2097C160.878 55.9119 160.723 55.7396 160.557 55.6948C159.966 55.6314 159.371 55.6094 158.777 55.6289H157.726L157.031 55.755C156.839 55.8405 156.624 56.1803 156.383 56.7736L156.141 57.3684C156.071 57.5322 156.034 57.7081 156.033 57.8861C156.033 58.5355 156.488 58.9103 157.397 59.0147C157.593 59.0413 157.689 59.1184 157.685 59.2424C157.674 59.3825 157.581 59.4526 157.405 59.4526C157.272 59.4463 157.139 59.4299 157.009 59.4035C156.708 59.3417 156.401 59.3084 156.094 59.3041C155.851 59.3041 155.459 59.3279 154.912 59.3811C154.508 59.4217 154.259 59.4414 154.16 59.4414C154.02 59.4414 153.943 59.3811 153.943 59.2522C153.943 59.1485 154.017 59.0715 154.16 59.0161C154.432 58.9348 154.668 58.7643 154.831 58.532C155.121 58.061 155.371 57.566 155.578 57.0524L157.693 52.1801C157.864 51.7912 157.983 51.5257 158.049 51.3814L158.771 49.9039L159.143 49.1767V49.1992C159.307 48.8076 159.42 48.6128 159.477 48.6128C159.558 48.6128 159.701 48.8286 159.902 49.2608L160.086 49.672ZM160.375 54.515L159.364 52.1513C159.122 51.5843 158.95 51.3008 158.847 51.3008C158.787 51.3008 158.671 51.4844 158.507 51.8494L158.362 52.1737L157.457 54.2355L157.371 54.4303C157.339 54.4927 157.321 54.5612 157.317 54.6313C157.317 54.8051 157.5 54.8954 157.872 54.8954H160.161C160.356 54.8954 160.456 54.8394 160.456 54.7329C160.451 54.6868 160.437 54.6422 160.415 54.6012L160.375 54.515Z" fill="#0E152E"/>
<path d="M168.886 56.9406L168.946 57.7112C168.984 58.0591 169.145 58.382 169.399 58.622C169.663 58.8424 169.999 58.9562 170.342 58.9407C170.592 58.9407 170.72 59.0192 170.72 59.174C170.72 59.3289 170.555 59.4031 170.218 59.4031C170.072 59.4031 169.867 59.3919 169.596 59.3653C169.054 59.2973 168.508 59.2585 167.961 59.249C167.552 59.2422 167.143 59.2689 166.739 59.3288C166.554 59.3695 166.367 59.3944 166.178 59.4031C166.128 59.4065 166.078 59.3918 166.038 59.3617C165.998 59.3317 165.97 59.2882 165.959 59.2392L165.945 59.1747L166.171 58.994C166.464 58.9161 166.723 58.7437 166.908 58.5036C167.053 58.2046 167.116 57.8723 167.09 57.541L167.097 56.8531V50.6881C167.13 50.3319 167.043 49.975 166.85 49.6737C166.608 49.4336 166.286 49.2908 165.945 49.2723C165.771 49.2534 165.6 49.2114 165.437 49.1476C165.401 49.1294 165.371 49.1012 165.352 49.0663C165.332 49.0315 165.322 48.9915 165.325 48.9514C165.325 48.8015 165.385 48.7308 165.51 48.7413C165.65 48.7525 165.789 48.7726 165.927 48.8015C166.238 48.8531 166.553 48.8742 166.868 48.8646C167.155 48.8646 167.513 48.8463 167.945 48.8113L168.51 48.7679C169.041 48.7273 169.45 48.7104 169.733 48.7104C169.902 48.7104 169.991 48.7735 169.991 48.8989C169.999 48.9649 169.984 49.0314 169.949 49.0881C169.924 49.1217 169.861 49.1427 169.756 49.1581C169.487 49.1705 169.233 49.2814 169.041 49.4698C168.907 49.7415 168.852 50.0455 168.883 50.347L168.886 56.9406Z" fill="#0E152E"/>
<path d="M174.611 56.9326C174.611 57.8952 174.725 58.4367 174.958 58.5565C175.201 58.6419 175.458 58.6763 175.715 58.6574C177.465 58.6574 178.705 58.1423 179.436 57.112C179.662 56.7974 179.802 56.6433 179.861 56.6433C179.957 56.6433 180.001 56.747 180.001 56.9607C180.005 57.6051 179.777 58.2293 179.358 58.7191C179.171 58.9437 178.934 59.122 178.667 59.2399C178.4 59.3578 178.108 59.4121 177.817 59.3986C177.682 59.3986 177.436 59.3888 177.081 59.3636C176.986 59.3552 176.677 59.3398 176.148 59.3104L175.307 59.2697C175.027 59.2529 174.698 59.2473 174.339 59.2473C173.692 59.2495 173.046 59.2883 172.403 59.3636C172.261 59.3826 172.117 59.3943 171.974 59.3986C171.824 59.3986 171.751 59.3328 171.751 59.1955C171.751 59.1016 171.821 59.0357 171.951 58.9979C172.098 58.9657 172.236 58.901 172.355 58.8085C172.473 58.716 172.57 58.598 172.637 58.4634C172.789 58.0461 172.853 57.6017 172.826 57.1582V50.697C172.826 49.8717 172.485 49.4058 171.799 49.2958L171.333 49.2174C171.137 49.1879 171.038 49.1067 171.038 48.9827C171.033 48.9508 171.036 48.9184 171.047 48.8879C171.057 48.8573 171.074 48.8295 171.096 48.8066C171.119 48.7836 171.146 48.7662 171.177 48.7555C171.207 48.7449 171.239 48.7414 171.271 48.7452C171.347 48.7478 171.422 48.7562 171.496 48.7704C171.566 48.7704 171.671 48.783 171.799 48.7999L172.134 48.8223C172.448 48.8545 172.683 48.8685 172.84 48.8685C173.237 48.8584 173.633 48.8275 174.027 48.776C174.437 48.7341 174.849 48.7136 175.261 48.7144C175.571 48.7144 175.727 48.7844 175.727 48.9351C175.727 49.0612 175.616 49.1298 175.393 49.1403C174.872 49.1753 174.612 49.5361 174.612 50.215L174.611 56.9326Z" fill="#0E152E"/>
</g>
<defs>
<clipPath id="clip0_2572_64283">
<rect width="120" height="37.2093" fill="white" transform="translate(60.0005 35.5894)"/>
</clipPath>
</defs>
</svg>
