<svg width="240" height="109" viewBox="0 0 240 109" fill="none" xmlns="http://www.w3.org/2000/svg">
<rect y="0.386719" width="240" height="108.387" rx="10" fill=""/>
<g clip-path="url(#clip0_2572_64543)">
<path d="M82.747 57.4C82.6827 57.0101 82.57 56.6296 82.4115 56.2675C81.954 55.1844 81.1657 54.2731 80.159 53.6635C79.3674 53.1947 78.4629 52.95 77.5426 52.9557C76.6222 52.9613 75.7208 53.217 74.935 53.6954C74.2022 54.1365 73.6074 54.7732 73.2176 55.5338C73.0884 55.7909 72.9789 56.0576 72.8902 56.3313C72.4668 57.6792 72.4908 59.4976 73.2496 60.7178C73.4923 61.1295 73.8623 61.4514 74.304 61.635C74.5241 61.724 74.7617 61.7613 74.9986 61.744C75.2354 61.7267 75.4651 61.6553 75.6699 61.5353C75.8962 61.3584 76.0651 61.1187 76.1553 60.8462C76.2456 60.5738 76.2531 60.2808 76.1771 60.004C76.0015 59.3037 76.0209 58.5687 76.233 57.8786C76.3099 57.6504 76.4383 57.443 76.6084 57.2724C76.7756 57.1161 76.9758 56.9991 77.1942 56.9301C77.4126 56.8611 77.6437 56.8418 77.8705 56.8736C78.1338 56.9321 78.3795 57.0517 78.5877 57.2229C78.7959 57.3941 78.9607 57.6119 79.0687 57.8586C79.2865 58.3622 79.398 58.9052 79.3961 59.4537C79.508 61.8105 78.9488 64.239 78.3418 66.508C78.2859 66.7419 78.2219 66.9732 78.1501 67.2019C78.1021 67.3813 78.0103 67.6006 78.1221 67.7801C78.1764 67.8528 78.2496 67.9093 78.3338 67.9436C78.4923 67.9878 78.6607 67.982 78.8158 67.9271C78.9709 67.8721 79.1053 67.7706 79.2004 67.6365C80.5389 66.2089 81.5237 64.4881 82.076 62.612C82.3097 61.9268 82.4939 61.2259 82.6272 60.5144C82.8417 59.4875 82.8782 58.4313 82.735 57.392" fill="#009090"/>
<path d="M92.6398 46.5255C92.6374 46.4444 92.6185 46.3647 92.5842 46.2912C92.5499 46.2177 92.5011 46.1519 92.4406 46.0978C92.38 46.0437 92.3091 46.0025 92.2322 45.9766C92.1552 45.9507 92.0738 45.9407 91.9928 45.9473C91.6536 45.9992 91.3248 46.1042 91.0183 46.2583C84.9397 48.5632 78.0822 49.0018 71.6761 48.0807C70.5778 47.9252 69.4675 47.7019 68.3692 47.5304C67.6782 47.4227 66.9953 47.2672 66.3004 47.2114C65.7093 47.1715 64.9704 47.1476 64.4911 47.5623C63.8561 48.1046 63.9 49.1374 64.2595 49.8233C64.731 50.6228 65.4117 51.279 66.2285 51.7215C66.9913 52.1761 67.9019 52.6586 68.8085 52.5988C71.2567 52.4433 73.697 52.2 76.1332 51.889C80.2828 51.3546 84.6361 50.8482 88.5142 49.2371C89.808 48.7271 91.0265 48.0443 92.1366 47.2074C92.3363 47.0598 92.6199 46.8086 92.6199 46.5255" fill="#009090"/>
<path d="M75.207 44.4443C75.207 45.0789 75.4595 45.6875 75.9089 46.1362C76.3583 46.5849 76.9678 46.837 77.6033 46.837C78.2389 46.837 78.8484 46.5849 79.2978 46.1362C79.7472 45.6875 79.9997 45.0789 79.9997 44.4443C79.9977 44.2474 79.9542 44.0531 79.8718 43.8741C79.6682 43.4394 79.4365 43.2281 79.4725 42.7057C79.5044 42.0078 78.6018 41.9999 78.1186 41.9999C77.5797 41.9826 77.0441 42.089 76.553 42.3109C76.1706 42.5045 75.8457 42.7945 75.6104 43.1523C75.3734 43.5234 75.2435 43.9525 75.235 44.3925V44.4443" fill="#E60044"/>
<path d="M97.744 50.0672V48.2368H100.444V50.0672H104.038V51.8018H102.177C102.621 52.3455 102.965 52.964 103.192 53.6282C103.451 54.3721 103.586 55.1535 103.591 55.9411C103.587 56.7117 103.47 57.4775 103.243 58.2141C103.047 58.8627 102.733 59.4697 102.317 60.0046C101.942 60.5015 101.462 60.9099 100.911 61.2009C100.343 61.4779 99.7198 61.6218 99.0879 61.6218C98.456 61.6218 97.8325 61.4779 97.2647 61.2009C96.7132 60.9093 96.2321 60.501 95.8549 60.0046C95.443 59.4612 95.1331 58.8478 94.9403 58.1942C94.7216 57.4565 94.6139 56.6905 94.6208 55.9212C94.6199 55.133 94.755 54.3506 95.0201 53.6083C95.2454 52.9443 95.5876 52.3258 96.0306 51.7819H94.2573V50.0472L97.744 50.0672ZM99.0939 51.8377C98.5507 51.8377 98.0994 52.2126 97.732 52.9663C97.3294 53.9043 97.1476 54.922 97.2008 55.9411C97.1488 56.9245 97.328 57.9064 97.724 58.8083C98.0834 59.5314 98.5334 59.8916 99.0739 59.889C99.6144 59.8863 100.064 59.5301 100.424 58.8203C100.822 57.9145 101.007 56.9294 100.963 55.9411C101.013 54.9066 100.832 53.874 100.432 52.9184C100.08 52.198 99.6344 51.8377 99.0939 51.8377ZM108.388 55.2672V65.6672H105.772V48.2368H108.376V53.5325H110.884V55.2672H108.388Z" fill="#231815"/>
<path d="M115.121 58.9239H120.313C120.577 58.9239 120.837 58.9239 121.112 58.888C121.37 58.8599 121.625 58.8119 121.875 58.7445C122.153 58.6608 122.421 58.5472 122.674 58.4055V48.2368H125.278V53.5325H127.786V55.2672H125.278V65.6672H122.674V60.1402C122.178 60.347 121.654 60.4813 121.12 60.539C120.568 60.6063 120.011 60.6409 119.455 60.6426H113.676C113.398 60.6461 113.123 60.5844 112.873 60.4625C112.623 60.3406 112.406 60.1619 112.238 59.9408C111.855 59.4628 111.653 58.8658 111.667 58.254V49.0065H114.271V58.2141C114.265 58.3126 114.28 58.4113 114.317 58.5029C114.354 58.5946 114.41 58.6771 114.482 58.7445C114.668 58.8771 114.894 58.9406 115.121 58.9239Z" fill="#231815"/>
<path d="M131.149 51.9925H133.174V48.8023H135.778V52.172H137.515V48.2241H140.019V61.0606H137.515V53.9186H135.778V58.2134H130.586C130.313 58.2112 130.045 58.1485 129.799 58.0299C129.554 57.9113 129.338 57.7397 129.168 57.5275C128.757 57.0763 128.531 56.4866 128.537 55.8766V48.8143H131.141L131.149 51.9925ZM131.149 53.7232V55.6692C131.139 55.7788 131.152 55.8892 131.187 55.9936C131.222 56.0979 131.278 56.1938 131.352 56.2754C131.415 56.3417 131.492 56.394 131.576 56.4291C131.661 56.4641 131.752 56.481 131.844 56.4787H133.174V53.7232H131.149ZM135.39 63.9318H143.59V65.6665H133.869C133.607 65.6684 133.349 65.6061 133.117 65.4851C132.885 65.3641 132.686 65.1881 132.539 64.9726C132.189 64.5059 132.005 63.9363 132.015 63.3536V59.6968H134.619V63.1622C134.613 63.2649 134.628 63.3678 134.665 63.4641C134.701 63.5604 134.758 63.6478 134.831 63.7206C134.904 63.7934 134.991 63.8499 135.088 63.8863C135.184 63.9227 135.287 63.9382 135.39 63.9318ZM143.59 48.2361V61.0606H141.081V48.2361H143.59Z" fill="#231815"/>
<path d="M154.006 51.8888H151.014V53.0851C150.968 54.4975 151.269 55.8998 151.893 57.1685C152.392 58.2336 153.287 59.0621 154.389 59.4774V61.3078C153.822 61.2555 153.268 61.1058 152.751 60.8651C152.243 60.6332 151.763 60.3428 151.322 59.9998C150.911 59.6887 150.536 59.3329 150.203 58.9391C149.933 58.6349 149.724 58.2815 149.588 57.8983C149.453 58.2759 149.25 58.6259 148.989 58.9311C148.67 59.3197 148.308 59.6715 147.911 59.9799C147.475 60.3202 147.002 60.6105 146.501 60.8452C146.01 61.0843 145.482 61.2406 144.939 61.3078V59.4654C146.033 59.0292 146.921 58.1977 147.428 57.1366C148.041 55.8569 148.344 54.4515 148.314 53.0332V51.8888H145.227V50.1541H148.314V48.228H151.014V50.1541H154.006V51.8888ZM159.198 48.228V65.6584H156.594V55.4777H153.215V53.7231H156.594V48.236L159.198 48.228Z" fill="#231815"/>
<path d="M161.042 61.428H176.666V63.1627H161.042V61.428ZM170.204 49.2017V50.9124C170.199 51.6442 170.31 52.3723 170.532 53.0698C170.738 53.7134 171.058 54.3145 171.478 54.8443C172.345 55.8935 173.578 56.5748 174.929 56.7504V58.5609C174.173 58.5276 173.427 58.3838 172.713 58.1342C172.065 57.9134 171.444 57.6232 170.859 57.2688C170.369 56.9717 169.916 56.6169 169.509 56.2121C169.208 55.9217 168.966 55.5748 168.799 55.1912C168.62 55.5811 168.367 55.933 168.056 56.228C167.646 56.6354 167.189 56.9916 166.694 57.2888C166.117 57.6264 165.51 57.9094 164.881 58.1342C164.206 58.3828 163.498 58.532 162.78 58.5768V56.7704C164.094 56.5386 165.287 55.8577 166.155 54.8443C166.587 54.3149 166.923 53.7144 167.149 53.0698C167.392 52.3642 167.512 51.6225 167.505 50.8765V49.2017H170.204Z" fill="#231815"/>
</g>
<defs>
<clipPath id="clip0_2572_64543">
<rect width="112.667" height="26" fill="white" transform="translate(64 41.9995)"/>
</clipPath>
</defs>
</svg>
