<svg width="240" height="109" viewBox="0 0 240 109" fill="none" xmlns="http://www.w3.org/2000/svg">
<rect width="240" height="108.387" rx="10" fill=""/>
<g clip-path="url(#clip0_2572_64355)">
<path fill-rule="evenodd" clip-rule="evenodd" d="M60.0005 63.0466H79.7371L70.1725 45.8218L60.0005 63.0466Z" fill="#FFAF00"/>
<path fill-rule="evenodd" clip-rule="evenodd" d="M62.3193 63.0466H82.0641L72.4961 45.8218L62.3193 63.0466Z" fill="#008A32"/>
<path d="M85.8479 55.1128C85.8844 55.1454 85.8897 55.1467 85.8479 55.1128V55.1128Z" fill="#002F71"/>
<path d="M93.9043 51.8113H91.4821C91.334 51.5892 91.1664 51.3807 90.9813 51.1884H92.4192V49.4943H89.3323V48.3691H87.1313V49.4943H84.0383V51.1884H85.4581C85.0789 51.5672 84.782 52.0203 84.586 52.5192C84.39 53.0182 84.2992 53.5522 84.3191 54.0878C84.3391 54.6235 84.4694 55.1493 84.702 55.6322C84.9345 56.1152 85.2643 56.5449 85.6707 56.8945C86.077 57.2441 86.5511 57.5061 87.0634 57.664C87.5756 57.8218 88.115 57.8722 88.6476 57.812C89.1802 57.7518 89.6947 57.5823 90.1588 57.3141C90.6229 57.0458 91.0266 56.6846 91.3446 56.2532H93.9063V59.5038H96.1047V48.8006H93.9063L93.9043 51.8113ZM88.218 55.9356C87.818 55.9356 87.427 55.817 87.0944 55.5948C86.7618 55.3726 86.5026 55.0567 86.3495 54.6872C86.1964 54.3176 86.1564 53.911 86.2344 53.5187C86.3125 53.1264 86.5051 52.766 86.7879 52.4832C87.0708 52.2003 87.4311 52.0077 87.8234 51.9297C88.2157 51.8516 88.6224 51.8917 88.9919 52.0448C89.3615 52.1978 89.6773 52.4571 89.8996 52.7896C90.1218 53.1222 90.2404 53.5132 90.2404 53.9132C90.2403 54.1788 90.1879 54.4418 90.0862 54.6871C89.9845 54.9325 89.8354 55.1554 89.6476 55.3431C89.4597 55.5308 89.2367 55.6797 88.9913 55.7813C88.7459 55.8828 88.4829 55.935 88.2173 55.935L88.218 55.9356ZM92.0606 54.555C92.0955 54.3515 92.1136 54.1454 92.1145 53.9388C92.1149 53.7949 92.1065 53.651 92.0895 53.5081H93.903V54.555H92.0606Z" fill="#002F71"/>
<path d="M87.7005 58.6377H85.4961V63.0135H96.1009V61.3181H87.7005V58.6377Z" fill="#002F71"/>
<path d="M108.332 53.0535H107.103V48.7983H104.91V57.8068H100.576V50.7911H103.553V49.097H98.3767V59.5036H104.911V63.0091H107.104V54.7483H108.332V63.0145H110.536V48.7983H108.332L108.332 53.0535Z" fill="#002F71"/>
<path d="M169.591 60.0586C169.591 61.7925 171.925 63.1974 174.797 63.1974C177.669 63.1974 180.002 61.7918 180.002 60.0586C180.002 58.3254 177.666 56.9185 174.797 56.9185C171.928 56.9185 169.591 58.3288 169.591 60.0586ZM171.906 60.0586C171.906 59.2496 173.201 58.5957 174.797 58.5957C176.393 58.5957 177.684 59.2476 177.684 60.0586C177.684 60.8696 176.391 61.5228 174.797 61.5228C173.203 61.5228 171.906 60.8675 171.906 60.0586Z" fill="#002F71"/>
<path d="M131.649 50.7806C131.59 52.1711 131.871 53.5551 132.468 54.8122C133.065 56.0693 133.96 57.1615 135.076 57.9939L133.853 59.4884C132.237 58.2538 131.078 56.5165 130.558 54.5504C130.558 54.5504 130.288 56.8047 127.269 59.4716L126.051 58.035C126.051 58.035 129.457 55.9337 129.457 50.7793H126.708V49.0454H134.258V50.7793L131.649 50.7806Z" fill="#002F71"/>
<path d="M138.454 48.7983H136.254V63.0111H138.454V48.7983Z" fill="#002F71"/>
<path d="M150.175 48.7983V57.794H142.946V49.0471H140.746V59.4881H150.175V63.0145H152.375V48.7983H150.175Z" fill="#002F71"/>
<path d="M177.683 54.2838V48.7983H179.887V56.9116H177.683V56.1228H168.039V51.6607H173.162V50.8814H168.039V49.0437H175.174V53.4998H169.842V54.2811L177.683 54.2838Z" fill="#002F71"/>
<path d="M163.552 48.7992V53.0139H161.732C161.684 52.0054 161.368 51.0279 160.816 50.1825C160.472 49.7184 160.016 49.3484 159.492 49.1064C158.967 48.8644 158.39 48.7583 157.814 48.7979C157.228 48.7519 156.64 48.8472 156.099 49.0756C155.558 49.3039 155.079 49.6588 154.703 50.1104C154.05 50.974 153.719 52.335 153.719 54.1552C153.719 55.9754 154.051 57.3176 154.703 58.1838C155.08 58.634 155.559 58.9875 156.1 59.2149C156.641 59.4423 157.229 59.5369 157.814 59.491C158.388 59.5408 158.966 59.4475 159.495 59.2194C160.025 58.9913 160.489 58.6355 160.847 58.1838C161.473 57.1492 161.792 55.958 161.767 54.7491H163.549V63.012H165.764V48.7992H163.552ZM159.41 56.5477C159.281 56.8598 159.054 57.1211 158.763 57.2916C158.472 57.4621 158.133 57.5323 157.798 57.4915C157.451 57.5319 157.1 57.4634 156.793 57.2955C156.487 57.1276 156.24 56.8687 156.087 56.5545C155.812 55.7801 155.667 54.9651 155.659 54.1431C155.6 53.3126 155.747 52.4803 156.089 51.7209C156.248 51.4081 156.498 51.1514 156.807 50.9853C157.116 50.8192 157.469 50.7518 157.817 50.792C158.148 50.7624 158.479 50.8365 158.765 51.004C159.052 51.1714 159.279 51.4239 159.415 51.7263C159.758 52.4829 159.901 53.3152 159.83 54.1431C159.885 54.9668 159.741 55.7917 159.41 56.5477Z" fill="#002F71"/>
<path d="M124.708 48.7983H122.693V59.4874H124.708V48.7983Z" fill="#002F71"/>
<path d="M116.302 58.6357H114.101V63.0116H124.708V61.3161H116.302V58.6357Z" fill="#002F71"/>
<path d="M120.142 48.7988V51.7758H119.498C119.277 50.8539 118.723 50.046 117.943 49.5071C117.163 48.9681 116.212 48.7359 115.271 48.8551C114.331 48.9742 113.467 49.4363 112.846 50.1527C112.225 50.8691 111.891 51.7895 111.906 52.7375C111.922 53.6854 112.287 54.5943 112.931 55.2898C113.576 55.9853 114.454 56.4186 115.398 56.5065C116.342 56.5945 117.285 56.331 118.047 55.7666C118.809 55.2021 119.335 54.3764 119.526 53.4477H120.143V59.4886H122.158V48.7988H120.142ZM115.739 54.6638C115.343 54.6653 114.955 54.5492 114.625 54.3301C114.295 54.1111 114.037 53.7991 113.885 53.4335C113.732 53.068 113.691 52.6654 113.768 52.2766C113.844 51.8879 114.034 51.5306 114.314 51.2499C114.593 50.9692 114.95 50.7778 115.338 50.6999C115.727 50.622 116.129 50.6611 116.496 50.8123C116.862 50.9634 117.175 51.2198 117.395 51.5491C117.615 51.8783 117.733 52.2655 117.733 52.6616C117.733 53.1909 117.523 53.6986 117.149 54.0734C116.775 54.4483 116.269 54.6598 115.739 54.6618V54.6638Z" fill="#002F71"/>
</g>
<defs>
<clipPath id="clip0_2572_64355">
<rect width="120" height="37.2093" fill="white" transform="translate(60.0005 35.5894)"/>
</clipPath>
</defs>
</svg>
