<svg width="240" height="109" viewBox="0 0 240 109" fill="none" xmlns="http://www.w3.org/2000/svg">
<rect y="0.386719" width="240" height="108.387" rx="10" fill=""/>
<g clip-path="url(#clip0_2572_64761)">
<path d="M73.9355 57.8386H86.2206V39.0962H73.9355V57.8386ZM76.2642 43.8783H78.3256L80.0781 48.6189L81.9493 43.8783H83.8978V52.8901H81.9137V47.5021L80.6602 50.7812H79.4543L78.1177 47.5021V52.8901H76.2642V43.8783Z" fill="#232064"/>
<path d="M87.2605 57.8386H99.5456V39.0962H87.2605V57.8386ZM91.009 43.8843H95.7971V45.4823H92.9931V47.508H95.5357V49.0585H92.9931V51.2149H95.7971V52.8961H91.009V43.8843Z" fill="#232064"/>
<path d="M100.579 57.8386H112.864V39.0962H100.579V57.8386ZM103.799 45.7318C103.799 44.6803 104.648 43.8308 105.7 43.8308H107.755C108.807 43.8308 109.656 44.6803 109.656 45.7318V46.6882H107.737V45.5951H105.712V51.2802H107.737V49.6169H106.728V48.0129H109.656V52.9436H107.737V52.1535L107.048 52.9436H105.694C104.642 52.9436 103.793 52.0941 103.793 51.0426V45.7318H103.799Z" fill="#232064"/>
<path d="M113.903 57.8386H126.194V39.0962H113.903V57.8386ZM117.028 49.8961L118.727 43.8783H121.293L123.069 50.0565V52.8901H121.02V51.209H118.994V52.8901H117.034V49.8961H117.028Z" fill="#232064"/>
<path d="M120.003 45.1807L118.993 49.4222H121.013L120.003 45.1807Z" fill="#232064"/>
<path d="M134.12 45.3687H132.474V47.4894H134.12V45.3687Z" fill="#232064"/>
<path d="M134.298 49.1299H132.474V51.2447H134.298V49.1299Z" fill="#232064"/>
<path d="M127.228 57.8386H139.513V39.0962H127.228V57.8386ZM130.501 43.7655C130.561 43.7595 130.62 43.7536 130.679 43.7595H134.333C134.369 43.7595 134.404 43.7595 134.44 43.7655C135.408 43.8427 136.139 44.6922 136.062 45.6605V47.2763L134.957 48.203L136.234 49.2783V50.9713C136.234 50.9713 136.234 50.9713 136.234 50.9773C136.234 52.0288 135.384 52.8783 134.333 52.8783H130.679C130.62 52.8783 130.561 52.8783 130.501 52.8723V43.7655Z" fill="#232064"/>
<path d="M140.546 57.8386H152.837V39.0962H140.546V57.8386ZM143.76 45.6546C143.76 44.6031 144.609 43.7536 145.661 43.7536H147.716C148.768 43.7536 149.617 44.6031 149.617 45.6546V50.9654C149.617 50.9654 149.617 50.9654 149.617 50.9713C149.617 52.0228 148.768 52.8723 147.716 52.8723H145.661C145.661 52.8723 145.661 52.8723 145.655 52.8723C144.604 52.8723 143.754 52.0169 143.754 50.9654V45.6546H143.76Z" fill="#232064"/>
<path d="M147.704 45.519H145.678V51.2101H147.704V45.519Z" fill="#232064"/>
<path d="M153.872 39.0962V57.8386H166.157V39.0962H153.872ZM163.014 45.5595L161.374 48.31L163.014 51.0664V52.8723H161.101L159.996 49.3496L158.885 52.8723H156.973V51.108L158.636 48.3159L156.973 45.5239V43.7536H158.909L159.99 47.1932L161.072 43.7536H163.008V45.5595H163.014Z" fill="#232064"/>
<path d="M128.582 62.7026L127.198 67.6095V70.057H128.796V68.6788H130.447V70.057H132.117V67.7462L130.667 62.7026H128.582ZM128.796 67.2234L129.621 63.7601L130.447 67.2234H128.796Z" fill="#232064"/>
<path d="M146.226 65.769V64.2423C146.291 63.4581 145.703 62.769 144.919 62.7037C144.889 62.7037 144.854 62.6978 144.824 62.6978H141.866C141.818 62.6978 141.771 62.6978 141.723 62.7037V70.0581H143.315V67.4739H144.705V70.0581H146.202V67.5987C146.202 67.4383 146.131 67.2898 146.012 67.1829C145.798 66.9987 145.567 66.8264 145.335 66.666C145.335 66.666 145.965 66.1254 146.084 66.0423C146.167 65.9769 146.22 65.8759 146.226 65.769ZM144.676 65.9769H143.286V64.1175H144.42C144.42 64.1175 144.676 64.0997 144.676 64.4562V65.9769Z" fill="#232064"/>
<path d="M99.9433 62.7026H98.2502V70.063H99.9433V62.7026Z" fill="#232064"/>
<path d="M95.5068 68.5551V62.6978H93.8137V70.0581H97.485V68.5551H95.5068Z" fill="#232064"/>
<path d="M104.607 64.2007V62.6978H100.775V70.0581H102.468V67.0403H104.607V65.5373H102.468V64.2007H104.607Z" fill="#232064"/>
<path d="M109.204 64.2007V62.6978H105.373V70.0581H109.204V68.5551H107.066V67.0403H109.204V65.5373H107.066V64.2007H109.204Z" fill="#232064"/>
<path d="M126.385 64.2007V62.6978H122.553V70.0581H126.385V68.5551H124.247V67.0403H126.385V65.5373H124.247V64.2007H126.385Z" fill="#232064"/>
<path d="M140.986 64.2007V62.6978H137.154V70.0581H140.986V68.5551H138.847V67.0403H140.986V65.5373H138.847V64.2007H140.986Z" fill="#232064"/>
<path d="M116.263 62.7026H111.635V64.2056H113.103V70.063H114.796V64.2056H116.263V62.7026Z" fill="#232064"/>
<path d="M136.501 62.7026H131.873V64.2056H133.341V70.063H135.034V64.2056H136.501V62.7026Z" fill="#232064"/>
<path d="M120.051 62.7026V65.6967H118.537V62.7026H116.844V70.063H118.537V67.0689H120.051V70.063H121.744V62.7026H120.051Z" fill="#232064"/>
<path d="M147.279 64.2018V63.0077H146.798V62.7642H148.087V63.0077H147.606V64.2018H147.279Z" fill="#232064"/>
<path d="M148.289 64.2008V62.7632H148.776L149.073 63.7434L149.37 62.7632H149.857V64.2008H149.554V63.0721L149.233 64.2008H148.918L148.597 63.0721V64.2008H148.289Z" fill="#232064"/>
</g>
<defs>
<clipPath id="clip0_2572_64761">
<rect width="99.871" height="30.9677" fill="white" transform="translate(70.0645 39.0962)"/>
</clipPath>
</defs>
</svg>
