<svg width="240" height="109" viewBox="0 0 240 109" fill="none" xmlns="http://www.w3.org/2000/svg">
<rect width="240" height="108.387" rx="10" fill=""/>
<g clip-path="url(#clip0_2572_64115)">
<path d="M140.779 51.4492V68.264H146.565V51.4492H140.779Z" fill="#006D31"/>
<path d="M155.665 64.4467V51.4492H149.876V68.2648H165.734V64.4445L155.665 64.4467Z" fill="#006D31"/>
<path d="M117.42 61.7079H110.821V58.1089H117.423L117.42 61.7079Z" fill="#006D31"/>
<path d="M128.963 50.8057C123.432 50.8057 119.619 54.1653 119.619 59.8337C119.619 67.2579 124.992 68.861 128.963 68.861C132.914 68.861 138.311 67.2565 138.311 59.8337C138.311 52.1334 132.914 50.8057 128.963 50.8057ZM128.963 65.0703C126.873 65.0703 125.856 63.4903 125.856 59.833C125.856 56.1756 126.873 54.6021 128.963 54.6021C131.052 54.6021 132.072 56.1807 132.072 59.833C132.072 63.4852 131.058 65.0703 128.963 65.0703Z" fill="#006D31"/>
<path d="M103.577 43.9725C101.759 43.5306 97.7009 43.8896 94.6209 45.9186C90.9809 48.3124 90.1865 52.643 90.1865 52.643C91.4949 50.899 93.2696 49.5603 95.3059 48.7813C97.3422 48.0024 99.5572 47.8148 101.696 48.2403C102.294 47.695 102.759 47.0196 103.056 46.266C103.387 45.5462 103.565 44.7649 103.577 43.9725Z" fill="url(#paint0_radial_2572_64115)"/>
<path d="M93.8012 38.7095C92.0987 39.4851 89.1304 42.2746 87.9627 45.7683C86.5795 49.9042 88.6331 53.7973 88.6331 53.7973C88.5835 51.6179 89.1513 49.4689 90.2708 47.5984C91.3904 45.7279 93.0161 44.2121 94.9602 43.226C95.0935 42.4269 95.0412 41.6079 94.8074 40.8322C94.6248 40.0618 94.282 39.3385 93.8012 38.7095Z" fill="url(#paint1_radial_2572_64115)"/>
<path d="M82.8584 40.6118C81.9992 42.274 81.3916 46.3061 82.6343 49.7746C84.1033 53.876 88.1268 55.6693 88.1268 55.6693C86.7399 53.9871 85.8569 51.9469 85.5799 49.7844C85.3029 47.6218 85.6431 45.4249 86.5612 43.4474C86.1713 42.7366 85.6237 42.1246 84.9603 41.6584C84.3401 41.1672 83.6242 40.8108 82.8584 40.6118Z" fill="url(#paint2_radial_2572_64115)"/>
<path d="M75.4771 48.8141C75.8202 50.6529 77.8197 54.2064 80.9335 56.1792C84.6139 58.5103 88.8875 57.4521 88.8875 57.4521C86.7599 56.978 84.8096 55.9122 83.2615 54.3776C81.7134 52.843 80.6305 50.9022 80.1377 48.7788C79.3945 48.4584 78.5877 48.3124 77.7793 48.3521C76.988 48.3433 76.2037 48.5007 75.4771 48.8141Z" fill="url(#paint3_radial_2572_64115)"/>
<path d="M74.7095 59.9294C76.1186 61.1548 79.8906 62.7038 83.5566 62.3196C87.8908 61.8684 90.5851 58.3876 90.5851 58.3876C88.6214 59.3348 86.43 59.7077 84.2636 59.4632C82.0972 59.2187 80.044 58.3668 78.3409 57.0059C77.5584 57.2148 76.8345 57.601 76.2253 58.1346C75.6003 58.6205 75.0839 59.2319 74.7095 59.9294Z" fill="url(#paint4_radial_2572_64115)"/>
<path d="M101.356 57.3716C99.4277 56.7179 97.4448 56.263 97.568 55.3801C97.6696 54.6225 98.5865 54.2001 100.485 54.2088C102.523 54.2796 104.534 54.7017 106.429 55.4564L108.495 51.8063C105.81 50.7776 102.968 50.2223 100.093 50.1651C94.687 50.1586 91.1932 52.3599 91.1932 55.7505C91.1932 59.9168 95.4258 61.0845 98.7926 62.144C100.859 62.7928 102.685 63.2836 102.685 64.2884C102.685 65.6579 100.417 65.645 99.481 65.5859C97.1122 65.3468 94.8192 64.617 92.748 63.4429L90.5049 67.0469C93.428 68.7169 96.7254 69.6221 100.092 69.6786C105.541 69.6836 109.062 67.7519 109.062 63.7752C109.063 59.6825 104.793 58.54 101.356 57.3716Z" fill="#006D31"/>
</g>
<defs>
<radialGradient id="paint0_radial_2572_64115" cx="0" cy="0" r="1" gradientUnits="userSpaceOnUse" gradientTransform="translate(-1.85684 54.5255) scale(13.3359 13.337)">
<stop offset="0.6" stop-color="#FFC400"/>
<stop offset="1" stop-color="#FCA400"/>
</radialGradient>
<radialGradient id="paint1_radial_2572_64115" cx="0" cy="0" r="1" gradientUnits="userSpaceOnUse" gradientTransform="translate(367.011 -197.252) rotate(-21.4613) scale(11.271 15.7929)">
<stop offset="0.6" stop-color="#FFC400"/>
<stop offset="1" stop-color="#FCA400"/>
</radialGradient>
<radialGradient id="paint2_radial_2572_64115" cx="0" cy="0" r="1" gradientUnits="userSpaceOnUse" gradientTransform="translate(-0.343909 -587.791) rotate(-59.5241) scale(6.19339 28.7364)">
<stop offset="0.6" stop-color="#FFC400"/>
<stop offset="1" stop-color="#FCA400"/>
</radialGradient>
<radialGradient id="paint3_radial_2572_64115" cx="0" cy="0" r="1" gradientUnits="userSpaceOnUse" gradientTransform="translate(-491.607 -560.249) rotate(-107.486) scale(18.291 9.7354)">
<stop offset="0.6" stop-color="#FFC400"/>
<stop offset="1" stop-color="#FCA400"/>
</radialGradient>
<radialGradient id="paint4_radial_2572_64115" cx="0" cy="0" r="1" gradientUnits="userSpaceOnUse" gradientTransform="translate(-476.38 -695.77) rotate(-123.199) scale(21.6611 8.22559)">
<stop offset="0.6" stop-color="#FFC400"/>
<stop offset="1" stop-color="#FCA400"/>
</radialGradient>
<clipPath id="clip0_2572_64115">
<rect width="99.871" height="30.9677" fill="white" transform="translate(70.0645 38.7095)"/>
</clipPath>
</defs>
</svg>
