<svg width="240" height="109" viewBox="0 0 240 109" fill="none" xmlns="http://www.w3.org/2000/svg">
<rect y="0.386719" width="240" height="108.387" rx="10" fill=""/>
<g clip-path="url(#clip0_2572_64520)">
<path d="M146.093 61.7315C144.421 61.7315 140.775 61.7027 140.775 61.7027C140.775 61.7027 134.379 52.6017 133.982 52.4005V61.65H130.738V49.4307H136.114C136.114 49.4307 142.538 58.5317 142.754 58.8527V49.4977H146.107L146.093 61.7315Z" fill="#003F7E"/>
<path d="M128.127 49.4308V51.7827H119.461C119.141 51.7726 118.82 51.7886 118.503 51.8306C117.971 51.9168 117.545 52.1563 117.545 52.7886C117.515 52.9298 117.514 53.0755 117.542 53.2172C117.569 53.3589 117.624 53.4937 117.704 53.614C117.783 53.7342 117.886 53.8375 118.006 53.9178C118.126 53.9981 118.261 54.0539 118.402 54.0819C118.716 54.1559 119.038 54.1865 119.36 54.1729C121.047 54.1729 122.714 54.1489 124.41 54.1729C125.126 54.1879 125.841 54.2584 126.547 54.3837C127.175 54.4569 127.762 54.7387 128.211 55.1841C128.661 55.6296 128.949 56.2129 129.028 56.8409C129.062 57.0182 129.105 57.1906 129.129 57.3679C129.455 59.8587 128.3 61.5304 125.775 61.6358C122.101 61.7891 118.412 61.6741 114.651 61.6741V59.2791C115.01 59.2791 120.922 59.2791 123.5 59.2791C123.891 59.289 124.282 59.2504 124.664 59.1641C125.387 58.9725 125.564 58.6516 125.56 57.9139C125.58 57.6381 125.49 57.3655 125.311 57.155C125.132 56.9444 124.877 56.8127 124.601 56.7882C124.143 56.7092 123.677 56.6755 123.212 56.6877C121.526 56.6877 119.859 56.6877 118.163 56.6877C117.804 56.6893 117.445 56.6669 117.09 56.6206C114.292 56.1991 112.955 53.4592 114.354 50.9827C115.058 49.7421 116.27 49.4547 117.578 49.4403C120.754 49.402 127.692 49.4308 128.127 49.4308Z" fill="#003F7E"/>
<path d="M151.755 56.7068V59.1019H161.816V61.7507H148.354V49.5122H161.61V51.9886H151.779V54.4699H161.074V56.7212L151.755 56.7068Z" fill="#003F7E"/>
<path d="M172.237 52.0228V61.6603H168.806V52.0803H163.474V49.4937H177.511V52.0228H172.237Z" fill="#003F7E"/>
<path d="M113.985 61.7225H109.611C109.611 61.7225 105.074 57.6174 102.904 55.6391L109.611 49.3833H114.014L107.307 55.6104L113.985 61.7225Z" fill="#003F7E"/>
<path d="M98.9131 61.6692V49.4307H102.439V61.6501L98.9131 61.6692Z" fill="#003F7E"/>
<path d="M62 41.02L71.1025 47.362V62.647L62 68.9986V41.02Z" fill="#003F7E"/>
<path d="M82.0399 55.0354L75.0645 50.14L89.571 39.9995V49.7855C87.075 51.5387 82.0399 55.0354 82.0399 55.0354Z" fill="#EA9313"/>
<path d="M82.04 55.0356C82.04 55.0356 87.0464 58.4845 89.5472 60.228V69.9997L75.0742 59.8879L82.04 55.0356Z" fill="#003F7E"/>
</g>
<defs>
<clipPath id="clip0_2572_64520">
<rect width="115.511" height="30" fill="white" transform="translate(62 39.9995)"/>
</clipPath>
</defs>
</svg>
