<svg width="240" height="109" viewBox="0 0 240 109" fill="none" xmlns="http://www.w3.org/2000/svg">
<rect width="240" height="108.387" rx="10" fill=""/>
<path d="M74.3667 54.5894C74.3681 57.5559 73.1927 60.4018 71.0985 62.5021C69.0042 64.6023 66.1624 65.7852 63.1971 65.791C60.2274 65.791 57.3794 64.6109 55.2795 62.5102C53.1797 60.4094 52 57.5602 52 54.5894C52 51.6185 53.1797 48.7693 55.2795 46.6686C57.3794 44.5679 60.2274 43.3877 63.1971 43.3877C66.1624 43.3935 69.0042 44.5764 71.0985 46.6767C73.1927 48.7769 74.3681 51.6228 74.3667 54.5894Z" fill="white"/>
<path d="M63.1977 65.2265C66.0238 65.2207 68.7322 64.0935 70.7285 62.0923C72.7248 60.091 73.8459 57.3792 73.8459 54.552C73.8459 51.7247 72.7248 49.0129 70.7285 47.0117C68.7322 45.0105 66.0238 43.8833 63.1977 43.8774C60.3678 43.8774 57.6538 45.0021 55.6528 47.0039C53.6518 49.0058 52.5276 51.7209 52.5276 54.552C52.5276 57.383 53.6518 60.0982 55.6528 62.1C57.6538 64.1019 60.3678 65.2265 63.1977 65.2265Z" fill="#007BC7"/>
<mask id="mask0_2572_64422" style="mask-type:alpha" maskUnits="userSpaceOnUse" x="52" y="43" width="22" height="23">
<path d="M63.1974 65.2202C66.0235 65.2143 68.7318 64.0871 70.7281 62.0859C72.7244 60.0847 73.8455 57.3729 73.8455 54.5456C73.8455 51.7184 72.7244 49.0066 70.7281 47.0053C68.7318 45.0041 66.0235 43.8769 63.1974 43.8711C60.3675 43.8711 57.6535 44.9957 55.6524 46.9976C53.6514 48.9995 52.5272 51.7146 52.5272 54.5456C52.5272 57.3767 53.6514 60.0918 55.6524 62.0937C57.6535 64.0955 60.3675 65.2202 63.1974 65.2202Z" fill="#007BC7"/>
</mask>
<g mask="url(#mask0_2572_64422)">
<path d="M63.1973 57.2449C67.8902 57.2449 71.908 58.5517 73.626 60.4077C74.218 59.046 74.5226 57.5767 74.5206 56.0917C74.4801 53.1246 73.2656 50.2945 71.1431 48.2216C69.0207 46.1487 66.1634 45.002 63.1973 45.0328C60.2342 45.0064 57.3811 46.1551 55.2622 48.2275C53.1433 50.2999 51.931 53.1275 51.8905 56.0917C51.8833 57.5755 52.1823 59.0448 52.7687 60.4077C54.5032 58.5517 58.5264 57.2449 63.1973 57.2449Z" fill="#007BC7"/>
<path d="M63.1973 57.2644C67.8737 57.2644 71.886 58.5548 73.6259 60.3998C74.2162 59.0474 74.5189 57.587 74.5151 56.1113C74.5151 50.0382 69.4544 45.1293 63.2192 45.1293C60.2616 45.0926 57.4104 46.2323 55.2923 48.2977C53.1741 50.3632 51.9624 53.1854 51.9233 56.1443C51.9218 57.6185 52.2265 59.077 52.818 60.4272C54.525 58.5548 58.5373 57.2644 63.1973 57.2644Z" fill="#007DC8"/>
<path d="M63.1971 57.2707C67.8626 57.2707 71.8584 58.5556 73.5764 60.3841C74.1634 59.0422 74.4661 57.5933 74.4655 56.1285C74.4655 50.0884 69.4159 45.1904 63.1971 45.1904C56.9784 45.1904 51.9287 50.1323 51.9287 56.134C51.9302 57.6056 52.2387 59.0606 52.8344 60.406C54.5468 58.5556 58.5481 57.2707 63.1971 57.2707Z" fill="#007FCA"/>
<path d="M63.1974 57.285C67.8519 57.285 71.8422 58.5589 73.5492 60.3709C74.1387 59.0434 74.4417 57.6064 74.4384 56.1538C74.4384 50.1741 69.4052 45.2871 63.1974 45.2871C56.9896 45.2871 51.9619 50.1796 51.9619 56.1538C51.9617 57.6061 52.2645 59.0425 52.8511 60.3709C54.5691 58.5589 58.5594 57.285 63.1974 57.285Z" fill="#0080CB"/>
<path d="M63.1975 57.2962C67.841 57.2962 71.8204 58.5592 73.5219 60.3602C74.1083 59.0433 74.4113 57.6177 74.4111 56.1761C74.4111 50.2458 69.3889 45.3862 63.1975 45.3862C57.0062 45.3862 51.9895 50.2458 51.9895 56.1761C51.9888 57.6178 52.2918 59.0435 52.8787 60.3602C54.5857 58.5592 58.5705 57.2962 63.1975 57.2962Z" fill="#0082CC"/>
<path d="M63.1979 57.3027C67.8249 57.3027 71.7933 58.5547 73.4948 60.3393C74.0793 59.0355 74.3805 57.6224 74.3785 56.1936C74.3785 50.3127 69.3728 45.4751 63.1979 45.4751C57.0231 45.4751 52.0173 50.3127 52.0173 56.1936C52.018 57.6222 52.3191 59.0347 52.901 60.3393C54.608 58.5547 58.5819 57.3027 63.1979 57.3027Z" fill="#0084CD"/>
<path d="M63.1977 57.3163C67.8138 57.3163 71.7711 58.5573 73.4672 60.3309C74.0492 59.0381 74.3486 57.636 74.3454 56.2181C74.3563 50.3867 69.3671 45.582 63.1977 45.582C57.0283 45.582 52.0446 50.3977 52.0446 56.2291C52.0453 57.6471 52.3465 59.0488 52.9283 60.3419C54.6298 58.5573 58.5926 57.3163 63.1977 57.3163Z" fill="#0086CF"/>
<path d="M63.198 57.3304C67.8031 57.3304 71.755 58.5659 73.4455 60.3175C74.0252 59.0356 74.3246 57.6447 74.3237 56.2377C74.3237 50.4611 69.3399 45.6675 63.198 45.6675C57.0561 45.6675 52.0778 50.4611 52.0778 56.2432C52.0763 57.649 52.3778 59.0387 52.9615 60.3175C54.652 58.5659 58.6039 57.3304 63.198 57.3304Z" fill="#0088D0"/>
<path d="M63.1983 57.3404C67.7923 57.3404 71.7333 58.5594 73.4183 60.3001C73.9964 59.0295 74.294 57.6492 74.291 56.2532C74.291 50.5206 69.3237 45.7544 63.1983 45.7544C57.0728 45.7544 52.111 50.5206 52.111 56.2587C52.1105 57.6533 52.41 59.0316 52.9892 60.3001C54.6742 58.5594 58.6151 57.3404 63.1983 57.3404Z" fill="#008AD1"/>
<path d="M63.1969 57.3539C67.78 57.3539 71.7045 58.5619 73.3895 60.2861C73.9643 59.028 74.262 57.6609 74.2623 56.2777C74.2623 50.5945 69.3224 45.8447 63.1969 45.8447C57.0715 45.8447 52.1316 50.5835 52.1316 56.2777C52.131 57.6616 52.4306 59.0292 53.0098 60.2861C54.6894 58.5619 58.6248 57.3539 63.1969 57.3539Z" fill="#008CD3"/>
<path d="M63.1975 57.3689C67.7642 57.3689 71.6832 58.566 73.3572 60.2792C73.9345 59.0336 74.2324 57.6767 74.2299 56.3037C74.2299 50.6699 69.2901 45.9531 63.1975 45.9531C57.105 45.9531 52.1597 50.6699 52.1597 56.3037C52.1599 57.6764 52.4576 59.0327 53.0324 60.2792C54.7119 58.566 58.6364 57.3689 63.1975 57.3689Z" fill="#008ED4"/>
<path d="M63.1972 57.3798C67.7584 57.3798 71.6664 58.5714 73.335 60.2626C73.9115 59.0304 74.2095 57.6861 74.2077 56.3256C74.2077 50.7412 69.2678 46.0464 63.1972 46.0464C57.1267 46.0464 52.2197 50.7412 52.2197 56.3256C52.2204 57.6859 52.5183 59.0296 53.0924 60.2626C54.7336 58.5714 58.6471 57.3798 63.1972 57.3798Z" fill="#0090D5"/>
<path d="M63.1972 57.3865C67.7419 57.3865 71.6389 58.567 73.3075 60.2473C73.879 59.0252 74.1751 57.6924 74.1747 56.3432C74.1747 50.8027 69.2623 46.1299 63.1972 46.1299C57.1322 46.1299 52.2197 50.8027 52.2197 56.3377C52.2206 57.6874 52.5186 59.0203 53.0924 60.2418C54.7555 58.567 58.658 57.3865 63.1972 57.3865Z" fill="#0092D7"/>
<path d="M63.1982 57.3981C67.732 57.3981 71.618 58.5677 73.2811 60.2315C73.8499 59.0299 74.1461 57.7173 74.1483 56.3878C74.1483 50.8967 69.2414 46.2568 63.1982 46.2568C57.1551 46.2568 52.2482 50.8967 52.2482 56.3878C52.2531 57.717 52.5491 59.029 53.1154 60.2315C54.7785 58.5677 58.67 57.3981 63.1982 57.3981Z" fill="#0094D8"/>
<path d="M63.1967 57.4185C67.7139 57.4185 71.5945 58.5716 73.2521 60.2244C73.8199 59.0227 74.1142 57.7099 74.1138 56.3807C74.1138 50.9446 69.2233 46.3267 63.1967 46.3267C57.17 46.3267 52.274 50.9446 52.274 56.3862C52.2754 57.7158 52.5716 59.0286 53.1413 60.2299C54.7934 58.5716 58.6739 57.4185 63.1967 57.4185Z" fill="#0097D9"/>
<path d="M63.1969 57.4234C67.7087 57.4234 71.5783 58.5656 73.2304 60.2019C73.7983 59.0158 74.0928 57.7173 74.0921 56.4021C74.0921 51.0154 69.2126 46.4194 63.1969 46.4194C57.1813 46.4194 52.3073 51.0154 52.3073 56.4021C52.3097 57.7169 52.6041 59.0147 53.169 60.2019C54.8156 58.5656 58.6852 57.4234 63.1969 57.4234Z" fill="#0099DB"/>
<path d="M63.1969 57.4354C67.6921 57.4354 71.5507 58.5721 73.2029 60.1809C73.7673 59.0055 74.0599 57.7181 74.0591 56.4141C74.0591 51.0768 69.1961 46.5303 63.1969 46.5303C57.1976 46.5303 52.3346 51.0713 52.3346 56.4251C52.3338 57.7291 52.6264 59.0165 53.1908 60.1919C54.8375 58.5721 58.6961 57.4354 63.1969 57.4354Z" fill="#009BDC"/>
<path d="M63.1966 57.4482C67.6809 57.4482 71.5286 58.5738 73.1697 60.1937C73.7344 59.032 74.0272 57.757 74.026 56.4653C74.026 51.1719 69.1794 46.6309 63.1966 46.6309C57.2139 46.6309 52.3673 51.1774 52.3673 56.4653C52.366 57.757 52.6589 59.032 53.2236 60.1937C54.8592 58.5738 58.7068 57.4482 63.1966 57.4482Z" fill="#009DDD"/>
<path d="M63.1976 57.4599C67.6655 57.4599 71.5076 58.5581 73.1432 60.167C73.7073 59.0168 74.0002 57.7526 73.9995 56.4715C73.9995 51.2276 69.1639 46.7085 63.1976 46.7085C57.2313 46.7085 52.3958 51.2276 52.3958 56.4715C52.3958 57.7519 52.6867 59.0155 53.2465 60.167C54.8822 58.5746 58.7188 57.4599 63.1976 57.4599Z" fill="#009FDF"/>
<path d="M63.1974 57.4679C67.6598 57.4679 71.4854 58.5661 73.1211 60.1475C73.6806 59.0097 73.9717 57.7585 73.9718 56.4905C73.9718 51.296 69.1527 46.7988 63.1974 46.7988C57.2421 46.7988 52.4285 51.296 52.4285 56.4905C52.4286 57.7585 52.7196 59.0097 53.2792 60.1475C54.9039 58.5716 58.7296 57.4679 63.1974 57.4679Z" fill="#00A2E0"/>
<path d="M63.1968 57.4877C67.6482 57.4877 71.4629 58.5859 73.0766 60.1398C73.6359 59.0117 73.9271 57.7696 73.9273 56.5103C73.9273 51.3707 69.1137 46.8955 63.1803 46.8955C57.247 46.8955 52.4388 51.3707 52.4388 56.5158C52.4405 57.7725 52.7297 59.0121 53.2841 60.1398C54.9198 58.5804 58.7399 57.4877 63.1968 57.4877Z" fill="#00A4E1"/>
<path d="M63.1973 57.497C67.6322 57.497 71.4304 58.5952 73.0771 60.1217C73.6346 59.0069 73.9241 57.7772 73.9223 56.5306C73.9223 51.4404 69.1252 46.9927 63.2083 46.9927C57.2914 46.9927 52.4942 51.4404 52.4942 56.5306C52.4883 57.7751 52.77 59.0042 53.3175 60.1217C54.9642 58.5787 58.7514 57.497 63.1973 57.497Z" fill="#00A6E3"/>
<path d="M63.1968 57.5062C67.6263 57.5062 71.43 58.6044 73.0437 60.1089C73.5906 59.0066 73.8743 57.7924 73.8725 56.5617C73.8725 51.5155 69.0863 47.0952 63.1804 47.0952C57.2745 47.0952 52.4993 51.488 52.4993 56.5617C52.5008 57.7974 52.7902 59.0157 53.3445 60.1199C54.9637 58.5769 58.7619 57.5062 63.1968 57.5062Z" fill="#00A9E4"/>
<path d="M63.1977 57.5205C67.5887 57.5205 71.3979 58.5803 73.0171 60.1013C73.5649 59.0034 73.8469 57.7921 73.8404 56.5651C73.8404 51.5682 69.0707 47.1699 63.1813 47.1699C57.2918 47.1699 52.5276 51.5627 52.5276 56.5651C52.5307 57.7894 52.8182 58.9962 53.3674 60.0903C54.9646 58.5803 58.7738 57.5205 63.1977 57.5205Z" fill="#00ABE5"/>
<path d="M63.1969 57.5324C67.5879 57.5324 71.3751 58.5866 72.9833 60.0857C73.5361 59.0064 73.8257 57.8116 73.8286 56.5989C73.8286 51.657 69.0699 47.2642 63.1969 47.2642C57.3239 47.2642 52.5707 51.657 52.5707 56.5989C52.5719 57.8111 52.8596 59.0059 53.4105 60.0857C55.0077 58.5866 58.8059 57.5324 63.1969 57.5324Z" fill="#00ADE7"/>
<path d="M63.1972 57.539C67.5882 57.539 71.3535 58.5823 72.9562 60.0703C73.5069 59.0023 73.7948 57.8182 73.7959 56.6165C73.7959 51.7185 69.0537 47.3696 63.1972 47.3696C57.3407 47.3696 52.5984 51.7185 52.5984 56.6165C52.5996 57.8176 52.8855 59.0013 53.4327 60.0703C55.0244 58.5823 58.8062 57.539 63.1972 57.539Z" fill="#00B0E8"/>
<path d="M63.1972 57.5554C67.5882 57.5554 71.3315 58.5822 72.9342 60.0538C73.4831 58.9991 73.7693 57.8274 73.7685 56.6384C73.7685 51.7898 69.0372 47.4629 63.1972 47.4629C57.3572 47.4629 52.6313 51.7898 52.6313 56.6384C52.6333 57.8271 52.9194 58.9981 53.4656 60.0538C55.0464 58.5822 58.8062 57.5554 63.1972 57.5554Z" fill="#00B2EA"/>
<path d="M63.1973 57.5697C67.5884 57.5697 71.3097 58.5855 72.907 60.0461C73.4532 59.0003 73.7393 57.8382 73.7412 56.6582C73.7412 51.859 69.0209 47.5596 63.1973 47.5596C57.3738 47.5596 52.6589 51.859 52.6589 56.6582C52.6602 57.8382 52.9464 59.0005 53.4932 60.0461C55.0685 58.5855 58.8063 57.5697 63.1973 57.5697Z" fill="#11B5EB"/>
<path d="M63.1977 57.5835C67.5503 57.5835 71.2882 58.5884 72.8799 60.0325C73.4241 59 73.7086 57.8503 73.7087 56.683C73.7087 51.9333 69.0048 47.6558 63.1977 47.6558C57.3906 47.6558 52.6868 51.9333 52.6868 56.683C52.6897 57.8499 52.974 58.999 53.5156 60.0325C55.0908 58.5884 58.8067 57.5835 63.1977 57.5835Z" fill="#1EB7EC"/>
<path d="M63.1978 57.5886C67.5394 57.5886 71.2607 58.5879 72.8525 60.0156C73.3897 59.0001 73.6741 57.8699 73.6813 56.721C73.6813 52.0207 68.9884 47.7651 63.1978 47.7651C57.4071 47.7651 52.7142 52.0207 52.7142 56.721C52.7214 57.8699 53.0058 59.0001 53.543 60.0156C55.1128 58.5879 58.8397 57.5886 63.1978 57.5886Z" fill="#27BAEE"/>
<path d="M63.1973 57.6021C67.5279 57.6021 71.2438 58.5905 72.8301 60.0017C73.3721 58.9883 73.655 57.8565 73.6534 56.7071C73.6534 52.0562 68.977 47.8281 63.1973 47.8281C57.4177 47.8281 52.7687 52.0562 52.7687 56.7071C52.7697 57.8568 53.0544 58.9885 53.5975 60.0017C55.1288 58.5905 58.8502 57.6021 63.1973 57.6021Z" fill="#2FBCEF"/>
<path d="M63.1973 57.6141C67.517 57.6141 71.2219 58.5915 72.7971 59.9918C73.3394 58.996 73.6243 57.8805 73.6259 56.7466C73.6259 52.1451 68.9605 47.9609 63.1973 47.9609C57.4341 47.9609 52.7687 52.1671 52.7687 56.7466C52.7732 57.8794 53.0559 58.9938 53.592 59.9918C55.1508 58.5915 58.8557 57.6141 63.1973 57.6141Z" fill="#37BEF0"/>
<path d="M63.1978 57.6641C67.5119 57.6641 71.2114 58.636 72.7866 60.0252C73.3252 59.0362 73.6082 57.9282 73.61 56.802C73.61 52.228 68.95 48.0493 63.1813 48.0493C57.4126 48.0493 52.7527 52.228 52.7527 56.802C52.7553 57.9275 53.0362 59.0348 53.5705 60.0252C55.1622 58.614 58.8672 57.6641 63.1978 57.6641Z" fill="#45C0F0"/>
<path d="M63.1973 57.6618C67.506 57.6618 71.1999 58.6282 72.7752 60.0065C73.3128 59.025 73.5959 57.9244 73.5985 56.8052C73.5985 52.2586 68.944 48.1074 63.1973 48.1074C57.4506 48.1074 52.7687 52.2641 52.7687 56.8107C52.7738 57.9295 53.0567 59.0296 53.592 60.0119C55.1728 58.6337 58.8722 57.6618 63.1973 57.6618Z" fill="#51C2F1"/>
<path d="M63.1973 57.6976C67.495 57.6976 71.1889 58.6585 72.7587 60.0258C73.297 59.0525 73.5802 57.9588 73.582 56.8465C73.582 52.3329 68.9331 48.2036 63.1973 48.2036C57.4616 48.2036 52.7687 52.3329 52.7687 56.8465C52.7721 57.9579 53.0532 59.0508 53.5865 60.0258C55.1837 58.6585 58.8777 57.6976 63.1973 57.6976Z" fill="#5BC4F1"/>
<path d="M63.1974 57.7208C67.4896 57.7208 71.178 58.6707 72.7478 60.0325C73.2841 59.0667 73.5656 57.9801 73.5656 56.8752C73.5656 52.389 68.9276 48.2817 63.1974 48.2817C57.4671 48.2817 52.8291 52.389 52.8291 56.8752C52.8346 57.9793 53.1157 59.0647 53.6469 60.0325C55.1948 58.6707 58.8832 57.7208 63.1974 57.7208Z" fill="#64C7F2"/>
<path d="M63.1981 57.7517C67.4848 57.7517 71.1678 58.6962 72.7376 60.0469C73.2705 59.0877 73.5519 58.009 73.5554 56.9116C73.5554 52.4584 68.9174 48.373 63.1981 48.373C57.4788 48.373 52.8463 52.4584 52.8463 56.9116C52.8498 58.009 53.1312 59.0877 53.6641 60.0469C55.2065 58.6962 58.8894 57.7517 63.1981 57.7517Z" fill="#6DC9F3"/>
<path d="M63.1975 57.7797C67.4787 57.7797 71.1562 58.7186 72.7205 60.0639C73.2528 59.1104 73.5342 58.0372 73.5383 56.945C73.5383 52.5193 68.9113 48.4614 63.1975 48.4614C57.4837 48.4614 52.8567 52.5193 52.8567 56.945C52.8637 58.0368 53.1449 59.1093 53.6745 60.0639C55.2168 58.7186 58.8943 57.7797 63.1975 57.7797Z" fill="#75CBF3"/>
<path d="M63.1968 57.8033C67.4725 57.8033 71.1445 58.7367 72.7088 60.0711C73.2416 59.1257 73.5231 58.0594 73.5266 56.9741C73.5266 52.5813 68.9051 48.5454 63.1968 48.5454C57.4885 48.5454 52.8724 52.5813 52.8724 56.9741C52.8759 58.0594 53.1575 59.1257 53.6903 60.0711C55.2271 58.7587 58.8991 57.8033 63.1968 57.8033Z" fill="#7DCDF4"/>
<path d="M63.1978 57.8322C67.468 57.8322 71.1345 58.7602 72.6933 60.0835C73.2252 59.1457 73.5069 58.0868 73.5112 57.0086C73.5112 52.6432 68.8951 48.6348 63.1978 48.6348C57.5004 48.6348 52.8844 52.6432 52.8844 57.0086C52.8914 58.0864 53.1729 59.1447 53.7022 60.0835C55.2391 58.7602 58.9056 57.8322 63.1978 57.8322Z" fill="#84D0F4"/>
<path d="M63.1968 57.8612C67.4615 57.8612 71.1225 58.7782 72.6813 60.096C73.2131 59.1661 73.4948 58.1143 73.4992 57.043C73.4992 52.7106 68.8886 48.7241 63.1968 48.7241C57.5049 48.7241 52.8724 52.7216 52.8724 57.043C52.8776 58.1135 53.1573 59.1647 53.6848 60.096C55.2491 58.7617 58.9101 57.8612 63.1968 57.8612Z" fill="#8BD2F5"/>
<path d="M63.1976 57.8861C67.4568 57.8861 71.1123 58.7976 72.6712 60.0825C73.1991 59.1593 73.479 58.1151 73.4835 57.0515C73.4835 52.7465 68.8784 48.8149 63.1976 48.8149C57.5167 48.8149 52.9171 52.774 52.9171 57.0789C52.9223 58.1424 53.2022 59.1865 53.7295 60.11C55.2608 58.7976 58.9163 57.8861 63.1976 57.8861Z" fill="#92D4F5"/>
<path d="M63.1968 57.9157C67.4506 57.9157 71.1006 58.8217 72.6539 60.1121C73.1718 59.198 73.4423 58.1646 73.4388 57.114C73.4388 52.842 68.8447 48.8774 63.1694 48.8774C57.494 48.8774 52.8999 52.82 52.8999 57.114C52.9052 58.1705 53.1851 59.2075 53.7122 60.123C55.2711 58.8217 58.9211 57.9157 63.1968 57.9157Z" fill="#99D7F6"/>
<path d="M63.1982 57.943C67.4465 57.943 71.091 58.8436 72.6443 60.1394C73.1713 59.2318 73.4514 58.2019 73.4567 57.1523C73.4567 52.9078 68.8626 48.9927 63.1982 48.9927C57.5338 48.9927 52.9452 52.9078 52.9452 57.1523C52.9503 58.2012 53.2284 59.2307 53.752 60.1394C55.2834 58.8436 58.9279 57.943 63.1982 57.943Z" fill="#9FD9F7"/>
<path d="M63.1976 57.9674C67.4404 57.9674 71.0794 58.8624 72.6328 60.1638C73.1572 59.2614 73.4354 58.2369 73.4396 57.1931C73.4396 52.976 68.8565 49.0884 63.1976 49.0884C57.5387 49.0884 52.9556 52.976 52.9556 57.1931C52.9617 58.2374 53.2418 59.2618 53.7679 60.1638C55.2938 58.8624 58.9328 57.9674 63.1976 57.9674Z" fill="#A5DBF7"/>
<path d="M63.1969 57.9987C67.4342 57.9987 71.0677 58.8828 72.6156 60.1567C73.1416 59.2627 73.4218 58.2454 73.4279 57.208C73.4279 53.0239 68.8448 49.1582 63.1969 49.1582C57.5489 49.1582 52.9713 53.0019 52.9713 57.208C52.9783 58.2445 53.2565 59.2612 53.7782 60.1567C55.304 58.8828 58.9431 57.9987 63.1969 57.9987Z" fill="#ABDDF8"/>
<path d="M63.1981 58.0163C67.4299 58.0163 71.058 58.9004 72.6058 60.1633C73.1305 59.2751 73.409 58.2629 73.4127 57.2311C73.4127 53.0799 68.8405 49.2417 63.1981 49.2417C57.5556 49.2417 52.9835 53.0854 52.9835 57.2311C52.9898 58.2625 53.2681 59.274 53.7904 60.1633C55.3162 58.9004 58.9498 58.0163 63.1981 58.0163Z" fill="#B1DFF8"/>
<path d="M63.1974 58.0453C67.4237 58.0453 71.0463 58.9239 72.5886 60.1758C73.1149 59.296 73.3955 58.2909 73.401 57.2656C73.401 53.1473 68.8343 49.3311 63.1974 49.3311C57.5604 49.3311 52.9993 53.1748 52.9993 57.2656C53.0028 58.2904 53.2815 59.2955 53.8061 60.1758C55.3265 58.9239 58.9546 58.0453 63.1974 58.0453Z" fill="#B7E1F9"/>
<path d="M63.197 58.0751C67.4124 58.0751 71.035 58.9482 72.5773 60.1892C73.1016 59.3168 73.3804 58.3188 73.3841 57.3009C73.3567 53.2101 68.7955 49.4268 63.197 49.4268C57.5985 49.4268 53.0099 53.2156 53.0099 57.3064C53.0163 58.3239 53.2949 59.3212 53.8167 60.1946C55.3371 58.9482 58.9597 58.0751 63.197 58.0751Z" fill="#BCE4F9"/>
<path d="M63.1974 58.0994C67.4018 58.0994 71.0188 58.967 72.5612 60.197C73.0813 59.3311 73.3582 58.3409 73.3625 57.3307C73.3625 53.2728 68.8124 49.5005 63.1974 49.5005C57.5824 49.5005 52.9993 53.2673 52.9993 57.3307C53.0036 58.3409 53.2805 59.3311 53.8006 60.197C55.3484 58.967 58.9655 58.0994 63.1974 58.0994Z" fill="#C1E6FA"/>
<path d="M63.1976 58.1284C67.3965 58.1284 71.0081 58.985 72.5285 60.2095C73.0523 59.353 73.3314 58.3692 73.3354 57.3651C73.3354 53.3347 68.7852 49.5898 63.1812 49.5898C57.5771 49.5898 53.016 53.3347 53.016 57.3651C53.0224 58.3688 53.3013 59.352 53.8228 60.2095C55.3597 58.985 58.9713 58.1284 63.1976 58.1284Z" fill="#C7E8FA"/>
<path d="M63.1968 58.1583C67.3902 58.1583 70.9963 59.0094 72.5277 60.2284C73.0467 59.3762 73.3238 58.3985 73.329 57.4005C73.329 53.4031 68.7898 49.6802 63.1913 49.6802C57.5928 49.6802 53.0426 53.4031 53.0426 57.4005C53.0479 58.3985 53.3249 59.3762 53.844 60.2284C55.3698 59.0094 58.9759 58.1583 63.1968 58.1583Z" fill="#CCEAFB"/>
<path d="M63.1972 58.2087C67.3851 58.2087 70.9857 59.0544 72.5281 60.2624C73.0433 59.4165 73.3202 58.447 73.3294 57.4565C73.3294 53.4865 68.7902 49.769 63.2027 49.769C57.6151 49.769 53.0704 53.4645 53.0704 57.4565C53.0829 58.4371 53.3578 59.3965 53.8663 60.2349C55.3812 59.0269 58.9818 58.2087 63.1972 58.2087Z" fill="#D1ECFB"/>
<path d="M63.197 58.2118C67.3794 58.2118 70.9746 59.0519 72.5279 60.249C73.0465 59.4127 73.3238 58.4492 73.3293 57.465C73.3293 53.5225 68.801 49.8545 63.219 49.8545C57.6369 49.8545 53.0977 53.5225 53.0977 57.465C53.0932 58.446 53.3591 59.4093 53.8661 60.249C55.392 59.0519 58.9871 58.2118 63.197 58.2118Z" fill="#D6EEFB"/>
<path d="M63.1978 58.2404C67.3748 58.2404 70.9644 59.075 72.4958 60.2611C73.0086 59.4364 73.2858 58.4868 73.2971 57.5156C73.2971 53.606 68.7689 49.96 63.1978 49.96C57.6267 49.96 53.093 53.606 53.093 57.5156C53.1024 58.4863 53.3777 59.4359 53.8889 60.2611C55.4038 59.075 58.9934 58.2404 63.1978 58.2404Z" fill="#DBF0FC"/>
<path d="M63.1972 58.263C67.3687 58.263 70.9528 59.0922 72.4787 60.2672C72.9976 59.4452 73.2753 58.4939 73.2801 57.5217C73.2801 53.6396 68.7628 50.021 63.1972 50.021C57.6316 50.021 53.1034 53.6396 53.1034 57.5217C53.1088 58.4931 53.3844 59.4437 53.8993 60.2672C55.4142 59.0922 58.9983 58.263 63.1972 58.263Z" fill="#E0F2FC"/>
<path d="M63.1979 58.2949C67.3639 58.2949 70.9426 59.1131 72.4685 60.2826C72.9822 59.4687 73.2578 58.5272 73.2643 57.5646C73.2643 53.7209 68.7581 50.1133 63.1979 50.1133C57.6378 50.1133 53.1206 53.7154 53.1206 57.5646C53.1271 58.5272 53.4028 59.4687 53.9165 60.2826C55.4259 59.1131 59.0045 58.2949 63.1979 58.2949Z" fill="#E5F4FD"/>
<path d="M63.1972 58.3239C67.3577 58.3239 70.9309 59.1365 72.4568 60.3006C72.9694 59.4923 73.2451 58.5563 73.2526 57.599C73.2526 53.7553 68.7464 50.2026 63.1972 50.2026C57.6481 50.2026 53.1309 53.7773 53.1309 57.599C53.1384 58.5563 53.4141 59.4923 53.9267 60.3006C55.4361 59.1365 59.0093 58.3239 63.1972 58.3239Z" fill="#E9F6FD"/>
<path d="M63.1974 58.3474C67.3523 58.3474 70.92 59.1546 72.4404 60.3077C72.9521 59.5071 73.2279 58.5784 73.2363 57.6281C73.2363 53.8393 68.741 50.2866 63.1974 50.2866C57.6537 50.2866 53.1255 53.8173 53.1255 57.6281C53.1337 58.5776 53.4075 59.5059 53.9159 60.3077C55.4472 59.1546 59.0149 58.3474 63.1974 58.3474Z" fill="#EEF8FE"/>
<path d="M63.1969 58.3754C67.3464 58.3754 70.9086 59.1771 72.429 60.3192C72.9347 59.5252 73.2032 58.6031 73.2029 57.6616C73.2029 53.9002 68.7076 50.375 63.1749 50.375C57.6422 50.375 53.136 53.9002 53.136 57.6616C53.1422 58.6053 53.4183 59.5275 53.9318 60.3192C55.4577 59.1771 59.0254 58.3754 63.1969 58.3754Z" fill="#F2FAFE"/>
<path d="M63.1967 58.4044C67.3407 58.4044 70.8809 59.2006 72.4178 60.3317C72.9253 59.5457 73.1994 58.6317 73.2081 57.696C73.2081 53.9676 68.7238 50.4644 63.1967 50.4644C57.6695 50.4644 53.1742 53.9676 53.1742 57.696C53.1829 58.6317 53.457 59.5457 53.9646 60.3317C55.4685 59.2006 59.0307 58.4044 63.1967 58.4044Z" fill="#F7FCFE"/>
<path d="M63.1976 58.4275C67.3362 58.4275 70.8819 59.2127 72.4023 60.3383C72.9131 59.5617 73.1894 58.6543 73.1982 57.7246C73.1982 54.0237 68.7138 50.5479 63.1976 50.5479C57.6814 50.5479 53.1862 54.0237 53.1862 57.7246C53.1945 58.6535 53.4688 59.5606 53.9765 60.3383C55.4805 59.2127 59.0372 58.4275 63.1976 58.4275Z" fill="#FBFDFF"/>
<path d="M63.1967 58.4597C67.3297 58.4597 70.8809 59.2394 72.3903 60.3541C72.8978 59.5843 73.1722 58.6844 73.1807 57.7623C73.1807 54.0943 68.7074 50.624 63.1967 50.624C57.686 50.624 53.2017 54.0779 53.2017 57.7623C53.2102 58.6844 53.4846 59.5843 53.992 60.3541C55.5124 59.2394 59.0417 58.4597 63.1967 58.4597Z" fill="white"/>
</g>
<path d="M63.196 57.249C59.8765 57.2152 56.5775 57.773 53.4535 58.8963C54.2913 60.7813 55.6576 62.3827 57.3868 63.5064C59.116 64.6302 61.134 65.228 63.196 65.2275C65.2581 65.2282 67.2762 64.6311 69.0062 63.5085C70.7362 62.3858 72.104 60.7858 72.9441 58.9018C69.8183 57.7773 66.5176 57.2177 63.196 57.249Z" fill="#007BC7"/>
<path d="M87.6574 53.2552C88.2065 53.6803 88.853 54.0169 89.5793 54.256C90.3056 54.504 91.1027 54.628 91.953 54.628C92.7855 54.628 93.5738 54.504 94.3089 54.256C95.0351 54.008 95.6906 53.6715 96.2397 53.2552C96.7888 52.8212 97.2317 52.3075 97.5505 51.7318C97.8693 51.1561 98.0376 50.5273 98.0376 49.8719C98.0376 49.2253 97.8693 48.6053 97.5505 48.0296C97.2317 47.4539 96.7888 46.9491 96.2397 46.5063C95.6906 46.0811 95.044 45.7446 94.3177 45.4966C93.5826 45.2397 92.7944 45.1157 91.9618 45.1157C91.1115 45.1157 90.3144 45.2397 89.5882 45.4966C88.8619 45.7446 88.2153 46.09 87.6662 46.5151C87.1171 46.9491 86.6742 47.4628 86.3643 48.0385C86.0454 48.6142 85.886 49.2342 85.886 49.8807C85.886 50.5361 86.0454 51.165 86.3643 51.7407C86.6742 52.3075 87.1082 52.8124 87.6574 53.2552ZM88.6316 49.8719C88.6316 49.4733 88.7202 49.0836 88.8885 48.7116C89.0656 48.3396 89.3047 48.0208 89.6059 47.7462C89.907 47.4628 90.2613 47.2325 90.6598 47.0731C91.0584 46.9137 91.4924 46.8251 91.953 46.8251C92.3958 46.8251 92.8298 46.9048 93.2283 47.0731C93.6358 47.2325 93.99 47.4628 94.2912 47.7462C94.5923 48.0208 94.8314 48.3396 95.0174 48.7116C95.1946 49.0836 95.2831 49.4733 95.2831 49.863C95.2831 50.2704 95.1946 50.669 95.0174 51.041C94.8403 51.413 94.5923 51.7407 94.2912 52.0064C93.99 52.2987 93.6358 52.5201 93.2372 52.6795C92.4224 52.9984 91.4481 52.9895 90.6598 52.6795C90.2613 52.5201 89.907 52.2987 89.6059 52.0152C89.3047 51.7407 89.0656 51.4218 88.8973 51.0498C88.7202 50.6778 88.6316 50.2793 88.6316 49.8719Z" fill="#007BC4"/>
<path d="M83.5464 57.8285H90.5876V63.8955H93.3421V57.8285H100.383V56.1191H83.5464V57.8285Z" fill="#007BC4"/>
<path d="M115.365 45.4307H113.221L113.354 45.5989C113.407 45.6609 113.443 45.7318 113.452 45.8204C113.514 46.0772 113.549 46.4935 113.549 47.0426V55.5895C113.549 56.1209 113.239 56.4841 112.593 56.6789C112.38 56.7409 112.044 56.7852 111.601 56.8118H105.755C105.445 56.8118 105.348 56.7409 105.312 56.6966C105.25 56.6169 105.215 56.4841 105.215 56.3069V52.897H110.263C110.564 52.897 110.768 52.835 110.883 52.711C110.998 52.5959 111.06 52.4099 111.06 52.1708V46.6972C111.06 46.4581 110.998 46.2721 110.874 46.1481C110.75 46.0241 110.547 45.9709 110.246 45.9709H102.372V47.6803H108.315V51.1876H102.186L102.363 51.5596C102.434 51.7722 102.469 52.0468 102.469 52.3567V57.2723C102.469 57.5823 102.575 57.848 102.788 58.0694C103.08 58.3706 103.541 58.5211 104.179 58.5211H111.069L112.159 58.4769C112.814 58.406 113.275 58.2909 113.558 58.1137V63.6759H116.313V46.1746C116.295 45.8469 116.135 45.4484 115.365 45.4307Z" fill="#007BC4"/>
<path d="M135.879 51.2585H133.284V46.1392C133.284 45.8204 133.125 45.4307 132.354 45.4307H130.237L130.414 45.8027C130.485 46.0772 130.53 46.4846 130.53 47.0249V63.6936H133.284V52.9767H135.879V51.2585Z" fill="#007BC4"/>
<path d="M124.928 51.7522C125.159 51.2119 125.353 50.6628 125.504 50.0959C125.619 49.6531 125.734 49.1482 125.832 48.5991C125.894 48.2803 125.938 47.9703 125.965 47.6957H128.994V45.9863H119.251V47.6957H122.679C122.794 47.7046 122.909 47.74 122.909 47.9791C122.909 47.988 122.909 47.9968 122.909 48.0057C122.909 48.0146 122.909 48.0234 122.909 48.0411V48.1474H122.918C122.891 51.4687 121.394 54.4801 118.463 57.1017L118.392 57.1637L119.287 58.2974L119.366 58.2443C121.341 56.8626 122.874 55.3038 123.972 53.5944C124.857 54.9318 126.142 56.402 127.807 57.9697L127.878 58.0405L129.623 56.0655L129.534 56.0035C127.869 54.8166 126.328 53.3907 124.928 51.7522Z" fill="#007BC4"/>
<path d="M142.914 61.861C142.844 61.7813 142.808 61.6484 142.808 61.4713V57.7868C142.808 57.5831 142.773 57.4148 142.693 57.3086C142.604 57.1846 142.454 57.1226 142.224 57.1226H139.646L139.832 57.2997C139.93 57.3971 139.992 57.5123 140.018 57.654C140.045 57.8134 140.054 57.9817 140.054 58.1322V62.4455C140.054 62.7555 140.151 63.0124 140.355 63.2161C140.647 63.5349 141.116 63.6944 141.763 63.6944H151.514V61.9761H143.348C143.127 61.9761 142.976 61.9407 142.914 61.861Z" fill="#007BC4"/>
<path d="M142.072 51.6025C143.143 53.0107 144.552 54.2684 146.252 55.3489L146.332 55.4021L147.731 53.3296L147.625 53.2764C145.65 52.2933 144.082 51.2482 142.966 50.1588C143.365 49.3617 143.631 48.6443 143.755 48.0243C143.887 47.3777 143.949 46.8995 143.949 46.5541C143.949 46.1821 143.763 46.0138 143.577 45.9341L143.267 45.8721H140.194L140.504 46.0581C140.61 46.1201 140.655 46.1643 140.672 46.1909C140.779 46.3326 140.832 46.5363 140.832 46.7932C140.717 49.9285 139.069 52.559 135.925 54.6138L135.845 54.667L136.518 55.7918L136.598 55.7652C138.777 54.915 140.619 53.5156 142.072 51.6025Z" fill="#007BC4"/>
<path d="M151.413 46.1569C151.413 45.8292 151.254 45.4307 150.483 45.4307H148.349L148.446 45.5901C148.49 45.6609 148.526 45.7407 148.552 45.8204C148.623 46.0949 148.667 46.5023 148.667 47.0426V58.3706H151.422V52.0999H154.017V50.3905H151.422V46.1569H151.413Z" fill="#007BC4"/>
<path d="M154.373 56.2768H161.565V59.5007H164.319V56.2768H171.21V54.5674H154.373V56.2768Z" fill="#007BC4"/>
<path d="M158.471 52.2122C159.02 52.5753 159.667 52.8764 160.402 53.089C161.137 53.3016 161.934 53.4167 162.785 53.4167C163.617 53.4167 164.414 53.3104 165.141 53.089C165.876 52.8764 166.531 52.5753 167.098 52.2122C167.647 51.8313 168.09 51.3796 168.409 50.8748C168.736 50.3611 168.896 49.8119 168.896 49.2274C168.896 48.6606 168.728 48.1114 168.409 47.5977C168.09 47.0929 167.647 46.6412 167.089 46.2603C166.531 45.8972 165.876 45.5961 165.141 45.3746C164.405 45.1532 163.608 45.0381 162.776 45.0381C161.934 45.0381 161.128 45.1532 160.393 45.3746C159.658 45.5961 159.012 45.8972 158.462 46.2603C157.896 46.6412 157.453 47.0929 157.134 47.5977C156.815 48.1114 156.656 48.6517 156.656 49.2274C156.656 49.8119 156.815 50.3611 157.134 50.8748C157.462 51.3796 157.913 51.8313 158.471 52.2122ZM159.428 49.2274C159.428 48.8997 159.516 48.5808 159.685 48.2886C159.862 47.9963 160.101 47.7217 160.393 47.4914C160.703 47.27 161.066 47.0929 161.483 46.9512C161.89 46.8183 162.333 46.7475 162.793 46.7475C163.245 46.7475 163.679 46.8183 164.087 46.9512C164.494 47.0929 164.866 47.27 165.167 47.4914C165.468 47.7217 165.707 47.9963 165.885 48.2886C166.062 48.5808 166.15 48.8908 166.15 49.2274C166.15 49.5728 166.062 49.8917 165.885 50.1839C165.707 50.4851 165.459 50.7508 165.167 50.9811C164.857 51.2025 164.494 51.3796 164.087 51.5125C163.263 51.7782 162.28 51.7693 161.483 51.5125C161.075 51.3796 160.712 51.2025 160.402 50.9811C160.101 50.7508 159.862 50.4851 159.694 50.1839C159.508 49.8917 159.428 49.5728 159.428 49.2274Z" fill="#007BC4"/>
<path d="M159.506 61.8773C159.444 61.8065 159.408 61.6648 159.408 61.4788V58.7951C159.408 58.6003 159.364 58.4409 159.284 58.3257C159.196 58.1929 159.036 58.1309 158.806 58.1309H156.246L156.432 58.308C156.53 58.3966 156.592 58.5206 156.618 58.6623C156.645 58.8217 156.654 58.99 156.654 59.1405V62.453C156.68 62.7807 156.786 63.0464 156.972 63.2413C157.265 63.5424 157.734 63.693 158.363 63.693H169.239V61.9836H159.931C159.638 61.9836 159.541 61.9216 159.506 61.8773Z" fill="#007BC4"/>
<path d="M185.174 54.016V51.5184C185.599 51.2084 185.944 50.8453 186.21 50.4555C186.538 49.9684 186.697 49.4459 186.697 48.8879C186.697 48.3476 186.529 47.8251 186.21 47.3379C185.891 46.8596 185.448 46.4345 184.89 46.0802C184.332 45.726 183.677 45.4425 182.942 45.23C182.207 45.0174 181.419 44.9111 180.586 44.9111C179.745 44.9111 178.939 45.0174 178.203 45.23C177.468 45.4425 176.822 45.726 176.273 46.0802C175.706 46.4345 175.263 46.8596 174.944 47.3379C174.625 47.8251 174.466 48.3387 174.466 48.8879C174.466 49.4459 174.625 49.9684 174.944 50.4555C175.201 50.8541 175.555 51.2172 175.989 51.5272V54.0249H172.163V55.7343H189V54.0249H185.174V54.016ZM182.419 54.016H178.753V52.6698C179.913 52.9 181.25 52.9089 182.419 52.6698V54.016ZM183.659 49.747C183.482 50.0216 183.243 50.2696 182.942 50.4733C182.641 50.677 182.287 50.8453 181.879 50.9604C181.047 51.1995 180.072 51.1907 179.266 50.9604C178.859 50.8453 178.496 50.677 178.203 50.4733C177.911 50.2696 177.672 50.0216 177.495 49.747C177.327 49.4724 177.238 49.189 177.238 48.8879C177.238 48.5867 177.327 48.3033 177.495 48.0376C177.663 47.7719 177.902 47.5239 178.203 47.3202C178.505 47.1165 178.859 46.9482 179.266 46.8242C179.674 46.7002 180.117 46.6382 180.577 46.6382C181.029 46.6382 181.463 46.7002 181.87 46.8242C182.278 46.9482 182.632 47.1165 182.933 47.3202C183.234 47.5239 183.473 47.7719 183.65 48.0376C183.828 48.3033 183.916 48.5867 183.916 48.8879C183.925 49.1802 183.836 49.4724 183.659 49.747Z" fill="#007BC4"/>
<path d="M185.009 57.4149C184.433 57.0517 183.76 56.7594 183.007 56.5469C182.254 56.3343 181.439 56.228 180.58 56.228C179.712 56.228 178.888 56.3343 178.136 56.5469C177.383 56.7594 176.71 57.0517 176.134 57.4149C175.567 57.7691 175.115 58.1943 174.788 58.6814C174.451 59.1685 174.283 59.6999 174.283 60.2579C174.283 60.8248 174.451 61.365 174.788 61.8522C175.115 62.3393 175.567 62.7644 176.134 63.1187C176.701 63.4818 177.383 63.7741 178.136 63.9778C178.888 64.1815 179.712 64.2789 180.58 64.2789C181.439 64.2789 182.254 64.1727 183.007 63.9778C183.76 63.7741 184.433 63.4818 185.009 63.1187C185.575 62.7644 186.027 62.3393 186.364 61.8522C186.7 61.365 186.877 60.8248 186.877 60.2579C186.877 59.6999 186.709 59.1685 186.364 58.6814C186.027 58.2031 185.575 57.7691 185.009 57.4149ZM184.105 60.2668C184.105 60.5768 184.017 60.8779 183.831 61.1436C183.645 61.4182 183.388 61.675 183.069 61.8876C182.759 62.0913 182.387 62.2684 181.953 62.3924C181.085 62.6404 180.049 62.6404 179.207 62.3924C178.782 62.2684 178.401 62.1001 178.091 61.8876C177.772 61.6662 177.516 61.4182 177.338 61.1436C177.161 60.869 177.073 60.5768 177.073 60.2579C177.073 59.9568 177.161 59.6645 177.338 59.3988C177.516 59.1242 177.772 58.8762 178.091 58.6548C178.401 58.4422 178.782 58.274 179.207 58.1411C179.632 58.0083 180.102 57.9463 180.589 57.9463C181.067 57.9463 181.519 58.0171 181.953 58.1411C182.378 58.274 182.75 58.4422 183.069 58.6548C183.397 58.8762 183.653 59.1331 183.839 59.4077C184.017 59.6822 184.105 59.9568 184.105 60.2668Z" fill="#007BC4"/>
</svg>
