<svg width="240" height="109" viewBox="0 0 240 109" fill="none" xmlns="http://www.w3.org/2000/svg">
<rect y="0.386719" width="240" height="108.387" rx="10" fill=""/>
<g clip-path="url(#clip0_2572_64796)">
<path d="M149.213 60.5018L152.229 63.2807L160.012 54.6281L152.326 46.0908L149.429 48.9957C151.345 51.1252 153.535 53.5661 154.497 54.6256C153.505 55.7359 151.18 58.317 149.213 60.5018Z" fill="#030000"/>
<path d="M92.6983 50.172H94.1585C96.0039 50.172 96.2291 51.7004 96.2291 52.4218C96.2291 54.9707 93.6238 54.8999 93.2461 54.8999L96.6354 62.3436H101.313L98.2513 56.2144C98.9001 55.7915 99.4419 55.2239 99.8341 54.5562C100.226 53.8884 100.458 53.1388 100.511 52.3663C100.565 51.5937 100.438 50.8193 100.141 50.104C99.8447 49.3887 99.386 48.752 98.8015 48.2441C97.7054 47.3403 96.3823 47.0469 93.795 47.0469H88.394V62.3417H92.699L92.6983 50.172Z" fill="#030000"/>
<path d="M111.458 62.3416H107.135V50.5211H103.014V47.0474H115.621V50.5211H111.458L111.458 62.3416Z" fill="#030000"/>
<path d="M138.702 51.0759C138.915 50.7486 139.215 50.4869 139.568 50.32C139.921 50.1531 140.313 50.0875 140.701 50.1305C141.085 50.0882 141.473 50.1534 141.822 50.3188C142.171 50.4842 142.467 50.7433 142.678 51.0672C143.074 51.6918 143.36 52.876 143.36 54.6147C143.36 56.3534 143.074 57.5301 142.678 58.1504C142.467 58.4738 142.171 58.7326 141.822 58.8981C141.473 59.0637 141.085 59.1295 140.701 59.0883C140.313 59.13 139.921 59.0638 139.569 58.8971C139.216 58.7303 138.916 58.4693 138.702 58.143C137.783 55.8754 137.783 53.3391 138.702 51.0715V51.0759ZM135.376 60.5752C136.598 61.9647 138.469 62.6625 140.69 62.6625C142.901 62.6625 144.76 61.9647 145.967 60.5895C147.174 59.1988 147.779 57.2374 147.782 54.7053C147.784 52.1732 147.179 50.2122 145.965 48.8223C144.754 47.4303 142.892 46.7437 140.693 46.7437C138.474 46.7437 136.609 47.4297 135.387 48.8223C134.165 50.2149 133.555 52.1719 133.555 54.7053C133.555 57.2386 134.157 59.1888 135.376 60.5752Z" fill="#030000"/>
<path d="M128.496 54.2185C129.168 53.9787 129.739 53.5183 130.116 52.9123C130.492 52.3064 130.653 51.5908 130.571 50.8819C130.547 50.2575 130.361 49.6501 130.032 49.1188C129.703 48.5875 129.242 48.1503 128.694 47.8499C127.722 47.2724 126.523 47.0435 124.51 47.0435H118.424V62.342H125.062C128.551 62.342 130.951 61.0245 130.951 57.8684C130.956 54.6341 128.496 54.2185 128.496 54.2185ZM122.665 50.0935H124.233C125.536 50.0935 126.106 50.7969 126.106 51.5704C126.106 52.344 125.61 53.0474 124.42 53.0474H122.665V50.0935ZM124.558 59.1301H122.665V55.7804H124.464C125.895 55.7804 126.414 56.5794 126.414 57.4553C126.414 58.3311 125.878 59.1301 124.563 59.1301H124.558Z" fill="#030000"/>
<path d="M80.9434 47.0459H74.3638L70.0645 62.342H74.7788L75.7371 58.5581H79.5681L80.5265 62.342H85.2408L80.9434 47.0459ZM76.3047 55.4709L77.6471 49.9824L79.0117 55.4709H76.3047Z" fill="#030000"/>
<path d="M169.935 52.6161H161.677L165.121 48.9631L162.218 46.0645L154.497 54.6284L162.495 63.4987L165.401 60.6019L161.669 56.6437H169.935V52.6161Z" fill="#DF1F1C" stroke="#DF1F1C" stroke-width="0.041"/>
</g>
<defs>
<clipPath id="clip0_2572_64796">
<rect width="99.871" height="30.9677" fill="white" transform="translate(70.0645 39.0962)"/>
</clipPath>
</defs>
</svg>
