<svg width="240" height="109" viewBox="0 0 240 109" fill="none" xmlns="http://www.w3.org/2000/svg">
<rect y="0.386719" width="240" height="108.387" rx="10" fill=""/>
<g clip-path="url(#clip0_2572_64808)">
<path d="M88.1595 54.5827C88.7545 52.5242 89.3411 50.5024 89.9207 48.477C90.066 47.9687 90.2187 47.4644 90.5077 47.0168C91.5535 45.3975 93.7082 45.4633 94.6623 47.1392C95.1523 47.9998 95.3113 48.974 95.5995 49.9017C96.0213 51.2601 96.3815 52.6376 96.7743 54.0054C96.829 54.1965 96.9176 54.3779 97.0723 54.7718C97.5296 53.2512 97.9266 51.9302 98.3245 50.6093C98.598 49.7013 98.8345 48.7798 99.1562 47.8891C99.6368 46.5557 100.673 45.8409 101.965 45.8673C103.142 45.8913 104.146 46.6378 104.526 47.7604C104.675 48.1987 104.703 48.638 104.579 49.0823C103.517 52.8884 102.485 56.7031 101.378 60.4957C100.842 62.3306 99.572 63.2487 97.8618 63.2436C96.0779 63.2383 94.7968 62.2628 94.1974 60.4412C93.7361 59.04 93.2861 57.635 92.8281 56.2327C92.7648 56.0392 92.7726 55.8014 92.4721 55.6843C91.9483 57.2824 91.4248 58.8795 90.9015 60.4756C90.3044 62.2959 89.0583 63.2584 87.3116 63.2494C85.5649 63.2404 84.2434 62.267 83.7218 60.4649C82.6677 56.8215 81.6444 53.1691 80.652 49.5076C80.1851 47.7905 80.907 46.4486 82.4407 45.9946C84.028 45.5251 85.45 46.3035 85.994 48.0118C86.6504 50.0704 87.2521 52.1468 87.8747 54.2158C87.913 54.3405 87.9247 54.477 88.1595 54.5827Z" fill="#CB3B39"/>
<path d="M172.484 54.5877C172.484 52.7667 172.472 50.9453 172.488 49.1245C172.505 47.2128 173.498 46.1322 175.384 46.0941C177.859 46.0431 180.339 45.9015 182.784 46.5306C186.664 47.5286 189.122 50.8411 188.995 54.9888C188.879 58.7801 186.003 62.1228 182.231 62.7992C179.797 63.2358 177.335 63.0694 174.889 62.9704C173.468 62.913 172.506 61.7101 172.489 60.2094C172.468 58.3357 172.484 56.4616 172.484 54.5877ZM178.058 54.4585H178.072C178.072 55.3803 178.072 56.3022 178.072 57.2241C178.073 58.2558 178.074 58.2612 179.065 58.2522C179.486 58.2485 179.91 58.2488 180.326 58.1961C182.953 57.8636 184.345 54.79 182.879 52.5844C181.902 51.1138 180.414 50.844 178.807 50.7927C178.235 50.7743 178.013 50.926 178.045 51.5358C178.095 52.5076 178.058 53.484 178.058 54.4585Z" fill="#CB3B39"/>
<path d="M162.318 63.2765C157.298 63.2783 153.428 59.8762 153.045 54.9789C152.822 52.1385 154.083 49.8045 156.231 47.9743C161.451 43.5247 169.682 46.2045 171.282 52.8619C172.238 56.8375 169.62 61.3171 165.503 62.7557C164.446 63.1253 163.362 63.3096 162.318 63.2765ZM158.621 54.5911C158.621 56.8901 160.223 58.5919 162.324 58.5239C164.467 58.4544 166.02 56.6556 165.916 54.3642C165.814 52.0872 164.064 50.4599 161.902 50.6306C160.014 50.7797 158.622 52.4605 158.621 54.5911Z" fill="#CB3B39"/>
<path d="M142.821 63.2804C137.917 63.2678 133.974 59.7698 133.72 54.8926C133.539 51.4073 135.28 48.7695 138.27 47.0306C143.652 43.9012 150.536 46.8956 151.965 52.9471C152.832 56.6154 150.551 60.8484 146.822 62.4936C145.521 63.0681 144.417 63.285 142.821 63.2804ZM142.935 50.6171C140.892 50.6139 139.302 52.263 139.303 54.3851C139.303 56.8615 140.734 58.527 142.865 58.5294C144.946 58.5316 146.596 56.8211 146.607 54.6497C146.619 52.3948 145.003 50.621 142.935 50.6178V50.6171Z" fill="#CB3B39"/>
<path d="M112.443 63.2411C110.624 63.1695 108.818 63.0757 107.132 62.2426C105.834 61.6012 105.139 60.3691 105.5 59.1771C105.872 57.9496 107.17 57.2646 108.626 57.5507C109.892 57.7998 111.111 58.2495 112.397 58.4248C112.853 58.487 113.29 58.4658 113.723 58.3287C113.958 58.2546 114.163 58.1247 114.188 57.8486C114.213 57.5672 114.024 57.4171 113.803 57.3073C113.113 56.963 112.353 56.8423 111.618 56.6442C110.552 56.3552 109.451 56.194 108.44 55.7081C105.712 54.396 104.896 51.2799 106.618 48.7799C107.689 47.2246 109.255 46.4548 111.018 46.0732C113.075 45.6281 115.105 45.8128 117.051 46.6632C118.266 47.194 119.021 48.3258 118.859 49.3593C118.627 50.8321 117.3 51.7461 115.769 51.4226C114.843 51.2271 113.939 50.9323 113.027 50.6745C112.691 50.5795 112.352 50.5706 112.008 50.5771C111.675 50.5834 111.318 50.6242 111.26 51.0079C111.193 51.4516 111.609 51.478 111.901 51.5424C113.317 51.8546 114.716 52.2259 116.089 52.6941C118.064 53.3675 119.533 54.5303 119.875 56.7224C120.21 58.8704 119.041 61.019 116.934 62.2249C115.541 63.022 114.027 63.2802 112.443 63.2411Z" fill="#CB3B39"/>
<path d="M73.5756 45.8542C74.9233 45.8807 76.2714 46.9778 77.0341 48.8634C78.1212 51.5516 79.1954 54.245 80.2565 56.9437C80.6338 57.898 81.0529 58.8445 81.3232 59.83C81.7312 61.3185 81.0411 62.6523 79.74 63.1171C78.3381 63.6179 76.6952 63.0127 76.1757 61.604C75.8407 60.6964 75.361 60.5057 74.5017 60.5512C73.265 60.6167 72.0207 60.6053 70.783 60.5523C70.1553 60.5254 69.8567 60.7161 69.6337 61.3185C69.0866 62.7954 67.8404 63.4644 66.3058 63.2128C64.7614 62.9595 63.8022 61.2901 64.3996 59.6668C65.51 56.6492 66.7055 53.6628 67.8768 50.6678C68.2783 49.6406 68.5796 48.5683 69.2539 47.6608C70.1944 46.393 71.2558 45.8426 73.5756 45.8542ZM69.1505 56.0734C69.6517 56.0394 70.538 55.9954 70.538 55.9954L70.369 56.4986C70.369 56.4986 73.2184 56.1171 74.2113 56.0169C74.2426 56.0139 76.1099 55.7903 76.1099 55.7903L76.0986 55.67C76.0986 55.67 74.5609 55.8675 74.5804 55.8274C74.6073 55.7718 74.6205 55.7028 74.6245 55.6178C74.626 55.5866 74.6262 55.5533 74.6255 55.5178C74.5959 54.2051 74.963 52.9768 75.4711 51.7805C75.5452 51.6058 75.7644 51.4138 75.5731 51.2117C75.4283 51.0576 75.2249 51.1792 75.0493 51.2144C72.2293 51.7807 70.537 53.7066 69.1505 56.0734Z" fill="#CB3B39"/>
<path d="M121.392 54.3812C121.392 52.5072 121.373 50.6329 121.397 48.759C121.419 47.0876 122.471 45.9325 124.13 45.8858C126.424 45.8208 128.722 45.8348 131.017 45.8781C132.28 45.9021 133.259 47.0223 133.26 48.2944C133.261 49.5525 132.271 50.6356 130.99 50.6916C129.884 50.7404 128.774 50.7006 127.666 50.7086C127.267 50.7115 126.794 50.688 126.873 51.2902C126.933 51.7455 126.822 52.3587 127.658 52.2902C128.445 52.226 129.242 52.254 130.032 52.2827C131.586 52.3388 132.607 53.3273 132.587 54.7223C132.568 56.1172 131.507 57.0782 129.965 57.0936C129.173 57.1016 128.38 57.1183 127.59 57.0873C127.127 57.0691 126.997 57.2531 127.009 57.6866C127.032 58.5571 127.034 59.4281 127.013 60.2996C126.971 61.9968 125.811 63.2005 124.217 63.2291C122.674 63.2568 121.434 62.0172 121.401 60.32C121.362 58.3414 121.392 56.3604 121.392 54.3812Z" fill="#CB3B39"/>
<path d="M63.1338 53.4213C63.1338 54.9231 63.2018 56.4287 63.1194 57.9267C62.955 60.8987 61.1724 62.7947 58.2294 63.1953C56.7991 63.3898 55.3921 63.2524 54.0423 62.6944C53.288 62.3826 52.6703 61.9134 52.2847 61.1813C51.8837 60.4189 51.9058 59.6491 52.3568 58.9238C52.8177 58.1827 53.5299 57.889 54.3852 57.9648C54.9912 58.0185 55.5682 58.1997 56.141 58.4106C57.1704 58.7894 57.6051 58.5141 57.6164 57.4294C57.6448 54.6617 57.6366 51.8939 57.6405 49.1261C57.6405 48.5698 57.6599 48.0179 57.901 47.5011C58.4669 46.2884 59.69 45.6359 60.9376 45.8805C62.1852 46.1252 63.1245 47.2117 63.1673 48.5987C63.2171 50.2052 63.1789 51.8142 63.1789 53.4222L63.1338 53.4213Z" fill="#CB3B39"/>
</g>
<defs>
<clipPath id="clip0_2572_64808">
<rect width="137" height="17.5147" fill="white" transform="translate(52 45.7744)"/>
</clipPath>
</defs>
</svg>
