<svg width="240" height="109" viewBox="0 0 240 109" fill="none" xmlns="http://www.w3.org/2000/svg">
<rect width="240" height="108.387" rx="10" fill=""/>
<g clip-path="url(#clip0_2572_64246)">
<path d="M151.305 53.5833C149.8 57.8117 146.222 60.4179 141.623 60.4179C135.93 60.4179 131.455 56.0661 131.455 50.2492C131.455 44.3923 135.93 40.0806 141.623 40.0806C146.342 40.0806 150.287 43.0507 151.548 47.239C151.792 48.3771 151.425 48.5005 150.817 48.6208C150.167 48.7441 149.192 48.6208 148.581 48.2537C147.93 47.8867 146.953 46.505 146.953 46.505C145.855 44.6329 143.862 43.5349 141.623 43.5349C138.042 43.5349 135.035 46.6253 135.035 50.2461C135.035 53.8269 138.046 56.9173 141.623 56.9173C144.106 56.9173 146.098 55.5757 147.317 53.5833C147.317 53.5833 147.927 52.4853 149.432 52.0782C151.061 51.7111 151.425 52.2015 151.425 52.2015C151.425 52.2015 151.792 52.3249 151.305 53.5833Z" fill="#005386"/>
<path d="M98.5886 43.538C102.209 43.538 105.176 46.6284 105.176 50.2492C105.176 53.83 102.206 56.9204 98.5886 56.9204V60.4179C104.322 60.4179 108.757 56.0661 108.757 50.2492C108.757 44.3923 104.325 40.0806 98.5886 40.0806V43.538ZM98.5886 56.9204C95.0078 56.9204 92.0408 53.83 92.0408 50.2492C92.0408 46.6284 95.0109 43.538 98.5886 43.538V40.0806C92.8951 40.0806 88.4199 44.3923 88.4199 50.2492C88.4199 56.0661 92.8951 60.4179 98.5886 60.4179V56.9204Z" fill="#005386"/>
<path d="M163.833 43.538C167.413 43.538 170.38 46.6284 170.38 50.2492C170.38 53.83 167.41 56.9204 163.833 56.9204V60.4179C169.526 60.4179 174.001 56.0661 174.001 50.2492C174.001 44.3923 169.526 40.0806 163.833 40.0806V43.538ZM163.833 43.538V40.0806C158.096 40.0806 153.664 44.3923 153.664 50.2492C153.664 56.0661 158.096 60.4179 163.833 60.4179V56.9204C160.212 56.9204 157.242 53.83 157.242 50.2492C157.242 46.6284 160.212 43.538 163.833 43.538Z" fill="#005386"/>
<path d="M124.619 52.0782C125.88 52.2015 126.124 52.7289 125.757 53.7066C125.026 55.5788 122.423 57.0407 120.063 57.0407C117.337 57.0407 115.955 55.699 114.857 54.5579C113.839 53.4599 111.847 53.3365 111.236 53.5833C110.626 53.8269 110.869 54.8046 111.113 55.332C112.862 58.5458 116.443 60.4179 119.94 60.4179C123.641 60.5382 126.855 58.6691 128.847 55.5788C130.719 52.4884 129.945 48.6238 125.513 48.6238L115.588 48.5036C114.083 48.5036 113.96 47.6492 114.327 46.6314C115.345 44.8025 117.581 43.4177 120.307 43.4177C122.91 43.4177 124.252 45.0462 125.146 45.8974C126.121 46.7517 127.993 46.9954 128.847 46.6314C129.335 46.3878 129.214 45.7771 128.847 45.0462C127.225 41.9095 123.644 40.0806 120.063 40.0806C116.933 40.0806 113.476 41.4222 111.36 44.636C109.651 47.4025 109.774 51.9579 115.955 51.9579L124.619 52.0782Z" fill="#005386"/>
<path d="M76.175 60.4179C81.8685 60.4179 86.3437 56.0661 86.3437 50.2492C86.3468 44.3923 81.8716 40.0806 76.175 40.0806V43.538C79.7558 43.538 82.7228 46.5081 82.7228 50.2492C82.7228 53.83 79.7527 56.9204 76.175 56.9204V60.4179ZM76.175 40.0806C70.4414 40.0806 66.0063 44.3923 66.0063 50.2492C66.0063 50.4929 66.0063 63.7118 66.0063 63.7118C66.0063 63.7118 65.883 65.4606 66.617 66.6819C67.2277 67.5363 68.1221 68.187 68.9764 68.3073C69.5871 68.187 69.7074 67.4129 69.7074 67.4129V58.1787C71.4562 59.5204 73.6922 60.4148 76.175 60.4148V56.9204C72.5541 56.9204 69.5871 53.83 69.5871 50.2492C69.5871 46.5081 72.5572 43.538 76.175 43.538V40.0806Z" fill="#005386"/>
</g>
<defs>
<clipPath id="clip0_2572_64246">
<rect width="108" height="28.2267" fill="white" transform="translate(66.0002 40.0806)"/>
</clipPath>
</defs>
</svg>
