<svg width="240" height="109" viewBox="0 0 240 109" fill="none" xmlns="http://www.w3.org/2000/svg">
<rect y="0.386719" width="240" height="108.387" rx="10" fill=""/>
<g clip-path="url(#clip0_2572_64509)">
<path d="M80.8089 66.9936C79.1168 68.6706 76.8305 69.6115 74.4477 69.6115C72.0649 69.6115 69.7785 68.6706 68.0865 66.9936L61.6054 60.5152C59.9237 58.8286 58.9795 56.5444 58.9795 54.1632C58.9795 51.782 59.9237 49.4978 61.6054 47.8112L68.0865 41.3328C69.7785 39.6558 72.0649 38.7148 74.4477 38.7148C76.8305 38.7148 79.1168 39.6558 80.8089 41.3328L87.2899 47.8112C88.9684 49.4995 89.9105 51.783 89.9105 54.1632C89.9105 56.5434 88.9684 58.8269 87.2899 60.5152L80.8089 66.9936Z" fill="#E30613"/>
<path d="M70.6268 63.6834C70.3796 63.6835 70.1421 63.5877 69.9643 63.416C69.7865 63.2444 69.6825 63.0104 69.6741 62.7635C69.6677 62.6394 69.6863 62.5153 69.7286 62.3985C69.7708 62.2817 69.8361 62.1745 69.9203 62.0832C70.0891 61.9012 70.3208 61.79 70.5685 61.7723C70.8211 61.762 71.0676 61.8524 71.2535 62.0237C71.4395 62.195 71.5497 62.4332 71.5601 62.6857C71.5704 62.9383 71.4799 63.1846 71.3085 63.3705C71.1371 63.5564 70.8989 63.6666 70.6462 63.6769L70.6268 63.6834Z" fill="white"/>
<path d="M74.0879 46.0627C73.8492 46.0522 73.6108 46.0911 73.3878 46.1769C73.1647 46.2628 72.9618 46.3937 72.7917 46.5615C72.0593 47.2936 71.677 48.7901 71.7094 50.7919C71.7547 53.2537 72.3575 58.093 74.3018 60.5807C74.5796 60.9533 74.9194 61.2755 75.3064 61.533C75.6803 61.8152 76.1341 61.9717 76.6026 61.98C76.7764 61.9802 76.9499 61.965 77.1211 61.9347C78.2358 61.6691 79.6293 60.4317 80.6662 58.7862C80.7423 58.6623 80.8491 58.5602 80.9763 58.4899C81.1035 58.4195 81.2467 58.3832 81.3921 58.3845C81.584 58.3832 81.7707 58.4463 81.9223 58.5638C82.074 58.6813 82.1817 58.8463 82.2282 59.0324C82.2751 59.2545 82.2357 59.4861 82.118 59.6802C80.8218 61.7662 79.0719 63.2239 77.484 63.5672H77.4451C77.1651 63.62 76.881 63.6481 76.5961 63.6514C75.7846 63.6469 74.9944 63.3911 74.3342 62.9194C73.7931 62.5552 73.3157 62.1043 72.9213 61.5848C70.1863 58.08 70.0048 51.511 69.9919 50.7789C69.9595 49.0298 70.2122 46.6587 71.5797 45.3047C71.9048 44.9797 72.2923 44.7237 72.7189 44.5523C73.1455 44.3808 73.6023 44.2974 74.062 44.307H74.224C74.6848 44.2965 75.1429 44.3795 75.5707 44.551C75.9984 44.7225 76.3869 44.9789 76.7128 45.3047C78.0803 46.6587 78.333 49.0298 78.3006 50.7789C78.28 53.7592 77.5041 56.6857 76.0452 59.285C75.969 59.4131 75.8609 59.5192 75.7314 59.593C75.6019 59.6668 75.4554 59.7058 75.3064 59.7061C75.1558 59.704 75.0084 59.6625 74.8789 59.5857C74.7493 59.5089 74.6422 59.3995 74.5681 59.2684C74.494 59.1374 74.4556 58.9892 74.4566 58.8387C74.4577 58.6881 74.4981 58.5405 74.574 58.4104C75.9276 56.0856 76.6222 53.4362 76.5832 50.7465C76.622 48.7447 76.2332 47.2482 75.5008 46.5162C75.3314 46.3474 75.1286 46.2158 74.9054 46.1299C74.6822 46.044 74.4435 46.0057 74.2046 46.0173L74.0879 46.0627Z" fill="white"/>
<path d="M109.138 54.3288V55.2746H96.1172V54.3288H101.659V53.0331H98.593C98.3321 53.0359 98.0806 52.9358 97.893 52.7545C97.7971 52.6655 97.7215 52.557 97.6712 52.4363C97.6208 52.3156 97.597 52.1855 97.6014 52.0548V49.7874H105.541V48.4917H97.6014V47.5459H107.42V50.7851H99.5133V51.6856C99.5022 51.7951 99.5297 51.9051 99.5911 51.9965C99.6308 52.0309 99.6773 52.0567 99.7274 52.0723C99.7776 52.0879 99.8305 52.0929 99.8827 52.0872H107.602V53.0655H103.583V54.3611L109.138 54.3288ZM104.523 57.6003C104.933 58.0325 105.395 58.4132 105.897 58.734C106.357 59.0345 106.845 59.2884 107.355 59.492C107.721 59.6429 108.101 59.7558 108.49 59.8289L107.939 60.6581C107.573 60.6084 107.212 60.5349 106.856 60.4379C106.376 60.3045 105.906 60.1356 105.45 59.9325C104.933 59.704 104.434 59.4354 103.959 59.1292C103.466 58.8121 103.017 58.4309 102.624 57.9955C102.228 58.4278 101.78 58.8087 101.289 59.1292C100.813 59.4372 100.312 59.7059 99.792 59.9325C99.3367 60.1366 98.8666 60.3055 98.3856 60.4379C98.026 60.5363 97.66 60.6099 97.2903 60.6581L96.7394 59.8289C97.128 59.7558 97.5081 59.6429 97.8736 59.492C98.3837 59.286 98.8722 59.0299 99.3318 58.7276C99.8326 58.4047 100.294 58.0242 100.706 57.5938C101.109 57.1881 101.407 56.6899 101.574 56.1427H103.681C103.837 56.6907 104.126 57.1915 104.523 57.6003Z" fill="#E30613"/>
<path d="M116.15 55.6569C116.519 55.6569 116.798 55.6569 117.044 55.6569C117.258 55.6348 117.46 55.5516 117.628 55.4172V52.476H114.919V51.446H117.628V47.2998H119.507V60.5157H117.628V56.4084C117.451 56.499 117.26 56.5582 117.064 56.5833C116.761 56.6266 116.456 56.6461 116.15 56.6416H112.261C112.09 56.6489 111.918 56.6198 111.758 56.5561C111.599 56.4925 111.454 56.3958 111.335 56.2724C111.105 56.0344 110.979 55.7153 110.985 55.3848V47.8181H116.377V48.8093H112.883V55.171C112.877 55.2971 112.911 55.4218 112.981 55.5273C113.027 55.5758 113.084 55.6128 113.147 55.6353C113.21 55.6578 113.277 55.6652 113.344 55.6569H116.15ZM120.829 47.2998H122.709V60.5157H120.829V47.2998Z" fill="#E30613"/>
<path d="M124.991 47.7857H132.846V48.751H129.884V48.8546C129.875 49.4018 129.965 49.9461 130.15 50.4613C130.322 50.9274 130.564 51.3644 130.869 51.7569C131.171 52.1518 131.527 52.5028 131.926 52.7999C132.336 53.1011 132.769 53.3697 133.222 53.6032L132.574 54.3871C132.287 54.2931 132.005 54.1828 131.731 54.0567C131.391 53.9013 131.064 53.7193 130.752 53.5126C130.406 53.2791 130.077 53.0215 129.767 52.7416C129.443 52.4412 129.152 52.1067 128.899 51.744C128.646 52.1124 128.357 52.4552 128.037 52.7676C127.732 53.0658 127.404 53.3408 127.058 53.5903C126.75 53.8145 126.422 54.0118 126.08 54.1798C125.801 54.3232 125.51 54.4424 125.211 54.5361L124.563 53.7652C124.995 53.5597 125.401 53.3054 125.775 53.0072C126.173 52.692 126.528 52.3261 126.831 51.9189C127.142 51.4941 127.391 51.0273 127.57 50.5325C127.761 50.0051 127.855 49.4477 127.849 48.887V48.7704H124.991V47.7857ZM132.444 55.0674C132.938 55.0628 133.43 55.1349 133.902 55.2812C134.328 55.4122 134.726 55.6209 135.075 55.8966C135.4 56.1547 135.665 56.4795 135.853 56.8489C136.042 57.2269 136.137 57.6445 136.132 58.0669C136.139 58.4956 136.043 58.9198 135.853 59.3042C135.665 59.6736 135.4 59.9984 135.075 60.2565C134.726 60.5323 134.328 60.7409 133.902 60.872C132.951 61.1569 131.937 61.1569 130.986 60.872C130.56 60.7409 130.162 60.5323 129.813 60.2565C129.488 59.9984 129.223 59.6736 129.035 59.3042C128.845 58.9198 128.749 58.4956 128.756 58.0669C128.751 57.6445 128.846 57.2269 129.035 56.8489C129.223 56.4795 129.488 56.1547 129.813 55.8966C130.162 55.6209 130.56 55.4122 130.986 55.2812C131.458 55.1349 131.95 55.0628 132.444 55.0674ZM132.444 56.0586C132.191 56.0527 131.941 56.1087 131.715 56.2216C131.489 56.3345 131.295 56.5009 131.148 56.7064C131.001 56.9008 130.891 57.1203 130.824 57.3542C130.748 57.5953 130.711 57.8467 130.714 58.0992C130.71 58.3582 130.747 58.6162 130.824 58.8637C130.891 59.0976 131.001 59.3172 131.148 59.5115C131.291 59.6991 131.475 59.8519 131.686 59.9585C131.922 60.0712 132.182 60.1267 132.444 60.1205C132.71 60.128 132.975 60.0725 133.215 59.9585C133.426 59.8519 133.61 59.6991 133.753 59.5115C133.9 59.3172 134.01 59.0976 134.077 58.8637C134.143 58.6142 134.176 58.3572 134.174 58.0992C134.178 57.8424 134.141 57.5865 134.064 57.3413C133.998 57.1069 133.888 56.8872 133.74 56.6934C133.597 56.5077 133.413 56.3571 133.202 56.2529C132.968 56.1291 132.709 56.0625 132.444 56.0586ZM136.734 47.2998V54.9767H134.79V51.3812H132.068V50.39H134.79V47.2998H136.734Z" fill="#E30613"/>
<path d="M142.684 47.6821V49.9884H148.607V47.6821H150.487V54.4909H146.741V56.9915H152.25V57.9633H139.216V56.9915H144.771V54.4909H141.971C141.807 54.5032 141.642 54.48 141.488 54.423C141.333 54.366 141.193 54.2765 141.076 54.1605C140.971 54.0432 140.889 53.906 140.837 53.757C140.785 53.608 140.762 53.4501 140.772 53.2924V47.6821H142.684ZM142.684 53.1693C142.676 53.2155 142.679 53.2629 142.694 53.3076C142.708 53.3523 142.732 53.393 142.765 53.4265C142.798 53.4599 142.838 53.4852 142.883 53.5001C142.927 53.5151 142.974 53.5194 143.021 53.5127H148.607V50.9667H142.684V53.1693Z" fill="#E30613"/>
<path d="M164.843 47.5195V48.4654H157.065V49.6056H164.843V50.5644H157.065V51.2899C157.057 51.4182 157.096 51.545 157.175 51.6463C157.222 51.6951 157.278 51.7327 157.341 51.7563C157.404 51.7799 157.472 51.7888 157.538 51.7823H165.076V52.7411H161.019V53.9525H166.651V54.8984H153.585V53.9525H158.977V52.7411H156.074C155.946 52.7474 155.818 52.727 155.699 52.6813C155.58 52.6356 155.471 52.5655 155.38 52.4755C155.216 52.2998 155.126 52.068 155.127 51.8276V47.5519L164.843 47.5195ZM159.988 55.6564C160.459 55.6561 160.929 55.7083 161.388 55.8118C161.82 55.9057 162.234 56.0698 162.613 56.2977C162.965 56.512 163.262 56.8047 163.482 57.1529C163.706 57.5208 163.819 57.9463 163.806 58.3773C163.817 58.8109 163.702 59.2385 163.475 59.6082C163.253 59.953 162.957 60.2431 162.607 60.4568C162.23 60.6869 161.819 60.8533 161.388 60.9492C160.929 61.0506 160.459 61.1006 159.988 61.0982C159.517 61.1002 159.047 61.0458 158.588 60.9362C158.155 60.8414 157.741 60.675 157.363 60.4439C157.017 60.2288 156.721 59.9415 156.495 59.6017C156.268 59.2345 156.153 58.8089 156.164 58.3773C156.154 57.9467 156.267 57.5221 156.488 57.1529C156.708 56.8047 157.005 56.512 157.357 56.2977C157.738 56.0687 158.154 55.9045 158.588 55.8118C159.048 55.7075 159.517 55.6554 159.988 55.6564ZM159.988 56.5309C159.726 56.5265 159.466 56.575 159.224 56.6735C158.998 56.7611 158.791 56.8908 158.614 57.0557C158.438 57.2189 158.299 57.4176 158.206 57.6387C158.106 57.8722 158.056 58.1235 158.057 58.3773C158.057 58.633 158.108 58.8862 158.206 59.1223C158.301 59.3408 158.437 59.5388 158.608 59.7053C158.783 59.8731 158.99 60.0032 159.217 60.0876C159.711 60.2777 160.259 60.2777 160.753 60.0876C160.98 60.0032 161.188 59.8731 161.362 59.7053C161.533 59.5388 161.669 59.3408 161.764 59.1223C161.862 58.8862 161.913 58.633 161.913 58.3773C161.914 58.1235 161.864 57.8722 161.764 57.6387C161.671 57.4176 161.532 57.2189 161.356 57.0557C161.179 56.8908 160.972 56.7611 160.747 56.6735C160.506 56.5758 160.248 56.5273 159.988 56.5309Z" fill="#E30613"/>
<path d="M173.067 49.3081C173.06 49.8551 173.15 50.399 173.333 50.9147C173.51 51.38 173.754 51.8166 174.059 52.2104C174.364 52.6071 174.724 52.9583 175.128 53.2534C175.537 53.5596 175.97 53.8305 176.424 54.0632L175.776 54.8471C175.489 54.7518 175.208 54.6393 174.934 54.5102C174.595 54.356 174.27 54.174 173.962 53.9661C173.617 53.733 173.29 53.4753 172.983 53.1951C172.657 52.8962 172.366 52.5615 172.114 52.1975C171.863 52.5692 171.574 52.9143 171.252 53.2275C170.945 53.5239 170.616 53.7967 170.267 54.0438C169.954 54.2664 169.625 54.4656 169.282 54.6398C169 54.7765 168.71 54.8955 168.414 54.9961L167.766 54.2252C168.196 54.0149 168.602 53.7586 168.978 53.4607C169.375 53.1472 169.729 52.7811 170.028 52.3724C170.341 51.9508 170.592 51.486 170.773 50.9925C170.963 50.4628 171.058 49.9033 171.052 49.3405V47.6237H173.067V49.3081ZM172.38 59.058C172.378 59.1751 172.398 59.2916 172.438 59.4014C172.477 59.4986 172.626 59.5504 172.873 59.5504H180.216V60.5157H171.421C171.224 60.5262 171.028 60.486 170.851 60.3991C170.73 60.3311 170.631 60.23 170.565 60.1075C170.502 59.9852 170.466 59.8502 170.462 59.7124C170.462 59.5698 170.462 59.4338 170.462 59.3042V56.1104H172.38V59.058ZM179.866 47.2998V56.6287H177.921V47.2998H179.866Z" fill="#E30613"/>
</g>
<defs>
<clipPath id="clip0_2572_64509">
<rect width="121.196" height="30.85" fill="white" transform="translate(59 38.7744)"/>
</clipPath>
</defs>
</svg>
