<svg width="240" height="109" viewBox="0 0 240 109" fill="none" xmlns="http://www.w3.org/2000/svg">
<rect width="240" height="108.387" rx="10" fill=""/>
<g clip-path="url(#clip0_2572_64093)">
<path d="M150.387 47.6348H148.31V53.7348H150.387V47.6348Z" fill="black"/>
<path d="M139.947 59.8128V58.9589H148.84C149.794 58.9589 150.387 58.4854 150.387 57.5223V54.6724H137.886V56.3946H148.341V57.2486H137.901V59.9393C137.887 60.1572 137.921 60.3755 138.001 60.5789C138.08 60.7823 138.203 60.9658 138.362 61.1164C138.52 61.2671 138.709 61.3812 138.916 61.4509C139.123 61.5205 139.343 61.544 139.56 61.5196L139.571 61.5261H150.387V59.8128H139.947Z" fill="black"/>
<path d="M163.631 59.5269V57.1123H161.491V59.5269H155.224V61.3219H169.935V59.5269H163.631Z" fill="black"/>
<path d="M130.861 49.4621H133.171V47.6498H130.556C130.331 47.6299 130.104 47.6578 129.89 47.7318C129.676 47.8057 129.481 47.9241 129.316 48.079C129.151 48.2339 129.021 48.4219 128.934 48.6306C128.847 48.8394 128.805 49.0642 128.811 49.2903V53.9561H130.861V49.4621Z" fill="black"/>
<path d="M157.035 55.5821H168.019C168.243 55.5996 168.467 55.5694 168.678 55.4935C168.889 55.4176 169.081 55.2977 169.242 55.1418C169.403 54.9859 169.528 54.7976 169.611 54.5893C169.693 54.381 169.731 54.1576 169.72 53.9338V47.6191H167.691V49.4082H157.354V47.6239H155.327V53.9362C155.317 54.1603 155.355 54.3839 155.438 54.5922C155.521 54.8005 155.648 54.9887 155.809 55.1444C155.971 55.3 156.164 55.4195 156.375 55.495C156.586 55.5705 156.811 55.6002 157.035 55.5821ZM157.427 51.2061H167.762V53.7609H157.427V51.2061Z" fill="black"/>
<path d="M123.584 50.6813C123.623 49.9259 123.434 49.1763 123.042 48.5293C122.65 47.8824 122.074 47.3677 121.386 47.0518C120.699 46.7359 119.933 46.6333 119.187 46.7572C118.441 46.8811 117.749 47.2258 117.201 47.7469C116.652 48.2679 116.273 48.9414 116.111 49.6803C115.95 50.4191 116.013 51.1895 116.294 51.8919C116.574 52.5943 117.059 53.1964 117.685 53.6206C118.312 54.0447 119.051 54.2714 119.807 54.2713C120.784 54.2951 121.73 53.9306 122.438 53.2575C123.146 52.5844 123.558 51.6579 123.584 50.6813ZM119.821 52.4638C119.474 52.4461 119.139 52.3271 118.859 52.1212C118.579 51.9154 118.365 51.6319 118.244 51.3058C118.123 50.9796 118.1 50.6252 118.179 50.2864C118.257 49.9476 118.434 49.6392 118.686 49.3994C118.938 49.1597 119.254 48.9991 119.597 48.9375C119.939 48.876 120.292 48.9161 120.611 49.0531C120.931 49.19 121.204 49.4177 121.395 49.7079C121.587 49.9982 121.689 50.3382 121.69 50.6861C121.677 51.1694 121.474 51.6282 121.123 51.9615C120.773 52.2947 120.305 52.4752 119.821 52.4632V52.4638Z" fill="black"/>
<path d="M126.405 54.2308C125.602 54.2719 124.829 54.5475 124.181 55.0237C123.533 55.4998 123.039 56.1554 122.761 56.9095C122.482 57.6635 122.43 58.4827 122.612 59.2657C122.794 60.0488 123.202 60.7612 123.785 61.3148C124.368 61.8683 125.101 62.2388 125.892 62.3802C126.683 62.5216 127.499 62.4278 128.237 62.1103C128.976 61.7929 129.605 61.2658 130.047 60.5943C130.489 59.9228 130.725 59.1364 130.724 58.3325C130.695 57.2161 130.223 56.157 129.413 55.388C128.603 54.619 127.521 54.2028 126.405 54.2308ZM126.409 60.6117C125.965 60.5891 125.537 60.4366 125.178 60.1731C124.819 59.9097 124.546 59.5469 124.391 59.1295C124.237 58.7122 124.208 58.2587 124.309 57.8252C124.409 57.3918 124.635 56.9973 124.957 56.6907C125.28 56.3841 125.685 56.1788 126.123 56.1003C126.561 56.0217 127.013 56.0734 127.422 56.2488C127.831 56.4242 128.179 56.7158 128.424 57.0873C128.669 57.4588 128.8 57.894 128.8 58.339C128.783 58.9569 128.522 59.5428 128.074 59.9685C127.626 60.3942 127.027 60.6248 126.409 60.6099V60.6117Z" fill="black"/>
<path d="M142.458 50.4975C142.495 49.7823 142.316 49.0726 141.945 48.4601C141.574 47.8475 141.028 47.3601 140.378 47.061C139.727 46.7618 139.002 46.6645 138.295 46.7817C137.589 46.8989 136.934 47.2251 136.415 47.7184C135.895 48.2116 135.536 48.8491 135.383 49.5486C135.23 50.2482 135.289 50.9776 135.555 51.6427C135.82 52.3077 136.279 52.878 136.872 53.2798C137.465 53.6816 138.164 53.8965 138.88 53.8967C139.806 53.9204 140.702 53.5756 141.373 52.9381C142.044 52.3007 142.435 51.4228 142.458 50.4975ZM137.13 50.4922C137.112 50.1429 137.2 49.7964 137.382 49.4975C137.563 49.1986 137.83 48.9609 138.148 48.8152C138.466 48.6694 138.82 48.6223 139.165 48.6799C139.51 48.7375 139.83 48.8971 140.083 49.1382C140.337 49.3792 140.512 49.6907 140.586 50.0324C140.661 50.374 140.632 50.7302 140.502 51.055C140.372 51.3797 140.148 51.6581 139.858 51.8543C139.569 52.0504 139.227 52.1553 138.877 52.1554C138.653 52.1611 138.43 52.1227 138.221 52.0421C138.012 51.9616 137.821 51.8406 137.658 51.6861C137.496 51.5315 137.366 51.3465 137.275 51.1415C137.184 50.9365 137.135 50.7157 137.13 50.4916V50.4922Z" fill="black"/>
<path d="M113.578 51.8296V50.1544C111.133 50.1544 108.634 50.1043 107.773 49.1669H113.583V47.4375H98.1069V49.1669H103.891C102.982 50.1264 100.62 50.167 98.1069 50.167V51.8367C100.595 51.8367 104.373 51.8588 105.835 50.223C107.264 51.8612 111.099 51.8296 113.578 51.8296Z" fill="black"/>
<path d="M106.864 55.0167V54.1127C107.645 54.155 109.13 54.1574 110.257 54.1574H113.729V52.4912H97.9746V54.1574H101.19C102.308 54.1574 104.112 54.1574 104.809 54.1127V55.0131" fill="black"/>
<path d="M109.95 58.7763C109.992 57.9507 109.786 57.1313 109.358 56.424C108.93 55.7167 108.3 55.1539 107.549 54.8085C106.798 54.463 105.96 54.3506 105.145 54.4859C104.329 54.6212 103.573 54.9979 102.974 55.5674C102.374 56.1369 101.96 56.873 101.783 57.6806C101.606 58.4883 101.676 59.3303 101.983 60.098C102.289 60.8657 102.819 61.5238 103.504 61.9872C104.189 62.4507 104.996 62.6982 105.823 62.6979C106.89 62.7242 107.924 62.326 108.698 61.5907C109.471 60.8555 109.922 59.8433 109.95 58.7763ZM105.835 60.8409C105.432 60.8199 105.044 60.6813 104.72 60.4422C104.395 60.2032 104.147 59.8741 104.007 59.4958C103.868 59.1175 103.842 58.7065 103.933 58.3137C104.025 57.9209 104.229 57.5634 104.521 57.2856C104.814 57.0078 105.181 56.8218 105.578 56.7506C105.975 56.6794 106.384 56.7261 106.755 56.885C107.126 57.0438 107.442 57.3079 107.664 57.6445C107.886 57.9811 108.005 58.3754 108.005 58.7787C107.99 59.3394 107.754 59.8714 107.348 60.258C106.941 60.6445 106.398 60.8542 105.837 60.8409H105.835Z" fill="black"/>
<path d="M81.7063 42.5806C79.4041 42.5801 77.1536 43.2623 75.2392 44.541C73.3248 45.8196 71.8325 47.6372 70.9512 49.764C70.0699 51.8907 69.839 54.2311 70.2878 56.4891C70.7366 58.747 71.8449 60.8212 73.4725 62.4493C75.1002 64.0773 77.1741 65.1862 79.4319 65.6355C81.6898 66.0849 84.0302 65.8546 86.1572 64.9738C88.2841 64.093 90.1021 62.6013 91.3813 60.6872C92.6604 58.7731 93.3432 56.5227 93.3434 54.2206C93.3437 52.6922 93.0429 51.1786 92.4582 49.7665C91.8736 48.3543 91.0164 47.0711 89.9358 45.9902C88.8552 44.9093 87.5722 44.0519 86.1602 43.4668C84.7482 42.8818 83.2347 42.5806 81.7063 42.5806ZM81.7063 63.4926C79.8724 63.4931 78.0796 62.9499 76.5546 61.9315C75.0295 60.9131 73.8408 59.4653 73.1386 57.7713C72.4364 56.0772 72.2523 54.2129 72.6097 52.4143C72.9671 50.6156 73.8499 48.9633 75.1464 47.6664C76.4429 46.3695 78.0949 45.4862 79.8935 45.1282C81.692 44.7702 83.5563 44.9537 85.2506 45.6553C86.9449 46.3569 88.3931 47.5453 89.4119 49.07C90.4308 50.5947 90.9747 52.3874 90.9747 54.2212C90.9748 55.4384 90.7352 56.6438 90.2695 57.7684C89.8038 58.893 89.1211 59.9149 88.2605 60.7757C87.3998 61.6365 86.378 62.3193 85.2534 62.7851C84.1289 63.251 82.9235 63.4908 81.7063 63.4908V63.4926Z" fill="#E89700"/>
<path d="M79.4635 49.3889V51.7599H81.5257V55.2486C81.5257 56.8104 81.0319 57.3495 80.1719 57.4801C79.7835 57.5013 79.395 57.4403 79.0317 57.3012V59.5327C79.5416 59.674 80.0675 59.7494 80.5966 59.7569C82.7768 59.7569 84.0315 58.1784 84.0488 56.0262V49.3877L79.4635 49.3889Z" fill="black"/>
</g>
<defs>
<clipPath id="clip0_2572_64093">
<rect width="99.871" height="30.9677" fill="white" transform="translate(70.0645 38.7095)"/>
</clipPath>
</defs>
</svg>
