<svg width="240" height="109" viewBox="0 0 240 109" fill="none" xmlns="http://www.w3.org/2000/svg">
<rect y="0.386719" width="240" height="108.387" rx="10" fill=""/>
<path d="M89.66 44.6548H56V64.1573H89.66V44.6548Z" fill="#086FB8"/>
<path d="M114.281 57.3442H119.847V54.3334H112.546V52.2868H124.795C124.795 50.8565 124.786 49.5199 124.798 48.1833C124.803 47.6137 124.48 47.4606 123.985 47.462C122.877 47.4652 121.768 47.462 120.661 47.462C119.297 47.462 117.933 47.4694 116.569 47.4591C115.379 47.4503 115.35 47.4206 114.924 46.2948C114.821 46.0218 114.715 45.7506 114.581 45.4051H121.521C122.842 45.4051 124.164 45.3949 125.485 45.4083C126.98 45.4231 127.494 45.8881 127.54 47.3672C127.585 48.8021 127.549 50.2398 127.555 51.6761C127.555 51.8349 127.501 52.0131 127.735 52.2284H129.906C130.236 52.9052 129.977 53.5304 130.131 54.2694C128.799 54.3687 127.579 54.3093 126.363 54.3199C125.177 54.3305 123.992 54.3224 122.731 54.3224V57.3608C123.639 57.3608 124.523 57.352 125.408 57.3626C126.971 57.3817 127.503 57.8576 127.54 59.3901C127.579 61.029 127.549 62.67 127.549 64.3875H124.836V59.7731C124.299 59.3304 123.816 59.4269 123.358 59.4255C121.098 59.4188 118.839 59.4255 116.579 59.4219C115.083 59.4202 115.083 59.4177 114.567 58.0557C114.491 57.8608 114.411 57.6674 114.281 57.3442Z" fill="#070707"/>
<path d="M148.46 51.4339H154.977V48.3223C154.743 48.0041 154.376 48.1102 154.049 48.108C152.983 48.0967 151.918 48.108 150.852 48.1027C149.387 48.0953 149.345 48.0628 148.798 46.7311C148.751 46.6152 148.669 46.5133 148.619 46.398C148.587 46.3249 148.584 46.2389 148.556 46.0904C148.787 45.9083 149.084 45.9843 149.354 45.9822C151.57 45.9766 153.786 45.9713 156.002 45.9822C157.48 45.9897 157.782 46.2969 157.79 47.782C157.798 49.5556 157.79 51.3293 157.786 53.1033C157.786 53.1828 157.752 53.2627 157.711 53.448H151.906C151.906 54.5024 151.913 55.4582 151.904 56.414C151.899 56.8966 152.138 57.0999 152.605 57.0985C153.542 57.096 154.479 57.0985 155.418 57.0985H158.783V59.0468C158.551 59.3025 158.235 59.1883 157.954 59.1883C155.781 59.1975 153.607 59.1986 151.434 59.1918C149.834 59.1869 149.203 58.5833 149.159 56.9871C149.131 55.9741 149.156 54.96 149.153 53.9462C149.15 53.1153 149.236 52.2656 148.46 51.4339Z" fill="#0A0A0A"/>
<path d="M94.7613 49.0805C94.3681 48.9299 93.9979 49.1254 93.656 48.8467V46.9642C95.012 46.8956 96.3988 46.9624 97.8235 46.9246C98.1028 46.1251 97.8942 45.4303 97.385 44.6616C98.0469 44.6616 98.5872 44.6439 99.1229 44.6655C100.103 44.7051 100.414 44.9961 100.511 45.9384C100.542 46.2252 100.541 46.5152 100.561 46.9253H104.676C104.745 47.6679 104.771 48.2835 104.669 48.8637C104.323 49.1169 103.946 48.9139 103.592 49.1017C104.771 51.789 104.568 54.2115 101.938 55.9738C100.594 56.8751 99.0409 56.925 97.5091 56.4833C94.5103 55.6202 93.4103 52.655 94.7613 49.0805ZM99.1912 54.6068C100.414 54.6528 101.593 53.6931 101.654 51.8053C101.703 50.2477 100.531 48.9949 99.1579 49.0094C97.7789 49.0243 96.6679 50.2944 96.6828 51.8399C96.7005 53.4265 97.7761 54.6132 99.1912 54.6068Z" fill="#070707"/>
<path d="M145.338 57.0505H142.752C142.569 55.7637 142.758 54.4643 142.635 53.0071C139.439 52.9915 136.235 53.0106 132.985 52.9965V50.957H142.489C142.585 50.7823 142.656 50.7126 142.657 50.6419C142.698 47.6364 142.919 48.2276 140.309 48.1834C138.435 48.1519 136.561 48.1791 134.688 48.1767C133.165 48.1749 133.165 48.1721 132.637 46.6827C132.584 46.5328 132.514 46.3889 132.454 46.2474C132.767 46.0523 133.073 46.1262 133.364 46.1254C136.643 46.1203 139.921 46.1193 143.2 46.1226C143.412 46.1226 143.626 46.1163 143.838 46.1347C144.776 46.2167 145.204 46.6078 145.297 47.5621C145.357 48.1897 145.336 48.8262 145.337 49.4588C145.34 51.9474 145.338 54.436 145.338 57.0505Z" fill="#020202"/>
<path d="M161.874 53.4598H158.695C158.527 52.7582 158.614 52.1377 158.619 51.4683C159.655 51.1437 160.727 51.4775 161.877 51.2364C161.7 49.0009 162.25 46.733 161.441 44.3986C162.031 44.3986 162.647 44.3699 163.259 44.4056C164.121 44.4558 164.468 44.7981 164.584 45.6464C164.612 45.8539 164.601 46.0672 164.601 46.2779C164.601 51.8039 164.601 57.3297 164.601 62.8555C164.601 63.103 164.648 63.3604 164.472 63.638H161.875L161.874 53.4598Z" fill="#0D0D0D"/>
<path d="M172.822 45.5162C173.702 45.5162 174.343 45.4759 174.975 45.5265C175.771 45.5905 176.197 45.9465 176.195 46.7177C176.186 49.5387 177.948 51.1539 180.096 52.5283C180.874 53.0255 181.731 53.3681 182.683 53.6747C182.349 54.3193 182.052 54.8606 181.586 55.4098C178.883 54.7542 176.72 53.3084 174.952 51.028C173.21 53.4229 170.9 54.9176 167.991 55.5473C167.572 54.855 167.203 54.2075 166.911 53.4219C168.326 53.0488 169.581 52.4824 170.69 51.6185C171.574 50.9311 172.321 50.1257 172.817 49.1289C173.379 48.0027 173.696 46.8365 172.822 45.5162Z" fill="#070707"/>
<path d="M130.294 58.6669H136.779V54.6006H139.521V58.6224H147.765C147.98 59.3844 147.963 60.0367 147.801 60.733H130.48C130.149 60.0969 130.406 59.4406 130.294 58.6669Z" fill="#151515"/>
<path d="M111.696 52.8398H108.987C108.943 54.799 108.99 56.7222 108.96 58.6808C108.097 58.9064 107.27 58.7657 106.463 58.7992C106.228 58.3078 106.324 57.8824 106.322 57.4736C106.314 53.9299 106.314 50.3863 106.322 46.8428C106.324 46.0373 106.351 45.2361 105.666 44.4009C106.438 44.4009 107.012 44.3779 107.584 44.4062C108.606 44.4564 108.944 44.7863 108.963 45.8125C108.989 47.2463 108.969 48.6812 108.972 50.1153C108.972 50.2776 108.992 50.4399 109.01 50.7334H111.698L111.696 52.8398Z" fill="#030303"/>
<path d="M96.7542 57.9152C97.5936 57.9152 98.1894 57.8841 98.7802 57.9226C99.5864 57.9753 99.9248 58.3024 99.9899 59.1019C100.038 59.6881 100.005 60.2811 100.014 60.8698C100.03 62.0098 100.063 62.0501 101.26 62.054C103.599 62.0618 105.938 62.0565 108.277 62.0565H109.559C109.767 62.7326 109.647 63.3545 109.653 63.9454C109.34 64.2615 108.981 64.1317 108.658 64.1328C105.681 64.1434 102.704 64.1399 99.7275 64.1381C99.4301 64.1381 99.1264 64.1551 98.8365 64.1095C97.9108 63.9634 97.4189 63.4376 97.3549 62.4956C97.3146 61.9083 97.3284 61.3161 97.3394 60.7277C97.3563 59.8023 97.3521 58.8851 96.7542 57.9152Z" fill="#070707"/>
<path d="M166.053 60.6094V58.6226H183.49C183.783 59.1819 183.496 59.8167 183.695 60.5995C177.762 60.6172 171.953 60.6027 166.053 60.6094Z" fill="#030303"/>
<path d="M79.4146 57.6052V61.6956C78.0731 61.9883 77.9624 61.9205 77.9044 60.673C77.8747 60.0411 77.8765 59.4053 77.9069 58.7735C77.9638 57.5772 78.0098 57.5497 79.4146 57.6052Z" fill="white"/>
<mask id="mask0_2572_64588" style="mask-type:alpha" maskUnits="userSpaceOnUse" x="56" y="44" width="34" height="21">
<path d="M89.66 44.6558H56V64.1582H89.66V44.6558Z" fill="#086FB8"/>
</mask>
<g mask="url(#mask0_2572_64588)">
<path d="M56.3743 43.9638C56.4351 44.4617 56.1452 45.014 55.6915 45.2269C55.2594 45.4298 54.8273 45.1424 54.7679 44.6859C54.7032 44.1908 54.9872 43.6293 55.4493 43.4218C55.8807 43.2284 56.3181 43.5013 56.3743 43.9638Z" fill="#F8F5F5"/>
<path d="M56.6904 46.5479C56.7424 47.0458 56.4528 47.5956 56.0041 47.8162C55.5798 48.0248 55.1579 47.7427 55.1067 47.2904C55.0505 46.7954 55.3344 46.2364 55.7919 46.0214C56.2156 45.8234 56.6423 46.0893 56.6904 46.5479Z" fill="#F8F5F5"/>
<path d="M58.9428 45.4694C58.9881 45.9644 58.6992 46.5068 58.2568 46.7306C57.8407 46.941 57.4284 46.6649 57.3835 46.2183C57.3343 45.7261 57.6172 45.1741 58.0684 44.9563C58.4838 44.7565 58.9014 45.0168 58.9428 45.4694Z" fill="#F8F5F5"/>
<path d="M61.1591 44.3825C61.1973 44.873 60.9095 45.408 60.4735 45.6357C60.0658 45.8478 59.6634 45.578 59.6249 45.1375C59.5821 44.6488 59.8639 44.1039 60.3091 43.8836C60.7161 43.6821 61.1245 43.9352 61.1591 44.3825Z" fill="#F8F5F5"/>
<path d="M63.3383 43.2871C63.3695 43.774 63.0827 44.3027 62.6534 44.5318C62.2539 44.7439 61.8621 44.4826 61.8299 44.0481C61.7945 43.5633 62.0753 43.0258 62.5134 42.8027C62.9115 42.6005 63.3104 42.8458 63.3383 43.2871Z" fill="#F8F5F5"/>
<path d="M56.9618 49.1158C57.005 49.6133 56.7161 50.1603 56.2727 50.3888C55.8561 50.603 55.4453 50.3258 55.4021 49.8785C55.3547 49.3835 55.6383 48.8276 56.0906 48.6056C56.5064 48.4005 56.9226 48.6615 56.9618 49.1158Z" fill="#F8F5F5"/>
<path d="M59.1788 48.0082C59.2142 48.5032 58.927 49.0432 58.4896 49.2748C58.0812 49.4908 57.6806 49.22 57.6442 48.7797C57.6039 48.2872 57.8864 47.7384 58.3326 47.5128C58.74 47.3052 59.147 47.5595 59.1788 48.0082Z" fill="#F8F5F5"/>
<path d="M61.3595 46.8887C61.3878 47.3798 61.101 47.9141 60.67 48.1482C60.27 48.3663 59.88 48.1022 59.8503 47.6666C59.8171 47.1772 60.0978 46.6351 60.5388 46.4064C60.9373 46.1992 61.334 46.446 61.3595 46.8887Z" fill="#F8F5F5"/>
<path d="M63.5028 45.7599C63.5233 46.2471 63.2365 46.7686 62.8133 47.0112C62.4211 47.2361 62.0421 46.9677 62.0195 46.5445C61.9937 46.0586 62.2744 45.524 62.7076 45.292C63.0976 45.0838 63.4844 45.3228 63.5028 45.7599Z" fill="#F8F5F5"/>
<path d="M65.6085 44.6205C65.6163 45.1006 65.3341 45.6183 64.919 45.8633C64.5364 46.0893 64.1673 45.828 64.1517 45.4115C64.1337 44.9299 64.4141 44.4069 64.8394 44.1679C65.2157 43.9568 65.6014 44.1961 65.6085 44.6205Z" fill="#F8F5F5"/>
<path d="M67.6748 43.4732C67.6748 43.9484 67.3919 44.459 66.9856 44.7069C66.6186 44.93 66.2498 44.6842 66.2452 44.2705C66.2395 43.7925 66.5153 43.278 66.9326 43.0365C67.2986 42.8247 67.6748 43.0556 67.6748 43.4732Z" fill="#F8F5F5"/>
<path d="M57.1894 51.6689C57.2247 52.1657 56.9366 52.7095 56.4981 52.9454C56.09 53.1649 55.6905 52.8927 55.6555 52.4503C55.6162 51.9553 55.8991 51.4033 56.346 51.1735C56.7534 50.9638 57.1586 51.2191 57.1894 51.6689Z" fill="#F8F5F5"/>
<path d="M59.3695 50.5307C59.3957 51.0258 59.1096 51.5622 58.6775 51.8037C58.2776 52.0257 57.889 51.7598 57.8611 51.3235C57.8293 50.8309 58.1111 50.2854 58.552 50.0506C58.9509 49.8384 59.3462 50.0866 59.3695 50.5307Z" fill="#F8F5F5"/>
<path d="M61.5121 49.3808C61.5302 49.8716 61.2438 50.3977 60.8198 50.6456C60.4273 50.8747 60.05 50.6042 60.0295 50.1803C60.0055 49.6909 60.2862 49.152 60.7208 48.9147C61.1112 48.7015 61.4962 48.9423 61.5121 49.3808Z" fill="#F8F5F5"/>
<path d="M63.6178 48.2183C63.6274 48.7062 63.3406 49.2253 62.9248 49.4763C62.5422 49.7072 62.1748 49.4442 62.161 49.0262C62.1455 48.54 62.4266 48.0128 62.853 47.7678C63.2349 47.5482 63.609 47.7922 63.6178 48.2183Z" fill="#F8F5F5"/>
<path d="M65.6839 47.0445C65.6803 47.5236 65.3982 48.0406 64.9905 48.2945C64.6234 48.5233 64.256 48.2743 64.2539 47.8603C64.2514 47.378 64.528 46.8575 64.9459 46.6096C65.3122 46.3921 65.6885 46.6262 65.6839 47.0445Z" fill="#F8F5F5"/>
<path d="M67.7113 45.8603C67.6993 46.3341 67.4171 46.8447 67.0176 47.1014C66.6608 47.3309 66.3037 47.0901 66.3104 46.6831C66.3164 46.2061 66.5933 45.693 67.0024 45.4413C67.3567 45.2217 67.7219 45.449 67.7113 45.8603Z" fill="#F8F5F5"/>
<path d="M69.6981 44.6661C69.6769 45.1381 69.3972 45.6339 69.004 45.898C68.6575 46.131 68.3106 45.8952 68.3233 45.496C68.3389 45.0193 68.6119 44.5225 69.0157 44.2633C69.3618 44.0413 69.7161 44.2626 69.6981 44.6661Z" fill="#F8F5F5"/>
<path d="M71.6449 43.4627C71.6235 43.7042 71.5505 43.9383 71.4307 44.149C71.311 44.3598 71.1473 44.5424 70.9508 44.6844C70.6145 44.9174 70.2761 44.6922 70.2984 44.299C70.3256 43.8245 70.5929 43.34 70.9907 43.0766C71.3256 42.8531 71.6732 43.0653 71.6449 43.4627Z" fill="#F8F5F5"/>
<path d="M57.3742 54.2024C57.3993 54.6975 57.1143 55.2388 56.6815 55.4821C56.2816 55.7073 55.8944 55.44 55.8683 55.0033C55.8375 54.5083 56.119 53.9606 56.5602 53.723C56.958 53.5087 57.3519 53.7583 57.3742 54.2024Z" fill="#F8F5F5"/>
<path d="M59.5148 53.0362C59.5314 53.5312 59.2453 54.0595 58.821 54.3116C58.4289 54.5443 58.0527 54.272 58.0332 53.8474C58.0109 53.3555 58.291 52.8134 58.7263 52.5716C59.1166 52.3552 59.5006 52.5978 59.5148 53.0362Z" fill="#F8F5F5"/>
<path d="M61.6177 51.8565C61.6258 52.3473 61.3394 52.8703 60.9228 53.1263C60.5406 53.3611 60.1746 53.0959 60.1626 52.6776C60.1485 52.1882 60.4299 51.6571 60.8564 51.4071C61.2383 51.1833 61.6109 51.4294 61.6177 51.8565Z" fill="#F8F5F5"/>
<path d="M63.6828 50.6607C63.6771 51.1426 63.3953 51.6645 62.9869 51.9241C62.6199 52.1571 62.2543 51.9057 62.2539 51.4909C62.2539 51.0058 62.5304 50.4807 62.9487 50.2268C63.3147 50.0051 63.6877 50.2424 63.6828 50.6607Z" fill="#F8F5F5"/>
<path d="M65.7084 49.4531C65.6936 49.9305 65.4117 50.4467 65.0115 50.7095C64.6551 50.9439 64.2993 50.6996 64.3068 50.2926C64.3156 49.812 64.5921 49.2926 65.0023 49.0355C65.358 48.8124 65.7211 49.0405 65.7084 49.4531Z" fill="#F8F5F5"/>
<path d="M67.694 48.2328C67.67 48.7088 67.3903 49.2109 66.9964 49.4814C66.6498 49.7201 66.3054 49.4814 66.3203 49.0808C66.3383 48.6055 66.6148 48.0907 67.0165 47.8319C67.3616 47.608 67.7145 47.829 67.694 48.2328Z" fill="#F8F5F5"/>
<path d="M69.6395 47.0015C69.6059 47.4718 69.3266 47.9675 68.9411 48.2415C68.6052 48.4802 68.2714 48.2493 68.2941 47.8572C68.3213 47.3826 68.595 46.8862 68.9906 46.6168C69.3258 46.3887 69.6678 46.6051 69.6395 47.0015Z" fill="#F8F5F5"/>
<path d="M71.544 45.7593C71.5087 46.2274 71.2304 46.7228 70.845 46.9898C70.4946 47.2327 70.2014 47.0605 70.2269 46.6224C70.2545 46.1521 70.531 45.6539 70.9242 45.3915C71.2809 45.1539 71.5751 45.3282 71.544 45.7593Z" fill="#F8F5F5"/>
<path d="M73.4063 44.5065C73.3631 44.9697 73.0845 45.4566 72.7065 45.7264C72.3639 45.9714 72.0849 45.806 72.1185 45.3767C72.1538 44.9114 72.43 44.422 72.8161 44.1561C73.1651 43.9167 73.4455 44.0825 73.4063 44.5065Z" fill="#F8F5F5"/>
<path d="M75.2261 43.2429C75.1611 43.7225 74.9095 44.1571 74.5259 44.4522C74.1911 44.6997 73.9248 44.5413 73.968 44.1198C74.0136 43.6601 74.2862 43.1778 74.666 42.9102C75.0068 42.6694 75.2735 42.8274 75.2261 43.2429Z" fill="#F8F5F5"/>
<path d="M57.5156 56.7201C57.5315 57.2151 57.2469 57.7476 56.8226 58.0026C56.4308 58.2381 56.056 57.9637 56.0369 57.5394C56.0146 57.0461 56.294 56.5016 56.7292 56.2565C57.1199 56.0366 57.5015 56.2806 57.5156 56.7201Z" fill="#F8F5F5"/>
<path d="M59.6147 55.5248C59.6217 56.0177 59.3368 56.5442 58.9199 56.8038C58.5376 57.0417 58.1734 56.7741 58.1621 56.3561C58.1483 55.8646 58.4294 55.3307 58.8559 55.0768C59.2377 54.8495 59.6087 55.0977 59.6147 55.5248Z" fill="#F8F5F5"/>
<path d="M61.6761 54.3135C61.669 54.7979 61.3886 55.324 60.9798 55.5864C60.6135 55.8229 60.2493 55.5687 60.25 55.1543C60.25 54.667 60.5269 54.1381 60.9452 53.8814C61.3115 53.6554 61.6824 53.8948 61.6761 54.3135Z" fill="#F8F5F5"/>
<path d="M63.6986 53.0865C63.6824 53.5663 63.4016 54.0871 63.001 54.3551C62.6446 54.5935 62.291 54.3463 62.2995 53.9393C62.3097 53.4563 62.5859 52.9323 62.9964 52.6703C63.3521 52.4429 63.7128 52.6749 63.6986 53.0865Z" fill="#F8F5F5"/>
<path d="M65.6819 51.8452C65.6558 52.3204 65.3747 52.8353 64.9825 53.1076C64.6363 53.3476 64.2934 53.1075 64.3107 52.7083C64.3305 52.2299 64.607 51.7116 65.0087 51.4457C65.3534 51.2169 65.7039 51.4411 65.6819 51.8452Z" fill="#F8F5F5"/>
<path d="M67.6245 50.5904C67.5891 51.0638 67.3094 51.5652 66.924 51.8453C66.5877 52.0896 66.2564 51.8545 66.2808 51.4627C66.3102 50.9892 66.5867 50.4769 66.9799 50.2071C67.3151 49.9776 67.6545 50.1936 67.6245 50.5904Z" fill="#F8F5F5"/>
<path d="M69.5264 49.3234C69.4932 49.7972 69.2082 50.2997 68.8245 50.5705C68.4748 50.818 68.1856 50.648 68.211 50.2049C68.2383 49.7293 68.5197 49.2244 68.9111 48.9574C69.2676 48.7127 69.5572 48.8832 69.5264 49.3234Z" fill="#F8F5F5"/>
<path d="M71.3863 48.0409C71.3411 48.5087 71.0628 49.0023 70.6838 49.2785C70.3415 49.5284 70.0643 49.3637 70.1003 48.9302C70.1392 48.4599 70.4143 47.9634 70.8015 47.6926C71.1502 47.4468 71.4281 47.6123 71.3863 48.0409Z" fill="#F8F5F5"/>
<path d="M73.2042 46.7483C73.1494 47.2115 72.8721 47.6966 72.5002 47.977C72.166 48.2291 71.9033 48.0725 71.9475 47.6464C71.9956 47.1807 72.2696 46.6917 72.6497 46.417C72.9906 46.1698 73.2554 46.3271 73.2042 46.7483Z" fill="#F8F5F5"/>
<path d="M74.9788 45.4441C74.9019 45.9232 74.651 46.3572 74.2741 46.6629C73.9477 46.9168 73.6995 46.769 73.7522 46.35C73.8098 45.8903 74.0824 45.4094 74.4551 45.1308C74.7879 44.8822 75.0375 45.0311 74.9788 45.4441Z" fill="#F8F5F5"/>
<path d="M76.7098 44.13C76.6227 44.6029 76.3724 45.0302 76.0026 45.3375C75.6844 45.5935 75.451 45.4539 75.5122 45.043C75.5798 44.5879 75.851 44.1162 76.2159 43.8348C76.544 43.5844 76.777 43.7248 76.7098 44.13Z" fill="#F8F5F5"/>
<path d="M57.6141 59.2171C57.6208 59.7122 57.3376 60.2397 56.9214 60.5018C56.5391 60.7422 56.1764 60.4724 56.165 60.0548C56.1512 59.5626 56.4313 59.0266 56.857 58.7698C57.2375 58.54 57.6081 58.7904 57.6141 59.2171Z" fill="#F8F5F5"/>
<path d="M59.6704 57.9941C59.6626 58.4796 59.384 59.0089 58.9756 59.2758C58.6093 59.5152 58.2465 59.2585 58.2476 58.8448C58.2476 58.3561 58.5237 57.8243 58.9417 57.563C59.3076 57.3339 59.6775 57.5758 59.6704 57.9941Z" fill="#F8F5F5"/>
<path d="M61.6879 56.7529C61.6706 57.2342 61.3912 57.7589 60.9909 58.0305C60.6349 58.2723 60.2838 58.0223 60.2919 57.6157C60.3028 57.1309 60.578 56.6037 60.9881 56.3375C61.3438 56.1066 61.7027 56.3413 61.6879 56.7529Z" fill="#F8F5F5"/>
<path d="M63.6662 55.4946C63.639 55.9716 63.3593 56.4914 62.9672 56.7676C62.6214 57.0112 62.2805 56.7676 62.2975 56.3691C62.3183 55.8885 62.5938 55.3663 62.9955 55.0961C63.3409 54.8631 63.6892 55.0905 63.6662 55.4946Z" fill="#F8F5F5"/>
<path d="M65.6046 54.2204C65.5671 54.6932 65.2864 55.2073 64.9038 55.4877C64.5682 55.7331 64.2387 55.4976 64.2638 55.1062C64.2946 54.6302 64.5704 54.1133 64.9636 53.8382C65.2995 53.6041 65.6357 53.8237 65.6046 54.2204Z" fill="#F8F5F5"/>
<path d="M67.5025 52.9308C67.4671 53.4078 67.1842 53.9152 66.7999 54.1917C66.4509 54.4435 66.1634 54.2738 66.1899 53.8275C66.2186 53.348 66.499 52.8375 66.8915 52.5659C67.2468 52.3191 67.5347 52.4888 67.5025 52.9308Z" fill="#F8F5F5"/>
<path d="M69.3588 51.6255C69.3142 52.0986 69.031 52.5986 68.6544 52.8793C68.3132 53.1339 68.0395 52.972 68.0749 52.5325C68.1134 52.0572 68.3931 51.5544 68.7782 51.2779C69.1257 51.0283 69.4012 51.1902 69.3588 51.6255Z" fill="#F8F5F5"/>
<path d="M71.1726 50.3067C71.1157 50.7745 70.8396 51.2656 70.4655 51.5527C70.132 51.8098 69.8728 51.656 69.917 51.2232C69.9651 50.7526 70.243 50.2575 70.6214 49.9771C70.963 49.725 71.2246 49.8813 71.1726 50.3067Z" fill="#F8F5F5"/>
<path d="M72.9442 48.9749C72.8657 49.4593 72.6145 49.8989 72.237 50.2124C71.9114 50.4716 71.6653 50.3242 71.7201 49.9009C71.7802 49.4356 72.0524 48.9494 72.4273 48.6634C72.7579 48.4088 73.005 48.5569 72.9442 48.9749Z" fill="#F8F5F5"/>
<path d="M74.6721 47.6304C74.5837 48.1084 74.3341 48.5416 73.9649 48.8577C73.6466 49.1194 73.4165 48.9804 73.4797 48.5646C73.5505 48.1049 73.8206 47.6262 74.1869 47.3366C74.5094 47.0802 74.7407 47.2199 74.6721 47.6304Z" fill="#F8F5F5"/>
<path d="M76.3553 46.2741C76.2562 46.746 76.007 47.1731 75.6449 47.4915C75.3355 47.7553 75.1198 47.6248 75.1919 47.2168C75.2726 46.7614 75.5416 46.2921 75.8991 45.999C76.2167 45.7405 76.4338 45.8717 76.3553 46.2741Z" fill="#F8F5F5"/>
<path d="M57.6699 61.6929C57.6629 62.1783 57.3871 62.7098 56.9787 62.9789C56.6063 63.2243 56.2563 62.9591 56.252 62.5486C56.2471 62.0578 56.5261 61.526 56.9433 61.2622C57.3082 61.0309 57.6763 61.2749 57.6699 61.6929Z" fill="#F8F5F5"/>
<path d="M59.6814 60.4421C59.6641 60.9244 59.3872 61.4516 58.9873 61.726C58.6316 61.9704 58.2801 61.7175 58.29 61.312C58.301 60.8261 58.5729 60.2968 58.9837 60.0277C59.3395 59.794 59.6962 60.0313 59.6814 60.4421Z" fill="#F8F5F5"/>
<path d="M61.6535 59.1721C61.6259 59.6505 61.3483 60.1735 60.9565 60.4528C60.6111 60.7003 60.272 60.4528 60.2889 60.0554C60.3102 59.5734 60.5842 59.0483 60.9852 58.7743C61.3303 58.5381 61.6764 58.7686 61.6535 59.1721Z" fill="#F8F5F5"/>
<path d="M63.5858 57.8831C63.548 58.3576 63.2701 58.8756 62.8868 59.1599C62.5515 59.4074 62.2238 59.1702 62.2503 58.7795C62.2814 58.3018 62.5558 57.7813 62.9486 57.5019C63.2842 57.2643 63.6176 57.4871 63.5858 57.8831Z" fill="#F8F5F5"/>
<path d="M65.4764 56.5763C65.441 57.0526 65.1603 57.5689 64.7748 57.8493C64.4241 58.1035 64.1408 57.9345 64.1681 57.4858C64.1967 57.0088 64.4736 56.4886 64.8685 56.2128C65.2289 55.9628 65.5117 56.1312 65.4764 56.5763Z" fill="#F8F5F5"/>
<path d="M67.3283 55.2522C67.2827 55.7281 67.0013 56.2327 66.6243 56.5187C66.2845 56.7765 66.0123 56.6153 66.0487 56.1726C66.0876 55.6941 66.3669 55.1874 66.7513 54.9056C67.0982 54.6521 67.3704 54.8134 67.3283 55.2522Z" fill="#F8F5F5"/>
<path d="M69.1378 53.9122C69.0819 54.3846 68.8015 54.8818 68.4306 55.1724C68.0982 55.433 67.8408 55.2785 67.886 54.8439C67.9352 54.3694 68.2121 53.8698 68.5908 53.5837C68.9309 53.3274 69.1894 53.4805 69.1378 53.9122Z" fill="#F8F5F5"/>
<path d="M70.9037 52.5562C70.8348 53.0236 70.5615 53.5109 70.1966 53.809C69.872 54.0727 69.6308 53.9281 69.6838 53.4989C69.7433 53.0286 70.0191 52.536 70.391 52.2457C70.7209 51.9865 70.966 52.134 70.9037 52.5562Z" fill="#F8F5F5"/>
<path d="M72.6269 51.1856C72.5367 51.6687 72.2864 52.1072 71.9165 52.4306C71.5983 52.6969 71.3709 52.5587 71.436 52.1386C71.5067 51.6733 71.7779 51.1899 72.1431 50.8932C72.4681 50.6323 72.6979 50.7709 72.6269 51.1856Z" fill="#F8F5F5"/>
<path d="M74.3057 49.8004C74.205 50.2772 73.9557 50.7099 73.5936 51.0362C73.2849 51.3052 73.0717 51.1755 73.1456 50.7628C73.2279 50.3032 73.4967 49.8272 73.8559 49.5253C74.1713 49.2625 74.387 49.3941 74.3057 49.8004Z" fill="#F8F5F5"/>
<path d="M75.9398 48.4041C75.8285 48.8744 75.5801 49.3011 75.2259 49.63C74.9254 49.9016 74.7277 49.7806 74.8108 49.3754C74.9129 48.9017 75.1622 48.4724 75.5229 48.1488C75.8302 47.8811 76.0296 48.0024 75.9398 48.4041Z" fill="#F8F5F5"/>
<path d="M57.684 64.1465C57.6673 64.6285 57.3933 65.1575 56.9945 65.4336C56.6387 65.6794 56.2901 65.4241 56.2982 65.0199C56.3081 64.5341 56.5793 64.0033 56.9877 63.7325C57.3435 63.497 57.6971 63.7367 57.684 64.1465Z" fill="#F8F5F5"/>
<path d="M59.649 62.8692C59.6218 63.3479 59.3467 63.873 58.956 64.1549C58.6109 64.4024 58.2735 64.1549 58.2901 63.7578C58.3103 63.2755 58.5822 62.7483 58.9825 62.4721C59.3276 62.2334 59.6716 62.4668 59.649 62.8692Z" fill="#F8F5F5"/>
<path d="M61.5736 61.5707C61.5358 62.0459 61.2603 62.5668 60.8777 62.8542C60.5429 63.106 60.2172 62.8638 60.2412 62.4741C60.272 61.9954 60.5446 61.4724 60.9364 61.1906C61.2723 60.9494 61.6051 61.1754 61.5736 61.5707Z" fill="#F8F5F5"/>
<path d="M63.4579 60.2516C63.4225 60.7297 63.1446 61.2491 62.7592 61.532C62.4102 61.7887 62.1277 61.62 62.1549 61.1692C62.1835 60.6904 62.4583 60.1675 62.8529 59.8888C63.2097 59.6364 63.4908 59.8043 63.4579 60.2516Z" fill="#F8F5F5"/>
<path d="M65.3014 58.912C65.2558 59.3904 64.9765 59.8985 64.5999 60.1885C64.2615 60.4491 63.9903 60.2878 64.0267 59.843C64.0653 59.3671 64.3397 58.8505 64.7276 58.5665C65.0769 58.3109 65.3435 58.4707 65.3014 58.912Z" fill="#F8F5F5"/>
<path d="M67.1028 57.5553C67.0466 58.0302 66.7683 58.5315 66.3984 58.8282C66.0678 59.092 65.8115 58.9396 65.8571 58.5008C65.9066 58.0234 66.182 57.5199 66.5604 57.2279C66.8988 56.968 67.1548 57.1204 67.1028 57.5553Z" fill="#F8F5F5"/>
<path d="M68.863 56.1796C68.7837 56.6716 68.5333 57.1197 68.1558 57.4451C67.8327 57.7124 67.5901 57.5682 67.6463 57.1361C67.7064 56.6623 67.9808 56.1662 68.3535 55.8702C68.6823 55.6071 68.9238 55.7514 68.863 56.1796Z" fill="#F8F5F5"/>
<path d="M70.5794 54.7869C70.4889 55.2736 70.2393 55.7165 69.8697 56.046C69.5547 56.3165 69.3287 56.1807 69.3931 55.755C69.4638 55.2854 69.7368 54.7968 70.1003 54.4958C70.4234 54.2299 70.6515 54.3682 70.5794 54.7869Z" fill="#F8F5F5"/>
<path d="M72.2522 53.3785C72.1508 53.8595 71.9018 54.297 71.5401 54.6299C71.2328 54.9035 71.021 54.7745 71.0963 54.3576C71.1798 53.893 71.4475 53.4131 71.8071 53.1059C72.1214 52.8371 72.3339 52.9658 72.2522 53.3785Z" fill="#F8F5F5"/>
<path d="M73.8805 51.9537C73.7681 52.4287 73.5197 52.8607 73.1659 53.1969C72.8667 53.4735 72.6708 53.3532 72.7554 52.9438C72.8583 52.4654 73.1071 52.0308 73.4675 51.6998C73.7748 51.4286 73.9717 51.5492 73.8805 51.9537Z" fill="#F8F5F5"/>
<path d="M75.464 50.5138C75.3403 50.9823 75.0926 51.4087 74.7469 51.7482C74.4559 52.0272 74.2763 51.9162 74.3704 51.5141C74.4843 51.0419 74.7328 50.6128 75.0857 50.279C75.3838 50.0053 75.5648 50.1171 75.464 50.5138Z" fill="#F8F5F5"/>
<path d="M61.4476 63.9468C61.4122 64.4252 61.1378 64.9467 60.7535 65.2321C60.4063 65.4899 60.1244 65.3215 60.1506 64.8697C60.1782 64.3905 60.4508 63.8654 60.844 63.5843C61.1994 63.3301 61.4805 63.4981 61.4476 63.9468Z" fill="#F8F5F5"/>
<path d="M63.2841 62.5985C63.2388 63.078 62.9623 63.5886 62.5864 63.8813C62.2498 64.1437 61.9797 63.9832 62.0154 63.5369C62.0532 63.0596 62.3255 62.5409 62.7123 62.2537C63.0585 61.9956 63.3244 62.1554 63.2841 62.5985Z" fill="#F8F5F5"/>
<path d="M65.076 61.2279C65.0201 61.7045 64.7443 62.2087 64.3752 62.5075C64.0463 62.7738 63.791 62.6217 63.8359 62.1808C63.8851 61.702 64.1584 61.1957 64.5361 60.9012C64.8723 60.6384 65.1273 60.7908 65.076 61.2279Z" fill="#F8F5F5"/>
<path d="M66.8274 59.8372C66.7602 60.3107 66.4858 60.8078 66.1234 61.1126C65.802 61.3828 65.5619 61.2389 65.6167 60.804C65.6765 60.3284 65.9487 59.8288 66.32 59.5286C66.6485 59.2626 66.8882 59.4062 66.8274 59.8372Z" fill="#F8F5F5"/>
<path d="M68.5363 58.4275C68.4465 58.9171 68.198 59.3636 67.8291 59.6979C67.5155 59.9716 67.2909 59.8362 67.3553 59.408C67.426 58.9356 67.6972 58.443 68.0625 58.1371C68.3821 57.8677 68.607 58.0031 68.5363 58.4275Z" fill="#F8F5F5"/>
<path d="M70.2006 56.9982C70.0994 57.4826 69.8515 57.9241 69.4906 58.2627C69.1848 58.5399 68.9747 58.4115 69.05 57.9915C69.1342 57.5237 69.4001 57.0396 69.7593 56.7267C70.073 56.454 70.283 56.5831 70.2006 56.9982Z" fill="#F8F5F5"/>
<path d="M71.8216 55.5518C71.7092 56.0308 71.4616 56.4674 71.1084 56.8099C70.8107 57.0903 70.6166 56.9708 70.7018 56.5575C70.8052 56.0753 71.0537 55.6362 71.4139 55.2994C71.7187 55.0236 71.9136 55.1438 71.8216 55.5518Z" fill="#F8F5F5"/>
<path d="M73.3968 54.0884C73.2727 54.5612 73.0257 54.9927 72.6808 55.339C72.3912 55.6219 72.2133 55.5123 72.3081 55.106C72.423 54.6297 72.6709 54.1958 73.0231 53.855C73.3204 53.5764 73.4994 53.6874 73.3968 54.0884Z" fill="#F8F5F5"/>
<path d="M74.9283 52.6075C74.7926 53.0734 74.5462 53.4994 74.2101 53.8493C73.9273 54.1357 73.7674 54.0346 73.8721 53.6372C73.9981 53.1671 74.2455 52.7385 74.5895 52.3943C74.877 52.1121 75.0397 52.214 74.9283 52.6075Z" fill="#F8F5F5"/>
<path d="M64.8021 63.5212C64.736 63.9961 64.4644 64.496 64.103 64.8037C63.7848 65.0759 63.5443 64.9324 63.5984 64.4957C63.6571 64.0187 63.9269 63.5166 64.2972 63.2132C64.6239 62.9452 64.8626 63.0884 64.8021 63.5212Z" fill="#F8F5F5"/>
<path d="M66.5018 62.0976C66.4134 62.5892 66.1665 63.0384 65.7989 63.3765C65.4873 63.6527 65.2639 63.518 65.3275 63.0873C65.3982 62.6131 65.6666 62.1177 66.0298 61.808C66.348 61.5361 66.5725 61.6708 66.5018 62.0976Z" fill="#F8F5F5"/>
<path d="M68.1567 60.6536C68.0566 61.1409 67.8099 61.5858 67.4495 61.9287C67.1457 62.2087 66.9382 62.0825 67.0121 61.6582C67.1034 61.1678 67.3516 60.7203 67.7193 60.3831C68.0294 60.108 68.2373 60.2335 68.1567 60.6536Z" fill="#F8F5F5"/>
<path d="M69.7684 59.1886C69.6564 59.6703 69.4102 60.1105 69.0584 60.458C68.7627 60.7409 68.57 60.6228 68.6549 60.2066C68.758 59.7216 69.0051 59.279 69.3639 58.9368C69.6672 58.6582 69.861 58.7777 69.7684 59.1886Z" fill="#F8F5F5"/>
<path d="M71.3356 57.7058C71.2117 58.1819 70.9657 58.6175 70.622 58.9695C70.3345 59.257 70.1581 59.1463 70.2532 58.7376C70.3674 58.2578 70.6142 57.8198 70.9654 57.4735C71.2606 57.1906 71.4378 57.3009 71.3356 57.7058Z" fill="#F8F5F5"/>
<path d="M72.8574 56.203C72.7216 56.6729 72.4759 57.1038 72.1406 57.46C71.861 57.751 71.7011 57.6503 71.8061 57.2479C71.9325 56.7742 72.179 56.3412 72.5218 55.9908C72.8089 55.7044 72.9695 55.8056 72.8574 56.203Z" fill="#F8F5F5"/>
<path d="M74.3332 54.6827C74.1854 55.1458 73.9397 55.5719 73.613 55.9319C73.3414 56.2261 73.1989 56.1349 73.3142 55.7392C73.4522 55.2719 73.6986 54.8437 74.0334 54.4896C74.3117 54.2007 74.4556 54.2923 74.3332 54.6827Z" fill="#F8F5F5"/>
<path d="M66.1254 64.3357C66.0269 64.8242 65.7824 65.2713 65.4242 65.6178C65.1226 65.9006 64.9157 65.7741 64.9885 65.348C65.0692 64.8756 65.334 64.3848 65.689 64.0655C65.9981 63.7879 66.2049 63.9135 66.1254 64.3357Z" fill="#F8F5F5"/>
<path d="M67.7262 62.8578C67.6154 63.3416 67.3712 63.7846 67.0211 64.1364C66.7276 64.4225 66.5371 64.3058 66.6202 63.8857C66.7213 63.3983 66.9667 62.9527 67.3245 62.6067C67.6258 62.3249 67.8178 62.4437 67.7262 62.8578Z" fill="#F8F5F5"/>
<path d="M69.2829 61.3586C69.1598 61.8368 68.9155 62.2752 68.5736 62.6315C68.2882 62.9218 68.1139 62.8122 68.2076 62.4003C68.321 61.9187 68.5658 61.4781 68.9148 61.1273C69.209 60.8413 69.3844 60.9509 69.2829 61.3586Z" fill="#F8F5F5"/>
<path d="M70.7944 59.8372C70.6594 60.3102 70.4151 60.7448 70.0812 61.1059C69.8037 61.4005 69.6456 61.3004 69.7503 60.8938C69.8757 60.4171 70.1207 59.9803 70.4621 59.6247C70.7474 59.3358 70.9065 59.4359 70.7944 59.8372Z" fill="#F8F5F5"/>
<path d="M72.2599 58.2972C72.1124 58.7638 71.8682 59.1941 71.5432 59.5599C71.2737 59.858 71.1326 59.7671 71.2475 59.3682C71.3853 58.8976 71.6302 58.4653 71.9632 58.1052C72.2404 57.8121 72.3826 57.903 72.2599 58.2972Z" fill="#F8F5F5"/>
<path d="M73.6796 56.7367C73.5199 57.1967 73.2756 57.6226 72.9593 57.9927C72.698 58.2943 72.5742 58.2133 72.6998 57.8212C72.8496 57.357 73.0945 56.9291 73.419 56.5649C73.6873 56.2682 73.8125 56.3499 73.6796 56.7367Z" fill="#F8F5F5"/>
<path d="M68.7444 63.5029C68.6109 63.978 68.3688 64.4156 68.0372 64.7812C67.7621 65.0778 67.6047 64.9781 67.7083 64.569C67.8327 64.0902 68.076 63.6505 68.4155 63.2908C68.6981 63.0012 68.8557 63.1012 68.7444 63.5029Z" fill="#F8F5F5"/>
<path d="M70.1985 61.9468C70.0524 62.4159 69.8101 62.8495 69.4871 63.2197C69.2198 63.5206 69.0797 63.4319 69.1943 63.0288C69.3308 62.5557 69.5739 62.1203 69.905 61.7559C70.1791 61.4599 70.3205 61.5504 70.1985 61.9468Z" fill="#F8F5F5"/>
<path d="M71.607 60.3684C71.448 60.8315 71.2052 61.2614 70.8909 61.6368C70.6321 61.9416 70.5094 61.8613 70.6346 61.466C70.7837 60.9988 71.0271 60.5671 71.3496 60.1976C71.6162 59.8974 71.7396 59.9784 71.607 60.3684Z" fill="#F8F5F5"/>
<path d="M72.9684 58.7702C72.7965 59.2263 72.5534 59.6522 72.2482 60.0322C71.9975 60.3412 71.8928 60.2705 72.0286 59.8819C72.1904 59.4215 72.4339 58.994 72.7474 58.6199C73.008 58.3159 73.112 58.3869 72.9684 58.7702Z" fill="#F8F5F5"/>
<path d="M69.5496 64.033C69.3923 64.4982 69.1519 64.9309 68.84 65.3102C68.5836 65.6178 68.462 65.5379 68.5861 65.1404C68.7331 64.6712 68.9737 64.2366 69.2933 63.8629C69.5592 63.5599 69.6812 63.6405 69.5496 64.033Z" fill="#F8F5F5"/>
<path d="M70.8981 62.4174C70.7277 62.8763 70.4868 63.3058 70.1842 63.6904C69.9366 64.0023 69.8306 63.9322 69.9671 63.5412C70.1275 63.0779 70.3692 62.6469 70.6806 62.2682C70.9366 61.9606 71.0413 62.0313 70.8981 62.4174Z" fill="#F8F5F5"/>
<path d="M72.1995 60.78C72.0158 61.2316 71.7743 61.6574 71.4811 62.0469C71.241 62.3634 71.1554 62.3029 71.3014 61.9185C71.475 61.4622 71.7171 61.0348 72.0192 60.6513C72.2671 60.3397 72.3537 60.4006 72.1995 60.78Z" fill="#F8F5F5"/>
<path d="M70.1345 64.4422C69.9525 64.8962 69.7135 65.3253 69.4231 65.719C69.1858 66.0372 69.101 65.9782 69.2463 65.5913C69.418 65.1324 69.6575 64.7019 69.957 64.3142C70.202 63.9998 70.2876 64.0603 70.1345 64.4422Z" fill="#F8F5F5"/>
<path d="M71.3747 62.7655C71.1792 63.2127 70.9392 63.6392 70.6583 64.0384C70.4296 64.3623 70.3631 64.3125 70.5194 63.9323C70.7047 63.4802 70.9451 63.0527 71.2351 62.6594C71.4723 62.3401 71.5395 62.3903 71.3747 62.7655Z" fill="#F8F5F5"/>
<path d="M68.2134 64.1581H71.1712C70.0627 64.1425 68.9694 64.134 68.2134 64.1581Z" fill="#F6F6F6"/>
</g>
<path d="M81.8399 60.677C81.8526 59.3722 81.8427 56.8338 81.8427 56.8338C81.8427 56.8338 78.95 56.7563 77.9344 56.7563C76.3316 56.7563 75.42 57.5343 75.123 58.8493C74.9825 59.4667 74.9792 60.1074 75.1135 60.7262C75.4487 62.3361 76.187 62.9047 77.8648 62.8806C78.3771 62.8732 78.8386 62.5624 79.4559 62.7073C79.4895 63.1734 79.2646 63.5008 78.8414 63.6288C78.4443 63.749 78.037 63.8576 77.5893 63.7971C76.874 63.7009 76.0873 63.4138 75.4508 64.1578H81.3618C82.0163 63.0659 81.8286 61.8209 81.8399 60.677Z" fill="#F6F6F6"/>
<path d="M87.1871 62.0408C86.2915 61.9422 86.0288 61.6222 86.0129 60.6993C85.9867 59.1789 86.0051 56.1379 86.0051 56.1379V54.8141L83.3733 54.7939C83.3733 54.7939 83.3574 60.1841 83.375 60.8595C83.4033 61.9259 83.7407 62.3283 84.7583 62.7215C85.2961 62.9294 86.3923 62.9365 86.3923 62.9365L89.6616 62.9418V62.009C89.3794 62.0278 87.9332 62.1225 87.1871 62.0408Z" fill="#F6F6F6"/>
<path d="M79.4146 57.3972V61.4879C78.0731 61.7807 77.9624 61.7124 77.9044 60.4653C77.8747 59.8331 77.8765 59.1977 77.9069 58.5654C77.9638 57.3692 78.0098 57.3417 79.4146 57.3972Z" fill="#086FB8"/>
</svg>
