<svg width="240" height="109" viewBox="0 0 240 109" fill="none" xmlns="http://www.w3.org/2000/svg">
<rect width="240" height="108.387" rx="10" fill=""/>
<g clip-path="url(#clip0_2572_64377)">
<path d="M100.571 49.0367H94.2698V64.4122H87.3066V49.0367H81V43.5354H100.571V49.0367ZM123.244 59.5937C122.777 60.5898 122.125 61.4883 121.323 62.2414C120.408 63.1379 119.316 63.8337 118.118 64.2845C116.746 64.7945 115.291 65.0412 113.828 65.0116C112.296 65.0278 110.773 64.7882 109.32 64.3028C108.085 63.9046 106.945 63.2565 105.971 62.3988C104.997 61.5412 104.21 60.4923 103.659 59.3175C102.9 57.6861 102.519 55.9045 102.544 54.1054C102.523 52.5529 102.795 51.0103 103.344 49.5579C103.828 48.2417 104.583 47.0415 105.559 46.0346C106.45 45.1215 107.513 44.3935 108.686 43.8924C110.227 43.2769 111.874 42.9705 113.534 42.9907C115.006 42.9786 116.471 43.2066 117.87 43.6657C119.123 44.0545 120.266 44.7341 121.206 45.6489C122.071 46.5022 122.752 47.5239 123.207 48.651C123.567 49.5761 123.794 50.5473 123.882 51.5359H117.271C117.206 50.6115 116.8 49.7441 116.132 49.1019C115.458 48.5095 114.583 48.1979 113.687 48.2315C113.109 48.2155 112.535 48.3346 112.01 48.5793C111.486 48.824 111.026 49.1877 110.667 49.6413C109.89 50.5795 109.501 52.1031 109.499 54.2123C109.499 55.6586 109.664 56.7636 109.997 57.5193C110.275 58.2117 110.76 58.8015 111.386 59.208C112.055 59.6001 112.821 59.7936 113.596 59.7657C114.671 59.7657 115.53 59.4755 116.171 58.8953C116.804 58.3115 117.182 57.4542 117.299 56.3127H124.031C123.924 57.4337 123.656 58.5335 123.236 59.5781L123.244 59.5937ZM146.656 59.5781C146.188 60.573 145.538 61.4712 144.738 62.2258C143.821 63.1212 142.729 63.8168 141.53 64.2689C140.157 64.7786 138.7 65.0253 137.235 64.996C135.705 65.012 134.183 64.7724 132.732 64.2871C131.496 63.8905 130.355 63.243 129.381 62.3852C128.406 61.5274 127.619 60.4777 127.069 59.3018C126.308 57.6711 125.926 55.8892 125.951 54.0898C125.939 52.5423 126.213 51.0059 126.759 49.5579C127.245 48.2414 128.002 47.0412 128.979 46.0346C129.869 45.1202 130.932 44.392 132.107 43.8924C133.648 43.2763 135.296 42.9699 136.956 42.9907C138.429 42.9791 139.894 43.2071 141.293 43.6657C142.544 44.0562 143.686 44.7355 144.626 45.6489C145.487 46.5045 146.166 47.5257 146.622 48.651C146.989 49.5753 147.22 50.5479 147.308 51.5385H140.688C140.627 50.6126 140.22 49.7436 139.547 49.1045C138.875 48.5108 138.001 48.1991 137.105 48.2341C136.527 48.2191 135.953 48.3386 135.429 48.5833C134.905 48.828 134.444 49.191 134.085 49.6439C133.303 50.5821 132.917 52.1066 132.917 54.2149C132.917 55.6612 133.084 56.7662 133.42 57.5219C133.697 58.2092 134.178 58.7949 134.799 59.2002C135.469 59.5913 136.236 59.7847 137.011 59.7579C138.09 59.7579 138.949 59.4677 139.589 58.8875C140.224 58.3037 140.597 57.4463 140.722 56.3049H147.448C147.345 57.425 147.081 58.5246 146.666 59.5702L146.656 59.5781ZM153.674 62.4551H152.11V57.8216H156.851V59.3513H153.664L153.674 62.4551ZM159.105 64.6728H154.365V60.0289H159.105V64.6728Z" fill="#00529F"/>
</g>
<defs>
<clipPath id="clip0_2572_64377">
<rect width="78.105" height="22" fill="white" transform="translate(81 43.001)"/>
</clipPath>
</defs>
</svg>
