<svg width="240" height="109" viewBox="0 0 240 109" fill="none" xmlns="http://www.w3.org/2000/svg">
<rect y="0.386719" width="240" height="108.387" rx="10" fill=""/>
<g clip-path="url(#clip0_2572_64748)">
<path d="M64.3594 54.7405C63.9607 51.1004 67.7652 48.1813 72.8543 48.2209C77.9434 48.2604 82.3926 51.2535 82.7913 54.8788C83.1899 58.5042 79.3904 61.438 74.3013 61.3985C69.2122 61.359 64.763 58.3807 64.3594 54.7405ZM83.7362 55.8716C83.2785 51.3572 78.155 47.6578 72.2982 47.6084C66.4413 47.559 62.0659 51.1843 62.5236 55.6987C62.9813 60.2131 68.1048 63.9076 73.9617 63.957C79.8186 64.0064 84.1989 60.386 83.7362 55.8716Z" fill="#FBB584"/>
<path d="M74.8969 64.0458C72.0078 67.0587 67.3765 67.3254 64.5514 64.5891C61.7264 61.8528 61.7707 57.2199 64.6597 54.2169C67.5488 51.2139 72.1752 50.9373 74.9953 53.6538C77.8155 56.3704 77.7761 61.023 74.892 64.026L74.8969 64.0458ZM64.2069 54.1181C60.8503 57.6348 60.7962 63.0431 64.0839 66.1993C67.3716 69.3554 72.751 69.064 76.1027 65.5473C79.4544 62.0306 79.5135 56.6223 76.2258 53.4661C72.9381 50.31 67.5586 50.6014 64.2069 54.1181Z" fill="#F89B6C"/>
<path d="M64.5122 42.7974C70.5118 40.5402 76.4474 42.8221 77.7664 47.8946C79.0854 52.9671 75.3055 58.9089 69.2912 61.166C63.2768 63.4232 57.3511 61.1315 56.037 56.0688C54.7229 51.0062 58.4978 45.0546 64.5122 42.7974ZM58.9408 44.7335C52.7148 49.6825 51.13 56.8492 55.3971 60.7413C59.6643 64.6333 68.1936 63.7838 74.4049 58.8348C80.6161 53.8857 82.2156 46.724 77.9436 42.8566C73.6715 38.9893 65.1471 39.8141 58.9408 44.7582" fill="#F37321"/>
<path d="M94.9135 51.3473H87.9443V50.2261H94.9332L94.9135 51.3473ZM91.4191 56.2864C90.6446 56.3206 89.8824 56.0831 89.2634 55.6147C89.0093 55.4318 88.8024 55.1908 88.6596 54.9116C88.5168 54.6325 88.4423 54.3232 88.4423 54.0095C88.4423 53.6957 88.5168 53.3864 88.6596 53.1073C88.8024 52.8282 89.0093 52.5871 89.2634 52.4042C89.8976 51.9665 90.6493 51.7322 91.4191 51.7322C92.1888 51.7322 92.9405 51.9665 93.5748 52.4042C93.8288 52.5871 94.0358 52.8282 94.1786 53.1073C94.3213 53.3864 94.3958 53.6957 94.3958 54.0095C94.3958 54.3232 94.3213 54.6325 94.1786 54.9116C94.0358 55.1908 93.8288 55.4318 93.5748 55.6147C92.9537 56.0781 92.1922 56.3119 91.4191 56.2765V56.2864ZM91.9506 58.8646H97.9945V60.0648H91.5963C90.2083 60.0648 89.5144 59.4178 89.5144 58.1238V56.8643H91.0746V57.9311C91.0558 58.0529 91.0652 58.1773 91.1019 58.2948C91.1386 58.4124 91.2017 58.5199 91.2863 58.6091C91.3709 58.6983 91.4748 58.7669 91.59 58.8094C91.7052 58.852 91.8285 58.8675 91.9506 58.8548V58.8646ZM89.6276 48.6851H93.2106V49.8211H89.6276V48.6851ZM91.4191 55.2047C91.7956 55.2148 92.164 55.0945 92.4625 54.8639C92.5975 54.7698 92.7078 54.6442 92.784 54.498C92.8602 54.3518 92.9 54.1893 92.9 54.0243C92.9 53.8593 92.8602 53.6967 92.784 53.5505C92.7078 53.4043 92.5975 53.2788 92.4625 53.1846C92.1583 52.9633 91.7923 52.8441 91.4166 52.8441C91.0409 52.8441 90.6749 52.9633 90.3707 53.1846C90.2367 53.2795 90.1273 53.4052 90.0518 53.5514C89.9763 53.6975 89.9369 53.8597 89.9369 54.0243C89.9369 54.1889 89.9763 54.3511 90.0518 54.4972C90.1273 54.6433 90.2367 54.7691 90.3707 54.8639C90.6711 55.0945 91.0411 55.2147 91.4191 55.2047ZM97.9404 51.7473H99.5547V52.9722H97.9404V56.9235H96.3949V48.8826H97.9404V51.7473Z" fill="black"/>
<path d="M103.605 56.1926C103.087 56.1093 102.599 55.8933 102.188 55.5653C101.939 55.3796 101.738 55.1376 101.6 54.8591C101.463 54.5806 101.392 54.2733 101.395 53.9624C101.398 53.6515 101.474 53.3456 101.617 53.0697C101.76 52.7938 101.965 52.5557 102.217 52.3746C102.852 51.9369 103.603 51.7025 104.373 51.7025C105.143 51.7025 105.895 51.9369 106.529 52.3746C106.779 52.558 106.982 52.7981 107.123 53.0753C107.263 53.3525 107.336 53.659 107.336 53.9699C107.336 54.2809 107.263 54.5874 107.123 54.8646C106.982 55.1418 106.779 55.3819 106.529 55.5653C106.134 55.8825 105.667 56.0978 105.17 56.1926V57.3779H106.898C108.458 57.3779 109.236 56.7704 109.236 55.5653V48.8826H110.781V52.6364H112.395V53.8761H110.781V60.0846H109.236V57.9855C108.637 58.4457 107.891 58.6674 107.139 58.6078H100.603V57.3977H103.605V56.1926ZM107.843 51.3275H100.849V50.2261H107.843V51.3275ZM102.582 48.6851H106.155V49.8211H102.572L102.582 48.6851ZM104.373 55.2047C104.75 55.2148 105.118 55.0945 105.416 54.8639C105.552 54.7698 105.662 54.6442 105.738 54.498C105.814 54.3518 105.854 54.1893 105.854 54.0243C105.854 53.8593 105.814 53.6967 105.738 53.5505C105.662 53.4043 105.552 53.2788 105.416 53.1846C105.112 52.9633 104.746 52.8441 104.371 52.8441C103.995 52.8441 103.629 52.9633 103.325 53.1846C103.191 53.2795 103.081 53.4052 103.006 53.5514C102.93 53.6975 102.891 53.8597 102.891 54.0243C102.891 54.1889 102.93 54.3511 103.006 54.4972C103.081 54.6433 103.191 54.7691 103.325 54.8639C103.625 55.0945 103.995 55.2147 104.373 55.2047Z" fill="black"/>
<path d="M118.341 56.7161C117.715 56.6398 117.115 56.4182 116.589 56.0691C116.278 55.8892 116.02 55.6305 115.841 55.3188C115.661 55.0071 115.567 54.6534 115.567 54.2935C115.567 53.9335 115.661 53.5799 115.841 53.2682C116.02 52.9565 116.278 52.6977 116.589 52.5178C117.348 52.0264 118.24 51.7815 119.143 51.8165C120.052 51.7815 120.951 52.0263 121.717 52.5178C122.028 52.6977 122.286 52.9565 122.465 53.2682C122.645 53.5799 122.739 53.9335 122.739 54.2935C122.739 54.6534 122.645 55.0071 122.465 55.3188C122.286 55.6305 122.028 55.8892 121.717 56.0691C121.185 56.4271 120.573 56.6492 119.936 56.7161V57.7484H124.857V58.9881H113.444V57.7484H118.341V56.7161ZM123.927 51.4263H114.349V50.2656H123.927V51.4263ZM116.781 48.6851H121.511V49.8458H116.781V48.6851ZM121.186 54.3058C121.185 54.1048 121.131 53.9077 121.03 53.7342C120.929 53.5607 120.784 53.4172 120.61 53.318C120.164 53.0511 119.652 52.919 119.133 52.9377C118.614 52.91 118.099 53.0428 117.657 53.318C117.486 53.4194 117.344 53.5639 117.246 53.7371C117.147 53.9104 117.096 54.1064 117.096 54.3058C117.1 54.4984 117.154 54.6866 117.252 54.8519C117.35 55.0173 117.49 55.1542 117.657 55.2492C118.097 55.5285 118.613 55.6632 119.133 55.6344C119.653 55.6539 120.166 55.5199 120.61 55.2492C120.78 55.1565 120.923 55.0205 121.024 54.8549C121.125 54.6893 121.181 54.4999 121.186 54.3058Z" fill="black"/>
<path d="M131.945 53.3429V54.4887H128.553C127.221 54.4887 126.554 53.9323 126.55 52.8193V48.9322H131.383V50.0929H128.046V51.0807H130.852V52.2414H128.046V52.5921C128.046 53.086 128.317 53.3626 128.864 53.3626L131.945 53.3429ZM136.945 58.1931H129.892V58.3363C129.892 58.7018 130.123 58.8846 130.591 58.8846H136.989V60.0552H130.409C129.037 60.0552 128.35 59.4378 128.347 58.203V57.0472H135.4V56.3903H128.347V55.2345H136.62C136.837 55.2345 136.945 55.3383 136.945 55.5457V58.1931ZM133.037 48.8828H134.514V54.6468H133.037V52.2711H131.634V51.061H133.037V48.8828ZM135.454 48.8828H136.975V54.6468H135.454V48.8828Z" fill="black"/>
<path d="M147.601 57.4616L149.958 59.3138H147.556L146.828 58.7508C146.354 59.1246 145.767 59.3234 145.164 59.3138H141.276C140.634 59.3278 140.01 59.0946 139.534 58.6618C139.308 58.4605 139.128 58.2132 139.005 57.9364C138.882 57.6596 138.819 57.3597 138.82 57.0566V56.4689C138.813 56.1539 138.871 55.8409 138.992 55.5502C139.107 55.2929 139.258 55.0534 139.44 54.839C139.618 54.6522 139.816 54.4864 140.031 54.345C140.244 54.2075 140.464 54.0822 140.69 53.9697L140.262 53.6289C140.025 53.4529 139.832 53.2227 139.7 52.9574C139.568 52.6921 139.501 52.3991 139.504 52.1027V51.4655C139.487 51.1578 139.539 50.85 139.657 50.5653C139.774 50.2805 139.954 50.026 140.184 49.8208C140.723 49.3975 141.4 49.1883 142.083 49.233H143.639C144.344 49.1862 145.042 49.3948 145.607 49.8208C145.806 49.9797 145.965 50.1821 146.073 50.4124C146.182 50.6427 146.236 50.8948 146.232 51.1494V51.6433C146.243 51.9819 146.181 52.3188 146.05 52.6312C145.932 52.8964 145.753 53.1299 145.529 53.3128C145.269 53.5164 144.982 53.6827 144.677 53.8067C144.337 53.9548 143.963 54.108 143.555 54.2759L146.09 56.2515V54.6167H147.635V56.8739C147.636 57.0703 147.625 57.2667 147.601 57.4616ZM141.936 54.9328C141.729 55.0283 141.517 55.1369 141.301 55.2588C141 55.4069 140.746 55.636 140.567 55.9206C140.433 56.1602 140.363 56.431 140.366 56.7059V56.8887C140.362 57.0244 140.387 57.1593 140.437 57.2851C140.488 57.4108 140.564 57.5247 140.661 57.6197C140.917 57.8506 141.253 57.9712 141.596 57.9556H144.741C145.03 57.9779 145.319 57.9144 145.573 57.7728L141.936 54.9328ZM144.692 51.4359C144.693 51.3247 144.672 51.2144 144.63 51.1117C144.588 51.009 144.525 50.9159 144.446 50.8382C144.343 50.7489 144.223 50.6811 144.094 50.6387C143.965 50.5963 143.828 50.5802 143.693 50.5913H142.054C141.918 50.5779 141.781 50.5929 141.651 50.6354C141.522 50.6779 141.402 50.747 141.301 50.8382C141.221 50.9152 141.157 51.0081 141.115 51.111C141.073 51.2139 141.052 51.3246 141.055 51.4359V51.8162C141.055 51.9897 141.101 52.16 141.188 52.3101C141.308 52.4878 141.46 52.6418 141.635 52.7645L142.315 53.2881L143.845 52.646C144.055 52.5645 144.253 52.453 144.431 52.315C144.511 52.26 144.577 52.1863 144.622 52.1003C144.667 52.0143 144.691 51.9185 144.692 51.8211V51.4359Z" fill="black"/>
<path d="M156.356 49.6533V53.8368H152.001V55.5852C152.001 56.2125 152.281 56.5237 152.847 56.5237H156.095C157.759 56.5237 158.591 55.9194 158.591 54.711V48.8828H160.146V60.0848H158.591V57.0176C158.192 57.5115 157.444 57.7338 156.356 57.7338H152.522C151.144 57.7338 150.455 57.0472 150.455 55.6741V52.6366H154.806V50.2658H150.45V49.0656H155.766C155.846 49.0531 155.927 49.0597 156.004 49.0847C156.081 49.1098 156.151 49.1526 156.209 49.2098C156.266 49.267 156.31 49.3369 156.335 49.4139C156.361 49.491 156.368 49.573 156.356 49.6533Z" fill="black"/>
<path d="M173.484 57.6741V58.9139H162.09V57.6741H166.987V55.2046H168.572V57.6741H173.484ZM172.5 50.3692H168.602C168.684 51.3722 169.161 52.3013 169.925 52.9523C170.685 53.6612 171.67 54.0776 172.706 54.1278V55.3281C171.399 55.3242 170.127 54.8982 169.079 54.113C168.584 53.7454 168.155 53.2961 167.809 52.7844C167.455 53.2954 167.019 53.7443 166.52 54.113C165.474 54.8987 164.204 55.3249 162.897 55.3281V54.1377C163.933 54.0846 164.917 53.6686 165.678 52.9622C166.441 52.3098 166.917 51.3815 167.002 50.379H163.119V49.1689H172.5V50.3692Z" fill="black"/>
<path d="M186.32 58.9238H174.926V57.6741H186.32V58.9238ZM177.731 50.3692V51.8509H185.011V53.0412H177.722V53.9797C177.71 54.0755 177.72 54.1728 177.752 54.2639C177.784 54.355 177.837 54.4373 177.906 54.5044C177.975 54.5715 178.059 54.6215 178.151 54.6504C178.243 54.6794 178.34 54.6865 178.435 54.6712H185.089V55.8714H178.238C176.86 55.8714 176.171 55.2638 176.171 54.0587V49.1689H185.03V50.3692H177.731Z" fill="black"/>
</g>
<defs>
<clipPath id="clip0_2572_64748">
<rect width="133.32" height="28" fill="white" transform="translate(53 40.3877)"/>
</clipPath>
</defs>
</svg>
