<svg width="240" height="109" viewBox="0 0 240 109" fill="none" xmlns="http://www.w3.org/2000/svg">
<rect y="0.386719" width="240" height="108.387" rx="10" fill=""/>
<path d="M109.419 59.9652L109.092 59.9732L108.552 59.9571C108.51 59.9571 108.41 59.9571 108.41 60.0496C108.41 60.1179 108.485 60.1299 108.548 60.146C108.607 60.1621 108.636 60.1902 108.636 60.2424C108.636 60.3147 108.611 60.4072 108.561 60.5116C108.561 60.5116 107.799 61.8496 107.736 61.9621C107.703 61.9099 107.669 61.8496 107.669 61.8496C107.431 61.4478 106.866 60.5116 106.799 60.379L106.732 60.2063C106.732 60.1822 106.748 60.154 106.778 60.146C106.882 60.1219 106.937 60.1058 106.937 60.0455C106.937 60.0174 106.924 59.9531 106.807 59.9531L106.388 59.9652L106.192 59.9692L105.468 59.9531C105.329 59.9531 105.313 60.0174 105.313 60.0455C105.313 60.0737 105.325 60.138 105.442 60.138C105.497 60.138 105.585 60.1661 105.664 60.2063C105.773 60.2665 105.915 60.4112 106.045 60.596C106.25 60.8893 107.016 62.0988 107.054 62.1791C107.129 62.3398 107.184 62.4523 107.184 62.7416V63.1957L107.167 63.7461C107.158 63.8546 107.129 63.9912 107.025 64.0113L106.832 64.0314C106.711 64.0314 106.698 64.0917 106.698 64.1158C106.698 64.2122 106.819 64.2122 106.87 64.2122L107.59 64.1962L107.857 64.2002L108.468 64.2122C108.611 64.2122 108.632 64.152 108.632 64.1158C108.632 64.0917 108.619 64.0314 108.498 64.0314L108.217 64.0113C108.088 63.9953 108.033 63.9189 108.016 63.7461L108 63.1957V62.7416C108 62.5648 108 62.3961 108.083 62.2072C108.184 61.9782 108.983 60.6844 109.176 60.4634C109.301 60.3147 109.36 60.2545 109.473 60.2022C109.557 60.158 109.661 60.138 109.707 60.138C109.85 60.138 109.858 60.0656 109.858 60.0415C109.858 59.9853 109.808 59.9571 109.712 59.9571L109.419 59.9652Z" fill="#666665"/>
<path d="M112.068 59.8735C110.407 59.8735 109.649 61.0147 109.649 62.0794C109.649 63.1442 110.386 64.2853 112.01 64.2853C113.437 64.2853 114.433 63.3371 114.433 61.983C114.433 60.6812 113.529 59.8735 112.068 59.8735ZM112.253 63.9237C111.24 63.9237 110.532 63.092 110.532 61.9067C110.532 60.4401 111.39 60.2231 111.901 60.2231C112.868 60.2231 113.542 61.0307 113.542 62.1839C113.542 63.7509 112.642 63.9237 112.253 63.9237Z" fill="#666665"/>
<path d="M115.489 60.0862L115.435 63.3528C115.431 63.843 115.401 63.9636 115.288 63.9997L115.041 64.0198C114.928 64.0198 114.907 64.068 114.907 64.1042C114.907 64.2006 115.016 64.2006 115.079 64.2006L115.606 64.1886L115.703 64.1846L115.862 64.1886L116.414 64.2006C116.46 64.2006 116.59 64.2006 116.59 64.1042C116.59 64.048 116.54 64.0198 116.448 64.0198L116.163 63.9837C116.088 63.9596 116.004 63.8712 115.991 63.4091C115.991 63.4091 115.933 61.3519 115.929 61.1831C115.962 61.2193 116 61.2554 116 61.2554L117.239 62.5091L118 63.2403L118.934 64.1283C119.005 64.1966 119.08 64.2609 119.16 64.2609C119.277 64.2609 119.277 64.1122 119.277 64.048L119.34 60.5683C119.344 60.2429 119.403 60.1706 119.52 60.1384L119.679 60.1223C119.809 60.1223 119.825 60.0661 119.825 60.0299C119.825 59.9375 119.712 59.9375 119.649 59.9375L119.189 59.9496L119.084 59.9536L118.884 59.9496L118.39 59.9375C118.319 59.9375 118.197 59.9375 118.197 60.0299C118.197 60.0902 118.243 60.1223 118.331 60.1223L118.62 60.1545C118.729 60.1987 118.783 60.2791 118.787 60.6125C118.787 60.6125 118.833 62.6457 118.842 63.0153C118.771 62.943 117.624 61.8019 117.624 61.8019L115.841 60.0339L115.786 59.9777C115.715 59.9014 115.665 59.8491 115.594 59.8491C115.489 59.8531 115.489 60.0219 115.489 60.0862Z" fill="#666665"/>
<path d="M120.719 60.9591C120.719 61.4413 120.978 61.8431 121.585 62.3011L121.849 62.498C122.301 62.8355 122.393 63.0806 122.393 63.3498C122.393 63.6351 122.138 63.9365 121.665 63.9365C121.434 63.9365 121.028 63.8682 120.886 63.4061L120.836 63.1369C120.836 63.0485 120.802 63.0003 120.735 63.0003C120.635 63.0003 120.627 63.1329 120.622 63.1811C120.622 63.1931 120.593 63.9083 120.593 63.9083C120.593 64.045 120.618 64.0892 120.727 64.1334C120.97 64.2378 121.225 64.282 121.581 64.282C121.958 64.282 122.263 64.2057 122.518 64.049C123.008 63.7436 123.079 63.2936 123.079 63.0525C123.079 62.5181 122.828 62.1404 122.121 61.6141L121.962 61.4975C121.46 61.1319 121.372 60.9551 121.372 60.7341C121.372 60.4127 121.623 60.2077 122.012 60.2077C122.355 60.2077 122.514 60.3524 122.606 60.4609C122.723 60.6015 122.744 60.7622 122.744 60.7984C122.744 60.9149 122.799 60.939 122.845 60.939C122.949 60.939 122.949 60.8104 122.949 60.7301L122.966 60.1595L122.97 60.0671C122.97 59.9827 122.887 59.9667 122.857 59.9626C122.69 59.9184 122.447 59.8662 122.083 59.8662C121.284 59.8742 120.719 60.3202 120.719 60.9591Z" fill="#666665"/>
<path d="M126.494 59.9238L126.465 59.9318C126.461 59.9318 126.222 59.964 126.222 59.964L124.791 59.968L124.502 59.9599L123.967 59.9479C123.912 59.9479 123.795 59.9479 123.795 60.0403C123.795 60.1327 123.9 60.1327 123.937 60.1327L124.151 60.1488C124.31 60.1809 124.356 60.2412 124.364 60.426L124.372 61.5953V62.5676C124.372 63.0699 124.372 63.5079 124.343 63.7369C124.318 63.9016 124.293 63.99 124.213 64.0021L124.013 64.0222C123.9 64.0222 123.879 64.0704 123.879 64.1066C123.879 64.1508 123.908 64.203 124.038 64.203L124.762 64.1869L125.197 64.199L126.356 64.2231C126.578 64.2231 126.662 64.2231 126.708 64.0503C126.737 63.9378 126.783 63.5561 126.783 63.4275C126.783 63.3753 126.783 63.2869 126.695 63.2869C126.612 63.2869 126.599 63.3552 126.591 63.4034C126.553 63.6204 126.49 63.7208 126.356 63.7811C126.214 63.8454 125.975 63.8454 125.833 63.8454C125.256 63.8454 125.197 63.7731 125.189 63.4235V62.7967V62.5717V62.1297C125.189 62.1297 125.189 62.1216 125.189 62.1176C125.21 62.1176 125.988 62.1337 125.988 62.1337C126.201 62.1538 126.252 62.2382 126.273 62.3185L126.289 62.4592L126.294 62.5114C126.294 62.5636 126.327 62.5958 126.386 62.5958C126.482 62.5958 126.482 62.4953 126.482 62.4511L126.507 62.0855L126.545 61.7319L126.553 61.6756C126.553 61.6234 126.52 61.5913 126.469 61.5913L126.352 61.6676C126.302 61.7198 126.222 61.7359 126.097 61.744C126.097 61.744 125.21 61.756 125.184 61.756C125.184 61.748 125.184 61.7359 125.184 61.7359V60.3417C125.184 60.3417 125.184 60.3336 125.184 60.3256C125.193 60.3256 125.992 60.3457 125.992 60.3457C126.264 60.3778 126.31 60.4341 126.34 60.5185L126.373 60.7033C126.373 60.8037 126.423 60.8238 126.469 60.8238C126.507 60.8238 126.553 60.8078 126.57 60.7314L126.591 60.4783L126.599 60.3618L126.637 60.0604L126.645 60.0001C126.645 59.9198 126.591 59.9077 126.566 59.9077L126.494 59.9238Z" fill="#666665"/>
<path d="M128.783 59.9524L128.502 59.9604L127.757 59.9443C127.699 59.9443 127.577 59.9443 127.577 60.0287C127.577 60.093 127.623 60.1251 127.711 60.1251L127.908 60.1452C127.988 60.1613 128.059 60.2055 128.071 60.4144L128.084 61.5837V62.5561C128.084 63.0985 128.084 63.5244 128.055 63.7534C128.038 63.9182 128.004 63.9784 127.925 63.9945L127.724 64.0146C127.611 64.0146 127.59 64.0628 127.59 64.099C127.59 64.1432 127.619 64.1954 127.749 64.1954L128.473 64.1793L128.737 64.1834L129.369 64.1954C129.511 64.1954 129.519 64.1231 129.519 64.099C129.519 64.0749 129.507 64.0146 129.385 64.0146L129.097 63.9945C128.954 63.9744 128.921 63.9061 128.904 63.7615L128.883 62.5601V61.5877L128.896 60.4185C128.908 60.2296 128.946 60.1653 129.072 60.1412L129.235 60.1251C129.323 60.1251 129.369 60.093 129.369 60.0287C129.369 59.9443 129.247 59.9443 129.205 59.9443L128.783 59.9524Z" fill="#666665"/>
<path d="M135.591 59.9604L135.427 59.9644C135.411 59.9644 134.766 59.9484 134.766 59.9484C134.716 59.9484 134.603 59.9484 134.603 60.0408C134.603 60.1332 134.708 60.1332 134.745 60.1332L134.942 60.1493C135.101 60.1814 135.143 60.2417 135.155 60.4265L135.168 61.5957V62.2868C135.168 62.8695 135.143 63.3396 134.846 63.6249C134.578 63.882 134.222 63.9101 134.084 63.9101C133.879 63.9101 133.636 63.886 133.393 63.6932C133.167 63.5164 132.962 63.2351 132.962 62.3672V61.5957L132.975 60.4265C132.987 60.2377 133.029 60.1734 133.151 60.1493L133.31 60.1332C133.398 60.1332 133.444 60.101 133.444 60.0408C133.444 59.9484 133.331 59.9484 133.272 59.9484L132.565 59.9644L132.259 59.9564L131.728 59.9443C131.673 59.9443 131.556 59.9443 131.556 60.0368C131.556 60.1292 131.661 60.1292 131.698 60.1292L131.912 60.1452C132.071 60.1774 132.113 60.2377 132.125 60.4225L132.138 61.5917V62.3994C132.138 63.1065 132.305 63.5807 132.665 63.89C133.117 64.2838 133.716 64.2838 133.971 64.2838C134.31 64.2838 134.758 64.2356 135.193 63.878C135.687 63.4722 135.754 62.8253 135.754 62.1864V61.5957L135.766 60.4265C135.779 60.2377 135.817 60.1734 135.942 60.1493L136.101 60.1332C136.143 60.1332 136.248 60.1332 136.248 60.0408C136.248 59.9484 136.135 59.9484 136.085 59.9484L135.591 59.9604Z" fill="#666665"/>
<path d="M137.061 60.0865L137.011 63.3532C137.006 63.8434 136.977 63.9639 136.864 64.0001L136.617 64.0242C136.504 64.0242 136.483 64.0724 136.483 64.1086C136.483 64.205 136.592 64.205 136.655 64.205L137.182 64.1929L137.278 64.1889L137.438 64.1929L137.99 64.205C138.04 64.205 138.166 64.205 138.166 64.1086C138.166 64.0523 138.116 64.0242 138.023 64.0242L137.739 63.988C137.664 63.9639 137.58 63.8755 137.567 63.4134C137.567 63.4134 137.513 61.3562 137.505 61.1875C137.538 61.2196 137.567 61.2517 137.567 61.2517L138.815 62.5174L139.576 63.2487L140.51 64.1367C140.581 64.205 140.652 64.2693 140.736 64.2693C140.853 64.2693 140.853 64.1206 140.853 64.0563L140.916 60.5767C140.92 60.2513 140.978 60.1789 141.096 60.1468L141.255 60.1307C141.38 60.1307 141.401 60.0745 141.401 60.0383C141.401 59.9459 141.288 59.9459 141.225 59.9459L140.765 59.9579L140.66 59.962L140.459 59.9579L139.965 59.9459C139.894 59.9459 139.773 59.9459 139.773 60.0383C139.773 60.0986 139.819 60.1307 139.907 60.1307L140.196 60.1629C140.304 60.2071 140.359 60.2874 140.363 60.6209C140.363 60.6209 140.409 62.65 140.422 63.0237C140.351 62.9514 139.204 61.8103 139.204 61.8103L137.421 60.0423L137.366 59.9861C137.295 59.9097 137.245 59.8575 137.174 59.8575C137.061 59.8535 137.061 60.0222 137.061 60.0865Z" fill="#666665"/>
<path d="M143.082 59.9564L142.802 59.9644L142.057 59.9484C141.998 59.9484 141.877 59.9484 141.877 60.0327C141.877 60.097 141.923 60.1292 142.011 60.1292L142.208 60.1493C142.287 60.1653 142.358 60.2095 142.371 60.4185L142.383 61.5877V62.5601C142.383 63.1025 142.384 63.5284 142.354 63.7574C142.337 63.9222 142.304 63.9825 142.22 63.9985L142.024 64.0186C141.911 64.0186 141.89 64.0668 141.89 64.103C141.89 64.1472 141.919 64.1994 142.049 64.1994L142.773 64.1834L143.036 64.1874L143.668 64.1994C143.811 64.1994 143.823 64.1271 143.823 64.103C143.823 64.0789 143.811 64.0186 143.689 64.0186L143.401 63.9985C143.258 63.9784 143.225 63.9101 143.208 63.7655L143.187 62.5601V61.5877L143.2 60.4185C143.212 60.2296 143.254 60.1653 143.375 60.1412L143.539 60.1251C143.631 60.1251 143.673 60.093 143.673 60.0287C143.673 59.9443 143.555 59.9443 143.509 59.9443L143.082 59.9564Z" fill="#666665"/>
<path d="M148.118 59.9601L147.922 59.9682L147.796 59.9642L147.319 59.9521C147.244 59.9521 147.114 59.9521 147.114 60.0485C147.114 60.1329 147.218 60.1329 147.256 60.1329L147.474 60.157C147.516 60.1691 147.52 60.2052 147.52 60.2213L147.47 60.4102L146.783 62.0857C146.783 62.0857 146.419 62.9616 146.369 63.0862C146.314 62.9496 145.41 60.6512 145.41 60.6512C145.306 60.3901 145.281 60.2816 145.281 60.2414C145.281 60.2012 145.293 60.1771 145.318 60.157C145.356 60.1289 145.444 60.1249 145.519 60.1249C145.632 60.1249 145.649 60.0686 145.649 60.0325C145.649 59.9722 145.59 59.9401 145.473 59.9401L145.004 59.9521L144.766 59.9601L143.933 59.9441C143.862 59.9441 143.74 59.9441 143.74 60.0365C143.74 60.0686 143.757 60.1289 143.853 60.1289L144.067 60.149C144.255 60.2012 144.347 60.2494 144.477 60.5428L145.925 63.9139C146.038 64.1831 146.08 64.2755 146.185 64.2755C146.285 64.2755 146.327 64.1911 146.457 63.9099L146.49 63.8416L147.256 62.158L147.578 61.4709L147.947 60.6593C148.097 60.3137 148.181 60.2253 148.248 60.1811C148.34 60.1209 148.453 60.1209 148.503 60.1209C148.595 60.1209 148.637 60.0887 148.637 60.0284C148.637 59.936 148.52 59.936 148.474 59.936L148.118 59.9601Z" fill="#666665"/>
<path d="M151.212 59.9238L151.183 59.9318C151.179 59.9318 150.94 59.964 150.94 59.964L149.509 59.968L149.22 59.9599L148.684 59.9479C148.63 59.9479 148.513 59.9479 148.513 60.0403C148.513 60.1327 148.617 60.1327 148.655 60.1327L148.869 60.1488C149.028 60.1809 149.074 60.2412 149.082 60.426L149.095 61.5953V62.5676C149.095 63.0699 149.095 63.5079 149.065 63.7369C149.04 63.9016 149.015 63.99 148.931 64.0021L148.73 64.0222C148.617 64.0222 148.597 64.0704 148.597 64.1066C148.597 64.1508 148.626 64.203 148.756 64.203L149.48 64.1869L149.915 64.199L151.074 64.2231C151.296 64.2231 151.38 64.2231 151.426 64.0503C151.455 63.9338 151.501 63.5561 151.501 63.4275C151.501 63.3753 151.501 63.2869 151.413 63.2869C151.33 63.2869 151.317 63.3552 151.309 63.4034C151.271 63.6204 151.208 63.7208 151.074 63.7811C150.932 63.8454 150.693 63.8454 150.551 63.8454C149.974 63.8454 149.915 63.7731 149.907 63.4235V62.7967V62.5717V62.1297C149.907 62.1297 149.907 62.1216 149.907 62.1176C149.927 62.1176 150.706 62.1337 150.706 62.1337C150.919 62.1538 150.97 62.2382 150.991 62.3185L151.007 62.4592L151.011 62.5114C151.011 62.5636 151.045 62.5958 151.108 62.5958C151.204 62.5958 151.204 62.4953 151.204 62.4511L151.225 62.0855L151.263 61.7319L151.271 61.6756C151.271 61.6234 151.237 61.5913 151.187 61.5913L151.07 61.6676C151.02 61.7198 150.94 61.7359 150.815 61.744C150.815 61.744 149.932 61.756 149.902 61.756C149.902 61.748 149.902 61.7359 149.902 61.7359V60.3417C149.902 60.3417 149.902 60.3336 149.902 60.3256C149.911 60.3256 150.71 60.3457 150.71 60.3457C150.982 60.3778 151.024 60.4341 151.058 60.5185L151.091 60.7033C151.091 60.8037 151.141 60.8238 151.183 60.8238C151.221 60.8238 151.267 60.8078 151.284 60.7314L151.304 60.4783L151.313 60.3618L151.35 60.0604L151.359 60.0001C151.359 59.9198 151.304 59.9077 151.279 59.9077L151.212 59.9238Z" fill="#666665"/>
<path d="M156.654 64.0186L156.499 64.0025C156.407 63.9865 156.185 63.9423 155.879 63.6409C155.586 63.3436 155.252 62.9418 154.833 62.4315C154.833 62.4315 154.699 62.2668 154.661 62.2226C155.18 61.8087 155.406 61.435 155.406 60.981C155.406 60.5671 155.139 60.2819 154.996 60.1894C154.67 59.9725 154.264 59.9443 153.912 59.9443L153.523 59.9524L153.1 59.9604L152.87 59.9564L152.313 59.9443C152.259 59.9443 152.142 59.9443 152.142 60.0368C152.142 60.1292 152.246 60.1292 152.284 60.1292L152.498 60.1452C152.657 60.1774 152.703 60.2377 152.711 60.4225L152.724 61.5917V62.5641C152.724 63.0663 152.724 63.5043 152.694 63.7333C152.669 63.8981 152.644 63.9865 152.56 63.9985L152.364 64.0186C152.251 64.0186 152.226 64.0668 152.226 64.103C152.226 64.1472 152.255 64.1994 152.385 64.1994L152.853 64.1874L153.088 64.1834L153.272 64.1874L153.933 64.1994C154.063 64.1994 154.092 64.1472 154.092 64.103C154.092 64.0628 154.063 64.0186 153.979 64.0186L153.703 63.9985C153.569 63.9825 153.536 63.8941 153.515 63.7333C153.485 63.5043 153.485 63.0663 153.485 62.5561V62.4797C153.523 62.4797 153.988 62.4918 153.988 62.4918C154.025 62.4918 154.042 62.4958 154.059 62.5159L154.335 62.8815L154.628 63.2753C154.967 63.7213 155.185 63.9704 155.432 64.099C155.591 64.1834 155.745 64.2075 156.068 64.2075H156.612C156.649 64.2075 156.762 64.2075 156.762 64.111C156.762 64.0668 156.733 64.0186 156.654 64.0186ZM154.314 62.0538C154.222 62.1181 154.155 62.1382 153.933 62.1382C153.774 62.1382 153.615 62.1181 153.51 62.0859C153.498 62.0779 153.49 62.0779 153.49 62.0257V60.3461C153.49 60.314 153.494 60.314 153.51 60.31L153.803 60.2899C154.113 60.2899 154.64 60.4948 154.64 61.2582C154.636 61.7524 154.435 61.9694 154.314 62.0538Z" fill="#666665"/>
<path d="M156.551 60.9591C156.551 61.4413 156.811 61.8431 157.417 62.3011L157.681 62.498C158.137 62.8355 158.229 63.0806 158.229 63.3498C158.229 63.6351 157.974 63.9365 157.501 63.9365C157.271 63.9365 156.861 63.8682 156.723 63.4061L156.672 63.1369C156.672 63.0485 156.639 63.0003 156.572 63.0003C156.472 63.0003 156.463 63.1329 156.459 63.1811C156.459 63.1931 156.43 63.9083 156.43 63.9083C156.43 64.045 156.455 64.0892 156.564 64.1334C156.806 64.2378 157.062 64.282 157.422 64.282C157.798 64.282 158.104 64.2057 158.359 64.049C158.849 63.7436 158.92 63.2936 158.92 63.0525C158.92 62.5141 158.669 62.1404 157.962 61.6141L157.798 61.4975C157.3 61.1319 157.204 60.9551 157.204 60.7341C157.204 60.4127 157.455 60.2077 157.844 60.2077C158.188 60.2077 158.347 60.3524 158.439 60.4609C158.556 60.6015 158.577 60.7622 158.577 60.7984C158.577 60.9149 158.631 60.939 158.677 60.939C158.782 60.939 158.782 60.8104 158.782 60.7301L158.799 60.1595L158.803 60.0671C158.803 59.9827 158.719 59.9667 158.69 59.9626C158.522 59.9184 158.28 59.8662 157.915 59.8662C157.112 59.8742 156.551 60.3202 156.551 60.9591Z" fill="#666665"/>
<path d="M160.685 59.9564L160.404 59.9644L159.655 59.9484C159.596 59.9484 159.475 59.9484 159.475 60.0327C159.475 60.097 159.521 60.1292 159.609 60.1292L159.806 60.1493C159.885 60.1653 159.956 60.2095 159.969 60.4185L159.982 61.5877V62.5601C159.982 63.1025 159.982 63.5284 159.952 63.7574C159.935 63.9222 159.902 63.9825 159.822 63.9985L159.622 64.0186C159.509 64.0186 159.488 64.0668 159.488 64.103C159.488 64.1472 159.513 64.1994 159.647 64.1994L160.371 64.1834L160.634 64.1874L161.266 64.1994C161.409 64.1994 161.417 64.1271 161.417 64.103C161.417 64.0789 161.405 64.0186 161.283 64.0186L160.994 63.9985C160.852 63.9825 160.819 63.9061 160.802 63.7655L160.781 62.5601V61.5877L160.793 60.4185C160.806 60.2296 160.848 60.1653 160.969 60.1412L161.132 60.1251C161.225 60.1251 161.266 60.093 161.266 60.0287C161.266 59.9443 161.149 59.9443 161.103 59.9443L160.685 59.9564Z" fill="#666665"/>
<path d="M161.713 60.0109C161.705 60.043 161.592 60.5573 161.592 60.6537C161.592 60.6899 161.592 60.7823 161.688 60.7823C161.767 60.7823 161.788 60.706 161.793 60.6859L161.885 60.5051C161.956 60.4046 162.069 60.3765 162.408 60.3644C162.408 60.3644 163.048 60.3484 163.22 60.3444C163.22 60.4247 163.22 62.5663 163.22 62.5663C163.22 63.0686 163.22 63.5065 163.19 63.7356C163.17 63.9124 163.132 63.9887 163.057 64.0008L162.86 64.0209C162.747 64.0209 162.726 64.0691 162.726 64.1052C162.726 64.1494 162.755 64.2017 162.885 64.2017L163.609 64.1856L163.881 64.1896L164.513 64.2017C164.655 64.2017 164.668 64.1293 164.668 64.1052C164.668 64.0811 164.655 64.0209 164.53 64.0209L164.241 64.0008C164.107 63.9847 164.074 63.9003 164.053 63.7396C164.023 63.5025 164.023 63.0686 164.023 62.5623C164.023 62.5623 164.023 60.4247 164.023 60.3403C164.103 60.3403 164.706 60.3564 164.706 60.3564C165.095 60.3644 165.329 60.4649 165.342 60.6256L165.346 60.6859C165.35 60.7462 165.358 60.8346 165.451 60.8346C165.534 60.8346 165.543 60.7421 165.547 60.71C165.547 60.706 165.564 60.0671 165.564 60.0671C165.564 59.9988 165.564 59.9104 165.476 59.9104L165.409 59.9184L164.923 59.9626H162.646L162.077 59.9345L161.906 59.8903L161.826 59.8662C161.747 59.8742 161.726 59.9586 161.713 60.0109Z" fill="#666665"/>
<path d="M169.903 59.9524L169.577 59.9604L169.037 59.9443C168.995 59.9443 168.895 59.9443 168.895 60.0368C168.895 60.1051 168.97 60.1171 169.033 60.1332C169.091 60.1493 169.121 60.1774 169.121 60.2296C169.121 60.3019 169.096 60.3944 169.045 60.4988C169.045 60.4988 168.288 61.8368 168.221 61.9493C168.191 61.8971 168.154 61.8368 168.154 61.8368C167.915 61.439 167.35 60.5028 167.287 60.3702L167.22 60.1975C167.22 60.1734 167.237 60.1452 167.267 60.1372C167.371 60.1131 167.426 60.097 167.426 60.0368C167.426 60.0086 167.413 59.9443 167.296 59.9443L166.877 59.9564L166.681 59.9604L165.956 59.9443C165.818 59.9443 165.802 60.0086 165.802 60.0368C165.802 60.0649 165.814 60.1292 165.931 60.1292C165.986 60.1292 166.074 60.1573 166.153 60.1975C166.266 60.2577 166.404 60.4024 166.534 60.5872C166.739 60.8805 167.505 62.09 167.543 62.1703C167.618 62.331 167.668 62.4476 167.668 62.7328V63.1869L167.652 63.7374C167.643 63.8458 167.614 63.9825 167.509 64.0025L167.317 64.0226C167.195 64.0226 167.183 64.0829 167.183 64.107C167.183 64.2034 167.304 64.2034 167.354 64.2034L168.074 64.1874L168.342 64.1914L168.953 64.2034C169.096 64.2034 169.116 64.1432 169.116 64.107C169.116 64.0829 169.104 64.0226 168.983 64.0226L168.702 64.0025C168.572 63.9865 168.514 63.9101 168.501 63.7374L168.484 63.1869V62.7328C168.484 62.5561 168.484 62.3873 168.568 62.1984C168.669 61.9694 169.468 60.6756 169.661 60.4546C169.786 60.306 169.845 60.2457 169.958 60.1935C170.041 60.1493 170.146 60.1292 170.192 60.1292C170.334 60.1292 170.343 60.0568 170.343 60.0327C170.343 59.9765 170.293 59.9484 170.196 59.9484L169.903 59.9524ZM167.338 60.0327C167.342 60.0327 167.338 60.0327 167.338 60.0327V60.0327Z" fill="#666665"/>
<path d="M71.5609 54.0984C71.5609 60.8687 77.2781 66.3574 84.3304 66.3574C91.3827 66.3574 97.0999 60.8687 97.0999 54.0984C97.0999 47.328 91.3827 41.8394 84.3304 41.8394C77.2781 41.8394 71.5609 47.328 71.5609 54.0984Z" fill="white"/>
<path d="M84.3225 39.3877C75.8598 39.3877 69 45.9732 69 54.0977C69 62.2221 75.8598 68.8077 84.3225 68.8077C92.7853 68.8077 99.6451 62.2221 99.6451 54.0977C99.6451 45.9732 92.7811 39.3877 84.3225 39.3877ZM84.3644 64.8057C78.191 64.8057 73.1853 60.0002 73.1853 54.0736C73.1853 48.143 78.191 43.3414 84.3644 43.3414C90.5378 43.3414 95.5435 48.147 95.5435 54.0736C95.5435 60.0002 90.5378 64.8057 84.3644 64.8057Z" fill="#003671"/>
<path d="M70.4704 51.7551L70.4453 51.8114L70.4244 52.1007L70.3909 52.3538C70.3909 52.3699 70.3825 52.4221 70.4328 52.4261C70.4662 52.4301 70.4788 52.394 70.4872 52.3658C70.4955 52.3377 70.5123 52.3297 70.5416 52.3337C70.5792 52.3337 70.6211 52.3538 70.6755 52.3819C70.7174 52.406 70.8806 52.5145 71.0438 52.619C71.1819 52.7114 71.3075 52.7918 71.3703 52.8319C71.3368 52.848 71.2991 52.8641 71.2991 52.8641C71.0731 52.9645 70.6002 53.1695 70.5332 53.1936C70.5165 53.1976 70.4662 53.2177 70.4411 53.2177C70.4286 53.2177 70.416 53.2096 70.416 53.1936L70.4118 53.1815C70.4076 53.1453 70.4035 53.1172 70.37 53.1132L70.3365 53.1172L70.3156 53.1695L70.303 53.3663L70.2946 53.4547L70.2695 53.6677L70.2528 53.7963C70.2444 53.8606 70.2779 53.8726 70.2946 53.8726C70.3072 53.8726 70.3407 53.8726 70.349 53.8164C70.3532 53.7882 70.37 53.748 70.3951 53.7159C70.4328 53.6677 70.5123 53.6074 70.6085 53.5552C70.7634 53.4748 71.4163 53.1695 71.4582 53.1574C71.5461 53.1333 71.6047 53.1092 71.7511 53.1253L71.9813 53.1453C71.9855 53.1453 72.2576 53.1775 72.2576 53.1775C72.312 53.1855 72.3831 53.2056 72.3831 53.2538V53.3462L72.3957 53.4025L72.425 53.4146L72.4585 53.4065C72.4752 53.3945 72.4794 53.3663 72.4836 53.3382L72.5003 53.1373L72.5087 53.0007L72.5254 52.8761L72.5589 52.5909C72.5631 52.5587 72.5589 52.5386 72.5464 52.5225L72.5171 52.5065C72.5045 52.5065 72.471 52.5105 72.4668 52.5667L72.4417 52.6953C72.4292 52.7556 72.3873 52.7797 72.2994 52.7757L72.0106 52.7596L71.7804 52.7395C71.6925 52.7315 71.6047 52.7235 71.5126 52.6752C71.3996 52.619 70.7801 52.185 70.6797 52.0846C70.6127 52.0203 70.5834 51.9882 70.5625 51.9359C70.5458 51.8957 70.5374 51.8475 70.5416 51.8234C70.5499 51.7551 70.5123 51.7471 70.4955 51.7471L70.4704 51.7551Z" fill="white"/>
<path d="M71.668 50.9978C70.9565 50.7808 70.9774 50.367 71.0528 50.1379C71.1114 49.9571 71.2369 49.8125 71.4169 49.7241C71.6429 49.6116 71.9401 49.5995 72.2498 49.6959C72.5637 49.7924 72.7729 49.933 72.8692 50.1098C72.9613 50.2786 72.9278 50.4433 72.9027 50.5277C72.752 50.9777 72.2456 51.1746 71.668 50.9978ZM71.4671 49.3062C71.2076 49.4348 71.0151 49.6799 70.9021 50.0134C70.7975 50.3348 70.8142 50.6402 70.9481 50.8933C71.0821 51.1384 71.3248 51.3353 71.6178 51.4237C72.1326 51.5804 72.7981 51.4197 73.0366 50.6884C73.1413 50.375 73.1203 50.0696 72.9822 49.8084C72.8399 49.5513 72.593 49.3584 72.2791 49.262C71.9861 49.1696 71.7057 49.1857 71.4671 49.3062Z" fill="white"/>
<path d="M72.9493 46.1293L72.8363 46.3141L72.807 46.3583L72.7526 46.4387L72.6187 46.6316C72.602 46.6597 72.5852 46.6878 72.5894 46.7079L72.6061 46.732C72.6313 46.7481 72.6606 46.736 72.6815 46.6999C72.7024 46.6677 72.7359 46.6155 72.7694 46.5914C72.8154 46.5592 72.8656 46.5592 73.0121 46.6396C73.0121 46.6396 73.8785 47.1258 74.0626 47.2343C74.0082 47.2463 73.8157 47.2865 73.8157 47.2865L73.2298 47.4111C72.648 47.5436 72.0118 47.6682 72.0035 47.6682L71.9658 47.6762C71.9156 47.6843 71.8779 47.6923 71.8612 47.7204C71.857 47.7285 71.8528 47.7365 71.8528 47.7445C71.8528 47.7807 71.9072 47.8129 71.9281 47.8289L73.3302 48.6888C73.5186 48.8013 73.573 48.8495 73.573 48.8937C73.573 48.8977 73.573 48.9058 73.5688 48.9098L73.5186 49.0142L73.5018 49.0665L73.5186 49.0906L73.5562 49.0986C73.5771 49.0946 73.5939 49.0705 73.6106 49.0504L73.7404 48.8374L73.7655 48.8013L73.8073 48.737L73.9538 48.52C73.9664 48.4999 73.9999 48.4477 73.958 48.4236L73.9287 48.4156L73.8827 48.4557C73.8617 48.4879 73.8325 48.5321 73.7948 48.5602C73.7655 48.5803 73.7069 48.5923 73.5018 48.4798C73.5018 48.4798 72.6061 47.9776 72.5224 47.9334C72.5434 47.9294 72.5643 47.9254 72.5643 47.9254C72.7359 47.8932 73.0958 47.8289 73.4307 47.7526L73.9455 47.6361L74.5733 47.4914C74.6193 47.4794 74.6695 47.4673 74.6904 47.4352L74.6988 47.399C74.6946 47.3789 74.6737 47.3588 74.6319 47.3307L73.1419 46.4186C73.0331 46.3503 72.9996 46.3101 72.9996 46.2699C72.9996 46.2619 72.9996 46.2498 73.0038 46.2378L73.0372 46.1695C73.0498 46.1494 73.0582 46.1333 73.0582 46.1213C73.0582 46.1052 73.0456 46.0931 73.0372 46.0851C72.9954 46.061 72.9661 46.1052 72.9493 46.1293Z" fill="white"/>
<path d="M74.5095 44.4665C74.4342 44.5107 74.3337 44.575 74.2123 44.6996C74.0658 44.8522 73.9863 45.021 73.9863 45.1898C73.9905 45.3223 74.0491 45.4429 74.1496 45.5353C74.3295 45.7 74.5639 45.7442 74.9406 45.692L75.1038 45.6679C75.38 45.6277 75.5014 45.6799 75.6019 45.7683C75.6521 45.8166 75.6856 45.8849 75.6856 45.9572C75.6898 46.0215 75.6688 46.1139 75.5726 46.2103C75.4972 46.2867 75.334 46.4032 75.1164 46.2987C75.0703 46.2746 75.0243 46.2465 74.9992 46.2264C74.9573 46.1902 74.928 46.1983 74.9113 46.2143C74.8778 46.2505 74.9238 46.2987 74.9406 46.3148C74.9448 46.3228 75.2001 46.5679 75.2001 46.5679C75.2503 46.6121 75.2754 46.6202 75.3298 46.6001C75.4512 46.5519 75.5516 46.4795 75.673 46.359C75.7986 46.2304 75.8739 46.1018 75.9032 45.9612C75.9116 45.921 75.9158 45.8849 75.9158 45.8487C75.9158 45.6438 75.8028 45.5032 75.7274 45.4349C75.5307 45.254 75.3047 45.2098 74.8694 45.2741L74.7732 45.2902C74.4718 45.3384 74.3756 45.3063 74.296 45.238C74.2458 45.1898 74.2165 45.1295 74.2165 45.0652C74.2123 44.9888 74.25 44.9125 74.3212 44.8402C74.4342 44.7237 74.543 44.7196 74.6141 44.7237C74.702 44.7317 74.7732 44.7759 74.7857 44.7879L74.8401 44.8161L74.8736 44.804L74.8862 44.7759C74.882 44.7558 74.8694 44.7317 74.8318 44.6996L74.6267 44.5027L74.5932 44.4705C74.5555 44.4344 74.5179 44.4585 74.5095 44.4665Z" fill="white"/>
<path d="M76.4431 42.9028L76.418 42.9269L76.4096 42.939L76.3259 43.0194L75.7693 43.4212C75.7651 43.4252 75.6521 43.5015 75.6521 43.5015L75.4386 43.6502C75.4135 43.6703 75.3926 43.6863 75.3926 43.7064L75.4009 43.7386L75.4302 43.7547L75.4847 43.7346L75.5725 43.6823C75.6437 43.6502 75.6772 43.6622 75.74 43.7305C75.7986 43.7948 75.8446 43.8551 76.0999 44.1846L76.3971 44.5663C76.5519 44.7672 76.6817 44.936 76.7403 45.0324C76.7821 45.1047 76.7989 45.1449 76.7737 45.173L76.7026 45.2373C76.6566 45.2695 76.6607 45.2936 76.6733 45.3096L76.7026 45.3297L76.7654 45.3056L76.9412 45.173L77.0458 45.0967L77.2216 44.9802L77.682 44.6627C77.7699 44.6025 77.8033 44.5783 77.7657 44.494C77.7447 44.4417 77.6485 44.277 77.6066 44.2288L77.5606 44.1926L77.5271 44.2007C77.4936 44.2248 77.5104 44.2569 77.5187 44.277C77.569 44.3734 77.5773 44.4297 77.5438 44.49C77.5062 44.5542 77.4141 44.6185 77.3555 44.6587C77.1295 44.8194 77.0835 44.8074 76.9746 44.6748L76.7821 44.4297L76.7151 44.3413L76.5812 44.1685C76.5812 44.1685 76.5812 44.1685 76.577 44.1645C76.644 44.1163 76.8533 43.9716 76.8951 43.9435C76.9872 43.8953 77.029 43.9114 77.0625 43.9355L77.1128 43.9837L77.1295 44.0038L77.1588 44.0198L77.1965 44.0118L77.2132 43.9837L77.1881 43.9274L77.0876 43.7788L76.9956 43.6301L76.9788 43.606L76.9495 43.5859L76.916 43.5939C76.8951 43.606 76.8951 43.6301 76.8951 43.6582C76.8909 43.6904 76.8658 43.7225 76.8198 43.7587C76.7989 43.7788 76.7235 43.835 76.4682 44.0158C76.4682 44.0158 76.4682 44.0158 76.464 44.0158C76.4598 44.0118 76.4598 44.0118 76.4598 44.0118L76.0371 43.4654C76.0371 43.4654 76.0371 43.4613 76.0329 43.4613C76.0873 43.4212 76.3175 43.2645 76.3552 43.2444C76.4724 43.1801 76.5059 43.1881 76.5435 43.2122C76.5687 43.2283 76.598 43.2604 76.6105 43.2765C76.6398 43.3167 76.6691 43.3087 76.6858 43.2966C76.6984 43.2845 76.7151 43.2645 76.6942 43.2323L76.6231 43.1238L76.5938 43.0796L76.5143 42.951L76.4975 42.9269L76.464 42.9068L76.4431 42.9028Z" fill="white"/>
<path d="M78.1322 41.999L77.9523 42.0954L77.8309 42.1597L77.5044 42.3164C77.4793 42.3284 77.4249 42.3566 77.4459 42.3927C77.4626 42.4209 77.4877 42.4249 77.5296 42.4088L77.6175 42.3767C77.6551 42.3686 77.697 42.3686 77.7514 42.457L78.0318 42.9593L78.262 43.3812C78.3917 43.6142 78.4922 43.799 78.534 43.9075C78.5633 43.9839 78.5633 44.016 78.534 44.0361L78.4545 44.0883C78.4043 44.1124 78.4085 44.1406 78.4169 44.1566C78.4294 44.1767 78.4503 44.1928 78.5089 44.1647L78.7056 44.0602L78.8228 43.9999L78.94 43.9437L79.2163 43.8111C79.279 43.779 79.2665 43.7428 79.2581 43.7348L79.233 43.7147L79.1744 43.7267L79.0447 43.779C78.9819 43.8031 78.9484 43.779 78.9065 43.7187C78.8438 43.6223 78.7433 43.4414 78.6177 43.2084C78.6136 43.2004 78.3834 42.7825 78.3834 42.7825C78.1867 42.4209 78.149 42.3526 78.1113 42.2762C78.0946 42.24 78.0862 42.2079 78.0862 42.1878C78.0862 42.1597 78.0988 42.1396 78.1239 42.1195L78.1908 42.0753C78.2201 42.0633 78.2369 42.0432 78.2369 42.0231C78.2369 42.015 78.2327 42.007 78.2285 41.999C78.2034 41.9628 78.1532 41.9909 78.1322 41.999Z" fill="white"/>
<path d="M82.6352 40.6865L82.4008 40.7388L82.3213 40.7548H82.3087L81.999 40.8071C81.9739 40.8111 81.9488 40.8191 81.9362 40.8352L81.9278 40.8673L81.9488 40.8955L82.0116 40.8995L82.1078 40.8874C82.1832 40.8874 82.2125 40.9115 82.2376 40.9999L82.3589 41.5584L82.4259 41.8919C82.4845 42.1732 82.518 42.3982 82.405 42.5629C82.3003 42.7116 82.1329 42.7558 82.0702 42.7679C81.9697 42.788 81.8525 42.796 81.7186 42.7277C81.593 42.6634 81.4675 42.5469 81.3796 42.133L81.2959 41.7593C81.2959 41.7513 81.187 41.2008 81.187 41.2008C81.1745 41.1084 81.187 41.0723 81.2456 41.0522L81.321 41.0281C81.3754 41.02 81.3838 40.9919 81.3754 40.9718C81.367 40.9236 81.3126 40.9356 81.2833 40.9397L81.0824 40.9839L80.9443 41.016L80.7978 41.0401L80.5383 41.0843C80.5048 41.0923 80.4839 41.1004 80.4713 41.1165L80.4672 41.1486L80.4839 41.1767L80.5425 41.1807L80.6471 41.1687C80.7267 41.1687 80.7518 41.1928 80.7769 41.2812C80.802 41.3656 80.8145 41.4379 80.8983 41.8397L80.9778 42.2254C81.0489 42.567 81.1745 42.7759 81.3754 42.8964C81.6307 43.0451 81.9195 42.9889 82.0409 42.9647C82.2041 42.9326 82.4133 42.8723 82.5891 42.6594C82.7858 42.4183 82.7565 42.1009 82.6938 41.7955L82.6352 41.5142L82.5264 40.9517C82.5138 40.8593 82.5264 40.8272 82.5849 40.8071L82.6603 40.783C82.677 40.7789 82.7314 40.7709 82.7231 40.7267C82.7189 40.7066 82.7063 40.6946 82.6854 40.6905L82.6352 40.6865Z" fill="white"/>
<path d="M84.0121 40.5614C83.9954 40.5774 83.987 40.6096 83.9828 40.6618L83.8866 42.257C83.874 42.4981 83.8573 42.5543 83.8029 42.5664L83.6815 42.5744C83.6229 42.5744 83.6145 42.5945 83.6104 42.6146L83.6229 42.6467C83.6396 42.6628 83.6648 42.6628 83.6941 42.6668L83.9535 42.6708H83.9996L84.0791 42.6749L84.3512 42.6909C84.3763 42.6909 84.4349 42.6949 84.4391 42.6467L84.4265 42.6186L84.3637 42.6025C84.3219 42.6025 84.2716 42.5985 84.2256 42.5784C84.1921 42.5664 84.1544 42.5222 84.1544 42.3253C84.1544 42.3172 84.1544 42.2972 84.1544 42.2972C84.1544 42.2972 84.1712 41.3007 84.1712 41.2123C84.1879 41.2284 84.2005 41.2444 84.2005 41.2444C84.3135 41.373 84.5479 41.6422 84.7822 41.8873L85.138 42.261L85.5733 42.715C85.6068 42.7512 85.6444 42.7833 85.6821 42.7833C85.7407 42.7833 85.7449 42.711 85.7449 42.6789L85.8495 40.9792C85.8621 40.8225 85.8872 40.7864 85.9458 40.7743L86.0211 40.7703L86.0839 40.7583L86.0964 40.7301C86.0964 40.6819 86.042 40.6819 86.0086 40.6819L85.7867 40.6779H85.7449L85.6444 40.6658L85.4017 40.6498C85.3598 40.6498 85.3347 40.6498 85.318 40.6658L85.3054 40.694C85.3054 40.694 85.3054 40.694 85.3054 40.698C85.3054 40.7261 85.3263 40.7422 85.3724 40.7422C85.4101 40.7422 85.477 40.7462 85.5147 40.7623C85.5649 40.7864 85.5858 40.8185 85.5858 40.9511C85.5858 40.9632 85.5858 40.9712 85.5858 40.9873C85.5858 40.9873 85.5649 41.9516 85.5649 42.1565C85.5272 42.1163 85.3975 41.9757 85.3975 41.9757L84.9999 41.5458C84.5939 41.1239 84.1712 40.6498 84.167 40.6457L84.1419 40.6176C84.1084 40.5774 84.0833 40.5533 84.0498 40.5493L84.0121 40.5614Z" fill="white"/>
<path d="M87.1606 40.9172L87.1438 40.9372L87.148 40.9734L87.1982 40.9975L87.2861 41.0297C87.3196 41.0457 87.3531 41.0739 87.3321 41.1743L87.2024 41.7368L87.0894 42.1989C87.0266 42.444 86.9722 42.661 86.9345 42.7655C86.9094 42.8418 86.8843 42.8659 86.8466 42.8659L86.7504 42.8538L86.6918 42.8579L86.675 42.882L86.6792 42.9141L86.7378 42.9463L86.9555 42.9905L87.0852 43.0146L87.2024 43.0467L87.5037 43.119C87.5707 43.1351 87.5875 43.0989 87.5875 43.0909L87.5833 43.0628L87.533 43.0347L87.3991 42.9945C87.3321 42.9704 87.328 42.9342 87.3363 42.8619C87.3531 42.7494 87.4075 42.5324 87.4703 42.2873L87.5833 41.8252L87.7256 41.2707C87.7507 41.1823 87.78 41.1582 87.8428 41.1582L87.9223 41.1703L87.9809 41.1663L88.0018 41.1382C88.0102 41.098 87.9516 41.0819 87.9307 41.0779L87.7298 41.0377L87.5958 41.0096L87.2443 40.9172C87.1982 40.9091 87.1773 40.9091 87.1606 40.9172Z" fill="white"/>
<path d="M88.7379 41.2751L88.717 41.2952L88.7128 41.3314L88.7463 41.3595L88.8383 41.4077C88.9137 41.464 88.943 41.5042 88.943 41.6609L88.9179 43.4449C88.9137 43.5895 88.9137 43.6377 88.9639 43.6578C89.0141 43.6779 89.0476 43.6458 89.1606 43.5413L89.1899 43.5172L89.8679 42.9024L90.1483 42.6533L90.4748 42.356C90.6129 42.2274 90.6673 42.2033 90.705 42.1953C90.7552 42.1872 90.8054 42.2073 90.8306 42.2153L90.8891 42.2234L90.9184 42.1993C90.9394 42.1591 90.8808 42.135 90.864 42.1269L90.7092 42.0667L90.6171 42.0386L90.5627 42.0104L90.3534 41.918C90.3158 41.906 90.2613 41.8818 90.2404 41.926C90.2362 41.9341 90.2362 41.9381 90.2362 41.9421C90.2362 41.9702 90.2739 41.9863 90.2865 41.9944L90.3785 42.0466C90.3869 42.0546 90.3911 42.0586 90.3911 42.0707C90.3911 42.0787 90.3869 42.0827 90.3869 42.0868C90.3785 42.1028 90.3534 42.135 90.3283 42.1631L89.6754 42.7819C89.6754 42.7819 89.3448 43.1033 89.2945 43.1515C89.2987 43.0752 89.3489 41.8818 89.3489 41.8818C89.3531 41.7452 89.3657 41.693 89.3741 41.6729C89.3824 41.6568 89.3908 41.6488 89.4075 41.6448C89.4285 41.6408 89.4703 41.6528 89.4996 41.6649C89.554 41.685 89.5749 41.6649 89.5791 41.6488V41.6207C89.5749 41.6006 89.554 41.5885 89.5164 41.5725L89.3029 41.4921L89.1941 41.4519L89.0476 41.3876L88.8216 41.2912C88.7839 41.2751 88.7588 41.2671 88.7379 41.2751Z" fill="white"/>
<path d="M91.5278 42.5612L91.5195 42.5934L91.5571 42.6376L91.6408 42.6978C91.6952 42.7541 91.6952 42.7862 91.6492 42.8666C91.6032 42.9389 91.5655 42.9992 91.3228 43.3447L91.0465 43.7385C90.9 43.9434 90.7787 44.1202 90.7033 44.2046C90.6489 44.2649 90.6112 44.293 90.5736 44.2769L90.4857 44.2327L90.4313 44.2166L90.4062 44.2327L90.402 44.2649L90.448 44.3171L90.6364 44.4336L90.7452 44.5019L90.921 44.6185L91.3813 44.9319C91.4734 44.9921 91.5069 45.0122 91.5781 44.9519C91.6199 44.9118 91.7497 44.7711 91.7873 44.7189L91.8083 44.6626L91.7915 44.6385C91.758 44.6144 91.7287 44.6426 91.712 44.6586C91.6367 44.735 91.5822 44.7591 91.5111 44.751C91.4358 44.739 91.3395 44.6787 91.2809 44.6385C91.1386 44.5461 91.08 44.4939 91.08 44.4336C91.08 44.3975 91.1009 44.3573 91.1386 44.301L91.3186 44.0439L91.3813 43.9555L91.5027 43.7787C91.5027 43.7787 91.5069 43.7787 91.5069 43.7747C91.5697 43.8148 91.7873 43.9595 91.825 43.9916C91.8794 44.0358 91.8961 44.072 91.8961 44.1001C91.8961 44.1122 91.892 44.1283 91.8878 44.1363L91.8543 44.1966L91.8417 44.2207C91.825 44.2408 91.8292 44.2649 91.8585 44.2809C91.8961 44.305 91.9296 44.2649 91.9422 44.2448L92.0552 44.1041L92.1724 43.9715L92.1933 43.9515L92.2017 43.9193L92.1807 43.8952C92.1598 43.8832 92.1389 43.8872 92.1096 43.8952C92.0761 43.9032 92.0384 43.8872 91.984 43.859C91.9506 43.839 91.8124 43.7546 91.6115 43.626C91.6115 43.622 91.6157 43.618 91.6157 43.618L92.0133 43.0514C92.0133 43.0514 92.0133 43.0514 92.0175 43.0474C92.0761 43.0836 92.3021 43.2403 92.3356 43.2684C92.4151 43.3327 92.4319 43.3688 92.4319 43.401C92.4319 43.409 92.4319 43.4211 92.4277 43.4291C92.4235 43.4572 92.4026 43.4934 92.39 43.5095L92.3775 43.5577L92.3984 43.5858C92.4151 43.5939 92.4402 43.6019 92.4695 43.5738L92.5532 43.4733L92.5867 43.4291L92.6872 43.3166L92.7081 43.2925C92.729 43.2563 92.7081 43.2403 92.6997 43.2322L92.6579 43.2202L92.6453 43.2162L92.5365 43.1679C92.4905 43.1438 92.0091 42.8304 91.9547 42.7943L91.8375 42.7179L91.6241 42.5733C91.599 42.5532 91.5529 42.521 91.5278 42.5612Z" fill="white"/>
<path d="M93.5827 45.3957C93.5241 45.3877 93.4948 45.3716 93.4195 45.2993C93.3651 45.2471 93.3149 45.1868 93.2898 45.1426C93.2856 45.1346 93.2856 45.1306 93.3065 45.1145L93.9092 44.5319C93.9176 44.5238 93.9218 44.5238 93.9301 44.5279C93.9552 44.5399 94.0055 44.5841 94.0389 44.6163C94.1101 44.6846 94.1519 44.785 94.1519 44.8814C94.1519 45.002 94.0933 45.1185 93.9803 45.227C93.8004 45.3998 93.6539 45.4078 93.5827 45.3957ZM93.5827 43.9653L93.5534 43.9774L93.5409 44.0055L93.5702 44.0537L93.6371 44.1301C93.679 44.1944 93.6748 44.2305 93.612 44.2988L93.1977 44.7046C93.1935 44.7046 92.8461 45.0422 92.8461 45.0422C92.662 45.219 92.5071 45.3676 92.415 45.4399C92.3481 45.4882 92.3062 45.5083 92.2769 45.4882L92.2016 45.4279L92.1514 45.3998L92.1221 45.4118L92.1095 45.4399L92.143 45.4962L92.3104 45.6489L92.3899 45.7212L92.4527 45.7855L92.6745 46.0105L92.7331 46.0427L92.7624 46.0306L92.775 46.0025L92.754 45.9623L92.6661 45.8659C92.6494 45.8458 92.6452 45.8297 92.6452 45.8136C92.6452 45.7855 92.6661 45.7534 92.6996 45.7132C92.775 45.6248 92.9298 45.4721 93.114 45.2953C93.114 45.2953 93.1391 45.2712 93.1433 45.2712C93.1558 45.2832 93.3107 45.4399 93.3107 45.4399C93.3232 45.452 93.3274 45.456 93.3274 45.4641V45.4681L93.2939 45.685L93.2521 45.9221C93.227 46.0788 93.2102 46.1994 93.2102 46.2998C93.2102 46.3681 93.2186 46.4244 93.2354 46.4726C93.2605 46.557 93.3065 46.6172 93.4153 46.7217L93.6037 46.9025L93.6623 46.9347L93.6957 46.9226C93.7041 46.9146 93.7083 46.9065 93.7083 46.8945C93.7083 46.8824 93.7041 46.8704 93.6874 46.8543L93.6413 46.798C93.6162 46.7619 93.5576 46.6775 93.5576 46.4806C93.5576 46.4766 93.5576 46.4726 93.5576 46.4645C93.5618 46.2677 93.5911 46.0185 93.6288 45.7011C93.6288 45.7011 93.6413 45.6007 93.6455 45.5725C93.972 45.6007 94.1854 45.5444 94.3487 45.3877C94.4993 45.2431 94.5077 45.0542 94.491 44.9779C94.4533 44.793 94.3235 44.6524 94.2022 44.5319L93.9134 44.2707L93.838 44.1944L93.6455 44.0055C93.6204 43.9814 93.6037 43.9653 93.5827 43.9653Z" fill="white"/>
<path d="M95.1381 46.3079C94.9372 46.4445 94.8409 46.6535 94.82 47.0151L94.8116 47.1718C94.7949 47.441 94.7195 47.5415 94.6065 47.6178C94.4893 47.6941 94.2926 47.6821 94.1587 47.5013C94.0959 47.4129 94.0122 47.2361 94.1629 47.0553C94.1922 47.0191 94.234 46.9789 94.2591 46.9629L94.2968 46.9187L94.2884 46.8825C94.2591 46.8423 94.2006 46.8785 94.1796 46.8905C94.1713 46.8946 93.8657 47.0794 93.8657 47.0794C93.8239 47.1075 93.8071 47.1316 93.8071 47.1638C93.8071 47.1718 93.8071 47.1839 93.8113 47.1959C93.8364 47.3165 93.8867 47.429 93.9871 47.5696C94.0917 47.7142 94.2089 47.8107 94.347 47.8669C94.6107 47.9714 94.82 47.875 94.9204 47.8067C95.1464 47.658 95.2343 47.4571 95.2594 47.0352L95.2636 46.9388C95.2762 46.6454 95.3264 46.5611 95.4185 46.5008C95.4771 46.4606 95.544 46.4445 95.611 46.4566C95.6863 46.4687 95.7617 46.5209 95.8161 46.5972C95.9124 46.7298 95.8956 46.8303 95.8747 46.8946C95.8496 46.9789 95.7868 47.0352 95.7701 47.0432C95.7198 47.0754 95.724 47.1035 95.7366 47.1236C95.7701 47.1638 95.8245 47.1276 95.8579 47.1075L96.1007 46.9548L96.1384 46.9307C96.1718 46.9066 96.1551 46.8705 96.1509 46.8544C96.1216 46.778 96.0756 46.6696 95.9751 46.5289C95.7533 46.2236 95.4059 46.1311 95.1381 46.3079Z" fill="white"/>
<path d="M96.7177 47.8424C96.6884 47.8544 96.6842 47.8826 96.7051 47.9227L96.7386 48.0071C96.747 48.0433 96.7428 48.0835 96.6507 48.1317L96.1192 48.3848L95.6755 48.5937C95.4286 48.7103 95.2319 48.7987 95.1189 48.8348C95.0435 48.863 95.0059 48.863 94.9808 48.8308L94.9305 48.7545L94.8887 48.7143L94.8594 48.7183C94.8385 48.7263 94.8217 48.7505 94.8468 48.8067L94.9473 48.9956L95.0101 49.1081L95.0645 49.2206L95.1942 49.4898L95.2403 49.538H95.2737L95.2947 49.5139L95.2863 49.4576L95.2319 49.3331C95.211 49.2688 95.2361 49.2407 95.2989 49.2005C95.3993 49.1442 95.596 49.0518 95.8388 48.9353C95.8429 48.9313 96.2908 48.7263 96.2908 48.7263C96.6758 48.5455 96.747 48.5134 96.8265 48.4812C96.9144 48.4451 96.9521 48.4491 96.9897 48.4973L97.0316 48.5656C97.0483 48.6058 97.0776 48.6179 97.1069 48.6018C97.1488 48.5857 97.1195 48.5295 97.1111 48.5134L97.019 48.3366L96.9562 48.2201L96.8014 47.9026C96.7847 47.8745 96.7595 47.8223 96.7177 47.8424Z" fill="white"/>
<path d="M97.5018 49.4606C97.4851 49.4606 97.2172 49.4807 97.1712 49.4928C97.1544 49.4968 97.1084 49.5089 97.121 49.5571C97.1335 49.5932 97.1712 49.5892 97.1837 49.5892L97.2842 49.6053C97.3386 49.6214 97.3721 49.6696 97.4223 49.8223C97.4223 49.8223 97.5311 50.1477 97.5437 50.1839C97.5018 50.1959 96.4597 50.4893 96.4597 50.4893C96.2127 50.5576 95.9993 50.6178 95.8821 50.6379C95.7942 50.654 95.7523 50.65 95.7356 50.6178L95.6979 50.5335L95.6645 50.4852L95.6352 50.4812C95.6142 50.4852 95.5891 50.5053 95.61 50.5656L95.677 50.7705L95.7147 50.8911L95.7482 51.0116L95.8277 51.3009C95.8486 51.3652 95.8863 51.3612 95.8988 51.3572C95.9072 51.3531 95.9281 51.3451 95.9281 51.313C95.9281 51.3049 95.9281 51.2969 95.9239 51.2808L95.8946 51.1482C95.8946 51.1402 95.8946 51.1321 95.8946 51.1281C95.8946 51.0799 95.9281 51.0558 95.9951 51.0277C96.1039 50.9835 96.3174 50.9232 96.5685 50.8509C96.5685 50.8509 97.5018 50.5897 97.6525 50.5455C97.6609 50.5817 97.7362 50.8509 97.7362 50.8509C97.7529 50.9192 97.7655 50.9795 97.7655 51.0277C97.7655 51.104 97.7404 51.1603 97.6943 51.1763L97.665 51.1884C97.6399 51.1964 97.6023 51.2085 97.6023 51.2447C97.6023 51.2487 97.6023 51.2527 97.6064 51.2607C97.619 51.2969 97.665 51.2889 97.6818 51.2848C97.686 51.2848 97.9999 51.2045 97.9999 51.2045C98.0292 51.1964 98.0543 51.1884 98.0627 51.1683L98.0668 51.1402L98.0543 51.1121C98.0375 51.0799 98.0041 51.0196 97.9664 50.8991L97.6525 49.8705L97.5855 49.6093V49.5249V49.4848C97.573 49.4566 97.5269 49.4606 97.5018 49.4606Z" fill="white"/>
<path d="M98.1032 51.8521C98.1032 51.8762 98.0948 51.9204 98.0781 51.9565C98.0529 52.0088 97.986 52.0851 97.8981 52.1534C97.76 52.2619 97.1824 52.6758 97.1405 52.6959C97.061 52.7401 97.0066 52.7682 96.8601 52.7802L96.6299 52.8003L96.3495 52.8164C96.2951 52.8164 96.224 52.8084 96.2114 52.7642L96.1905 52.6758L96.1695 52.6235L96.1402 52.6155C96.09 52.6195 96.0942 52.6758 96.0984 52.6999L96.1235 52.9008L96.1402 53.0374L96.1486 53.1619L96.1695 53.4472C96.1737 53.4794 96.1821 53.4995 96.1947 53.5115L96.2281 53.5196L96.2574 53.5075L96.27 53.4512V53.3186C96.2742 53.2584 96.3077 53.2303 96.3955 53.2142L96.6718 53.182C96.676 53.182 96.902 53.1579 96.902 53.1579C96.9941 53.1499 97.0778 53.1419 97.1782 53.174C97.2954 53.2061 97.9902 53.5236 98.1115 53.6039C98.1911 53.6562 98.2245 53.6803 98.258 53.7325C98.2831 53.7687 98.2957 53.8169 98.2999 53.837C98.3082 53.9053 98.3459 53.9053 98.3585 53.9053C98.3878 53.9013 98.4045 53.8772 98.4003 53.8289L98.3627 53.5396L98.3459 53.2865C98.3459 53.2664 98.3375 53.2182 98.2915 53.2222C98.258 53.2262 98.2538 53.2624 98.2497 53.2905C98.2455 53.3186 98.2329 53.3307 98.2036 53.3347C98.1701 53.3387 98.1199 53.3307 98.0655 53.3106C98.0195 53.2986 97.8353 53.2182 97.6553 53.1419C97.5047 53.0776 97.3624 53.0173 97.2954 52.9892C97.3247 52.9691 97.3582 52.945 97.3582 52.945C97.5465 52.8164 97.9902 52.515 98.0529 52.4789C98.0781 52.4628 98.1157 52.4427 98.1367 52.4427C98.145 52.4427 98.1618 52.4467 98.1659 52.4588L98.1701 52.4708C98.1827 52.503 98.1911 52.5311 98.2245 52.5311L98.2538 52.515L98.2664 52.4628L98.2455 52.2659L98.2329 52.1735L98.2162 51.9565L98.2078 51.832L98.1827 51.7717L98.1534 51.7637C98.1325 51.7878 98.099 51.7958 98.1032 51.8521Z" fill="white"/>
<path d="M69.4274 54.0991C69.4274 61.9905 76.1114 68.4073 84.3272 68.4073C92.543 68.4073 99.227 61.9905 99.227 54.0991C99.227 46.2117 92.543 39.7949 84.3272 39.7949C76.1114 39.7949 69.4274 46.2117 69.4274 54.0991ZM69.6157 54.0991C69.6157 46.3122 76.216 39.9757 84.3272 39.9757C92.4426 39.9757 99.0387 46.3122 99.0387 54.0991C99.0387 61.89 92.4384 68.2265 84.3272 68.2265C76.216 68.2225 69.6157 61.886 69.6157 54.0991Z" fill="white"/>
<path d="M77.0164 55.6904C77.3303 57.0726 77.9581 58.6878 79.2095 60.2428L84.303 55.3529L89.4092 60.2589C90.669 58.6999 91.3009 57.0766 91.6148 55.6904C89.2501 55.2444 86.8101 55.0073 84.3114 55.0073C81.8169 55.0073 79.3769 55.2444 77.0164 55.6904Z" fill="#003671"/>
<path d="M91.9394 47.31C91.9394 47.31 87.5322 47.4546 84.322 44.9434C81.1119 47.4546 76.7047 47.31 76.7047 47.31C76.7047 47.31 76.7047 50.7534 76.7047 52.5736C76.7047 53.1281 76.7089 54.0884 76.9307 55.2536C79.3206 54.8036 81.7899 54.5665 84.322 54.5665C86.8542 54.5665 89.3235 54.8036 91.7175 55.2536C91.9394 54.0884 91.9436 53.1281 91.9436 52.5696C91.9394 50.7534 91.9394 47.31 91.9394 47.31Z" fill="#003671"/>
<path d="M80.4504 61.5552C81.4507 62.4713 82.7189 63.3312 84.3219 64.0705H84.3303C85.9291 63.3352 87.1888 62.4794 88.1891 61.5713L84.3135 57.8506L80.4504 61.5552Z" fill="#003671"/>
<path d="M79.1986 60.242C79.5544 60.684 79.9645 61.1219 80.4291 61.5479L84.2922 57.8432L88.1678 61.5639C88.6324 61.138 89.0425 60.7 89.3983 60.2581L84.2922 55.3521L79.1986 60.242Z" fill="white"/>
<path d="M76.9261 55.2554C76.9554 55.396 76.9847 55.5447 77.0182 55.6933C79.3788 55.2514 81.8188 55.0143 84.3175 55.0143C86.8161 55.0143 89.2562 55.2514 91.6209 55.6974C91.6544 55.5487 91.6837 55.4041 91.713 55.2594C89.3231 54.8094 86.8496 54.5723 84.3175 54.5723C81.7895 54.5683 79.3202 54.8054 76.9261 55.2554Z" fill="white"/>
<path d="M78.008 51.2761C78.008 51.2761 78.1838 51.2922 78.3429 51.2118C78.4475 51.1596 78.6191 51.0591 78.7154 51.1556V50.1631C78.6651 50.1269 78.594 50.1189 78.4224 50.1872C78.4224 50.1872 78.1964 50.2796 78.0038 50.2957C78.0038 50.2957 77.9578 50.2997 77.9578 50.3519L77.9452 51.1957C77.9452 51.1957 77.9369 51.2801 78.008 51.2761Z" fill="white"/>
<path d="M79.2142 51.2134C79.3732 51.2938 79.549 51.2777 79.549 51.2777C79.6202 51.2817 79.6118 51.1974 79.6118 51.1974L79.5951 50.3536C79.5951 50.2973 79.549 50.2973 79.549 50.2973C79.3565 50.2853 79.1305 50.1888 79.1305 50.1888C78.9631 50.1205 78.8877 50.1245 78.8375 50.1647V51.1572C78.9422 51.0607 79.1096 51.1612 79.2142 51.2134Z" fill="white"/>
<path d="M79.8983 51.5425L79.8439 50.5983C79.8397 50.546 79.8104 50.5059 79.8104 50.5059C79.8104 50.5059 79.7643 50.4335 79.735 50.4094C79.7309 50.4054 79.7183 50.4014 79.7099 50.4094C79.6974 50.4215 79.7016 50.4536 79.7016 50.4536L79.7225 51.3095C79.7225 51.3095 79.7267 51.3898 79.6723 51.4019C79.6723 51.4019 79.4881 51.4501 79.2328 51.3657C79.2328 51.3657 79.0989 51.3135 79.0403 51.2813C78.9942 51.2572 78.8436 51.209 78.7808 51.3979C78.718 51.205 78.5673 51.2572 78.5213 51.2813C78.4585 51.3135 78.3288 51.3657 78.3288 51.3657C78.0735 51.4541 77.8893 51.4019 77.8893 51.4019C77.8307 51.3938 77.8391 51.3095 77.8391 51.3095L77.86 50.4536C77.86 50.4536 77.86 50.4215 77.8516 50.4094C77.8433 50.4014 77.8349 50.4054 77.8265 50.4094C77.7972 50.4335 77.747 50.5059 77.747 50.5059C77.747 50.5059 77.7219 50.546 77.7177 50.5983L77.6633 51.5425C77.6633 51.5425 77.6549 51.6389 77.7428 51.6309L78.5255 51.5224C78.5255 51.5224 78.6217 51.4983 78.6427 51.5626C78.6427 51.5626 78.6678 51.6349 78.7808 51.6349C78.8896 51.6349 78.9147 51.5626 78.9147 51.5626C78.9398 51.5023 79.0361 51.5224 79.0361 51.5224L79.8188 51.6309C79.9066 51.6389 79.8983 51.5425 79.8983 51.5425Z" fill="white"/>
<path d="M84.3188 54.0619C82.3475 54.0619 80.7487 52.5311 80.7487 50.6386C80.7487 48.7501 82.3475 47.2192 84.3188 47.2192C86.2901 47.2192 87.8889 48.7501 87.8889 50.6386C87.8889 52.5271 86.2901 54.0619 84.3188 54.0619ZM84.3146 48.8907C83.3059 48.8907 82.4898 49.6743 82.4898 50.6426C82.4898 51.6109 83.3059 52.3945 84.3146 52.3945C85.3191 52.3945 86.1394 51.6109 86.1394 50.6426C86.1394 49.6743 85.3191 48.8907 84.3146 48.8907Z" fill="white"/>
<path d="M82.7481 60.8101C82.6895 60.8503 82.3924 61.0351 82.384 61.0432C82.3673 61.0512 82.3589 61.0673 82.3589 61.0834C82.3589 61.1034 82.3756 61.1235 82.3924 61.1235L82.4217 61.1155L82.4719 61.0954C82.5054 61.0793 82.5807 61.0472 82.5975 61.0472C82.5975 61.0512 82.5975 61.0793 82.5975 61.0793V61.2802V61.5213L82.5933 61.8629C82.5891 61.9071 82.5807 61.9151 82.5472 61.9231L82.4259 61.9312C82.4091 61.9312 82.3924 61.9432 82.3924 61.9673C82.3924 61.9834 82.4007 61.9995 82.4426 61.9995L82.6393 61.9954H82.7146H82.7816L82.9783 61.9995C83.016 61.9995 83.0244 61.9794 83.0244 61.9673C83.0244 61.9432 83.0076 61.9312 82.9867 61.9312L82.8862 61.9231C82.8528 61.9151 82.8444 61.9071 82.8402 61.8629L82.836 61.5213V61.2401L82.8444 60.8664V60.8423C82.8444 60.7941 82.8151 60.79 82.8067 60.79L82.7481 60.8101Z" fill="white"/>
<path d="M83.4492 61.6933C83.4492 61.5446 83.5496 61.4642 83.6166 61.4241C83.7463 61.4964 83.8593 61.5647 83.8593 61.7013C83.8593 61.8259 83.7756 61.9102 83.6584 61.9102C83.5412 61.9062 83.4492 61.8138 83.4492 61.6933ZM83.2859 61.0825C83.2859 61.2232 83.3947 61.3075 83.491 61.3598C83.3236 61.4361 83.2231 61.5567 83.2231 61.7013C83.2231 61.8982 83.3906 62.0228 83.6417 62.0228C83.9347 62.0228 84.0853 61.8419 84.0853 61.6651C84.0853 61.4803 83.9305 61.3839 83.8216 61.3276C83.8928 61.2955 84.0309 61.2071 84.0309 61.0464C84.0309 60.8897 83.8928 60.7932 83.6835 60.7932C83.3947 60.7852 83.2859 60.962 83.2859 61.0825ZM83.4952 61.0504C83.4952 60.9781 83.5412 60.8897 83.6668 60.8897C83.7421 60.8897 83.8175 60.9379 83.8175 61.0504C83.8175 61.1709 83.7463 61.2272 83.6877 61.2553C83.5496 61.183 83.4952 61.1307 83.4952 61.0504Z" fill="white"/>
<path d="M84.5442 61.6933C84.5442 61.5446 84.6447 61.4642 84.7075 61.4241C84.8414 61.4964 84.9502 61.5647 84.9502 61.7013C84.9502 61.8259 84.8665 61.9102 84.7493 61.9102C84.6363 61.9062 84.5442 61.8138 84.5442 61.6933ZM84.381 61.0825C84.381 61.2232 84.4898 61.3075 84.5861 61.3598C84.4187 61.4361 84.3182 61.5567 84.3182 61.7013C84.3182 61.8982 84.4815 62.0228 84.7368 62.0228C85.0256 62.0228 85.1804 61.8419 85.1804 61.6651C85.1804 61.4803 85.0256 61.3839 84.9167 61.3276C84.9921 61.2955 85.1218 61.2071 85.1218 61.0464C85.1218 60.8897 84.9879 60.7932 84.7744 60.7932C84.4898 60.7852 84.381 60.962 84.381 61.0825ZM84.5903 61.0504C84.5903 60.9781 84.6363 60.8897 84.7619 60.8897C84.8372 60.8897 84.9126 60.9379 84.9126 61.0504C84.9126 61.1709 84.8414 61.2272 84.7786 61.2553C84.6447 61.183 84.5903 61.1307 84.5903 61.0504Z" fill="white"/>
<path d="M86.0848 60.801L85.9802 60.809H85.5909C85.5491 60.809 85.5407 60.8331 85.5407 60.8492L85.5031 61.251C85.5031 61.2671 85.5072 61.2992 85.5491 61.3033C85.6579 61.3153 85.93 61.4037 85.93 61.6408C85.93 61.8296 85.8002 61.8979 85.6914 61.8979C85.5616 61.8979 85.4989 61.8377 85.4989 61.7171C85.4989 61.6769 85.4779 61.6689 85.4612 61.6689C85.4319 61.6689 85.4235 61.7051 85.4193 61.7131L85.4152 61.8899V61.91C85.4152 61.9421 85.4193 61.9703 85.457 61.9903C85.4947 62.0104 85.5533 62.0185 85.6161 62.0185C85.9927 62.0185 86.1602 61.7854 86.1602 61.5684C86.1602 61.3073 85.8965 61.1707 85.637 61.1265C85.6412 61.0983 85.6495 61.0059 85.6537 60.9778C85.6872 60.9778 85.9216 60.9778 85.9216 60.9778C86.0388 60.9778 86.0388 61.0099 86.0388 61.0381C86.0388 61.0782 86.0681 61.0782 86.0764 61.0782C86.0974 61.0782 86.1099 61.0622 86.1141 61.0421L86.135 60.8452C86.135 60.8291 86.135 60.793 86.0974 60.793L86.0848 60.801Z" fill="white"/>
<path d="M71.4447 57.5672C71.4447 57.8043 71.6456 58.0012 71.8967 58.0012C72.1437 58.0012 72.3487 57.8083 72.3487 57.5672C72.3487 57.3262 72.1478 57.1333 71.8967 57.1333C71.6456 57.1333 71.4447 57.3262 71.4447 57.5672Z" fill="white"/>
<path d="M97.1744 57.5672C97.1744 57.8043 96.9735 58.0012 96.7224 58.0012C96.4755 58.0012 96.2704 57.8083 96.2704 57.5672C96.2704 57.3262 96.4713 57.1333 96.7224 57.1333C96.9735 57.1333 97.1744 57.3262 97.1744 57.5672Z" fill="white"/>
<path d="M90.3174 51.0423H89.2501C89.2501 51.0423 89.1874 51.0343 89.2125 51.0986L89.2878 51.2432C89.2878 51.2432 89.3004 51.2754 89.3464 51.2754H90.2295C90.2755 51.2754 90.2881 51.2432 90.2881 51.2432L90.3634 51.0986C90.376 51.0343 90.3174 51.0423 90.3174 51.0423Z" fill="white"/>
<path d="M90.1146 51.3907H89.4282C89.4282 51.3907 89.3613 51.3867 89.3864 51.4429L89.4324 51.5353C89.4324 51.5353 89.4492 51.5715 89.491 51.5715H90.0477C90.0937 51.5715 90.1063 51.5394 90.1063 51.5394L90.1607 51.4389C90.1858 51.3867 90.1146 51.3907 90.1146 51.3907Z" fill="white"/>
<path d="M90.0393 51.7615C90.0686 51.6972 89.9974 51.7012 89.9974 51.7012H89.5747C89.5747 51.7012 89.5035 51.6972 89.5328 51.7615L89.6709 52.0387V52.3923C89.6709 52.4325 89.7044 52.4646 89.7421 52.4646H89.8258C89.8635 52.4646 89.897 52.4325 89.897 52.3923V52.0387L90.0393 51.7615Z" fill="white"/>
<path d="M89.7202 50.895C89.7202 50.895 90.1094 50.9191 90.302 50.7463C90.3857 50.67 90.4317 50.5655 90.4108 50.449C90.394 50.3285 90.2685 50.1758 90.1429 50.0593C90.1429 50.0593 89.9671 49.8784 89.9964 49.6454C90.0006 49.6133 89.9588 49.5851 89.8918 49.6253C89.8918 49.6253 89.2724 50.0271 89.3979 50.5053C89.3979 50.5053 89.2179 50.3124 89.3812 50.0472C89.3895 50.0352 89.377 50.003 89.3226 50.0432C89.2682 50.0834 89.0129 50.3405 89.2431 50.67C89.2431 50.674 89.3812 50.8669 89.7202 50.895Z" fill="white"/>
<path d="M85.0356 65.4517C85.0356 65.4758 85.0356 66.1026 85.0356 66.1026H84.8556C84.8556 66.1026 84.8556 65.4758 84.8556 65.4517C84.8305 65.4517 84.4203 65.4517 84.3952 65.4517C84.3952 65.4677 84.3952 65.4918 84.3952 65.5079C84.4413 65.5079 84.4831 65.5802 84.4831 65.6606C84.4831 65.6606 84.4831 66.4401 84.4831 67.0669C84.2571 67.0669 83.5289 67.0669 83.5289 67.0669V65.8093C83.5289 65.8093 84.1357 65.8093 84.1609 65.8093C84.1609 65.7852 84.1609 65.536 84.1609 65.5119C84.1357 65.5119 83.0643 65.5119 83.0392 65.5119C83.0392 65.524 83.0392 65.5481 83.0392 65.5642C83.0852 65.5642 83.1313 65.6405 83.1313 65.7209C83.1313 65.7209 83.1313 67.3401 83.1313 67.3642C83.1522 67.3642 84.2069 67.3642 84.4789 67.3642C84.4789 67.6334 84.4789 67.8263 84.4789 67.8343C84.5041 67.8343 84.8263 67.8343 84.8514 67.8343C84.8514 67.8102 84.8514 66.3999 84.8514 66.3999H85.0314C85.0314 66.3999 85.0314 67.8102 85.0314 67.8343C85.0565 67.8343 85.4039 67.8343 85.429 67.8343C85.429 67.8102 85.429 65.4758 85.429 65.4517C85.4374 65.4517 85.0649 65.4517 85.0356 65.4517Z" fill="white"/>
<path d="M95.6124 61.883C95.2943 61.6299 94.1015 60.6776 94.0848 60.6655C94.0848 60.6655 92.8543 62.0879 92.8375 62.108C92.8585 62.1241 93.0593 62.2808 93.0761 62.2968C93.0928 62.2768 94.068 61.1477 94.068 61.1477C94.068 61.1477 95.0683 61.9473 95.3571 62.1763C95.2483 62.3009 95.1646 62.4013 95.1646 62.4013C95.1646 62.4013 94.5117 61.883 94.4907 61.8669C94.474 61.887 94.2647 62.1321 94.248 62.1482C94.2689 62.1643 94.9218 62.6826 94.9218 62.6826L94.7921 62.8312C94.7921 62.8312 94.1392 62.3129 94.1182 62.2968C94.1015 62.3169 93.8546 62.6062 93.8378 62.6223C93.8504 62.6344 93.8671 62.6464 93.8797 62.6545C93.909 62.6183 93.9969 62.6384 94.0638 62.6866L94.5703 63.0884C94.5703 63.0884 94.3024 63.3978 94.2857 63.4179C94.3024 63.4339 94.5075 63.5947 94.5242 63.6067C94.541 63.5866 95.9933 61.9071 96.01 61.887C95.9933 61.875 95.7882 61.7142 95.7714 61.6982C95.7589 61.7102 95.6961 61.7866 95.6124 61.883Z" fill="white"/>
<path d="M79.7491 64.6064C79.7408 64.6306 78.7237 66.7481 78.7112 66.7722C78.7321 66.7802 79.0502 66.9208 79.0711 66.9329C79.0795 66.9088 80.0965 64.7873 80.1091 64.7672C80.1091 64.7672 79.7743 64.6145 79.7491 64.6064Z" fill="white"/>
<path d="M79.1982 64.3643C79.1899 64.3763 79.1815 64.3964 79.1731 64.4125C79.215 64.4285 79.2233 64.5169 79.1857 64.5893L78.9931 64.9911C78.9931 64.9911 78.6374 64.8344 78.6123 64.8223C78.6039 64.8424 78.4951 65.0714 78.4825 65.0915C78.5035 65.1036 78.8592 65.2603 78.8592 65.2603C78.8592 65.2603 78.244 66.542 78.2356 66.5621C78.2565 66.5702 78.5328 66.6947 78.5579 66.7068C78.5704 66.6827 79.5833 64.5611 79.5958 64.5411C79.5958 64.5411 79.2192 64.3723 79.1982 64.3643Z" fill="white"/>
<path d="M78.1701 65.0288L78.1575 65.0047L78.1659 64.9966C78.4421 64.7957 78.6472 64.5466 78.7937 64.2453C78.7728 64.2332 78.2957 64.0243 78.2705 64.0122C78.2664 64.0243 78.2538 64.0484 78.2496 64.0604C78.2538 64.0644 78.3543 64.1368 78.2664 64.3136C78.2622 64.3256 77.9818 64.9122 77.1405 65.1774C77.1489 65.2015 77.2284 65.3864 77.2368 65.4024C77.241 65.4024 77.5172 65.3703 77.898 65.1654L77.9106 65.1573L77.919 65.1694C77.9734 65.2819 78.0613 65.4507 78.145 65.8846C78.1785 65.8685 78.4547 65.7158 78.4714 65.7078C78.4212 65.531 78.3166 65.2899 78.1701 65.0288Z" fill="white"/>
<path d="M89.3751 66.4473C89.4002 66.4353 90.8734 65.7562 90.8734 65.7562C90.8734 65.7562 91.0952 66.1982 91.1036 66.2183C91.1287 66.2102 91.4426 66.0616 91.4635 66.0535C91.451 66.0335 91.1078 65.3424 91.0952 65.3223C91.0701 65.3343 89.2621 66.166 89.2369 66.1781C89.2495 66.1982 89.3667 66.4232 89.3751 66.4473Z" fill="white"/>
<path d="M90.4027 63.9072C90.3818 63.9193 89.9842 64.1001 89.9633 64.1081C89.9674 64.1202 89.98 64.1443 89.9884 64.1563C90.0302 64.1363 90.1014 64.1885 90.139 64.2608C90.139 64.2608 90.6497 65.2854 90.6622 65.3055C90.6831 65.2975 90.997 65.1488 91.0221 65.1408C91.0096 65.1207 90.8254 64.747 90.8254 64.747C90.8254 64.747 91.1561 64.5943 91.177 64.5863C91.1645 64.5662 91.0682 64.3653 91.0556 64.3452C91.0305 64.3532 90.7041 64.5099 90.7041 64.5099C90.7041 64.5099 90.4153 63.9313 90.4027 63.9072Z" fill="white"/>
<path d="M88.7651 65.5507C88.9116 65.848 89.3217 65.9605 89.6733 65.7998C90.0249 65.6351 90.1881 65.2654 90.0416 64.9641C89.9663 64.8154 89.824 64.7109 89.6566 64.6667C89.8114 64.5944 89.916 64.5462 89.9244 64.5422C89.916 64.5221 89.803 64.2971 89.7905 64.2729C89.7654 64.285 89.2882 64.506 89.2882 64.506C89.2882 64.506 89.2087 64.3453 89.1962 64.3252C89.1962 64.3252 88.7776 64.518 88.7567 64.5261C88.7609 64.5381 88.7734 64.5622 88.7818 64.5743C88.8153 64.5582 88.8823 64.5984 88.9199 64.6587L88.9283 64.6707C88.9283 64.6707 88.4177 64.9078 88.3926 64.9199C88.4009 64.9399 88.514 65.1649 88.5265 65.185C88.5349 65.185 88.6311 65.1368 88.7693 65.0766C88.6939 65.2252 88.6897 65.398 88.7651 65.5507ZM89.5603 65.5708C89.3887 65.6511 89.1752 65.5748 89.0873 65.398C88.9995 65.2252 89.0706 65.0203 89.2464 64.9399C89.418 64.8596 89.6314 64.9359 89.7151 65.1087C89.803 65.2855 89.7319 65.4904 89.5603 65.5708Z" fill="white"/>
<path d="M73.7906 62.1036C73.7906 62.1036 73.4851 61.7701 73.4683 61.75C73.4558 61.758 73.439 61.7741 73.4265 61.7862C73.4558 61.8183 73.4265 61.9027 73.3637 61.9549C73.3637 61.9549 72.941 62.3085 72.92 62.3246C72.9368 62.3447 74.1505 63.6827 74.1673 63.7028C74.1882 63.6867 74.3849 63.522 74.4017 63.5059C74.3849 63.4858 73.4139 62.417 73.4139 62.417C73.4139 62.417 73.7739 62.1197 73.7906 62.1036Z" fill="white"/>
<path d="M74.5556 62.1895C74.6686 62.3141 74.8905 62.5592 74.8905 62.5592C74.8905 62.5592 74.4217 62.9489 74.405 62.969C74.4217 62.9891 74.6519 63.2382 74.6686 63.2583C74.6896 63.2423 75.9996 62.1453 76.0205 62.1253C76.0038 62.1052 75.7192 61.7918 75.7024 61.7717C75.6899 61.7797 75.6731 61.7958 75.6606 61.8078C75.6899 61.84 75.6606 61.9203 75.5978 61.9766L75.5266 62.0369C75.5266 62.0369 75.2253 61.7074 75.1583 61.631C75.1793 61.4382 75.1165 61.2333 74.9658 61.0685C74.6938 60.7712 74.2417 60.727 73.9571 60.964C73.6725 61.2011 73.66 61.6391 73.932 61.9364C74.0911 62.1172 74.3296 62.2056 74.5556 62.1895ZM75.2881 62.2297L75.1248 62.3663C75.1248 62.3663 74.9867 62.2137 74.8737 62.0891C74.8947 62.077 74.9156 62.061 74.9365 62.0449C74.97 62.0168 75.0035 61.9846 75.0286 61.9485C75.1374 62.065 75.2881 62.2297 75.2881 62.2297ZM74.1999 61.2333C74.3673 61.0926 74.61 61.1007 74.744 61.2493C74.8779 61.398 74.8528 61.631 74.6854 61.7677C74.518 61.9043 74.2752 61.9002 74.1413 61.7516C74.0074 61.6029 74.0325 61.3699 74.1999 61.2333Z" fill="white"/>
<path d="M142.588 45.5703C142.588 45.5703 140.801 45.5703 140.679 45.5703C140.679 45.6909 140.679 48.7044 140.679 48.7044H139.817C139.817 48.7044 139.817 45.6909 139.817 45.5703C139.696 45.5703 137.725 45.5703 137.607 45.5703C137.607 45.6386 137.607 45.7511 137.607 45.8234C137.829 45.8234 138.039 46.1851 138.039 46.5708C138.039 46.5708 138.039 50.3116 138.039 53.3171C136.967 53.3171 133.472 53.3171 133.472 53.3171V47.278C133.472 47.278 136.385 47.278 136.511 47.278C136.511 47.1655 136.511 45.9641 136.511 45.8516C136.385 45.8516 131.258 45.8516 131.129 45.8516C131.129 45.9199 131.129 46.0324 131.129 46.1047C131.35 46.1047 131.564 46.4663 131.564 46.8521C131.564 46.8521 131.564 54.6109 131.564 54.7354C131.673 54.7354 136.724 54.7354 138.039 54.7354C138.039 56.0292 138.039 56.9574 138.039 56.9976C138.156 56.9976 139.7 56.9976 139.817 56.9976C139.817 56.873 139.817 50.1147 139.817 50.1147H140.679C140.679 50.1147 140.679 56.873 140.679 56.9976C140.797 56.9976 142.471 56.9976 142.588 56.9976C142.588 56.873 142.588 45.6909 142.588 45.5703Z" fill="#666665"/>
<path d="M168.626 55.0022C168.626 53.1057 168.626 45.9737 168.626 45.8652H168.622C168.622 45.8652 159.385 45.8652 159.259 45.8652C159.259 45.9777 159.259 47.1751 159.259 47.2876C159.389 47.2876 166.713 47.2876 166.713 47.2876C166.713 47.2876 166.713 53.2785 166.713 55.0022C165.872 55.0022 165.19 55.0022 165.19 55.0022C165.19 55.0022 165.19 51.1047 165.19 50.9842C165.073 50.9842 163.487 50.9842 163.369 50.9842C163.369 51.1047 163.369 55.0022 163.369 55.0022H162.336C162.336 55.0022 162.336 51.1047 162.336 50.9842C162.214 50.9842 160.331 50.9842 160.209 50.9842C160.209 51.0525 160.209 51.165 160.209 51.2373C160.431 51.2373 160.641 51.599 160.641 51.9847V55.0022C160.641 55.0022 158.749 55.0022 158.623 55.0022C158.623 55.1147 158.623 56.3161 158.623 56.4286C158.753 56.4286 169.652 56.4286 169.781 56.4286C169.781 56.3161 169.781 55.1147 169.781 55.0022C169.739 55.0022 169.258 55.0022 168.626 55.0022Z" fill="#666665"/>
<path d="M128.705 45.5703C128.709 45.6949 128.709 56.873 128.709 56.9976C128.588 56.9976 126.918 56.9976 126.801 56.9976C126.801 56.873 126.801 45.6949 126.801 45.5703C126.918 45.5703 128.705 45.5703 128.705 45.5703Z" fill="#666665"/>
<path d="M126.002 45.5704C126.002 45.695 126.002 56.8731 126.002 56.9977C125.885 56.9977 124.332 56.9977 124.215 56.9977C124.215 56.8731 124.215 50.1148 124.215 50.1148C124.215 50.1148 122.44 50.1148 122.319 50.1148C122.319 50.0063 122.319 48.817 122.319 48.7045C122.44 48.7045 124.215 48.7045 124.215 48.7045V46.5669C124.215 46.1812 124.006 45.8195 123.784 45.8195C123.784 45.7512 123.784 45.6387 123.784 45.5664C123.905 45.5704 126.002 45.5704 126.002 45.5704Z" fill="#666665"/>
<path d="M121.759 45.8483C121.759 47.4595 121.378 48.9301 120.596 50.3404L120.571 50.3886L120.671 50.465C121.855 51.3168 122.814 52.1726 123.383 52.8758C123.333 52.9441 122.446 54.1294 122.337 54.2741C121.064 52.5262 120.34 51.9597 119.863 51.582L119.809 51.5378L119.767 51.594C118.549 53.2213 117.398 53.8964 117.385 53.9044C117.385 53.9044 117.385 53.9044 117.381 53.9044C117.314 53.8441 116.586 53.1731 116.498 53.0928C119.608 50.3203 119.6 47.2264 119.6 47.1662C119.6 46.234 119.022 46.1054 118.997 46.0974C118.997 46.0371 118.997 45.9166 118.997 45.8442C119.118 45.8483 121.638 45.8483 121.759 45.8483Z" fill="#666665"/>
<path d="M155.901 53.0812C155.901 53.2017 155.901 56.8541 155.901 56.9746C155.784 56.9746 154.11 56.9746 153.989 56.9746C153.989 56.8541 153.989 54.5076 153.989 54.5076C153.989 54.5076 146.141 54.5076 146.011 54.5076C146.011 54.3951 146.011 53.1897 146.011 53.0771C146.141 53.0812 155.772 53.0812 155.901 53.0812Z" fill="#666665"/>
<path d="M155.905 45.5454C155.905 45.666 155.905 48.6835 155.905 48.6835C155.905 48.6835 157.658 48.6835 157.78 48.6835C157.78 48.792 157.78 49.9853 157.78 50.0938C157.658 50.0938 155.905 50.0938 155.905 50.0938C155.905 50.0938 155.905 51.9863 155.905 52.1028C155.788 52.1028 154.113 52.1028 153.992 52.1028C153.992 51.9783 153.992 46.5419 153.992 46.5419C153.992 46.1562 153.783 45.7945 153.561 45.7945C153.561 45.7262 153.561 45.6137 153.561 45.5454C153.682 45.5454 155.783 45.5454 155.905 45.5454Z" fill="#666665"/>
<path d="M149.806 44.9521C149.81 45.0606 149.81 45.9205 149.81 45.9205C149.81 45.9205 152.355 45.9205 152.48 45.9205C152.48 46.033 152.48 47.2344 152.48 47.3469C152.351 47.3469 145.173 47.3469 145.043 47.3469C145.043 47.2344 145.043 46.033 145.043 45.9205C145.169 45.9205 147.893 45.9205 147.893 45.9205L147.885 45.8522C147.851 45.5026 147.659 45.2053 147.466 45.2053C147.466 45.137 147.466 45.0245 147.466 44.9521C147.592 44.9521 149.806 44.9521 149.806 44.9521Z" fill="#666665"/>
<path d="M145.296 49.4291C145.296 47.8902 146.815 46.6406 148.686 46.6406C150.557 46.6406 152.076 47.8902 152.076 49.4291C152.076 50.968 150.557 52.2176 148.686 52.2176C146.815 52.2176 145.296 50.968 145.296 49.4291ZM147.18 49.3407C147.18 50.2689 147.853 51.0203 148.686 51.0203C149.515 51.0203 150.193 50.2649 150.193 49.3407C150.193 48.4166 149.519 47.6612 148.686 47.6612C147.858 47.6612 147.18 48.4126 147.18 49.3407Z" fill="#666665"/>
<path d="M107.707 53.1988C107.711 53.3194 107.711 55.4811 107.711 55.4811C107.711 55.4811 114.788 55.4811 114.918 55.4811C114.918 55.5936 114.918 56.795 114.918 56.9035C114.788 56.9035 105.932 56.9035 105.802 56.9035C105.802 56.7829 105.802 54.1953 105.802 54.1953C105.802 53.8096 105.593 53.448 105.371 53.448C105.371 53.3797 105.371 53.2671 105.371 53.1948C105.493 53.1988 107.707 53.1988 107.707 53.1988Z" fill="#666665"/>
<path d="M114.756 45.5669C114.756 45.6915 114.756 53.6954 114.756 53.8199C114.639 53.8199 112.965 53.8199 112.848 53.8199C112.848 53.6994 112.848 50.8466 112.848 50.8466C112.848 50.8466 110.056 50.8466 109.931 50.8466C109.931 50.7341 109.931 49.5327 109.931 49.4202C110.056 49.4202 112.848 49.4202 112.848 49.4202V48.4317C112.848 48.4317 110.194 48.4317 110.069 48.4317C110.069 48.3192 110.069 47.1179 110.069 47.0094C110.194 47.0094 112.848 47.0094 112.848 47.0094V46.5674C112.848 46.1817 112.639 45.82 112.417 45.82C112.417 45.7517 112.417 45.6392 112.417 45.5709C112.534 45.5669 114.635 45.5669 114.756 45.5669Z" fill="#666665"/>
<path d="M103.877 49.0391C103.877 47.2792 105.484 45.8447 107.456 45.8447C109.427 45.8447 111.034 47.2751 111.034 49.0391C111.034 50.799 109.427 52.2294 107.456 52.2294C105.48 52.2294 103.877 50.799 103.877 49.0391ZM105.79 49.031C105.79 50.0717 106.535 50.9195 107.456 50.9195C108.372 50.9195 109.121 50.0717 109.121 49.031C109.121 47.9904 108.376 47.1425 107.456 47.1425C106.535 47.1425 105.79 47.9904 105.79 49.031Z" fill="#666665"/>
</svg>
