<svg width="240" height="109" viewBox="0 0 240 109" fill="none" xmlns="http://www.w3.org/2000/svg">
<rect y="0.386719" width="240" height="108.387" rx="10" fill=""/>
<path d="M73.0843 49.6043C73.3255 49.3287 73.5666 49.0531 73.825 48.7947C75.8232 46.7965 77.8041 44.7984 79.8023 42.8174C81.0426 41.5772 82.9374 41.5599 84.1777 42.783C84.5222 43.1275 84.7806 43.5926 85.0906 44.0232C85.3318 43.9543 85.6591 43.8509 85.9691 43.7993C87.9846 43.4548 89.8277 44.9189 89.9483 46.9688V47.2789V57.6832C89.9483 59.1474 89.087 60.2498 87.7262 60.5427C86.1242 60.87 84.5222 59.6469 84.4877 58.0105C84.4533 56.2879 84.4705 54.5826 84.4705 52.8428V46.0042V45.4702C84.3155 45.608 84.2121 45.6769 84.1432 45.763C82.2484 47.6578 80.4052 49.5182 78.5448 51.3786C77.2012 52.7394 75.2547 52.7394 73.8939 51.3786C73.6355 51.1202 73.3771 50.8446 73.0671 50.5173C72.8259 50.7757 72.6192 51.0341 72.378 51.258C71.8957 51.7403 71.3445 52.1193 70.6555 52.2571C69.6219 52.4638 68.7262 52.1537 67.9855 51.4647C67.0381 50.5862 66.1423 49.656 65.2294 48.7603C64.213 47.744 63.2139 46.7276 62.1976 45.7286C61.612 45.1429 60.9402 44.7984 60.1478 44.6433C59.9066 44.5917 59.8033 44.6606 59.7171 44.8845C59.1142 46.3487 59.4415 48.0196 60.5784 49.1565C62.7661 51.3614 64.971 53.5663 67.1931 55.7884L69.8631 58.4584C71.1895 59.7847 71.6201 61.8174 70.8966 63.54C70.1387 65.3314 68.4678 66.4339 66.5213 66.3822C66.2629 66.3822 66.0906 66.4511 65.9184 66.6406C64.1958 68.6043 61.1985 68.7938 59.3037 66.9851C57.4261 65.1764 55.6174 63.2988 53.7743 61.4729C53.4297 61.1284 53.068 60.7666 52.7235 60.4221C51.7588 59.423 51.7588 57.8727 52.7235 56.9253C53.6881 55.9606 55.2212 55.9434 56.2203 56.908C57.7534 58.4239 59.252 59.9398 60.7851 61.4729C61.8014 62.4892 62.8005 63.5055 63.8168 64.5046C64.2992 64.9869 64.8676 65.3487 65.5222 65.5381C65.7634 65.607 65.8667 65.5381 65.9701 65.3314C66.7108 63.7983 66.4007 62.0241 65.1605 60.7666C63.2656 58.8373 61.3536 56.9253 59.4415 54.996C58.3735 53.9108 57.2538 52.86 56.2031 51.7576C53.6364 49.1909 54.7561 45.0223 58.2185 44.0577C58.5113 43.9715 58.8558 43.9715 59.1659 43.9026C59.3037 43.8682 59.476 43.7993 59.5621 43.6959C61.3363 41.3532 64.5576 41.1121 66.6419 43.1964C68.709 45.229 70.7588 47.2789 72.8087 49.346C72.8776 49.4149 72.9465 49.4838 73.0843 49.6043ZM66.6074 65.7104H66.883C69.0879 65.5381 70.8794 63.5055 70.4315 61.025C70.2593 60.0948 69.7425 59.3713 69.1051 58.734C66.1079 55.7539 63.1278 52.7566 60.1478 49.7594C59.097 48.6914 58.5975 47.4339 58.7525 45.918C58.7869 45.5046 58.9075 45.074 58.9936 44.6606C58.6664 44.6089 58.0462 44.7811 57.5467 45.0568C55.2212 46.3487 54.7906 49.4321 56.7026 51.3614C59.6654 54.3586 62.6455 57.3387 65.6256 60.336C66.6246 61.3351 67.0897 62.5581 66.9692 63.9878C66.9175 64.539 66.7452 65.0903 66.6074 65.7104ZM85.1251 51.5508V57.8899C85.1251 59.1991 86.417 60.1637 87.6917 59.8364C88.6564 59.5953 89.2593 58.7857 89.2593 57.7349V49.5354C89.2593 48.7086 89.2765 47.899 89.242 47.0894C89.1731 45.1429 87.1922 43.8854 85.4524 44.6778C85.2112 44.7811 85.1251 44.9189 85.1251 45.2118C85.1423 47.3133 85.1251 49.4321 85.1251 51.5508ZM65.3499 66.2961C65.1949 66.2099 65.1605 66.1927 65.1088 66.1755C64.2647 65.8999 63.5929 65.3659 62.99 64.7458C60.5956 62.3341 58.184 59.9053 55.7724 57.5109C54.9973 56.7358 53.9121 56.7013 53.1886 57.4248C52.4479 58.1483 52.4651 59.2507 53.223 60.0087C55.359 62.1619 57.4778 64.2979 59.631 66.4339C61.0952 67.8808 63.3345 67.967 64.9193 66.6406C65.0399 66.52 65.1605 66.4339 65.3499 66.2961ZM60.2339 43.9715C61.4225 44.1955 62.2838 44.85 63.0589 45.6424C64.6954 47.3305 66.349 48.967 68.0199 50.6207C68.3128 50.9135 68.6917 51.1891 69.0535 51.413C69.6564 51.7576 70.2937 51.7576 70.9311 51.4647C71.5857 51.1719 72.0163 50.6207 72.5158 50.1211C72.4642 50.0522 72.4297 50.0005 72.3953 49.9661C70.2765 47.8129 68.1577 45.6597 66.0045 43.5409C64.4714 42.0595 61.9909 42.1628 60.5267 43.6787C60.4234 43.7476 60.3717 43.8337 60.2339 43.9715ZM73.4805 50.1039C73.7733 50.3623 74.0317 50.5518 74.2212 50.7929C75.3236 52.0332 77.0118 51.9815 78.1487 50.8101C80.1468 48.7431 82.2139 46.7276 84.2293 44.6778C84.2982 44.6089 84.3499 44.4194 84.3155 44.316C83.9193 43.0069 82.4723 42.2834 81.1976 42.7657C80.8531 42.9035 80.4914 43.1447 80.233 43.4203C78.5448 45.0912 76.874 46.7621 75.2031 48.4502C74.6518 48.967 74.0834 49.501 73.4805 50.1039Z" fill="black"/>
<path d="M87.1589 67.9498C85.5225 67.9498 84.2478 66.6406 84.2478 65.0042C84.2478 63.3677 85.5397 62.0758 87.1589 62.0586C88.8126 62.0586 90.1045 63.3677 90.1045 65.0386C90.1045 66.6406 88.7954 67.9498 87.1589 67.9498ZM87.1934 62.7648C85.9704 62.7648 84.9541 63.7467 84.9541 64.9697C84.9541 66.21 85.9531 67.2435 87.1762 67.2435C88.3992 67.2435 89.4327 66.21 89.4327 64.987C89.45 63.7812 88.4337 62.7821 87.1934 62.7648Z" fill="black"/>
<path d="M98.8637 49.7122C98.5224 49.7122 98.1811 49.678 97.874 49.5756C97.5669 49.5074 97.2938 49.405 97.0891 49.2685C96.8843 49.132 96.7137 49.0296 96.5772 48.9272C96.4407 48.8249 96.3383 48.7225 96.27 48.6201L96.9184 47.9375C97.4645 48.4836 98.1129 48.7566 98.8637 48.7566C99.3073 48.7566 99.6145 48.6883 99.8192 48.5518C100.024 48.4153 100.126 48.2106 100.126 48.0058C100.126 47.9375 100.126 47.8693 100.092 47.8352C100.058 47.801 100.058 47.7328 100.024 47.6987C99.9899 47.6645 99.9558 47.6304 99.9216 47.5963C99.8875 47.5621 99.8534 47.528 99.7851 47.4939C99.7169 47.4598 99.6827 47.4256 99.6486 47.4256C99.6145 47.4256 99.5804 47.3915 99.478 47.3574C99.3756 47.3233 99.3415 47.3233 99.3073 47.2891C99.2732 47.2891 99.205 47.255 99.1367 47.255C99.0343 47.2209 99.0002 47.2209 98.9661 47.2209C98.8637 47.1867 98.693 47.1526 98.4883 47.0844C98.2835 47.0502 98.0788 46.982 97.9423 46.9479C97.7716 46.9137 97.6351 46.8455 97.4645 46.7772C96.8161 46.5042 96.4748 46.0605 96.4748 45.4463C96.4748 45.105 96.5772 44.832 96.8161 44.559C97.0208 44.3201 97.328 44.1153 97.6351 44.0129C97.9422 43.9105 98.3176 43.8423 98.693 43.8423C99.1367 43.8423 99.5462 43.9105 99.9558 44.0471C100.365 44.1836 100.707 44.3883 100.98 44.6272L100.502 45.378C99.9558 44.9685 99.3756 44.7637 98.7272 44.7637C98.3859 44.7637 98.0788 44.832 97.8399 44.9344C97.601 45.0367 97.4986 45.2074 97.4986 45.4463C97.4986 45.651 97.601 45.7875 97.7716 45.924C97.9423 46.0606 98.2835 46.1629 98.7613 46.2653C99.4438 46.4018 99.9558 46.5725 100.229 46.7431C100.809 47.0502 101.082 47.4939 101.082 48.1082C101.082 48.3812 101.014 48.6542 100.877 48.8931C100.741 49.132 100.57 49.3026 100.331 49.4391C100.092 49.5756 99.8534 49.678 99.6145 49.7463C99.3756 49.678 99.1367 49.7122 98.8637 49.7122Z" fill="black"/>
<path d="M106.983 43.8774H107.939V49.6108H106.949V45.6179L105.106 48.1433L103.263 45.5838V49.6108H102.273V43.8774H103.195L105.106 46.5394L106.983 43.8774Z" fill="black"/>
<path fill-rule="evenodd" clip-rule="evenodd" d="M102.293 58.5201L102.07 58.7334C101.458 59.3191 100.767 59.7334 99.7083 59.7334C97.989 59.7334 96.7122 58.4009 96.7122 56.7294V56.7143C96.7122 55.0681 97.9865 53.6953 99.7239 53.6953C100.787 53.6953 101.436 54.0836 102.031 54.6127L102.264 54.8195L101.555 55.5249L101.349 55.3314C100.91 54.9197 100.434 54.6349 99.7161 54.6349C98.5819 54.6349 97.7173 55.5263 97.7173 56.6993V56.7143C97.7173 57.8947 98.5973 58.7937 99.7239 58.7937C100.413 58.7937 100.88 58.5452 101.394 58.054L101.595 57.862L102.293 58.5201ZM107.725 53.7857V57.1135C107.725 57.9296 107.479 58.5909 107.019 59.0484C106.56 59.5052 105.922 59.7258 105.203 59.7258C104.491 59.7258 103.854 59.5073 103.394 59.0591C102.933 58.6095 102.68 57.9594 102.68 57.1587V53.7857H103.67V57.121C103.67 57.6894 103.827 58.0989 104.079 58.3646C104.329 58.6282 104.705 58.7862 105.218 58.7862C105.713 58.7862 106.082 58.6421 106.328 58.3912C106.574 58.1397 106.735 57.7419 106.735 57.1587V53.7857H107.725ZM112.928 59.643H108.745V53.7857H109.735V58.6958H112.928V59.643ZM117.251 54.7328H115.356V59.643H114.366V54.7328H112.471V53.7857H117.251V54.7328ZM122.933 53.7857V57.1135C122.933 57.9296 122.687 58.5909 122.227 59.0484C121.769 59.5052 121.13 59.7258 120.411 59.7258C119.699 59.7258 119.062 59.5073 118.602 59.0591C118.141 58.6095 117.888 57.9594 117.888 57.1587V53.7857H118.878V57.121C118.878 57.6894 119.035 58.0989 119.287 58.3646C119.537 58.6282 119.913 58.7862 120.426 58.7862C120.921 58.7862 121.29 58.6421 121.536 58.3912C121.782 58.1397 121.943 57.7419 121.943 57.1587V53.7857H122.933ZM129.282 59.643H128.02L126.288 57.459H124.943V59.643H123.954V53.7857H126.53C127.166 53.7857 127.719 53.9528 128.121 54.2666C128.529 54.5846 128.765 55.0432 128.765 55.5772V55.5922C128.765 56.1162 128.561 56.5425 128.214 56.8497C127.989 57.0495 127.711 57.1928 127.403 57.2857L129.282 59.643ZM134.138 59.643H129.645V53.7857H134.099V54.7328H130.635V56.2182H133.233V57.1653H130.635V58.6958H134.138V59.643ZM142.018 59.2232L141.24 59.8486L140.326 58.9331C139.815 59.4253 139.209 59.7183 138.481 59.7183C137.405 59.7183 136.518 59.0306 136.518 57.9569C136.518 57.1887 137.005 56.6417 137.732 56.2905C137.469 55.9512 137.318 55.6201 137.318 55.1931C137.318 54.3164 138.047 53.6953 138.97 53.6953C139.818 53.6953 140.514 54.3182 140.514 55.1404C140.514 55.5597 140.352 55.9069 140.069 56.1824C139.889 56.3571 139.664 56.5001 139.408 56.6191L140.271 57.478C140.276 57.4649 140.283 57.4477 140.293 57.4241C140.316 57.3674 140.349 57.2865 140.403 57.1629L140.479 56.9869H141.509L141.319 57.4018C141.259 57.5325 141.218 57.6296 141.186 57.7081C141.179 57.7274 141.171 57.7465 141.163 57.7653C141.142 57.8193 141.121 57.8707 141.1 57.9173C141.062 58.0026 141.022 58.0778 140.962 58.1675L142.018 59.2232ZM149.945 58.5201L149.722 58.7334C149.11 59.3191 148.42 59.7334 147.36 59.7334C145.641 59.7334 144.364 58.4009 144.364 56.7294V56.7143C144.364 55.0681 145.639 53.6953 147.376 53.6953C148.439 53.6953 149.088 54.0836 149.683 54.6127L149.916 54.8195L149.208 55.5249L149.001 55.3314C148.562 54.9197 148.086 54.6349 147.368 54.6349C146.234 54.6349 145.369 55.5263 145.369 56.6993V56.7143C145.369 57.8947 146.249 58.7937 147.376 58.7937C148.065 58.7937 148.532 58.5452 149.046 58.054L149.247 57.862L149.945 58.5201ZM162.05 59.643H161.316L157.918 55.4868V59.643H156.944V53.7857H157.756L161.076 57.8444V53.7857H162.05V59.643ZM167.551 54.7328H165.655V59.643H164.666V54.7328H162.77V53.7857H167.551V54.7328ZM172.767 59.643H168.273V53.7857H172.728V54.7328H169.263V56.2182H171.861V57.1653H169.263V58.6958H172.767V59.643ZM178.662 59.643H177.927L174.529 55.4868V59.643H173.555V53.7857H174.367L177.688 57.8444V53.7857H178.662V59.643ZM184.162 54.7328H182.267V59.643H181.277V54.7328H179.382V53.7857H184.162V54.7328ZM186.978 56.2313C187.623 56.3587 188.126 56.5417 188.471 56.8236C188.834 57.1203 189 57.5079 189 57.972V57.9871C189 59.0596 188.048 59.7183 186.905 59.7183C185.958 59.7183 185.223 59.4095 184.523 58.8034L184.297 58.6081L184.956 57.8754L185.174 58.07C185.727 58.5643 186.211 58.7787 186.928 58.7787C187.658 58.7787 188.01 58.3992 188.01 58.0247V58.0097C188.01 57.7974 187.959 57.6725 187.817 57.5603C187.645 57.4252 187.319 57.294 186.709 57.175L186.709 57.1749C186.043 57.0442 185.527 56.8617 185.175 56.5766C184.803 56.2753 184.639 55.8804 184.639 55.404V55.3889C184.639 54.3863 185.573 53.7104 186.68 53.7104C187.542 53.7104 188.125 53.9461 188.724 54.4122L188.963 54.5979L188.325 55.3654L188.1 55.1766C187.642 54.7932 187.196 54.65 186.664 54.65C185.952 54.65 185.629 55.0283 185.629 55.3512V55.3663C185.629 55.58 185.679 55.7087 185.827 55.826C186.004 55.9664 186.34 56.1048 186.978 56.2313ZM127.444 56.2584C127.655 56.1046 127.775 55.8894 127.775 55.6073V55.5922C127.775 55.327 127.672 55.1274 127.482 54.9852C127.282 54.8356 126.961 54.7328 126.507 54.7328H124.943V56.5194H126.484C126.894 56.5194 127.225 56.4185 127.444 56.2584ZM139.321 55.6011C139.463 55.4677 139.524 55.3247 139.524 55.1554C139.524 54.8512 139.291 54.6123 138.954 54.6123C138.544 54.6123 138.307 54.8775 138.307 55.178C138.307 55.3722 138.365 55.5398 138.728 55.9328C139.002 55.8325 139.195 55.7196 139.321 55.6011ZM138.382 56.9854L139.656 58.2627C139.293 58.61 138.907 58.7937 138.488 58.7937C137.878 58.7937 137.507 58.4027 137.507 57.9419C137.507 57.6238 137.717 57.2494 138.382 56.9854ZM156.079 56.7675C156.053 58.3338 154.845 59.7334 153.045 59.7334C151.224 59.7334 150.025 58.3168 150.025 56.7294V56.7143C150.025 55.1268 151.239 53.6953 153.06 53.6953C154.861 53.6953 156.053 55.0804 156.079 56.6461C156.083 56.6646 156.086 56.6849 156.086 56.7068C156.086 56.7287 156.083 56.749 156.079 56.7675ZM153.06 58.7937C154.231 58.7937 155.075 57.8823 155.075 56.7294V56.7143C155.075 55.5616 154.216 54.6349 153.045 54.6349C151.874 54.6349 151.03 55.5464 151.03 56.6993V56.7143C151.03 57.8671 151.89 58.7937 153.06 58.7937Z" fill="black"/>
</svg>
