<svg width="240" height="109" viewBox="0 0 240 109" fill="none" xmlns="http://www.w3.org/2000/svg">
<rect width="240" height="108.387" rx="10" fill=""/>
<g clip-path="url(#clip0_2572_64273)">
<path d="M162.628 38.417C160.462 36.4835 157.643 35.4126 154.719 35.4126C151.795 35.4126 148.976 36.4835 146.81 38.417C145.779 39.3352 144.954 40.456 144.39 41.7073C143.825 42.9586 143.534 44.3125 143.534 45.6816C143.534 47.0507 143.825 48.4046 144.39 49.6559C144.954 50.9072 145.779 52.0281 146.81 52.9462C148.972 54.8877 151.793 55.9639 154.719 55.9639C157.645 55.9639 160.466 54.8877 162.628 52.9462C163.66 52.0281 164.484 50.9072 165.049 49.6559C165.613 48.4046 165.904 47.0507 165.904 45.6816C165.904 44.3125 165.613 42.9586 165.049 41.7073C164.484 40.456 163.66 39.3352 162.628 38.417ZM154.019 54.7915C153.425 54.7478 152.837 54.653 152.26 54.5081C151.457 54.2457 150.699 53.868 150.008 53.3871C151.302 52.9492 152.652 52.6968 154.019 52.6376V54.7915ZM154.019 51.5796C152.308 51.6458 150.62 51.9906 149.023 52.5998C148.87 52.4613 148.716 52.3101 148.575 52.159C148.033 51.5884 147.565 50.9538 147.181 50.2696C149.433 49.8186 151.721 49.5656 154.019 49.5139V51.5796ZM154.019 48.2669C151.537 48.3062 149.063 48.5718 146.631 49.0604C146.275 48.1482 146.059 47.1887 145.991 46.2138H154.019V48.2669ZM154.019 45.055H146.023C146.092 44.0842 146.308 43.129 146.663 42.2209C149.085 42.7025 151.548 42.9577 154.019 42.983V45.055ZM154.019 41.7423C151.738 41.7089 149.464 41.475 147.226 41.0432C147.6 40.3833 148.053 39.77 148.575 39.2168C148.742 39.0405 148.921 38.8705 149.1 38.7004C150.673 39.2914 152.336 39.6212 154.019 39.6766V41.7423ZM154.019 38.6375C152.688 38.5796 151.373 38.3379 150.111 37.9195C151.273 37.1388 152.618 36.66 154.019 36.5277V38.6375ZM155.407 36.5151C156.811 36.6502 158.158 37.1333 159.321 37.9195C158.057 38.3379 156.739 38.5796 155.407 38.6375V36.5151ZM155.407 39.6955C157.091 39.6348 158.753 39.2985 160.326 38.7004C160.505 38.8705 160.684 39.0405 160.857 39.2168C161.377 39.7702 161.828 40.3834 162.2 41.0432C159.961 41.4753 157.688 41.7093 155.407 41.7423V39.6955ZM155.407 43.0019C157.878 42.9696 160.341 42.7082 162.763 42.2209C163.115 43.1298 163.331 44.0846 163.402 45.055H155.413L155.407 43.0019ZM157.166 54.5081C156.589 54.6534 156 54.7483 155.407 54.7915V52.6376C156.775 52.6962 158.128 52.9486 159.424 53.3871C158.732 53.8609 157.973 54.2322 157.172 54.4892L157.166 54.5081ZM160.857 52.159C160.709 52.3101 160.556 52.4613 160.402 52.5998C158.806 51.9899 157.118 51.6451 155.407 51.5796V49.5328C157.705 49.57 159.995 49.8082 162.251 50.2444C161.868 50.9292 161.402 51.5657 160.863 52.1401L160.857 52.159ZM162.775 49.0604C160.343 48.5715 157.87 48.3058 155.388 48.2669V46.2138H163.421C163.358 47.1814 163.149 48.1343 162.801 49.0415L162.775 49.0604Z" fill="#0072BD"/>
<path d="M91.5004 68.1933C88.4174 68.1933 86.652 66.2284 86.6456 62.8086C86.6038 62.0566 86.7146 61.3039 86.9716 60.5946C87.2286 59.8852 87.6266 59.2334 88.1423 58.6772C88.5928 58.2447 89.1263 57.905 89.7117 57.6779C90.2971 57.4508 90.9226 57.3409 91.5516 57.3547C94.5067 57.3547 96.3489 59.4204 96.3489 62.7456C96.3489 64.5405 95.8628 65.9387 94.8969 66.8833C93.9804 67.7375 92.7623 68.2073 91.5004 68.1933ZM91.5004 59.3322C91.3422 59.3307 91.1854 59.3606 91.0392 59.4201C90.8931 59.4796 90.7606 59.5675 90.6497 59.6786C90.0101 60.3084 89.8693 61.6939 89.8693 62.7456C89.8693 65.0633 90.4258 66.1969 91.5516 66.1969C91.6883 66.1984 91.8238 66.1718 91.9494 66.1186C92.075 66.0655 92.1879 65.987 92.2808 65.8883C92.9204 65.2585 93.0483 63.8352 93.0483 62.7393C93.0483 61.6435 92.9204 59.3322 91.526 59.3322H91.5004Z" fill="#0072BD"/>
<path d="M105.464 68.1178C104.543 68.0611 103.583 67.7084 103.583 66.4615V61.4232C103.583 60.2077 103.104 59.5338 102.214 59.5338C101.575 59.5338 100.641 60.0124 100.641 61.5617V68.017H97.366V60.6485C97.366 59.9054 97.2765 57.8775 97.2637 57.5311H100.072L100.232 58.7529H100.289V58.7151C100.691 58.2741 101.184 57.924 101.737 57.6892C102.289 57.4543 102.886 57.3402 103.487 57.3547C105.707 57.3547 106.845 58.671 106.845 61.2594V68.017C106.387 68.1122 105.918 68.1461 105.451 68.1178" fill="#0072BD"/>
<path d="M152.618 68.1176C151.703 68.0609 150.737 67.7083 150.737 66.4613C150.737 65.2143 150.737 61.4734 150.737 61.423C150.737 60.2075 150.251 59.5336 149.362 59.5336C148.723 59.5336 147.789 60.0123 147.789 61.5615V68.0168H144.514V60.6483C144.514 59.9052 144.418 57.8773 144.405 57.5309H147.213L147.373 58.7527H147.431V58.7149C147.831 58.2725 148.324 57.9216 148.877 57.6866C149.429 57.4517 150.027 57.3383 150.629 57.3546C152.848 57.3546 153.987 58.6708 153.987 61.2592V68.0168C153.527 68.1122 153.055 68.1461 152.586 68.1176" fill="#0072BD"/>
<path d="M111.911 72.3877C110.863 72.321 109.823 72.1629 108.803 71.9153C108.889 71.5138 109.002 71.1183 109.142 70.7313C109.308 70.3031 109.73 70.1015 110.421 70.1834C110.88 70.2629 111.343 70.3092 111.809 70.322C112.145 70.3423 112.482 70.2972 112.8 70.1891C113.119 70.081 113.412 69.9122 113.664 69.6922C113.905 69.4045 114.085 69.0728 114.195 68.7161C114.305 68.3593 114.342 67.9847 114.304 67.6139V66.8833H114.252V66.9274C113.961 67.2682 113.593 67.5381 113.178 67.7161C112.763 67.8941 112.312 67.9755 111.86 67.954C108.943 67.954 107.901 65.3277 107.901 62.8716C107.809 61.2579 108.368 59.6739 109.455 58.4631C109.808 58.107 110.229 57.8246 110.696 57.6331C111.162 57.4415 111.662 57.3447 112.167 57.3483C112.644 57.3299 113.119 57.4304 113.546 57.6407C113.973 57.851 114.339 58.1642 114.611 58.5512V58.5953H114.655L114.841 57.5247H117.674C117.674 57.5247 117.559 59.2755 117.559 60.8122V66.9022C117.559 69.0876 117.092 70.3786 116.024 71.2226C114.817 72.0626 113.355 72.4714 111.879 72.3814L111.911 72.3877ZM112.96 59.5652C112.768 59.561 112.577 59.5958 112.398 59.6673C112.22 59.7388 112.059 59.8455 111.924 59.9809C111.284 60.6106 111.118 61.8702 111.118 62.8023C111.118 64.7295 111.758 65.882 112.884 65.882C113.153 65.892 113.418 65.8183 113.642 65.6713C113.866 65.5243 114.037 65.3115 114.131 65.0632C114.243 64.7804 114.3 64.479 114.297 64.1752V61.316C114.297 61.0373 114.249 60.7607 114.156 60.4973C114.086 60.2422 113.935 60.0155 113.726 59.8493C113.517 59.6832 113.26 59.586 112.992 59.5715L112.96 59.5652Z" fill="#0072BD"/>
<path d="M123.265 68.1494C122.677 68.2228 122.081 68.084 121.588 67.7587C121.096 67.4335 120.739 66.9436 120.585 66.3797C120.361 65.7059 118.269 58.5578 117.969 57.5627H121.244L123.003 64.3203H123.073C123.073 64.3203 124.064 60.0252 124.41 58.69C124.755 57.3549 125.529 57.4305 126.278 57.4305C126.591 57.4382 126.904 57.4719 127.212 57.5312L128.971 64.2826H129.073L130.672 57.5438H133.953L130.877 68.0172C130.67 68.0814 130.453 68.1092 130.237 68.0991C129.367 68.0991 127.819 68.1998 127.32 66.2097C126.77 64.0684 125.958 61.1714 125.958 61.1714H125.875L124.218 68.0172C123.905 68.0847 123.586 68.1227 123.265 68.1306" fill="#0072BD"/>
<path d="M138.61 68.1931C135.527 68.1931 133.755 66.2281 133.755 62.8084C133.712 62.0568 133.822 61.3044 134.078 60.5951C134.334 59.8857 134.731 59.2337 135.245 58.677C135.697 58.2457 136.23 57.9067 136.816 57.6797C137.401 57.4527 138.026 57.3421 138.655 57.3544C141.623 57.3544 143.458 59.4201 143.458 62.7454C143.511 63.4958 143.41 64.2489 143.16 64.9598C142.911 65.6707 142.518 66.3248 142.006 66.8831C141.09 67.7373 139.872 68.2071 138.61 68.1931ZM138.61 59.332C138.452 59.3305 138.295 59.3604 138.149 59.4199C138.003 59.4794 137.87 59.5673 137.759 59.6784C137.12 60.3081 136.979 61.6937 136.979 62.7454C136.979 65.063 137.535 66.1966 138.667 66.1966C138.803 66.1977 138.938 66.1708 139.062 66.1177C139.187 66.0645 139.298 65.9863 139.39 65.8881C140.062 65.2583 140.158 63.6334 140.158 62.7391C140.183 61.7189 140.03 59.332 138.667 59.332H138.61Z" fill="#0072BD"/>
<path d="M74 66.1274V53.6828C75.4711 53.4907 76.957 53.4317 78.4391 53.5065C83.3643 53.8465 85.8845 57.1151 85.8845 61.1962C85.8845 63.8979 84.6052 68.1805 77.8506 68.1805C74.8315 68.1805 74.0128 67.2799 74.0128 66.1337L74 66.1274ZM77.2622 55.9689V64.6222C77.2622 64.9875 77.2174 65.7873 78.4135 65.7873C80.0574 65.7873 82.2513 64.6789 82.2513 61.1962C82.2513 59.458 81.3303 56.2397 78.5414 55.9374C78.1158 55.8854 77.6846 55.896 77.2622 55.9689Z" fill="#0072BD"/>
</g>
<defs>
<clipPath id="clip0_2572_64273">
<rect width="91.9032" height="37" fill="white" transform="translate(74 35.3877)"/>
</clipPath>
</defs>
</svg>
