<svg width="240" height="109" viewBox="0 0 240 109" fill="none" xmlns="http://www.w3.org/2000/svg">
<rect y="0.386719" width="240" height="108.387" rx="10" fill=""/>
<g clip-path="url(#clip0_2572_64789)">
<path fill-rule="evenodd" clip-rule="evenodd" d="M68.1437 49.1294C68.0882 49.672 68.0882 50.2191 68.1437 50.7617C68.9341 54.2842 72.2725 53.7423 74.5992 53.6132V51.2197C74.4538 50.1745 75.1872 49.1294 76.0914 49.1294H80.1507V50.6713H77.4635V55.7035H74.6182C72.7656 55.7035 69.4525 56.4519 66.8918 53.6132C65.8928 55.3423 63.9707 56.3294 59.9873 56.1939V54.1036C63.389 54.381 64.9823 52.852 65.4186 50.7939C65.5323 50.2516 65.5728 49.6959 65.5387 49.1423L68.1437 49.1294ZM64.8179 64.6713H77.4635V57.381H61.941V62.5745C61.941 63.6196 63.3637 64.6713 64.7926 64.6713H64.8179ZM64.8179 59.3229H74.6435V62.5487H64.8179V59.3229Z" fill="#231916"/>
<path fill-rule="evenodd" clip-rule="evenodd" d="M109.45 56.7938C105.024 56.7938 102.774 54.7487 102.843 52.7745C102.913 50.9229 105.056 49.1165 109.45 49.0713C114.211 49.0713 116.058 50.8648 115.988 52.7358C115.912 54.7229 113.345 56.7744 109.45 56.7938ZM109.501 55.1551C107.256 55.2132 105.707 54.1229 105.6 53.0067C105.492 51.8906 106.82 50.7551 109.501 50.7164C111.859 50.7164 113.389 51.839 113.472 52.9487C113.554 54.0584 112.169 55.1745 109.501 55.1551ZM117.721 50.6971V56.8003H120.357V51.0713H122.987V49.1358H118.998C118.634 49.1981 118.303 49.3895 118.063 49.6762C117.824 49.963 117.691 50.3268 117.689 50.7035L117.721 50.6971ZM118.505 57.9615H104.531V59.897H117.721V64.6647H120.357V59.6067C120.496 58.8583 119.643 58.1099 118.505 57.9615Z" fill="#231916"/>
<path fill-rule="evenodd" clip-rule="evenodd" d="M125.245 58.858V60.8903C135.791 61.1806 136.474 53.3419 136.366 49.9871C136.366 49.3935 136.031 49.1032 135.614 49.129H125.649V51.4387H133.799C133.844 57.1741 128.861 59.3161 125.245 58.858ZM138.719 49.129H141.526V64.6709H138.719V49.129Z" fill="#231916"/>
<path fill-rule="evenodd" clip-rule="evenodd" d="M96.7797 49.1293H99.4099V56.4519H96.7797V49.1293ZM88.6991 56.7938C84.1151 56.7938 81.7441 54.7487 81.8263 52.7745C81.8958 50.9229 84.1278 49.1165 88.6991 49.0713C93.6499 49.0713 95.5657 50.8648 95.4961 52.7358C95.4203 54.7229 92.7457 56.7744 88.6991 56.7938ZM88.756 55.1551C86.4166 55.2132 84.8106 54.1229 84.6968 53.0067C84.583 51.8906 85.9614 50.7551 88.756 50.7164C91.2029 50.7164 92.7963 51.839 92.8785 52.9487C92.9607 54.0584 91.5254 55.1745 88.756 55.1551ZM97.4752 57.9615H83.5082V59.897H96.6975V64.6647H99.3277V59.6067C99.4731 58.8583 98.6196 58.1099 97.4752 57.9615Z" fill="#231916"/>
<path fill-rule="evenodd" clip-rule="evenodd" d="M156.283 57.0324C160.113 52.9236 163.432 48.3495 166.166 43.4131C167.102 41.2905 163.763 39.5422 162.733 41.897C161.727 45.9873 158.907 52.284 155.967 56.6453C155.664 57.1291 155.967 57.3291 156.283 57.0324ZM152.983 61.5485C159.641 57.8711 166.185 51.8711 168.96 48.8453C170.193 47.2905 167.696 44.3292 165.799 46.6002C163.068 50.955 156.587 58.5227 152.629 61.1485C152.249 61.4452 152.527 61.7936 152.983 61.5485ZM150.694 64.1936C157.915 61.8575 164.881 58.7703 171.483 54.9808C173.93 53.3743 171.483 49.3486 168.954 51.2905C166.02 54.1227 160.886 58.8065 150.542 63.7613C150.011 63.9871 150.258 64.3097 150.707 64.1936H150.694ZM148.222 66.5355C158.338 65.0001 168.998 62.542 174.253 61.3227C177.199 60.413 176.105 55.2711 172.299 56.6388C164.667 60.7279 156.584 63.8727 148.222 66.0065C147.589 66.1936 147.735 66.5678 148.222 66.5355ZM145.465 67.6452C157.598 67 173.159 63.7743 176.56 62.9872C180.702 62.2904 181.125 67.9355 177.724 68.2839H145.528H60.4299V67.6387L145.465 67.6452Z" fill="#942343"/>
</g>
<defs>
<clipPath id="clip0_2572_64789">
<rect width="120" height="27.5676" fill="white" transform="translate(60 40.7744)"/>
</clipPath>
</defs>
</svg>
