<svg width="240" height="109" viewBox="0 0 240 109" fill="none" xmlns="http://www.w3.org/2000/svg">
<rect y="0.386719" width="240" height="108.387" rx="10" fill=""/>
<g clip-path="url(#clip0_2572_64579)">
<path d="M82.1994 49.71H78V64.0732H82.1994V49.71Z" fill="#286EF2"/>
<path d="M78 43.9995V49.1239L83.1244 43.9995H78Z" fill="#286EF2"/>
<path d="M99.4196 55.1953C99.3379 51.5 97.0846 50.1797 95.3514 49.7108C94.7066 49.5344 94.0402 49.4498 93.3718 49.4595C92.5978 49.4274 91.8265 49.5688 91.1143 49.8734C90.4021 50.178 89.767 50.6381 89.2556 51.22V49.7076H85.0547V64.0757H89.2556V55.7538C89.2556 52.4778 92.1955 52.7307 92.1955 52.7307C94.9321 52.6587 95.1994 54.8576 95.2186 55.4865V64.0757H99.4196V55.6562C99.4228 55.4977 99.4228 55.3457 99.4196 55.1953Z" fill="#286EF2"/>
<path d="M116.641 55.1952C116.56 51.5 114.305 50.1797 112.573 49.7108C111.928 49.5344 111.261 49.4498 110.592 49.4595C109.818 49.4275 109.047 49.569 108.335 49.8736C107.623 50.1782 106.989 50.6382 106.478 51.2199V49.7076H102.277V64.0757H106.478V55.7538C106.478 52.4778 109.417 52.7307 109.417 52.7307C112.154 52.6586 112.42 54.8575 112.441 55.4865V64.0757H116.641V55.6561C116.645 55.4977 116.645 55.3457 116.641 55.1952Z" fill="#286EF2"/>
<path d="M126.967 48.8716C122.603 48.9548 119.078 51.613 118.902 56.9358C119.078 62.2586 122.603 64.9169 126.967 65.0001C131.333 64.9169 134.859 62.2586 135.035 56.9358C134.859 51.613 131.333 48.9548 126.967 48.8716ZM126.967 61.1352C124.826 61.1352 123.176 59.7077 123.091 56.9358C123.176 54.164 124.826 52.7365 126.967 52.7365C129.109 52.7365 130.76 54.164 130.845 56.9358C130.76 59.7077 129.109 61.1352 126.967 61.1352Z" fill="#286EF2"/>
<path d="M137.472 64.4108C138.592 64.4108 139.5 63.503 139.5 62.3831C139.5 61.2633 138.592 60.3555 137.472 60.3555C136.352 60.3555 135.445 61.2633 135.445 62.3831C135.445 63.503 136.352 64.4108 137.472 64.4108Z" fill="#286EF2"/>
<path d="M156.116 43.9995V57.9323L146.486 43.9995H141.501V64.0745H145.953V50.569L155.287 64.0745H160.568V45.427L161.997 43.9995H156.116Z" fill="#286EF2"/>
</g>
<defs>
<clipPath id="clip0_2572_64579">
<rect width="84" height="21" fill="white" transform="translate(78 43.9995)"/>
</clipPath>
</defs>
</svg>
