<svg width="200" height="91" viewBox="0 0 200 91" fill="none" xmlns="http://www.w3.org/2000/svg">
<path d="M51.7173 41.5477C51.7173 46.5129 45.3686 45.7042 45.3686 45.7042V50.5538H43V37.7379C46.0588 37.4491 51.7173 36.5825 51.7173 41.5477ZM45.3078 39.4133V43.6275C45.3078 43.6275 49.4064 44.6096 49.4064 41.5508C49.4064 38.492 45.3078 39.4133 45.3078 39.4133Z" fill="#77787B"/>
<path d="M60.2031 39.7624L60.8386 38.1448C60.8386 38.1448 54.1433 35.4327 53.1612 40.857C53.1612 40.857 52.3524 43.1101 56.2778 44.8979C56.2778 44.8979 59.2788 45.7067 58.9322 47.4368C58.5855 49.1699 54.42 49.1121 53.5048 47.8412L52.8115 49.9756C52.8115 49.9756 59.449 52.8033 61.2977 47.8412C61.2977 47.8412 62.1643 44.7824 59.221 43.5114C59.221 43.5114 55.2957 42.5293 55.6423 40.9148C55.6423 40.9148 55.8156 38.4307 60.2031 39.7594V39.7624Z" fill="#77787B"/>
<path d="M73.1341 48.2436L75.2108 50.5544H72.5564L71.4588 49.5723C69.8412 51.5334 66.4358 50.7855 66.4358 50.7855C60.3182 47.4348 65.9159 43.2236 65.9159 43.2236C64.2405 40.5115 65.627 38.7206 65.627 38.7206C67.0713 36.2395 72.0334 37.106 72.0334 39.9337C72.0334 42.7615 69.2057 43.628 69.2057 43.628L71.6899 46.4557C72.7297 46.1669 72.9608 43.3969 72.9608 43.3969H75.0953C75.0953 45.9358 73.1341 48.2436 73.1341 48.2436ZM70.2486 48.128L67.1898 44.5493C67.1898 44.5493 64.9368 45.6469 66.2655 48.2436C66.2655 48.2436 68.3453 50.0922 70.2486 48.128ZM69.7865 40.5662C69.8442 38.9486 68.5733 38.8908 68.5733 38.8908C67.129 39.0064 67.129 40.4476 67.129 40.4476C67.0135 41.7763 68.1111 42.4118 68.1111 42.4118C69.7287 42.0652 69.7834 40.5631 69.7834 40.5631L69.7865 40.5662Z" fill="#77787B"/>
<path d="M77.2876 50.5529L78.2119 37.6792H81.3285L84.1592 47.0319L87.1025 37.6792H90.1613L90.9701 50.4951H88.6593L88.2579 40.2789L84.965 50.3218H82.8883L80.1153 40.3944L79.4829 50.4951L77.2876 50.5529Z" fill="#77787B"/>
<path d="M93.7409 43.4529L93.221 41.8962C93.221 41.8962 95.1274 40.8563 97.0308 40.9719C97.0308 40.9719 100.263 40.9141 100.436 44.204L100.494 50.5557H98.4173V49.4003C98.4173 49.4003 97.4352 50.7259 95.1274 50.7259C95.1274 50.7259 92.5308 50.3215 92.5308 48.0138C92.5308 48.0138 92.1841 44.1462 98.0129 44.3773C98.0129 44.3773 98.4173 42.6472 96.4561 42.5286C96.4561 42.5286 94.1483 42.4708 93.7409 43.4529ZM98.1284 45.9462C98.1284 45.8884 96.8879 46.0344 96.8027 46.0526C96.07 46.1986 95.3828 46.5026 95.021 47.1959C94.6227 47.959 95.3676 48.8195 96.1247 48.929C96.5534 48.9898 96.9791 48.8651 97.3257 48.6097C97.496 48.4851 97.648 48.3269 97.794 48.1749C97.9004 48.0624 98.1284 47.8344 98.1284 47.6641V45.9432V45.9462Z" fill="#77787B"/>
<path d="M105.082 50.5141H102.64V41.2313H104.54V42.8033C104.54 42.8033 106.061 40.5776 107.906 41.1218V43.1833C107.906 43.1833 105.085 42.7485 105.085 45.2448V50.508L105.082 50.5141Z" fill="#77787B"/>
<path d="M111.488 37H109.047V50.5152H111.485V47.5294L112.249 46.6051L114.906 50.4605H117.837L113.985 45.0331L117.348 41.2324H114.581L111.488 45.1426V37Z" fill="#77787B"/>
<path d="M125.49 48.3967L125.76 50.1328C117.891 52.6838 117.782 46.3321 117.782 46.3321C117.782 46.3321 117.402 40.9595 122.285 40.9595C127.168 40.9595 126.356 46.4963 126.356 46.4963H120.007C120.497 50.5129 125.487 48.3967 125.487 48.3967H125.49ZM120.062 45.0308H124.24C124.24 45.0308 124.185 42.4797 122.23 42.4797C120.275 42.4797 120.059 45.0308 120.059 45.0308H120.062Z" fill="#77787B"/>
<path d="M126.956 41.1809H128.26V39.387L130.757 38.7363V41.0167H132.873V43.0265H130.702V47.7485C130.702 47.7485 130.757 48.7793 131.952 48.7793H132.821V50.6249H130.921C130.921 50.6249 128.315 50.786 128.315 48.1286V42.9171H126.959V41.1809H126.956Z" fill="#77787B"/>
<path d="M136.725 41.1831H134.174V50.6271H136.725V41.1831Z" fill="#77787B"/>
<path d="M141.392 50.5117H138.951V41.2867H140.848V42.5911C140.848 42.5911 142.043 40.9097 143.779 40.9097C145.515 40.9097 147.251 42.5911 147.251 43.6766V50.5148H145.026V44.759C145.026 44.759 144.971 42.8039 143.344 42.8039C141.718 42.8039 141.389 44.4854 141.389 44.4854V50.5087L141.392 50.5117Z" fill="#77787B"/>
<path d="M156.044 42.2634V41.2327H158V50.6219C158 50.6219 157.51 56.7 149.75 53.8236L150.131 52.1422C150.131 52.1422 156.373 54.3678 155.722 49.1563C155.722 49.1563 153.496 52.0327 150.62 49.6459C150.21 49.3053 149.86 48.9009 149.583 48.4418C149.145 47.7182 148.905 46.8881 148.884 46.0428C148.854 44.9087 149.151 43.51 149.948 42.6708C150.1 42.5097 150.261 42.3546 150.432 42.2087C151.11 41.6188 151.921 41.1323 152.821 40.9955C154.065 40.807 155.196 41.3999 156.051 42.2665L156.044 42.2634ZM155.628 44.1759C155.628 44.1759 155.011 42.8046 153.655 42.8046C153.655 42.8046 151.538 42.6952 151.268 45.4104C151.268 45.4104 150.888 48.232 153.6 48.6121C153.6 48.6121 155.065 48.8827 155.607 47.2013L155.625 44.1729L155.628 44.1759Z" fill="#77787B"/>
<path d="M134.28 38.6041C134.28 37.9291 134.828 37.3818 135.503 37.3818C136.178 37.3818 136.725 37.9291 136.725 38.6041C136.725 39.2791 136.178 39.8264 135.503 39.8264C134.828 39.8264 134.28 39.2791 134.28 38.6041Z" fill="#77787B"/>
</svg>
