<svg width="240" height="109" viewBox="0 0 240 109" fill="none" xmlns="http://www.w3.org/2000/svg">
<rect width="240" height="108.387" rx="10" fill=""/>
<g clip-path="url(#clip0_2572_64260)">
<path d="M90.021 51.6148L97.8773 43.4199L98.6786 42.6064V39.6772H83.6174V43.4193H92.0772L84.2539 51.6148L83.2258 52.5627V55.3587H98.8265V51.6148H90.021Z" fill="#00267A"/>
<path d="M118.569 47.11C118.569 43.019 115.437 39.5322 110.475 39.5322C105.499 39.5322 101.733 42.7418 101.405 46.953H101.401C101.387 47.1507 101.375 47.3504 101.375 47.5494C101.375 52.0455 105.293 55.6912 110.127 55.6912C115.296 55.6912 117.641 53.9007 117.641 53.9007L115.599 51.1544C115.599 51.1544 114.507 51.9124 111.699 52.0894C108.97 52.2607 106.747 50.874 106.567 49.0976H118.366C118.528 48.4483 118.597 47.7792 118.569 47.1106L118.569 47.11ZM110.126 42.7502C111.027 42.7224 111.906 43.0327 112.589 43.6201C113.273 44.2075 113.712 45.0295 113.82 45.9242H106.435C106.542 45.0296 106.981 44.2076 107.665 43.6202C108.348 43.0328 109.226 42.7224 110.127 42.7502" fill="#00267A"/>
<path d="M131.045 39.9888C130.345 39.9602 129.65 40.1093 129.023 40.4224C128.601 40.6307 128.22 40.914 127.899 41.2585V39.8647H122.377V55.4532H127.899V47.394C127.899 47.394 128.109 45.7198 129.075 45.0406C129.755 44.6167 130.523 44.3555 131.321 44.2775L136.024 44.273V39.9888H131.045Z" fill="#00267A"/>
<path d="M143.527 43.7715H142.073V45.2377H143.527C143.619 45.2434 143.711 45.229 143.796 45.1955C143.881 45.1621 143.959 45.1103 144.022 45.0439C144.085 44.9774 144.133 44.898 144.163 44.811C144.192 44.724 144.202 44.6317 144.192 44.5404C144.204 44.4454 144.195 44.349 144.167 44.2575C144.139 44.166 144.092 44.0813 144.03 44.0089C143.967 43.9365 143.89 43.878 143.804 43.8371C143.717 43.7962 143.623 43.7739 143.527 43.7715Z" fill="#00267A"/>
<path d="M148.572 47.3399C148.572 47.6346 148.744 47.7806 149.089 47.7806C149.291 47.7867 149.488 47.7228 149.648 47.5997C149.742 47.4894 149.811 47.3605 149.851 47.2216C149.89 47.0827 149.9 46.937 149.88 46.7939V46.6841C149.005 46.7713 148.569 46.9083 148.569 47.3406" fill="#00267A"/>
<path d="M155.907 49.1181C155.789 49.4661 155.579 49.7758 155.3 50.015C154.74 50.2524 154.134 50.3627 153.526 50.3381C153.397 50.3381 153.248 50.3252 152.766 50.2987L152.663 48.8364C152.827 48.8747 152.995 48.8939 153.164 48.8939C153.708 48.8726 153.926 48.7912 153.939 48.5585C153.945 48.4441 153.924 48.3299 153.879 48.2245L152.163 44.0372H154.101L155.146 46.8365L156.009 43.9862L156.555 44.003C155.028 40.8929 151.444 38.7095 147.264 38.7095C141.698 38.7095 137.183 42.5865 137.183 47.3683C137.183 52.15 141.698 56.0238 147.264 56.0238C152.829 56.0238 157.344 52.1468 157.344 47.3683C157.345 46.7986 157.28 46.2307 157.15 45.6759L155.907 49.1181ZM144.034 46.6077H142.071V48.7239H140.241V42.3752H144.034C144.592 42.398 145.119 42.6365 145.505 43.0404C145.891 43.4443 146.105 43.9821 146.102 44.5406C146.101 45.0887 145.883 45.6142 145.495 46.0018C145.107 46.3894 144.582 46.6075 144.034 46.6084V46.6077ZM150.056 48.8396C150.005 48.6164 149.981 48.388 149.984 48.1592C149.608 48.5892 149.085 48.8629 148.517 48.9263C147.95 48.9897 147.379 48.8382 146.918 48.5017C146.775 48.3743 146.66 48.2186 146.581 48.0443C146.502 47.87 146.46 47.6811 146.458 47.4897C146.46 47.2336 146.531 46.9829 146.663 46.7636C146.796 46.5443 146.984 46.3646 147.21 46.2433C148.043 45.8453 148.958 45.6496 149.881 45.672V45.5583C149.891 45.48 149.882 45.4003 149.855 45.3262C149.827 45.2521 149.782 45.1858 149.724 45.1331C149.584 45.055 149.424 45.0189 149.265 45.0291C148.793 45.0291 148.525 45.2036 148.473 45.5583L146.586 45.5512L146.601 45.3968C146.867 44.3797 147.78 43.8686 149.331 43.8686C149.722 43.8659 150.111 43.9058 150.494 43.9875C150.798 44.0433 151.086 44.1687 151.334 44.3538C151.516 44.4896 151.659 44.6716 151.748 44.8811C151.838 45.2292 151.874 45.589 151.855 45.948V47.8904C151.846 48.214 151.899 48.5363 152.01 48.8403L150.056 48.8396Z" fill="#00267A"/>
<path d="M96.5948 61.9749V60.7472H102.166V61.9749H100.297V62.3581C100.298 63.0474 100.337 63.7362 100.413 64.4213C100.48 64.7882 100.608 65.1413 100.792 65.4656C100.985 65.8101 101.226 66.1254 101.508 66.4019C101.86 66.7548 102.24 67.0789 102.644 67.3711L101.783 68.2286C101.494 68.0752 101.221 67.8934 100.967 67.6858C100.74 67.4992 100.524 67.2985 100.321 67.0849C100.118 66.891 99.9452 66.703 99.7953 66.5304C99.6878 66.4103 99.5954 66.2775 99.52 66.135C99.4362 66.2774 99.3388 66.4113 99.2292 66.535C99.0832 66.7107 98.9061 66.9098 98.7045 67.123C98.49 67.3472 98.2684 67.5592 98.0338 67.7614C97.7595 67.9943 97.4662 68.2037 97.1569 68.3876L96.123 67.5327C96.5801 67.2184 97.0049 66.8597 97.3915 66.462C97.7044 66.1449 97.9691 65.7838 98.1772 65.39C98.3363 65.0751 98.4478 64.7385 98.5081 64.3909C98.5793 63.7234 98.6153 63.0526 98.616 62.3813V61.9717L96.5948 61.9749ZM103.022 60.2393H104.627V69.6767H103.021V64.8562H101.905V63.7157H103.021L103.022 60.2393ZM105.648 60.2393H107.308V69.6767H105.648L105.648 60.2393Z" fill="#00267A"/>
<path d="M110.602 66.4871V62.9202H116.895V61.8301H110.602V60.6411H118.85V64.0723H112.543V65.2846H119.151V66.4871H115.751V67.8654H120.223V69.0679H109.31V67.8654H113.799V66.4871H110.602Z" fill="#00267A"/>
<path d="M126.476 66.8716C126.605 66.8632 126.729 66.8548 126.849 66.8439C126.97 66.8329 127.087 66.8342 127.206 66.8342C127.314 66.8258 127.417 66.8148 127.515 66.8077C127.613 66.8006 127.709 66.7909 127.8 66.7851V67.9346C127.511 67.9695 127.176 67.9992 126.788 68.0218C126.4 68.0445 126.007 68.0664 125.6 68.0832C125.192 68.1 124.774 68.1143 124.372 68.1227C123.969 68.1311 123.624 68.1298 123.326 68.1227L121.336 68.1084V66.9576H122.554L122.509 62.0092H121.63V60.846H127.473V62.0092H126.504L126.476 66.8716ZM124.055 62.0092L124.099 66.946H124.473C124.537 66.946 124.607 66.9421 124.672 66.9389C124.736 66.9356 124.801 66.9317 124.872 66.9317L124.917 62.0092H124.055ZM128.303 60.2393H129.938V69.6664H128.303V64.8569H127.222V63.6782H128.304L128.303 60.2393ZM130.77 60.2393H132.466V69.6664H130.77V60.2393Z" fill="#00267A"/>
<path d="M134.804 62.6128C134.976 62.2486 135.222 61.9237 135.525 61.6584C135.839 61.379 136.202 61.1599 136.596 61.0123C137.449 60.6992 138.385 60.6992 139.238 61.0123C139.634 61.1593 139.999 61.3784 140.314 61.6584C140.613 61.9279 140.858 62.2518 141.036 62.6128C141.217 63.219 141.307 63.8484 141.305 64.481C141.308 65.0348 141.217 65.5852 141.036 66.1087C140.859 66.4697 140.614 66.7933 140.314 67.0618C139.999 67.3401 139.634 67.5567 139.238 67.7002C138.384 68.0053 137.45 68.0053 136.596 67.7002C136.202 67.5561 135.839 67.3396 135.525 67.0618C135.221 66.7974 134.976 66.4729 134.804 66.1087C134.633 65.5832 134.547 65.0336 134.55 64.481C134.547 63.8495 134.633 63.2207 134.804 62.6128ZM139.138 62.5334C138.815 62.2106 138.377 62.0293 137.92 62.0293C137.464 62.0293 137.026 62.2106 136.703 62.5334C136.368 63.1261 136.196 63.7974 136.206 64.4784C136.195 65.081 136.368 65.6727 136.703 66.1739C137.027 66.4947 137.464 66.6746 137.92 66.6746C138.376 66.6746 138.814 66.4947 139.138 66.1739C139.472 65.6724 139.644 65.0808 139.632 64.4784C139.643 63.7977 139.472 63.1263 139.138 62.5334ZM142.849 60.2627H144.506V69.6652H142.849V60.2627Z" fill="#00267A"/>
</g>
<defs>
<clipPath id="clip0_2572_64260">
<rect width="99.871" height="30.9677" fill="white" transform="translate(70.0645 38.7095)"/>
</clipPath>
</defs>
</svg>
