<svg width="240" height="109" viewBox="0 0 240 109" fill="none" xmlns="http://www.w3.org/2000/svg">
<rect y="0.386719" width="240" height="108.387" rx="10" fill=""/>
<path d="M95.1715 63.69C95.1715 63.69 94.0003 63.0187 93.9369 62.9106C93.9369 62.9106 93.8138 62.8025 93.8138 62.6384C93.8138 62.6384 93.7691 62.2655 94.0749 62.1088C94.0749 62.1088 94.2055 61.9485 94.7127 61.9485C94.7127 61.9485 95.1044 61.9522 95.4289 62.1685L95.399 61.7098C95.399 61.7098 94.4666 61.4861 93.963 61.7322C93.4558 61.9858 93.3364 62.3624 93.3364 62.6346C93.3364 62.8994 93.4894 63.291 93.8922 63.5147C93.8922 63.5147 94.9365 64.0368 95.1939 64.35C95.1939 64.35 95.4363 64.6857 95.2013 65.1108C95.2013 65.1108 94.944 65.4762 94.3808 65.4762C94.3808 65.4762 93.7654 65.4762 93.3849 65.2562L93.4222 65.6851C93.4222 65.6851 93.978 65.7708 94.3882 65.7708C94.3882 65.7708 95.0596 65.7932 95.3916 65.5322C95.3916 65.5322 95.8205 65.2077 95.8205 64.708C95.813 64.708 95.9026 64.1188 95.1715 63.69Z" fill="#042E86"/>
<path d="M97.2297 65.367V63.6292H98.5016C98.6247 63.6292 98.6881 63.6814 98.6881 63.6814V63.3234H97.2297V61.9996H98.5464C98.662 61.9996 98.7552 62.0705 98.7552 62.0705L98.7403 61.6416H96.7113C96.7113 61.6416 96.7859 61.7759 96.7859 61.9437V65.4267C96.7859 65.4267 96.8008 65.4826 96.7113 65.6877H98.897L98.9567 65.2924C98.8634 65.3707 98.565 65.3633 98.565 65.3633H97.2297V65.367Z" fill="#042E86"/>
<path d="M101.662 65.3582C100.793 65.3582 100.088 64.5937 100.088 63.6465C100.088 62.6993 100.793 61.9311 101.662 61.9311C102.531 61.9311 103.236 62.6956 103.236 63.6465C103.236 64.5937 102.531 65.3582 101.662 65.3582ZM101.662 61.6216C100.554 61.6216 99.6553 62.5278 99.6553 63.6502C99.6553 64.769 100.554 65.6751 101.662 65.6751C102.77 65.6751 103.669 64.769 103.669 63.6502C103.669 62.5278 102.77 61.6216 101.662 61.6216Z" fill="#042E86"/>
<path d="M130.179 65.3582C129.309 65.3582 128.605 64.5937 128.605 63.6465C128.605 62.6993 129.309 61.9311 130.179 61.9311C131.048 61.9311 131.752 62.6956 131.752 63.6465C131.756 64.5937 131.051 65.3582 130.179 65.3582ZM130.179 61.6216C129.071 61.6216 128.172 62.5278 128.172 63.6502C128.172 64.769 129.071 65.6751 130.179 65.6751C131.286 65.6751 132.185 64.769 132.185 63.6502C132.185 62.5278 131.29 61.6216 130.179 61.6216Z" fill="#042E86"/>
<path d="M107.763 61.6475H107.222C107.282 61.6848 107.289 61.8488 107.289 61.8488V64.3026C107.289 64.9142 106.793 65.4027 106.185 65.4027C105.574 65.4027 105.081 64.9104 105.081 64.3026L105.085 64.2467L105.074 61.6586L104.645 61.6512V64.3175C104.656 65.1006 105.342 65.7308 106.182 65.7308C107.032 65.7308 107.722 65.0857 107.722 64.2951H107.718V61.8451C107.718 61.7593 107.763 61.6475 107.763 61.6475Z" fill="#042E86"/>
<path d="M109.4 65.3926V61.9022C109.4 61.7307 109.471 61.6523 109.471 61.6523H108.908C108.968 61.7344 108.953 61.8239 108.953 61.8239V65.6872H111.116L111.243 65.3218C111.108 65.4001 110.9 65.3926 110.9 65.3926H109.4Z" fill="#042E86"/>
<path d="M142.676 65.3926V61.9022C142.676 61.7307 142.743 61.6523 142.743 61.6523H142.18C142.239 61.7344 142.224 61.8239 142.224 61.8239V65.6872H144.384L144.514 65.3218C144.38 65.4001 144.168 65.3926 144.168 65.3926H142.676Z" fill="#042E86"/>
<path d="M117.491 61.9287V64.7629L114.663 61.6453H114.205C114.205 61.6453 114.283 61.7423 114.283 61.9548V65.4043C114.283 65.4043 114.276 65.5758 114.223 65.6765V65.6802H114.671C114.622 65.5721 114.622 65.3856 114.622 65.3856V62.2122L117.797 65.6541V61.9138C117.797 61.7945 117.849 61.6416 117.849 61.6416H117.42C117.498 61.7199 117.491 61.9287 117.491 61.9287Z" fill="#042E86"/>
<path d="M136.369 61.9287V64.7629L133.542 61.6453H133.079C133.079 61.6453 133.161 61.7423 133.161 61.9548V65.4043C133.161 65.4043 133.154 65.5758 133.102 65.6765V65.6802H133.549C133.501 65.5721 133.501 65.3856 133.501 65.3856V62.2122L136.675 65.6541V61.9138C136.675 61.7945 136.731 61.6416 136.731 61.6416H136.294C136.376 61.7199 136.369 61.9287 136.369 61.9287Z" fill="#042E86"/>
<path d="M119.732 63.8306L120.373 62.1972L121.149 63.8306H119.732ZM120.623 61.6416H120.109C120.109 61.6416 120.172 61.8094 120.123 61.9772L118.814 65.3073C118.814 65.3073 118.654 65.6206 118.561 65.6877H119.049C119.023 65.5609 119.094 65.4378 119.094 65.4378L119.631 64.1364H121.283L121.839 65.285C121.932 65.5236 121.91 65.6877 121.91 65.6877H122.604C122.343 65.3484 122.235 65.1022 122.235 65.1022L120.623 61.6416Z" fill="#042E86"/>
<path d="M138.786 63.8306L139.427 62.1972L140.199 63.8306H138.786ZM139.573 61.6416H139.058C139.058 61.6416 139.121 61.8094 139.073 61.9772L137.767 65.3073C137.767 65.3073 137.607 65.6206 137.518 65.6877H138.002C137.976 65.5609 138.047 65.4378 138.047 65.4378L138.581 64.1364H140.229L140.785 65.285C140.878 65.5236 140.856 65.6877 140.856 65.6877H141.546C141.285 65.3484 141.177 65.1022 141.177 65.1022L139.573 61.6416Z" fill="#042E86"/>
<path d="M122.695 61.6561L122.666 61.6635L122.569 62.0103C122.569 62.0103 122.654 61.9619 122.819 61.9619H123.908V65.471C123.908 65.471 123.893 65.65 123.87 65.7022H124.456C124.456 65.7022 124.392 65.5679 124.392 65.4598V61.9693H125.239C125.239 61.9693 125.56 61.9693 125.698 62.0551L125.62 61.6523H122.695V61.6561Z" fill="#042E86"/>
<path d="M127.193 61.6416H126.638C126.638 61.6416 126.709 61.7535 126.709 61.8653V65.4192C126.709 65.4192 126.701 65.5833 126.638 65.6951H127.193C127.193 65.6951 127.123 65.5833 127.123 65.408V61.8579C127.123 61.8579 127.149 61.6901 127.193 61.6416Z" fill="#042E86"/>
<path d="M171.093 63.6659C171.093 63.6659 169.922 62.9946 169.858 62.8865C169.858 62.8865 169.735 62.7783 169.735 62.6105C169.735 62.6105 169.694 62.2413 169.996 62.081C169.996 62.081 170.127 61.9244 170.63 61.9244C170.63 61.9244 171.022 61.9244 171.35 62.1407L171.32 61.682C171.32 61.682 170.384 61.4582 169.881 61.7118C169.373 61.9617 169.254 62.342 169.254 62.6068C169.254 62.8716 169.407 63.2631 169.81 63.4869C169.81 63.4869 170.854 64.009 171.111 64.3259C171.111 64.3259 171.358 64.6615 171.119 65.0829C171.119 65.0829 170.865 65.4484 170.298 65.4484C170.298 65.4484 169.683 65.4484 169.302 65.2284L169.34 65.6535C169.34 65.6535 169.895 65.7393 170.309 65.7393C170.309 65.7393 170.981 65.7616 171.313 65.5006C171.313 65.5006 171.742 65.1762 171.742 64.6802C171.738 64.6877 171.824 64.091 171.093 63.6659Z" fill="#042E86"/>
<path d="M163.066 65.3633V63.6255H164.338C164.461 63.6255 164.524 63.6777 164.524 63.6777V63.3197H163.066V61.9996H164.379C164.494 61.9996 164.588 62.0704 164.588 62.0704L164.573 61.6416H162.54C162.54 61.6416 162.614 61.7721 162.614 61.9437V65.4266C162.614 65.4266 162.629 65.4863 162.536 65.6914H164.726L164.785 65.2924C164.688 65.3744 164.386 65.367 164.386 65.367H163.066V65.3633Z" fill="#042E86"/>
<path d="M150.072 61.6167H149.531C149.591 61.654 149.598 61.8218 149.598 61.8218V64.2756C149.598 64.8871 149.106 65.3756 148.494 65.3756C147.886 65.3756 147.39 64.8871 147.39 64.2756L147.394 64.2196L147.387 61.6279L146.954 61.6204V64.2867C146.965 65.0699 147.651 65.7001 148.491 65.7001C149.341 65.7001 150.031 65.0587 150.031 64.2644H150.027V61.8143C150.031 61.7286 150.072 61.6167 150.072 61.6167Z" fill="#042E86"/>
<path d="M154.704 61.925V64.7591L151.877 61.6416H151.422C151.422 61.6416 151.5 61.7348 151.5 61.9474V65.3968C151.5 65.3968 151.493 65.5721 151.441 65.6728V65.6765H151.888C151.84 65.5684 151.84 65.3856 151.84 65.3856V62.2084L155.014 65.6541V61.9064C155.014 61.7908 155.066 61.6416 155.066 61.6416H154.633C154.712 61.7162 154.704 61.925 154.704 61.925Z" fill="#042E86"/>
<path d="M174.16 61.6416L174.127 61.6453L174.03 61.9921C174.03 61.9921 174.115 61.9474 174.279 61.9474H175.369V65.4565C175.369 65.4565 175.35 65.6355 175.328 65.684H175.909C175.909 65.684 175.85 65.5497 175.85 65.4416V61.9548H176.7C176.7 61.9548 177.017 61.9548 177.151 62.0406L177.073 61.6416H174.16Z" fill="#042E86"/>
<path d="M173.269 61.626H172.71C172.71 61.626 172.781 61.7416 172.781 61.8535V65.4036C172.781 65.4036 172.77 65.5677 172.71 65.6833H173.262C173.262 65.6833 173.195 65.5677 173.195 65.3961V61.846C173.199 61.8423 173.225 61.6745 173.269 61.626Z" fill="#042E86"/>
<path d="M157.054 61.626H156.494C156.494 61.626 156.565 61.7416 156.565 61.8535V65.4036C156.565 65.4036 156.554 65.5677 156.498 65.6833H157.054C157.054 65.6833 156.986 65.5677 156.986 65.3961V61.846C156.983 61.8423 157.005 61.6745 157.054 61.626Z" fill="#042E86"/>
<path d="M161.239 61.9157L159.867 64.9438L158.468 61.9157C158.36 61.7181 158.412 61.6323 158.412 61.6323H157.823C157.823 61.6323 157.972 61.8784 158.14 62.2327L159.829 65.7716L161.582 62.0164C161.582 62.0164 161.743 61.7218 161.866 61.6323H161.291C161.295 61.6323 161.351 61.7181 161.239 61.9157Z" fill="#042E86"/>
<path d="M168.263 65.0534L167.002 63.5766C167.375 63.5766 167.766 63.2448 167.766 63.2448C168.054 62.9986 168.054 62.5511 168.054 62.5511C168.028 62.1335 167.759 61.9209 167.759 61.9209C167.446 61.6039 166.95 61.6263 166.95 61.6263C166.166 61.6263 165.849 61.6673 165.849 61.6673C165.849 61.6673 165.913 61.7382 165.913 61.8538V65.4748C165.913 65.5755 165.864 65.6724 165.864 65.6724H166.416C166.353 65.5755 166.357 65.4822 166.357 65.4822V63.4163H166.364L166.357 63.4126V62.0701L166.364 62.0291C166.364 62.0291 166.372 61.9284 166.741 61.9284C166.741 61.9284 167.151 61.9209 167.323 62.1223C167.323 62.1223 167.569 62.3237 167.569 62.5772C167.569 62.5772 167.584 62.9949 167.367 63.1441C167.367 63.1441 167.103 63.4126 166.36 63.4163L168.173 65.6687H168.811C168.677 65.5493 168.263 65.0534 168.263 65.0534Z" fill="#042E86"/>
<path d="M180.198 61.7894L179.329 63.2736L178.404 61.8267C178.34 61.7037 178.366 61.6365 178.366 61.6365H177.71C177.71 61.6365 177.852 61.7596 177.949 61.9311L179.019 63.5943V65.4589C179.019 65.4589 179.019 65.5969 178.978 65.6715H179.552C179.508 65.6267 179.489 65.4738 179.489 65.4738V63.5981L180.459 62.0952C180.757 61.6067 180.783 61.6216 180.783 61.6216H180.227C180.235 61.7074 180.198 61.7894 180.198 61.7894Z" fill="#042E86"/>
<path d="M96.9072 46.9395C96.8736 46.4286 96.8923 45.4814 96.8923 45.4814H96.1985H95.5048C95.5048 45.4814 95.5234 46.4286 95.4936 46.9395C95.3929 48.5132 94.7551 51.0155 92.3755 52.6786L93.0692 53.7004C93.0692 53.7004 95.1132 52.5817 96.1985 49.7886C97.2839 52.5817 99.3279 53.7004 99.3279 53.7004L100.025 52.6749C97.6457 51.0117 97.0079 48.5132 96.9072 46.9395Z" fill="#042E86"/>
<path d="M117.419 44.8496C118.139 44.8496 118.717 45.4351 118.717 46.1548C118.717 46.8745 118.139 47.4563 117.419 47.4563C116.699 47.4563 116.117 46.8745 116.117 46.1548C116.121 45.4388 116.699 44.8496 117.419 44.8496ZM117.419 48.6421C118.795 48.6421 119.907 47.5308 119.907 46.1548C119.907 44.7788 118.795 43.6675 117.419 43.6675C116.046 43.6675 114.931 44.7788 114.931 46.1548C114.931 47.5271 116.046 48.6421 117.419 48.6421Z" fill="#042E86"/>
<path d="M155.028 49.7152C155.028 50.3976 154.472 50.9533 153.79 50.9533C153.107 50.9533 152.555 50.3976 152.555 49.7152C152.555 49.0328 153.111 48.4771 153.79 48.4771C154.472 48.4771 155.028 49.0328 155.028 49.7152ZM151.35 49.7152C151.35 51.0614 152.439 52.1541 153.786 52.1541C155.132 52.1541 156.225 51.0651 156.225 49.7152C156.225 48.369 155.132 47.2764 153.786 47.2764C152.439 47.2764 151.35 48.369 151.35 49.7152Z" fill="#042E86"/>
<path d="M178.967 52.1264C178.967 52.1264 178.815 54.4944 178.203 55.8518H179.516C180.113 54.2185 180.209 52.0891 180.209 52.0891V45.8242H179.426H178.964H171.493V46.9877H178.964V52.1264H178.967Z" fill="#042E86"/>
<path d="M101.944 57.6029H103.309V44.853H101.944V48.556H99.4602V49.809H101.944V57.6029Z" fill="#042E86"/>
<path d="M138.773 50.1446H139.798V57.6029H141.16V44.853H139.798V48.8917H138.773V44.853H137.404V57.6029H138.773V50.1446Z" fill="#042E86"/>
<path d="M159.077 57.6103H160.442V53.747V52.5835H159.946V48.3136H161.781V47.1986H159.946V44.853H158.581V52.5835H150.89V53.747H159.077V57.6103Z" fill="#042E86"/>
<path d="M121.934 56.3412H114.09V55.3791H121.934V54.5587V54.1709V53.1118V51.8998H120.685H118.055V50.3075H122.576V49.0918H112.222V50.3075H116.709V51.8998H112.863V53.1118H120.685V54.1709H112.863V54.898H112.841V57.5569H112.863H114.09H121.934V56.3412Z" fill="#042E86"/>
<path d="M176.845 55.8736V50.1904H175.528V55.8736H174.01V50.1904H172.69V55.8736H170.981V57.0371H181.194V55.8736H176.845Z" fill="#042E86"/>
<path d="M156.902 45.8744H154.317V44.7109H152.975V45.8744H150.39V46.9932H156.902V45.8744Z" fill="#042E86"/>
<path d="M136.087 53.6581V52.4462H132.402V47.1285H135.919V45.9165H132.402H131.197H131.055V53.6656H132.402V53.6581H136.087Z" fill="#042E86"/>
<path d="M73.8033 44.1754C73.3631 43.1909 71.8787 43.8659 71.8787 43.8659C73.1282 44.6602 73.8033 44.1754 73.8033 44.1754ZM71.3528 44.0299C71.5057 44.0299 71.6325 43.9031 71.6325 43.7502C71.6325 43.5936 71.5057 43.4706 71.3528 43.4706C71.1999 43.4706 71.073 43.5974 71.073 43.7502C71.073 43.9031 71.1961 44.0299 71.3528 44.0299ZM74.7469 44.2723C74.7469 44.2723 74.2098 44.2611 73.7212 44.5557L75.2989 44.5781C75.325 44.5557 75.325 44.5557 75.3549 44.5371C75.3549 44.5371 74.5679 42.4078 72.4754 42.1467C72.4754 42.1467 72.979 43.7241 74.7469 44.2723ZM75.8547 44.6863C75.8547 44.5707 75.7614 44.4774 75.6458 44.4774C75.5302 44.4774 75.4369 44.5707 75.4369 44.6863C75.4369 44.8019 75.5302 44.8951 75.6458 44.8951C75.7614 44.8951 75.8547 44.8019 75.8547 44.6863ZM67.4253 44.5818L69.003 44.5595C68.5107 44.2649 67.9736 44.2761 67.9736 44.2761C69.7415 43.7241 70.245 42.1505 70.245 42.1505C68.1526 42.4115 67.3656 44.5408 67.3656 44.5408C67.3954 44.5595 67.3992 44.5595 67.4253 44.5818ZM66.918 44.8019C66.918 44.9175 67.0113 45.0107 67.1269 45.0107C67.2425 45.0107 67.3358 44.9175 67.3358 44.8019C67.3358 44.6863 67.2425 44.593 67.1269 44.593C67.0113 44.593 66.918 44.6863 66.918 44.8019ZM67.0486 46.4837C65.911 45.6745 64.2512 46.301 64.2512 46.301C65.7245 45.1785 65.7133 43.3885 65.7133 43.3885C63.8372 44.3506 63.826 46.6179 63.826 46.6179C66.1236 47.2966 67.0486 46.4837 67.0486 46.4837ZM67.6826 46.0399L67.6976 45.2717C66.8434 45.0219 65.9781 45.1822 65.9781 45.1822C67.623 44.3357 67.9251 42.5681 67.9251 42.5681C65.911 43.1872 65.5044 45.4209 65.5044 45.4209C66.4369 45.887 67.1605 46.0287 67.6826 46.0399ZM76.7722 45.0592C76.7722 45.0592 76.0859 44.8503 75.2243 45.1449L75.2206 45.9318C75.7465 45.9206 76.2836 45.7938 77.2496 45.2829C77.2496 45.2829 76.7908 43.0604 74.7656 42.4861C74.7618 42.4898 75.105 44.2499 76.7722 45.0592ZM68.9172 44.2686C68.9172 44.2686 69.6109 44.7273 70.8269 43.8882C70.8269 43.8882 69.32 43.2692 68.9172 44.2686ZM79.4689 54.9189H78.5849V56.034H79.4689V54.9189ZM77.0892 47.2743L76.6342 47.8187L79.0996 50.2837L79.5994 49.784L77.0892 47.2743ZM81.8895 47.1997L79.6292 44.9398L77.6039 47.14L79.7784 49.2843L81.8895 47.1997ZM63.4679 46.9461C63.4679 47.0617 63.5612 47.1549 63.6768 47.1549C63.7924 47.1549 63.8857 47.0617 63.8857 46.9461C63.8857 46.8305 63.7924 46.7373 63.6768 46.7373C63.5612 46.7373 63.4679 46.8305 63.4679 46.9461ZM80.1999 49.329C80.5878 49.4409 81.0652 49.5229 81.6508 49.5453C81.6508 49.5453 81.9156 48.7547 81.8 47.7963L81.0391 48.5272C81.1212 48.7212 81.2256 48.9151 81.3561 49.109C81.3561 49.109 81.1473 48.9337 80.8079 48.7473L80.1999 49.329ZM79.5136 60.3784H78.6334V61.4934H79.5136V60.3784ZM78.2306 45.9131L78.7415 45.3948C78.5252 44.6639 78.0851 43.7801 76.996 43.2543C76.996 43.2543 76.9512 44.8242 78.2306 45.9131ZM82.8182 53.7256C82.8182 53.8412 82.9115 53.9345 83.0271 53.9345C83.1427 53.9345 83.236 53.8412 83.236 53.7256C83.236 53.61 83.1427 53.5168 83.0271 53.5168C82.9115 53.5168 82.8182 53.61 82.8182 53.7256ZM80.0694 43.3624C80.7295 43.6906 81.2592 43.3475 81.2592 43.3475C81.9939 42.9858 82.5236 43.4892 82.5236 43.4892C83.0346 43.8882 82.9525 44.4178 82.9525 44.4178C82.9525 44.8205 82.8369 44.8503 82.8369 44.8503C82.5907 45.0181 82.6541 44.7347 82.6541 44.7347C82.6616 44.731 82.7101 44.5371 82.7101 44.5371C82.807 43.6235 81.9865 43.4929 81.9865 43.4929C81.1212 43.3438 80.9011 44.1455 80.9011 44.1455C80.8452 44.3656 80.8414 44.5632 80.8675 44.7347L79.7859 43.6384L79.8381 44.5557L82.2588 46.9759H83.1241L82.2438 46.0959C82.7101 46.2413 83.1166 46.2562 83.1166 46.2562C84.3549 46.1816 84.4817 44.9995 84.4817 44.9995C84.81 43.7652 83.6351 42.7658 83.6351 42.7658C82.8555 42.0945 81.6732 42.0386 81.6732 42.0386C79.9948 41.8484 79.3943 40.7744 79.3943 40.7744C79.1966 41.2629 79.2488 41.9864 79.2488 41.9864C79.3607 43.1014 80.0694 43.3624 80.0694 43.3624ZM83.1166 53.3826C83.1166 53.3826 84.5265 51.6038 83.6612 49.6795C83.6612 49.6795 82.5348 51.0742 82.9823 52.8717C82.9823 52.8717 82.0797 51.3465 80.6848 51.2681C80.6848 51.2644 80.8974 52.4801 83.1166 53.3826ZM81.6844 50.1196C81.8 50.1196 81.8932 50.0263 81.8932 49.9107C81.8932 49.7951 81.8 49.7019 81.6844 49.7019C81.5687 49.7019 81.4755 49.7951 81.4755 49.9107C81.4755 50.0263 81.5687 50.1196 81.6844 50.1196ZM77.4734 46.7298L78.1075 46.0735C77.5704 45.9504 76.5559 45.7714 75.7353 46.3793C75.7353 46.383 76.153 46.8603 77.4734 46.7298ZM82.5497 51.3987C82.5497 51.3987 83.6313 49.3999 82.4452 47.6584C82.4452 47.6584 81.5762 49.2246 82.3334 50.9176C82.3334 50.9176 81.1771 49.5714 79.7896 49.7355C79.7859 49.7392 80.2111 50.8952 82.5497 51.3987ZM75.1535 66.6507C75.1535 66.7663 75.2467 66.8596 75.3623 66.8596C75.478 66.8596 75.5712 66.7663 75.5712 66.6507C75.5712 66.5351 75.478 66.4419 75.3623 66.4419C75.2467 66.4419 75.1535 66.5351 75.1535 66.6507ZM76.2015 66.4494C76.2015 66.4494 77.3876 65.4313 77.3988 64.1634L76.9773 64.1821C76.5932 64.5177 76.0337 65.23 75.7241 66.6731C75.7241 66.6731 77.7233 67.7508 79.4651 66.565C79.4614 66.565 77.8911 65.6961 76.2015 66.4494ZM74.2508 67.102C74.2508 67.102 75.7763 66.1958 75.8547 64.8048C75.8547 64.8048 74.6387 65.0174 73.7361 67.2362C73.7361 67.2362 75.5152 68.6458 77.4398 67.7807C77.4398 67.7807 76.0486 66.6545 74.2508 67.102ZM72.2032 67.5383C73.7883 66.8036 74.1389 65.573 74.1389 65.573C72.9081 65.6588 71.8488 67.5084 71.8488 67.5084C73.2289 68.918 75.0192 68.739 75.0192 68.739C74.1986 67.6576 72.2032 67.5383 72.2032 67.5383ZM71.3229 66.8931V67.4152C71.0805 67.0348 70.1406 65.6588 69.0776 65.5917C69.0776 65.5917 69.4394 66.8186 71.0283 67.542C71.0283 67.542 69.0328 67.6725 68.2197 68.7689C68.2197 68.7689 69.9578 68.9255 71.3229 67.5718V68.4221H71.8526V67.5122V66.8969H71.3229V66.8931ZM78.6334 62.0789V63.1939L83.6239 67.3332H84.6235L79.5397 62.0789H78.6334ZM78.0142 65.4686C78.0142 65.4686 78.4693 64.9242 78.6931 64.1634L77.8427 64.1485C77.7084 64.5662 77.6077 65.0957 77.5816 65.7707C77.5816 65.7707 79.4204 66.3822 80.8936 65.3157L80.3267 64.8608C79.6926 64.8272 78.8311 64.9167 78.0142 65.4686ZM68.1116 66.7328C68.1116 66.6172 68.0183 66.524 67.9027 66.524C67.7871 66.524 67.6938 66.6172 67.6938 66.7328C67.6938 66.8484 67.7871 66.9416 67.9027 66.9416C68.0183 66.9416 68.1116 66.8484 68.1116 66.7328ZM82.0648 60.893C82.0648 60.893 82.352 59.144 81.3375 58.1894C81.3375 58.1894 80.7221 59.2559 81.8373 61.3703C81.8373 61.3703 84.0603 60.9154 84.6347 58.883C84.6347 58.8867 82.8742 59.2298 82.0648 60.893ZM80.0059 64.596L79.2712 63.9956C79.2861 64.1821 79.3085 64.3797 79.3458 64.5923C79.3458 64.5923 79.6106 64.6258 80.0059 64.596ZM78.8945 64.8682C79.0101 64.8682 79.1033 64.775 79.1033 64.6594C79.1033 64.5438 79.0101 64.4506 78.8945 64.4506C78.7788 64.4506 78.6856 64.5438 78.6856 64.6594C78.6856 64.775 78.7788 64.8682 78.8945 64.8682ZM61.3867 61.8141C61.3867 61.9297 61.4799 62.0229 61.5956 62.0229C61.7112 62.0229 61.8044 61.9297 61.8044 61.8141C61.8044 61.6985 61.7112 61.6053 61.5956 61.6053C61.4799 61.6053 61.3867 61.6985 61.3867 61.8141ZM59.8612 57.7643C61.5993 56.116 61.3531 54.9078 61.3531 54.9078C60.085 55.4895 59.7978 57.2385 59.7978 57.2385C59.5628 55.4 58.0038 54.5125 58.0038 54.5125C57.9031 56.6194 59.8612 57.7643 59.8612 57.7643ZM59.8687 58.0514C59.8687 58.167 59.9619 58.2602 60.0775 58.2602C60.1932 58.2602 60.2864 58.167 60.2864 58.0514C60.2864 57.9358 60.1932 57.8426 60.0775 57.8426C59.9619 57.8426 59.8687 57.9358 59.8687 58.0514ZM62.8488 44.9809L61.23 43.3475C60.2305 42.3444 59.0406 43.0044 59.0406 43.0044L62.2296 46.1779C62.4422 45.365 62.8488 44.9809 62.8488 44.9809ZM61.6068 45.9803L58.8542 43.2282C58.8542 43.2282 57.7016 44.0523 58.5968 45.9803H61.6068ZM60.4132 59.7482C61.838 57.8239 61.3867 56.6754 61.3867 56.6754C60.2379 57.4659 60.2603 59.241 60.2603 59.241C59.712 57.4734 58.0224 56.8693 58.0224 56.8693C58.2835 58.965 60.4132 59.7482 60.4132 59.7482ZM61.6888 65.2038C61.6888 65.2038 62.017 65.0099 62.487 64.9391L61.9648 64.816L61.9126 64.8794C61.9424 64.8384 61.9648 64.816 61.9648 64.816L59.6411 67.2623C59.6411 67.2623 59.3763 67.6427 59.6262 67.8925C59.6262 67.8925 59.8612 68.0827 60.182 67.8627L62.446 65.8825C62.2184 65.7632 61.7149 65.3456 61.6888 65.2038ZM66.0975 64.2082L65.8028 64.2044C65.7879 65.5208 67.0523 66.5575 67.0523 66.5575C65.344 65.8415 63.7962 66.7477 63.7962 66.7477C65.5678 67.8925 67.5372 66.7663 67.5372 66.7663C67.1493 65.1666 66.4779 64.4841 66.0975 64.2082ZM61.2972 61.6127C62.3639 59.4722 61.7261 58.4169 61.7261 58.4169C60.7303 59.3976 61.0585 61.1391 61.0585 61.1391C60.2081 59.4946 58.4439 59.1925 58.4439 59.1925C59.063 61.2062 61.2972 61.6127 61.2972 61.6127ZM67.3581 64.9055C67.47 66.2965 69.0142 67.1654 69.0142 67.1654C67.2089 66.7589 65.8401 67.9186 65.8401 67.9186C67.7833 68.7353 69.5289 67.2884 69.5289 67.2884C68.5778 65.092 67.3581 64.9055 67.3581 64.9055ZM62.3788 48.0872C64.7585 48.3557 65.5268 47.3936 65.5268 47.3936C64.2661 46.7969 62.7406 47.6994 62.7406 47.6994C63.9976 46.3383 63.6768 44.5781 63.6768 44.5781C61.9947 45.8497 62.3788 48.0872 62.3788 48.0872ZM62.4945 63.2908C63.1733 60.9974 62.3602 60.0726 62.3602 60.0726C61.5508 61.21 62.1774 62.8694 62.1774 62.8694C61.0547 61.3964 59.2644 61.4076 59.2644 61.4076C60.223 63.2834 62.4945 63.2908 62.4945 63.2908ZM79.8791 61.4151C79.8791 61.4151 79.7299 61.5717 79.6815 61.8066L80.1253 62.2653C80.0992 61.9782 80.0246 61.6873 79.8791 61.4151ZM65.0867 52.234L65.9035 52.9537H67.7423C67.6528 52.8083 67.6826 52.2526 67.6826 52.2526L65.0867 52.234ZM69.6482 46.8491V45.8199H72.8484V47.2892H73.904V48.3445H72.8783V48.8144H73.904V49.9592H72.8783V53.3937H71.998L70.7784 52.1743L69.6632 53.2893L68.8575 52.4838L70.7075 50.6342L71.6586 51.5888V46.8491H69.6482ZM68.0034 51.7716C68.0034 54.2067 69.5289 55.3329 71.4162 55.3329C73.3035 55.3329 74.8327 54.2104 74.8327 51.7716V44.828H68.0071C68.0034 44.828 68.0034 49.3365 68.0034 51.7716ZM65.4895 47.7628C65.4895 47.7628 65.2844 48.0648 64.4974 48.2326L65.4895 49.15V47.7628ZM74.2135 57.9022C74.4373 57.9022 74.4373 57.7344 74.4373 57.5629V55.978H74.8924V57.6561C74.8924 57.9022 74.8663 58.3162 74.2098 58.3162C73.7846 58.3162 73.531 58.1185 73.531 57.686V55.978H73.986V57.4659C73.9898 57.6412 73.9674 57.9022 74.2135 57.9022ZM75.3847 58.7823V59.2074H74.9222V59.7071H75.3288V60.136H74.9222V60.6543H75.3922V61.0832H74.4709V58.7823H75.3847ZM75.2616 55.978H75.7726L75.9069 56.2987C75.9442 56.4106 75.9927 56.5299 76.015 56.6493H76.0188C76.0449 56.5299 76.0822 56.4143 76.1232 56.2987L76.2612 55.978H76.7535L76.2612 57.093L76.7871 58.2789H76.2612L76.1157 57.9134C76.071 57.7978 76.0449 57.6822 76.015 57.5704H76.0076C75.974 57.686 75.9479 57.7978 75.9069 57.9134L75.7726 58.2789H75.2616L75.7502 57.093L75.2616 55.978ZM76.6454 61.0832L76.5596 60.6953H76.0971L76.015 61.0832H75.5637L76.0971 58.7823H76.5782L77.1303 61.0832H76.6454ZM73.7324 61.0832L73.6242 59.4237H73.6168L73.5422 59.9905L73.3482 61.0832H72.9976L72.7738 59.9794L72.6992 59.4647V59.42H72.6918L72.6246 61.0794H72.136L72.3374 58.7786H72.9379L73.1617 60.136H73.1655L73.3482 58.7786H73.9599L74.2024 61.0794H73.7324V61.0832ZM72.2591 55.978H72.7142V57.8538H73.1878V58.2789H72.2554V55.978H72.2591ZM71.6735 55.6238V63.4288C71.6735 63.4288 72.1137 62.9925 72.7291 62.9925H77.5741V53.3042H74.9595C74.9632 53.3042 74.221 55.5902 71.6735 55.6238ZM69.7154 56.6269C69.7154 56.4628 69.6371 56.3286 69.4058 56.3397H69.3461V56.9513L69.4245 56.955C69.6371 56.955 69.7154 56.8133 69.7154 56.6269ZM76.3283 59.3715H76.3209L76.2724 59.7183L76.1754 60.3299H76.4962L76.3806 59.7183L76.3283 59.3715ZM64.0722 49.1164C63.9901 49.1798 63.4083 49.7131 62.5243 49.8175L62.8264 50.1009L65.9968 50.086L65.0121 49.1053L64.5123 48.6056C64.5123 48.6093 64.158 49.0568 64.0722 49.1164ZM81.7515 61.5754C81.7515 61.4598 81.6583 61.3666 81.5426 61.3666C81.427 61.3666 81.3338 61.4598 81.3338 61.5754C81.3338 61.691 81.427 61.7843 81.5426 61.7843C81.6583 61.7843 81.7515 61.691 81.7515 61.5754ZM82.9749 57.9992C83.0905 57.9992 83.1838 57.906 83.1838 57.7904C83.1838 57.6748 83.0905 57.5815 82.9749 57.5815C82.8593 57.5815 82.766 57.6748 82.766 57.7904C82.766 57.9022 82.8593 57.9992 82.9749 57.9992ZM81.6321 56.4404C81.6321 56.4404 81.2107 57.6002 82.6802 59.4908C82.6802 59.4908 84.7913 58.6555 85.0039 56.556C85.0039 56.556 83.3329 57.2012 82.8257 58.98C82.822 58.98 82.7996 57.2049 81.6321 56.4404ZM83.2322 56.9625C83.2322 56.9625 82.904 55.2173 81.6247 54.6691C81.6247 54.6691 81.4084 55.8811 83.1838 57.4883C83.1838 57.4883 85.1195 56.2987 84.9629 54.1955C84.9591 54.1992 83.4225 55.1241 83.2322 56.9625ZM80.7407 59.8563C80.7407 59.8563 79.95 60.8035 80.681 63.0783C80.681 63.0783 82.9488 63.0149 83.8663 61.1167C83.8663 61.1167 82.0723 61.1503 80.9869 62.6494C80.9869 62.6494 81.5762 60.975 80.7407 59.8563ZM83.2882 54.9078C83.2882 54.9078 82.6616 53.2483 81.3039 52.9276C81.3039 52.9276 81.3039 54.1619 83.3292 55.4336C83.3292 55.4336 85.0263 53.9233 84.5078 51.8834C84.5078 51.8834 83.1539 53.0581 83.2882 54.9078ZM81.8298 64.0366C82.1767 63.8203 82.5087 63.5257 82.7847 63.123C82.7847 63.123 82.0275 63.026 81.1435 63.3244L81.8298 64.0366ZM68.6188 59.7071L68.5666 59.3566H68.5591L68.5107 59.7071L68.4137 60.3187H68.7344L68.6188 59.7071ZM61.879 46.1033C60.4431 47.6472 61.2114 49.784 61.2114 49.784C63.5985 49.6385 64.1915 48.5571 64.1915 48.5571C62.8451 48.1879 61.5023 49.3402 61.5023 49.3402C62.5019 47.7852 61.879 46.1033 61.879 46.1033ZM70.8381 64.5885H72.2144C72.2144 64.5885 72.3039 63.9919 72.6955 63.9919H78.4133V53.9307L77.8464 53.3341V63.302H72.7253C72.7253 63.302 72.0353 63.3617 71.4982 64.0217C71.4982 64.0217 71.0805 63.3915 70.1816 63.3356H65.1799V53.4236L64.5645 54.0389V63.9919H70.148C70.1518 63.9919 70.8381 64.0217 70.8381 64.5885ZM60.1372 54.0016C60.1372 53.886 60.044 53.7928 59.9283 53.7928C59.8127 53.7928 59.7195 53.886 59.7195 54.0016C59.7195 54.1172 59.8127 54.2104 59.9283 54.2104C60.044 54.2104 60.1372 54.1172 60.1372 54.0016ZM59.9544 53.1402C60.361 51.3353 59.201 49.9704 59.201 49.9704C58.3805 51.9133 59.8314 53.6585 59.8314 53.6585C62.0282 52.7039 62.211 51.4844 62.211 51.4844C60.8235 51.5963 59.9544 53.1402 59.9544 53.1402ZM58.4066 52.1892C57.9366 54.244 59.6673 55.7133 59.6673 55.7133C61.6627 54.3931 61.6329 53.1588 61.6329 53.1588C60.2827 53.5093 59.6934 55.1837 59.6934 55.1837C59.7866 53.3341 58.4066 52.1892 58.4066 52.1892ZM60.6818 48.0909C60.6818 48.0909 60.5624 47.3451 61.3382 46.2301H58.7124C58.7124 46.2301 58.8243 46.5359 60.6818 48.0909ZM67.623 51.9729V51.6895L66.2578 50.3247H63.0577L64.8629 51.9729H67.623ZM64.3258 63.5257C64.3333 63.6227 64.3519 63.5034 64.3519 63.5034V62.1422L64.1281 62.3921C64.2549 62.7352 64.2997 63.2274 64.3258 63.5257ZM60.9652 50.1494C60.9652 50.265 61.0585 50.3582 61.1741 50.3582C61.2897 50.3582 61.383 50.265 61.383 50.1494C61.383 50.0338 61.2897 49.9406 61.1741 49.9406C61.0585 49.9369 60.9652 50.0338 60.9652 50.1494ZM64.3146 65.051C64.4302 65.051 64.5235 64.9577 64.5235 64.8421C64.5235 64.7265 64.4302 64.6333 64.3146 64.6333C64.199 64.6333 64.1057 64.7265 64.1057 64.8421C64.1057 64.954 64.199 65.051 64.3146 65.051ZM65.773 49.4595L67.623 51.2756V49.8697L65.773 48.0201V49.4595ZM64.337 60.274H63.4567V61.389H64.337V60.274ZM76.5932 48.2998L75.1535 49.8623L75.1684 52.3608C75.1684 52.3608 75.1236 52.7747 75.0341 52.9798H75.9591L78.5998 50.3359L76.5932 48.2998ZM68.8016 55.9631V56.3919H68.3391V56.8917H68.7456V57.3205H68.3391V57.8388H68.8053V58.2677H67.884V55.9706L67.2462 58.2677H66.8733L66.2094 55.9631H66.6942L66.9702 57.0706C67.0113 57.2012 67.0262 57.3317 67.0523 57.4622H67.056C67.0821 57.328 67.0896 57.1974 67.1269 57.0632L67.4029 55.9631H68.8016ZM69.3722 61.0683H68.8874L68.8016 60.6804H68.3391L68.257 61.0683H67.8057L68.3391 58.7674H68.8202L69.3722 61.0683ZM68.8948 55.9631H69.3536C69.6445 55.9631 70.163 55.9929 70.163 56.6232C70.163 56.8767 70.0623 57.093 69.8347 57.2161L70.2338 58.264H69.7527L69.3536 57.2012H69.3461V58.264H68.8948V55.9631ZM70.3233 55.9631H70.7784V58.264H70.3233V55.9631ZM69.9877 61.1018C69.8571 61.1018 69.7005 61.0645 69.596 60.9862V60.5536C69.7042 60.6282 69.8049 60.6767 69.9429 60.6767C70.0884 60.6767 70.204 60.5797 70.204 60.4269C70.204 60.2516 70.0623 60.1845 69.9354 60.0912C69.6706 59.916 69.5102 59.7444 69.5102 59.4088C69.5102 59.0471 69.7191 58.7338 70.1107 58.7338C70.2562 58.7338 70.3905 58.7749 70.5136 58.8457V59.2895C70.4203 59.2112 70.3084 59.144 70.1853 59.144C70.0436 59.144 69.9541 59.2298 69.9541 59.3678C69.9541 59.7482 70.6478 59.7668 70.6478 60.3896C70.6478 60.796 70.4166 61.1018 69.9877 61.1018ZM67.7237 59.1925H67.3619V61.0645H66.9068V59.1925H66.5488V58.7637H67.7199V59.1925H67.7237ZM65.4522 53.3042V62.9888H70.2525C70.797 62.9999 71.3528 63.4251 71.3528 63.4251V55.6797C68.4472 55.6163 67.8579 53.3042 67.8579 53.3042H65.4522ZM65.6611 65.9087C65.6163 65.1703 65.482 64.6333 65.3179 64.2007H64.4675C64.6988 65.0099 65.221 65.6178 65.221 65.6178C63.6656 64.6184 61.9835 65.2374 61.9835 65.2374C63.5239 66.6768 65.6611 65.9087 65.6611 65.9087ZM62.7742 50.3955L62.349 49.9965C61.3158 50.2576 60.5624 51.1749 60.5624 51.1749C61.0473 50.0152 60.7862 48.9263 60.5661 48.3482L60.2566 48.0947C59.3577 49.7951 60.3535 51.6597 60.3535 51.6597C61.7298 51.3278 62.431 50.7834 62.7742 50.3955ZM60.4542 63.4437C61.7261 65.1218 63.964 64.7414 63.964 64.7414C64.2363 62.3623 63.274 61.5903 63.274 61.5903C62.6772 62.8508 63.5798 64.376 63.5798 64.376C62.2184 63.123 60.4542 63.4437 60.4542 63.4437ZM64.3071 55.0047H63.4269V56.1197H64.3071V55.0047Z" fill="#042E86"/>
</svg>
