<svg width="240" height="109" viewBox="0 0 240 109" fill="none" xmlns="http://www.w3.org/2000/svg">
<rect width="240" height="108.387" rx="10" fill=""/>
<g clip-path="url(#clip0_2572_64380)">
<path d="M88.5588 54.5075L88.2674 54.3229C87.2758 53.3326 85.8958 52.9045 84.0494 53.0126C82.5121 53.107 81.2949 53.7156 80.3621 54.2818C80.3621 54.2668 80.3607 54.2531 80.3607 54.2394C80.3607 53.7594 80.4154 53.2369 80.4701 52.7295C80.5235 52.2139 80.5782 51.69 80.5782 51.1949C80.5782 50.6889 80.5207 50.2088 80.3457 49.7985C80.3019 49.6932 80.2062 49.6303 80.0831 49.6303C79.5866 49.6412 78.6169 49.9804 78.383 50.1883L78.2558 50.4673C78.2476 51.0171 78.1259 52.553 78.0042 52.7377C78.0096 52.7322 77.9399 52.9251 77.9399 52.9251C77.7292 55.1161 77.7251 57.0446 77.9194 58.6982C77.9412 58.8636 78.2599 59.1126 78.5061 59.2028C78.7769 59.3027 79.6208 59.0756 80.1077 58.8924C80.1022 58.8951 80.291 58.8636 80.291 58.8636C80.4441 58.8472 80.5344 58.7173 80.5289 58.5422C80.5262 58.5381 80.5413 58.0663 80.5413 58.0663C80.8928 56.637 82.3152 54.9329 83.9974 54.6771C84.9494 54.5266 85.7002 54.7701 86.2925 55.4157C86.3732 55.5319 86.5469 56.5604 85.9204 57.7421C85.4527 58.6161 84.5199 59.3533 83.2917 59.8128C82.1305 60.2546 80.8504 60.4324 79.272 60.3791C79.2064 60.3367 77.7935 59.3793 77.7935 59.3793C76.5407 58.4998 74.9856 57.407 73.5742 56.8709C73.3266 56.7752 72.8821 56.4059 72.614 56.1857L72.469 56.0667C71.6553 55.4129 70.107 54.3817 68.8638 53.5542C68.8638 53.5542 68.303 53.1781 68.1936 53.1042C68.1963 53.0591 68.1963 52.9634 68.1963 52.9634C68.2319 52.9237 69.0129 52.4559 69.0129 52.4559C70.107 51.8159 70.6117 51.5013 70.7198 51.3399C70.6979 51.3659 70.8661 51.2537 70.8661 51.2537C70.8757 51.2496 73.5769 49.7192 73.5769 49.7192C76.1796 48.2899 79.1284 46.6651 80.678 45.0621C80.6794 45.0594 80.7533 44.8159 80.7533 44.8159L80.7874 44.5985C80.8914 44.2565 80.8969 43.9926 80.8107 43.6876C80.7874 43.6 80.7067 43.5002 80.6001 43.481C79.3896 43.3593 77.8318 44.0856 76.4121 45.4177C76.0907 45.7186 75.8213 45.8636 75.5382 46.0195L75.3166 46.144C73.752 47.033 70.2246 49.224 68.3782 50.403C68.4986 48.4171 68.8665 45.5955 69.3192 43.2403L69.2686 42.9599C69.2631 42.949 69.0771 42.6043 69.0771 42.6043L68.9335 42.3486L68.8925 42.3376C68.5246 42.153 68.2237 42.2269 68.0021 42.2816L67.6342 42.4197L67.1418 42.5989C67.0461 42.618 66.9763 42.6768 66.938 42.7726C66.0572 44.9021 65.3214 48.4075 65.1463 51.2127C63.3847 50.0912 61.7558 49.2842 60.9571 48.8944L60.9352 48.8821L60.8408 48.8616C60.5536 48.8247 60.2021 48.6127 59.8656 48.4103C59.8301 48.3884 59.1955 47.9753 59.1955 47.9753L58.171 47.3188C58.1792 47.3257 57.9016 47.2587 57.9016 47.2587C57.4612 47.3339 56.6173 47.9001 56.367 48.2872C56.3342 48.3405 56.3205 48.3938 56.3205 48.4513C56.3205 48.5334 56.3452 48.6154 56.367 48.6934L56.4122 48.9026L56.46 49.0285C56.951 49.5318 58.1888 50.3702 59.4033 51.0226L60.8121 51.7694L62.9662 52.9469C62.9662 52.9565 63.3341 53.2383 63.3341 53.2383L63.5872 53.3832C63.5872 53.3832 63.6172 53.4024 63.6337 53.412C63.0579 53.7963 59.7152 56.0284 59.7152 56.0284L57.654 57.3947C57.4598 57.5274 56.646 57.8926 56.4669 57.9637C56.0196 58.1456 55.6818 58.4246 55.5423 58.7282L55.4849 58.8472L55.5409 58.9252L55.6982 59.0442C55.6914 59.0442 55.9102 59.1837 55.9102 59.1837L56.1373 59.3382C56.1427 59.341 56.352 59.3724 56.352 59.3724C56.7144 59.3861 57.2506 59.1796 58.2545 58.7419C59.1749 58.333 61.6778 56.823 62.7488 56.1802L63.2056 55.9053C63.3943 55.9217 63.6022 55.7617 63.7868 55.6208C64.0016 55.4499 64.4693 55.164 64.7524 55.0368C64.7607 55.0341 64.9234 54.9438 65.0766 54.859C65.0766 54.9069 65.0752 54.9821 65.0752 54.9821C65.1217 58.255 65.3105 60.6335 65.6674 62.4676L65.6729 62.499L65.7071 62.5729C65.8835 62.8314 66.0846 63.6082 66.261 64.2907L66.67 65.657C66.6782 65.6748 66.7849 65.7842 66.7849 65.7842C67.0174 65.9429 67.7286 66.2151 68.2004 66.1604L68.3194 66.1453L68.3933 65.9785C68.4329 65.7747 68.448 65.5736 68.448 65.352C68.448 65.1031 68.4288 64.8282 68.407 64.4904L68.3741 63.998C68.2237 61.7139 68.0746 58.4137 68.0746 56.2199C68.0746 56.1583 68.0746 56.1036 68.0746 56.0462C68.463 56.291 70.1604 57.3578 70.1604 57.3578C73.0503 59.2329 77.416 62.0654 80.053 62.815C80.1911 62.8573 80.3347 62.8245 80.4359 62.7274C80.44 62.7219 80.8421 62.4676 80.8421 62.4676L80.9187 62.4361C81.0692 62.3636 81.1718 62.1092 81.1895 61.8316C83.4134 61.7208 86.514 60.8632 88.1731 58.7775C88.8159 57.9692 89.1045 56.9776 89.1045 56.131C89.1017 55.4375 88.9089 54.8371 88.5588 54.5075Z" fill="#FCAF17"/>
<path d="M96.7351 45.5459H99.3296V52.818L108.058 45.5459H111.732L102.507 52.8836L112.498 61.7902H108.827L99.3296 53.0861V61.7902H96.7351V45.5459Z" fill="#776C61"/>
<path d="M114.305 45.5806H122.291C126.09 45.5806 128.076 46.8416 128.076 49.6003C128.076 51.5616 126.704 52.9142 124.883 53.2753V53.3437C127.496 53.6555 128.732 55.3706 128.732 57.3032C128.732 59.7281 126.957 61.8248 122.545 61.8248H114.304V45.5806H114.305ZM116.893 52.4232H122.162C124.119 52.4232 125.564 51.6805 125.564 49.9463C125.564 48.4377 124.852 47.4297 121.862 47.4297H116.892V52.4232H116.893ZM116.893 59.9825H121.999C125.171 59.9825 126.012 58.7434 126.012 57.1705C126.012 55.3022 124.721 54.2696 121.862 54.2696H116.892V59.9825H116.893Z" fill="#776C61"/>
<path d="M139.697 56.6314V52.0072H134.259V50.2757H139.697V47.7099H134.259V45.9578H141.735V56.6314H139.697ZM149.046 45.6118V61.785H147.091V52.0072H145.4V61.2748H143.444V45.6118H145.4V50.2565H147.091V45.6118H149.046Z" fill="#776C61"/>
<path d="M162.162 54.6341V56.3656H151.652V54.6341H153.079V47.6889H151.652V45.9574H161.918V47.6889H160.37V54.6341H162.162ZM155.074 54.6341H158.375V47.6889H155.074V54.6341ZM163.975 45.5908H165.991V61.7024H163.975V45.5908Z" fill="#776C61"/>
<path d="M170.726 51.7829H178.446V53.4939H168.751V45.7746H178.059V47.4856H170.726V48.7494H177.652V50.4399H170.726V51.7829ZM182.459 58.9935H171.643V60.033H182.622V61.7234H169.647V57.3851H180.483V56.3866H169.647V54.6962H182.459V58.9935ZM180.442 45.5298H182.458V48.5647H184.515V50.2552H182.458V53.5541H180.442V45.5298Z" fill="#776C61"/>
</g>
<defs>
<clipPath id="clip0_2572_64380">
<rect width="129.032" height="23.9472" fill="white" transform="translate(55.4849 42.2202)"/>
</clipPath>
</defs>
</svg>
