<svg width="240" height="109" viewBox="0 0 240 109" fill="none" xmlns="http://www.w3.org/2000/svg">
<rect y="0.386719" width="240" height="108.387" rx="10" fill=""/>
<g clip-path="url(#clip0_2572_64572)">
<path d="M110.19 55.0145L117.102 45.0769C117.116 45.0558 117.125 45.0312 117.126 45.0057C117.128 44.9802 117.122 44.9547 117.11 44.9321C117.098 44.9095 117.081 44.8906 117.059 44.8774C117.037 44.8642 117.012 44.8573 116.986 44.8573H111.227C111.168 44.8546 111.109 44.8669 111.056 44.893C111.002 44.9191 110.956 44.9583 110.922 45.0068L104.117 54.7979C104.077 54.8574 104.056 54.9275 104.056 54.9992C104.056 55.071 104.077 55.1411 104.117 55.2006L110.937 65.007C110.972 65.0555 111.018 65.0946 111.071 65.1207C111.124 65.1468 111.183 65.1591 111.243 65.1564H117.001C117.027 65.1565 117.052 65.1495 117.074 65.1363C117.096 65.1232 117.114 65.1042 117.126 65.0816C117.137 65.059 117.143 65.0336 117.142 65.0081C117.14 64.9826 117.132 64.9579 117.117 64.9368L110.19 55.0145Z" fill="#3467B1"/>
<path d="M101.512 44.7053L96.3267 42.015C96.3053 42.004 96.2814 41.9987 96.2574 41.9996C96.2333 42.0005 96.2099 42.0076 96.1894 42.0201C96.1689 42.0327 96.1519 42.0503 96.1402 42.0713C96.1284 42.0923 96.1223 42.116 96.1223 42.14V67.8594C96.1223 67.8835 96.1284 67.9071 96.1402 67.9281C96.1519 67.9491 96.1689 67.9668 96.1894 67.9793C96.2099 67.9919 96.2333 67.999 96.2574 67.9999C96.2814 68.0008 96.3053 67.9955 96.3267 67.9845L101.512 65.2942C101.592 65.2525 101.659 65.1899 101.705 65.113C101.752 65.0362 101.777 64.948 101.777 64.858V45.1415C101.777 45.0514 101.753 44.9631 101.706 44.8862C101.659 44.8092 101.592 44.7467 101.512 44.7053Z" fill="#3467B1"/>
<path d="M94.4693 52.6108H87.6582V46.4463C87.658 46.3559 87.6333 46.2672 87.5865 46.1898C87.5398 46.1124 87.4728 46.0492 87.3928 46.0071L82.2074 43.3198C82.1859 43.3081 82.1617 43.3022 82.1372 43.3028C82.1128 43.3033 82.0888 43.3102 82.0679 43.3229C82.0469 43.3355 82.0296 43.3534 82.0177 43.3748C82.0058 43.3963 81.9997 43.4204 82 43.4449V66.5533C82.0005 66.5774 82.0072 66.6011 82.0193 66.622C82.0314 66.6429 82.0486 66.6604 82.0693 66.6729C82.09 66.6854 82.1135 66.6924 82.1377 66.6934C82.1618 66.6943 82.1858 66.6891 82.2074 66.6783L87.3928 63.9881C87.4728 63.9467 87.5398 63.8841 87.5866 63.8072C87.6334 63.7302 87.6582 63.6419 87.6582 63.5519V57.3874H91.2299C91.2867 57.3876 91.3426 57.3741 91.3931 57.348C91.4435 57.322 91.4869 57.2843 91.5197 57.2379L94.5699 52.8304C94.5848 52.8106 94.5941 52.7872 94.5968 52.7626C94.5995 52.7379 94.5954 52.7131 94.5851 52.6906C94.5748 52.668 94.5586 52.6487 94.5382 52.6347C94.5178 52.6206 94.494 52.6124 94.4693 52.6108Z" fill="#3467B1"/>
<path d="M130.48 53.5104V51.5644H133.094V53.5104H140.933V55.3772H124.487V53.5104H130.48ZM138.478 46.1411V49.2188C138.478 49.3499 138.478 49.478 138.478 49.6001C138.478 49.7221 138.478 49.8532 138.447 49.9844C138.417 50.1155 138.408 50.2711 138.371 50.4572C138.292 50.875 138.222 51.2411 138.164 51.5552C138.106 51.8694 138.023 52.2629 137.917 52.7357H135.403C135.502 52.3923 135.584 52.0441 135.647 51.6925C135.72 51.3143 135.775 50.994 135.815 50.7317H127.159V48.9809H135.904V48.0292H127.159V46.1411H138.478ZM138.42 56.341V60.7425H129.95V61.6575H138.539V63.4877H127.159V59.0923H135.647V58.1772H127.159V56.3471L138.42 56.341Z" fill="#3467B1"/>
<path d="M151.569 46.8094V59.0529H142.745V46.8094H151.569ZM145.182 57.0672H149.148V48.7371H145.182V57.0672ZM156.422 45.6899V51.8605H158.722V54.0231H156.422V62.0635L154.006 63.3171V45.6899H156.422Z" fill="#3467B1"/>
</g>
<defs>
<clipPath id="clip0_2572_64572">
<rect width="76.722" height="26" fill="white" transform="translate(82 41.9995)"/>
</clipPath>
</defs>
</svg>
