<svg width="25" height="24" viewBox="0 0 25 24" fill="none" xmlns="http://www.w3.org/2000/svg">
<rect x="1.63672" y="0.5" width="16" height="20" rx="2" fill="#FFB800"/>
<rect x="7.63672" y="4.5" width="8" height="1" rx="0.5" fill="#FFECCF"/>
<rect x="7.63672" y="9.5" width="8" height="1" rx="0.5" fill="#FFECCF"/>
<rect x="7.63672" y="14.5" width="8" height="1" rx="0.5" fill="#FFECCF"/>
<circle cx="5.13672" cy="5" r="1.5" fill="#FFECCF"/>
<circle cx="5.13672" cy="10" r="1.5" fill="#FFECCF"/>
<circle cx="5.13672" cy="15" r="1.5" fill="#FFECCF"/>
<circle cx="16.6367" cy="16.5" r="7" fill="#623AD6"/>
<path d="M17.2394 12.7307C17.2394 12.4333 16.9983 12.1923 16.7009 12.1923C16.4035 12.1923 16.1625 12.4333 16.1625 12.7307L17.2394 12.7307ZM16.3202 20.6499C16.5305 20.8602 16.8714 20.8602 17.0817 20.6499L20.5084 17.2232C20.7187 17.0129 20.7187 16.672 20.5084 16.4617C20.2981 16.2514 19.9572 16.2514 19.7469 16.4617L16.7009 19.5077L13.6549 16.4617C13.4446 16.2514 13.1037 16.2514 12.8934 16.4617C12.6831 16.672 12.6831 17.0129 12.8934 17.2232L16.3202 20.6499ZM16.1625 12.7307L16.1625 20.2692L17.2394 20.2692L17.2394 12.7307L16.1625 12.7307Z" fill="white"/>
</svg>
