<svg width="41" height="29" viewBox="0 0 41 29" fill="none" xmlns="http://www.w3.org/2000/svg">
<path fill-rule="evenodd" clip-rule="evenodd" d="M5.81348 9.23688C5.81348 5.582 8.77634 2.61914 12.4312 2.61914C16.0861 2.61914 19.049 5.582 19.049 9.23688C19.049 12.8918 16.0861 15.8546 12.4312 15.8546C8.77634 15.8546 5.81348 12.8918 5.81348 9.23688ZM12.4312 0.619141C7.67177 0.619141 3.81348 4.47743 3.81348 9.23688C3.81348 12.3571 5.4717 15.09 7.95496 16.6023C3.34642 18.2003 0 22.1991 0 27.0122C0 27.5645 0.447715 28.0122 1 28.0122C1.55228 28.0122 2 27.5645 2 27.0122C2 22.0624 6.55417 17.8552 12.4266 17.8552C18.2991 17.8552 22.8532 22.0624 22.8532 27.0122C22.8532 27.5645 23.3009 28.0122 23.8532 28.0122C24.4055 28.0122 24.8532 27.5645 24.8532 27.0122C24.8532 22.2011 21.5096 18.2037 16.9041 16.6044C19.3892 15.0924 21.049 12.3585 21.049 9.23688C21.049 4.47743 17.1907 0.619141 12.4312 0.619141ZM33.6074 7.71838C34.2978 7.71838 34.8574 8.27803 34.8574 8.96838V13.2123H39.1025C39.7929 13.2123 40.3525 13.7719 40.3525 14.4623C40.3525 15.1526 39.7929 15.7123 39.1025 15.7123H34.8574V19.9555C34.8574 20.6459 34.2978 21.2055 33.6074 21.2055C32.9171 21.2055 32.3574 20.6459 32.3574 19.9555V15.7123H28.1154C27.4251 15.7123 26.8654 15.1526 26.8654 14.4623C26.8654 13.7719 27.4251 13.2123 28.1154 13.2123H32.3574V8.96838C32.3574 8.27803 32.9171 7.71838 33.6074 7.71838Z" fill="white"/>
</svg>
