<svg width="32" height="37" viewBox="0 0 32 37" fill="none" xmlns="http://www.w3.org/2000/svg">
<path fill-rule="evenodd" clip-rule="evenodd" d="M8.00976 5.15448C8.00333 5.10865 8 5.06182 8 5.01422V1.85742C8 1.30514 8.44772 0.857422 9 0.857422C9.55228 0.857422 10 1.30514 10 1.85742V5.01422C10 5.06182 9.99667 5.10865 9.99024 5.15448H22.0098C22.0033 5.10866 22 5.06186 22 5.01427V1.85748C22 1.30519 22.4477 0.857479 23 0.857479C23.5523 0.857479 24 1.30519 24 1.85748V5.01427C24 5.06186 23.9967 5.10866 23.9902 5.15448H26.5C29.2614 5.15448 31.5 7.39305 31.5 10.1545V31.1545C31.5 33.9159 29.2614 36.1545 26.5 36.1545H5.5C2.73858 36.1545 0.5 33.9159 0.5 31.1545V10.1545C0.5 7.39305 2.73858 5.15448 5.5 5.15448H8.00976ZM5.5 7.15448H26.5C28.1569 7.15448 29.5 8.49762 29.5 10.1545V14.0003H3C2.81786 14.0003 2.64709 14.049 2.5 14.1341V10.1545C2.5 8.49762 3.84315 7.15448 5.5 7.15448ZM3 16.0003H29.5V31.1545C29.5 32.8113 28.1569 34.1545 26.5 34.1545H5.5C3.84315 34.1545 2.5 32.8113 2.5 31.1545V15.8665C2.64709 15.9516 2.81786 16.0003 3 16.0003Z" fill="white"/>
</svg>
