<svg width="40" height="36" viewBox="0 0 40 36" fill="none" xmlns="http://www.w3.org/2000/svg">
<path fill-rule="evenodd" clip-rule="evenodd" d="M4.7297 24.6141C4.97575 25.0783 5.0293 25.6206 4.87879 26.1239L3.35382 31.2232L8.08839 29.9176C8.65912 29.7602 9.27025 29.8637 9.75727 30.2004C12.6109 32.1728 16.1865 33.3561 20.0867 33.3561C29.6581 33.3561 37.0994 26.3133 37.0994 18.0003C37.0994 9.68728 29.6581 2.64453 20.0867 2.64453C10.5153 2.64453 3.07397 9.68728 3.07397 18.0003C3.07397 20.3666 3.66613 22.6078 4.7297 24.6141ZM1.4477 33.8234C0.993251 33.9488 0.578245 33.5239 0.713461 33.0718L2.96264 25.5509C1.75246 23.268 1.07397 20.7065 1.07397 18.0003C1.07397 8.41498 9.58624 0.644531 20.0867 0.644531C30.5871 0.644531 39.0994 8.41498 39.0994 18.0003C39.0994 27.5856 30.5871 35.3561 20.0867 35.3561C15.78 35.3561 11.8077 34.049 8.62006 31.8456L1.4477 33.8234ZM12.6592 15.2983C12.6592 14.7461 13.1069 14.2983 13.6592 14.2983H26.343C26.8953 14.2983 27.343 14.7461 27.343 15.2983C27.343 15.8506 26.8953 16.2983 26.343 16.2983H13.6592C13.1069 16.2983 12.6592 15.8506 12.6592 15.2983ZM13.6592 19.703C13.1069 19.703 12.6592 20.1507 12.6592 20.703C12.6592 21.2553 13.1069 21.703 13.6592 21.703H26.343C26.8953 21.703 27.343 21.2553 27.343 20.703C27.343 20.1507 26.8953 19.703 26.343 19.703H13.6592Z" fill="white"/>
</svg>
