<svg width="38" height="40" viewBox="0 0 38 40" fill="none" xmlns="http://www.w3.org/2000/svg">
<path fill-rule="evenodd" clip-rule="evenodd" d="M16.162 2.00596C16.5822 0.804546 17.7159 0 18.9887 0C20.2592 0 21.3914 0.801708 21.8133 2.0001L23.2607 6.11103C25.4319 6.78015 27.3848 7.94736 28.9859 9.47924L33.5832 8.59527C34.8165 8.35813 36.0743 8.922 36.7093 9.99676C37.3432 11.0697 37.2158 12.4134 36.3923 13.3385L33.1481 16.9832C33.3437 17.931 33.4464 18.9127 33.4464 19.9184C33.4464 20.9693 33.3342 21.994 33.1211 22.9811L36.4079 26.6585C37.2347 27.5836 37.3638 28.9298 36.7288 30.0046C36.0948 31.0775 34.8402 31.6415 33.6085 31.4072L28.8356 30.4993C27.283 31.9431 25.4122 33.0493 23.34 33.701L21.8386 37.994C21.4184 39.1955 20.2847 40 19.0119 40C17.7414 40 16.6092 39.1983 16.1873 37.9999L14.6753 33.7054C12.5957 33.0536 10.7186 31.9444 9.16171 30.4955L4.43298 31.4047C3.19966 31.6419 1.94194 31.078 1.3069 30.0032C0.672966 28.9303 0.800441 27.5866 1.62393 26.6615L4.88413 22.9988C4.66854 22.0062 4.55497 20.9756 4.55497 19.9184C4.55497 18.9185 4.65657 17.9423 4.84999 16.9996L1.59271 13.3552C0.765876 12.4301 0.63676 11.0839 1.27179 10.0091C1.90573 8.93619 3.16037 8.37222 4.39206 8.6065L9.00968 9.48483C10.6079 7.95401 12.5571 6.78679 14.7245 6.11605L16.162 2.00596ZM31.4464 19.9184C31.4464 26.792 25.8743 32.3641 19.0007 32.3641C12.1271 32.3641 6.55497 26.792 6.55497 19.9184C6.55497 13.0448 12.1271 7.47266 19.0007 7.47266C25.8743 7.47266 31.4464 13.0448 31.4464 19.9184ZM18.9998 24.3662C21.4546 24.3662 23.4447 22.3762 23.4447 19.9214C23.4447 17.4666 21.4546 15.4766 18.9998 15.4766C16.545 15.4766 14.555 17.4666 14.555 19.9214C14.555 22.3762 16.545 24.3662 18.9998 24.3662Z" fill="white"/>
</svg>
