<svg width="40" height="29" viewBox="0 0 40 29" fill="none" xmlns="http://www.w3.org/2000/svg">
<path fill-rule="evenodd" clip-rule="evenodd" d="M25 2.71387H5C3.34315 2.71387 2 4.05701 2 5.71387V23.7139C2 25.3707 3.34315 26.7139 5 26.7139H25C26.6569 26.7139 28 25.3707 28 23.7139V5.71387C28 4.05701 26.6569 2.71387 25 2.71387ZM5 0.713867C2.23858 0.713867 0 2.95244 0 5.71387V23.7139C0 26.4753 2.23858 28.7139 5 28.7139H25C27.7614 28.7139 30 26.4753 30 23.7139V21.6437L35.6429 24.505C37.6385 25.5168 39.9996 24.0668 39.9996 21.8293V8.59878C39.9996 6.36125 37.6385 4.91119 35.6429 5.92308L30 8.78431V5.71387C30 2.95244 27.7614 0.713867 25 0.713867H5ZM8.24121 10.2784C8.24121 9.72616 8.68893 9.27844 9.24121 9.27844H15.6048C16.1571 9.27844 16.6048 9.72616 16.6048 10.2784C16.6048 10.8307 16.1571 11.2784 15.6048 11.2784H9.24121C8.68893 11.2784 8.24121 10.8307 8.24121 10.2784ZM30.4902 19.6499V10.7781L36.5474 7.70688C37.2126 7.36958 37.9996 7.85294 37.9996 8.59878V21.8293C37.9996 22.5751 37.2126 23.0585 36.5474 22.7212L30.4902 19.6499Z" fill="white"/>
</svg>
