<svg width="41" height="32" viewBox="0 0 41 32" fill="none" xmlns="http://www.w3.org/2000/svg">
<path fill-rule="evenodd" clip-rule="evenodd" d="M5.95215 0.448242C3.19072 0.448242 0.952148 2.68682 0.952148 5.44824V26.6987C0.952148 29.4602 3.19072 31.6987 5.95215 31.6987H34.2631C37.0245 31.6987 39.2631 29.4602 39.2631 26.6987V13.5519C39.2631 12.9996 38.8154 12.5519 38.2631 12.5519C37.7108 12.5519 37.2631 12.9996 37.2631 13.5519V26.6987C37.2631 28.3556 35.92 29.6987 34.2631 29.6987H5.95215C4.29529 29.6987 2.95215 28.3556 2.95215 26.6987V5.44824C2.95215 3.79139 4.29529 2.44824 5.95215 2.44824H27.1681C27.7204 2.44824 28.1681 2.00053 28.1681 1.44824C28.1681 0.895957 27.7204 0.448242 27.1681 0.448242H5.95215ZM37.2523 7.41873C39.0906 7.41873 40.5808 5.92851 40.5808 4.09022C40.5808 2.25194 39.0906 0.761719 37.2523 0.761719C35.4141 0.761719 33.9238 2.25194 33.9238 4.09022C33.9238 5.92851 35.4141 7.41873 37.2523 7.41873Z" fill="white"/>
</svg>
