<svg width="40" height="34" viewBox="0 0 40 34" fill="none" xmlns="http://www.w3.org/2000/svg">
<path fill-rule="evenodd" clip-rule="evenodd" d="M38 5.80957V28.5368C38 30.1937 36.6569 31.5368 35 31.5368L11.0908 31.5368V25.8084H24.4796C24.7342 25.8084 24.9793 25.7113 25.1648 25.5368L25.5895 25.1373C26.0092 24.7424 26.0092 24.0754 25.5895 23.6806L25.1648 23.2811C24.9793 23.1066 24.7342 23.0094 24.4796 23.0094H11.0908V18.3457H31.1907C31.3844 18.3457 31.574 18.2894 31.7364 18.1836L32.3498 17.7841C32.9555 17.3896 32.9555 16.5027 32.3498 16.1082L31.7364 15.7087C31.574 15.6029 31.3844 15.5466 31.1907 15.5466H11.0908V10.881H24.4796C24.7342 10.881 24.9793 10.7838 25.1648 10.6093L25.5895 10.2098C26.0092 9.81491 26.0092 9.14795 25.5895 8.75309L25.1648 8.35357C24.9793 8.17907 24.7342 8.08191 24.4796 8.08191H11.0908V2.80957L35 2.80957C36.6569 2.80957 38 4.15272 38 5.80957ZM9.09082 2.80957L9.09082 31.5368H5C3.34315 31.5368 2 30.1937 2 28.5368L2 5.80957C2 4.15271 3.34314 2.80957 5 2.80957L9.09082 2.80957ZM10.0908 0.80957H5C2.23857 0.80957 0 3.04814 0 5.80957V28.5368C0 31.2983 2.23857 33.5368 5 33.5368L10.0908 33.5368L35 33.5368C37.7614 33.5368 40 31.2983 40 28.5368V5.80957C40 3.04815 37.7614 0.80957 35 0.80957H10.0908Z" fill="white"/>
</svg>
