<svg width="33" height="36" viewBox="0 0 33 36" fill="none" xmlns="http://www.w3.org/2000/svg">
<path fill-rule="evenodd" clip-rule="evenodd" d="M4.93283 17.6577C4.95015 17.6373 4.96842 17.6175 4.98764 17.5983L20.5273 2.05863C22.9975 -0.411571 27.0025 -0.411571 29.4727 2.05863C31.9429 4.52883 31.9429 8.53381 29.4727 11.004L23.5856 16.8911C23.5622 16.9145 23.5379 16.9365 23.5128 16.9572L12.3902 28.0797C10.9452 29.5248 8.60239 29.5248 7.15738 28.0797C5.71237 26.6347 5.71237 24.2919 7.15738 22.8469L17.5706 12.4337C17.9612 12.0431 18.5943 12.0431 18.9849 12.4337C19.3754 12.8242 19.3754 13.4573 18.9849 13.8479L8.57159 24.2611C7.90763 24.9251 7.90764 26.0016 8.57159 26.6655C9.23555 27.3295 10.312 27.3295 10.976 26.6655L26.94 10.7016C26.9634 10.6781 26.9877 10.6561 27.0128 10.6355L28.0585 9.58979C29.7476 7.90064 29.7476 5.16199 28.0585 3.47284C26.3693 1.78369 23.6307 1.78369 21.9415 3.47284L12.1344 13.2799C12.1171 13.3003 12.0988 13.3201 12.0796 13.3393L4.12467 21.2942C1.38124 24.0377 1.38124 28.4857 4.12467 31.2291C6.8681 33.9725 11.3161 33.9725 14.0595 31.2291L30.6589 14.6297C31.0494 14.2392 31.6826 14.2392 32.0731 14.6297C32.4636 15.0203 32.4636 15.6534 32.0731 16.0439L15.4737 32.6433C11.9493 36.1678 6.23494 36.1678 2.71046 32.6433C-0.814026 29.1188 -0.814024 23.4045 2.71046 19.88L4.93283 17.6577Z" fill="white"/>
</svg>
