<svg width="40" height="40" viewBox="0 0 40 40" fill="none" xmlns="http://www.w3.org/2000/svg">
<path fill-rule="evenodd" clip-rule="evenodd" d="M33.2495 0.479015L33.8614 5.98629L39.3687 6.59821L30.9286 15.0383C32.1223 17.3126 32.7976 19.9017 32.7976 22.6485C32.7976 31.7051 25.4557 39.047 16.3991 39.047C7.34239 39.047 0.000498938 31.7051 0.000498938 22.6485C0.000498938 13.5918 7.34239 6.24989 16.3991 6.24989C19.5649 6.24989 22.5212 7.14701 25.0276 8.70089L33.2495 0.479015ZM24.5748 10.7946C22.2524 9.18981 19.4355 8.24989 16.3991 8.24989C8.44696 8.24989 2.0005 14.6963 2.0005 22.6485C2.0005 30.6006 8.44695 37.047 16.3991 37.047C24.3512 37.047 30.7976 30.6006 30.7976 22.6485C30.7976 19.9386 30.049 17.4036 28.7474 15.239L26.2948 14.9665L25.3346 15.9267C26.7443 17.7977 27.58 20.1255 27.58 22.6485C27.58 28.8235 22.5741 33.8293 16.3991 33.8293C10.2241 33.8293 5.21827 28.8235 5.21827 22.6485C5.21827 16.4735 10.2241 11.4677 16.3991 11.4677C19.3302 11.4677 21.9979 12.5956 23.9919 14.441L24.8811 13.5518L24.5748 10.7946ZM22.5763 15.8565L18.8526 19.5803C17.3449 18.4298 15.1813 18.5435 13.8033 19.9216C12.3013 21.4236 12.3013 23.8588 13.8033 25.3608C15.3053 26.8629 17.7406 26.8629 19.2426 25.3608C20.373 24.2305 20.6527 22.5716 20.0817 21.1796L23.9033 17.358C24.9595 18.8534 25.58 20.6785 25.58 22.6485C25.58 27.7189 21.4695 31.8293 16.3991 31.8293C11.3287 31.8293 7.21827 27.7189 7.21827 22.6485C7.21827 17.5781 11.3287 13.4677 16.3991 13.4677C18.7779 13.4677 20.9455 14.3724 22.5763 15.8565Z" fill="white"/>
</svg>
