<svg width="102" height="22" viewBox="0 0 102 22" fill="none" xmlns="http://www.w3.org/2000/svg">
<path d="M34.4946 2.24313C33.984 2.08151 33.4237 2.00024 32.8147 2.00024C31.3151 2.00024 30.1991 2.36413 29.4659 3.09189C28.7326 3.81966 28.0984 4.85442 28.0984 6.19618V7.11898H26.9543C26.2582 7.11898 25.6938 7.68332 25.6938 8.37948C25.6938 9.07563 26.2582 9.63997 26.9543 9.63997H28.0984V18.3008C28.0984 19.2346 28.8554 19.9915 29.7891 19.9915C30.7228 19.9915 31.4798 19.2346 31.4798 18.3008V9.63817H34.074C34.7702 9.63817 35.3345 9.07382 35.3345 8.37767C35.3345 7.68152 34.7702 7.11717 34.074 7.11717H31.4798V6.26842C31.4798 5.71943 31.6067 5.30228 31.8625 5.01966C32.1173 4.73704 32.5331 4.59528 33.11 4.59528C33.2747 4.59528 33.4274 4.6034 33.5672 4.61966C33.7071 4.63591 33.8763 4.66029 34.0741 4.6928C34.4357 4.75781 34.7163 4.69731 34.9141 4.51131C35.1119 4.3253 35.2517 4.04629 35.3345 3.67428C35.4164 3.28602 35.3796 2.97903 35.2232 2.75239C35.0668 2.52575 34.8239 2.356 34.4946 2.24313Z" fill="#5F49DC"/>
<path d="M73.3166 6.97913C74.3036 6.97913 75.014 7.92701 74.737 8.87434L71.9741 18.3228C71.6833 19.317 70.7717 20.0003 69.7359 20.0003V20.0003C68.6748 20.0003 67.7475 19.2839 67.4796 18.2572L65.5606 10.9043L63.645 18.2442C63.375 19.2786 62.4408 20.0003 61.3718 20.0003V20.0003C60.3297 20.0003 59.4121 19.3138 59.118 18.314L56.3739 8.9874C56.0787 7.98426 56.8307 6.97913 57.8764 6.97913V6.97913C58.6049 6.97913 59.2372 7.48143 59.402 8.19104L61.4239 16.8978L63.4924 8.66262C63.741 7.67298 64.6307 6.97913 65.6511 6.97913V6.97913C66.6747 6.97913 67.5664 7.67731 67.8118 8.67106L69.8383 16.8743L71.8753 8.12348C72.0313 7.45335 72.6286 6.97913 73.3166 6.97913V6.97913Z" fill="#5F49DC"/>
<path d="M48.258 20.0003C47.0044 20.0003 45.8763 19.7261 44.8734 19.1777C43.8706 18.6136 43.0793 17.8223 42.4995 16.8038C41.9354 15.7853 41.6534 14.6101 41.6534 13.2782C41.6534 11.9463 41.9433 10.7711 42.523 9.75262C43.1185 8.73412 43.9254 7.95066 44.9439 7.40224C45.9624 6.83815 47.0985 6.5561 48.352 6.5561C49.6055 6.5561 50.7416 6.83815 51.7601 7.40224C52.7786 7.95066 53.5777 8.73412 54.1574 9.75262C54.7529 10.7711 55.0506 11.9463 55.0506 13.2782C55.0506 14.6101 54.745 15.7853 54.1339 16.8038C53.5385 17.8223 52.7237 18.6136 51.6895 19.1777C50.671 19.7261 49.5272 20.0003 48.258 20.0003ZM48.258 17.1328C48.8534 17.1328 49.4097 16.9918 49.9268 16.7098C50.4595 16.412 50.8826 15.9733 51.196 15.3935C51.5093 14.8138 51.666 14.1087 51.666 13.2782C51.666 12.0403 51.337 11.0923 50.6789 10.4342C50.0364 9.76045 49.2451 9.42357 48.305 9.42357C47.3648 9.42357 46.5735 9.76045 45.9311 10.4342C45.3043 11.0923 44.9909 12.0403 44.9909 13.2782C44.9909 14.5161 45.2965 15.4719 45.9076 16.1457C46.5344 16.8038 47.3178 17.1328 48.258 17.1328Z" fill="#5F49DC"/>
<path d="M38.4244 2.60738C39.3331 2.60738 40.0697 3.344 40.0697 4.25265V18.355C40.0697 19.2636 39.3331 20.0002 38.4244 20.0002C37.5158 20.0002 36.7792 19.2636 36.7792 18.355V4.25265C36.7792 3.34399 37.5158 2.60738 38.4244 2.60738Z" fill="#5F49DC"/>
<path d="M76.5662 18.6815C76.5662 18.4904 76.631 18.3299 76.7607 18.2002C76.8905 18.0671 77.0663 18.0005 77.2882 18.0005C77.5135 18.0005 77.6893 18.0671 77.8156 18.2002C77.9453 18.3299 78.0102 18.4904 78.0102 18.6815C78.0102 18.8727 77.9453 19.0332 77.8156 19.1629C77.6893 19.2926 77.5135 19.3575 77.2882 19.3575C77.0663 19.3575 76.8905 19.2926 76.7607 19.1629C76.631 19.0332 76.5662 18.8727 76.5662 18.6815Z" fill="#5F49DC"/>
<path d="M82.1834 13.7554V14.6567H79.0597V13.7554H82.1834ZM79.961 12.3984H81.1951V17.7649C81.1951 17.9356 81.219 18.0671 81.2668 18.1592C81.318 18.248 81.388 18.3077 81.4767 18.3385C81.5655 18.3692 81.6696 18.3845 81.7891 18.3845C81.8744 18.3845 81.9563 18.3794 82.0349 18.3692C82.1134 18.3589 82.1765 18.3487 82.2243 18.3385L82.2295 19.2807C82.127 19.3114 82.0076 19.3387 81.871 19.3626C81.7379 19.3865 81.5842 19.3984 81.4101 19.3984C81.1268 19.3984 80.8759 19.3489 80.6574 19.2499C80.4389 19.1475 80.2682 18.982 80.1453 18.7532C80.0224 18.5245 79.961 18.2207 79.961 17.8417V12.3984Z" fill="#5F49DC"/>
<path d="M85.3686 19.3984C84.959 19.3984 84.5886 19.3319 84.2575 19.1987C83.9297 19.0622 83.6498 18.8727 83.4177 18.6303C83.1889 18.388 83.0131 18.1029 82.8902 17.7752C82.7673 17.4474 82.7059 17.0941 82.7059 16.7152V16.5104C82.7059 16.0768 82.769 15.6842 82.8953 15.3326C83.0217 14.981 83.1975 14.6806 83.4228 14.4314C83.6481 14.1787 83.9144 13.9859 84.2216 13.8527C84.5289 13.7196 84.8617 13.653 85.2201 13.653C85.6161 13.653 85.9626 13.7196 86.2597 13.8527C86.5567 13.9859 86.8024 14.1736 86.997 14.416C87.195 14.655 87.3418 14.94 87.4374 15.2712C87.5364 15.6023 87.5859 15.9676 87.5859 16.367V16.8944H83.305V16.0085H86.3672V15.9112C86.3604 15.6893 86.316 15.4811 86.234 15.2865C86.1555 15.0919 86.0343 14.9349 85.8705 14.8154C85.7066 14.6959 85.4881 14.6362 85.215 14.6362C85.0102 14.6362 84.8276 14.6806 84.6671 14.7693C84.5101 14.8547 84.3786 14.9793 84.2728 15.1431C84.167 15.307 84.0851 15.505 84.027 15.7371C83.9724 15.9659 83.9451 16.2236 83.9451 16.5104V16.7152C83.9451 16.9576 83.9775 17.1829 84.0424 17.3911C84.1107 17.596 84.2097 17.7752 84.3394 17.9288C84.4691 18.0824 84.6261 18.2036 84.8105 18.2924C84.9948 18.3777 85.2048 18.4204 85.4403 18.4204C85.7373 18.4204 86.0019 18.3606 86.234 18.2412C86.4662 18.1217 86.6676 17.9527 86.8383 17.7342L87.4886 18.3641C87.3691 18.5382 87.2138 18.7054 87.0226 18.8659C86.8315 19.0229 86.5976 19.1509 86.3211 19.2499C86.048 19.3489 85.7305 19.3984 85.3686 19.3984Z" fill="#5F49DC"/>
<path d="M91.4625 18.1848V15.5425C91.4625 15.3445 91.4266 15.1739 91.355 15.0305C91.2833 14.8871 91.174 14.7762 91.0272 14.6976C90.8838 14.6191 90.7029 14.5799 90.4844 14.5799C90.283 14.5799 90.1089 14.614 89.9621 14.6823C89.8153 14.7505 89.701 14.8427 89.619 14.9588C89.5371 15.0749 89.4961 15.2063 89.4961 15.3531H88.2672C88.2672 15.1346 88.3201 14.9229 88.4259 14.7181C88.5317 14.5133 88.6854 14.3306 88.8868 14.1702C89.0882 14.0098 89.3289 13.8834 89.6088 13.7913C89.8887 13.6991 90.2028 13.653 90.551 13.653C90.9675 13.653 91.3362 13.723 91.6571 13.863C91.9814 14.0029 92.2357 14.2146 92.4201 14.4979C92.6078 14.7779 92.7017 15.1295 92.7017 15.5528V18.0158C92.7017 18.2685 92.7188 18.4955 92.7529 18.6969C92.7905 18.8949 92.8434 19.0673 92.9116 19.2141V19.296H91.6468C91.5888 19.1629 91.5427 18.9939 91.5086 18.7891C91.4778 18.5808 91.4625 18.3794 91.4625 18.1848ZM91.6417 15.9266L91.652 16.6896H90.7661C90.5373 16.6896 90.3359 16.7118 90.1618 16.7562C89.9877 16.7971 89.8426 16.8586 89.7266 16.9405C89.6105 17.0224 89.5234 17.1214 89.4654 17.2375C89.4074 17.3536 89.3784 17.485 89.3784 17.6318C89.3784 17.7786 89.4125 17.9134 89.4808 18.0363C89.5491 18.1558 89.6481 18.2497 89.7778 18.318C89.9109 18.3862 90.0714 18.4204 90.2591 18.4204C90.5117 18.4204 90.7319 18.3692 90.9197 18.2668C91.1109 18.1609 91.2611 18.0329 91.3703 17.8827C91.4796 17.7291 91.5376 17.584 91.5444 17.4474L91.9438 17.9954C91.9029 18.1353 91.8329 18.2855 91.7339 18.446C91.6349 18.6064 91.5052 18.7601 91.3447 18.9069C91.1877 19.0502 90.9982 19.168 90.7763 19.2602C90.5578 19.3524 90.3052 19.3984 90.0184 19.3984C89.6566 19.3984 89.334 19.3267 89.0506 19.1834C88.7673 19.0366 88.5454 18.8403 88.3849 18.5945C88.2245 18.3453 88.1443 18.0636 88.1443 17.7496C88.1443 17.456 88.1989 17.1965 88.3081 16.9712C88.4208 16.7425 88.5847 16.5513 88.7997 16.3977C89.0182 16.2441 89.2845 16.128 89.5986 16.0495C89.9126 15.9676 90.2711 15.9266 90.6739 15.9266H91.6417Z" fill="#5F49DC"/>
<path d="M95.0165 14.882V19.296H93.7824V13.7554H94.9448L95.0165 14.882ZM94.8168 16.3209L94.3969 16.3158C94.3969 15.9334 94.4446 15.5801 94.5402 15.2558C94.6358 14.9315 94.7758 14.6498 94.9601 14.4109C95.1445 14.1685 95.3732 13.9824 95.6463 13.8527C95.9228 13.7196 96.242 13.653 96.6039 13.653C96.8565 13.653 97.0869 13.6906 97.2952 13.7657C97.5068 13.8374 97.6895 13.9517 97.8431 14.1088C98.0001 14.2658 98.1196 14.4672 98.2015 14.713C98.2869 14.9588 98.3296 15.2558 98.3296 15.604V19.296H97.0955V15.7115C97.0955 15.4418 97.0545 15.2302 96.9726 15.0766C96.894 14.9229 96.7797 14.8137 96.6295 14.7488C96.4827 14.6806 96.3069 14.6464 96.102 14.6464C95.8699 14.6464 95.6719 14.6908 95.508 14.7796C95.3476 14.8683 95.2162 14.9895 95.1138 15.1431C95.0113 15.2968 94.9362 15.4743 94.8884 15.6757C94.8406 15.8771 94.8168 16.0922 94.8168 16.3209ZM98.2527 15.9932L97.6741 16.1212C97.6741 15.7866 97.7202 15.4709 97.8124 15.1739C97.9079 14.8734 98.0462 14.6106 98.2271 14.3853C98.4115 14.1565 98.6385 13.9773 98.9082 13.8476C99.1779 13.7179 99.4868 13.653 99.835 13.653C100.118 13.653 100.371 13.6923 100.593 13.7708C100.818 13.8459 101.009 13.9654 101.166 14.1292C101.323 14.2931 101.443 14.5065 101.525 14.7693C101.607 15.0288 101.648 15.3428 101.648 15.7115V19.296H100.409V15.7064C100.409 15.4265 100.368 15.2097 100.286 15.0561C100.207 14.9025 100.094 14.7966 99.9477 14.7386C99.8009 14.6772 99.6251 14.6464 99.4203 14.6464C99.2291 14.6464 99.0601 14.6823 98.9133 14.754C98.7699 14.8222 98.6487 14.9195 98.5497 15.0458C98.4507 15.1687 98.3756 15.3104 98.3244 15.4709C98.2766 15.6313 98.2527 15.8054 98.2527 15.9932Z" fill="#5F49DC"/>
<rect x="0.643311" y="0.00012207" width="22.0003" height="22.0003" rx="8.19113" fill="#5F49DC"/>
<path opacity="0.6" d="M15.0874 11.115L9.36857 7.77622C8.65809 7.36153 7.74139 7.61019 7.33128 8.32784C6.92118 9.04627 7.16709 9.97324 7.87679 10.3879L13.5957 13.7267C14.3061 14.1414 15.2228 13.8928 15.6329 13.1751C16.0438 12.4567 15.7979 11.5297 15.0874 11.115Z" fill="white"/>
<path opacity="0.6" d="M15.1195 7.05625L9.40063 10.3951C8.69014 10.8097 7.77344 10.5611 7.36334 9.84344C6.95324 9.125 7.19914 8.19804 7.90885 7.78334L13.6277 4.44454C14.3382 4.02985 15.2549 4.27851 15.665 4.99616C16.0751 5.71459 15.83 6.64156 15.1195 7.05625Z" fill="white"/>
<path opacity="0.6" d="M15.1195 13.7382L9.40063 17.077C8.69014 17.4917 7.77344 17.2431 7.36334 16.5254C6.95324 15.807 7.19914 14.88 7.90885 14.4653L13.6277 11.1265C14.3382 10.7118 15.2549 10.9605 15.665 11.6781C16.0751 12.3973 15.83 13.3235 15.1195 13.7382Z" fill="white"/>
<path d="M15.1208 7.04659C15.8493 6.6213 16.0931 5.69602 15.6654 4.97993C15.2377 4.26384 14.3005 4.0281 13.5721 4.4534C12.8436 4.87869 12.5998 5.80396 13.0275 6.52006C13.4552 7.23615 14.3924 7.47188 15.1208 7.04659Z" fill="white"/>
<path d="M14.3514 13.9464C15.1748 13.9464 15.8424 13.2714 15.8424 12.4387C15.8424 11.606 15.1748 10.931 14.3514 10.931C13.5279 10.931 12.8604 11.606 12.8604 12.4387C12.8604 13.2714 13.5279 13.9464 14.3514 13.9464Z" fill="white"/>
<path d="M10.0936 16.1199C10.2843 15.3099 9.78944 14.4971 8.98826 14.3046C8.18709 14.1121 7.38301 14.6127 7.19231 15.4227C7.0016 16.2328 7.49649 17.0456 8.29767 17.2381C9.09884 17.4306 9.90292 16.93 10.0936 16.1199Z" fill="white"/>
<path d="M8.65574 10.5961C9.4792 10.5961 10.1467 9.92112 10.1467 9.08844C10.1467 8.25577 9.4792 7.58075 8.65574 7.58075C7.83229 7.58075 7.16475 8.25577 7.16475 9.08844C7.16475 9.92112 7.83229 10.5961 8.65574 10.5961Z" fill="white"/>
</svg>
