<svg width="41" height="12" viewBox="0 0 41 12" fill="none" xmlns="http://www.w3.org/2000/svg">
<path fill-rule="evenodd" clip-rule="evenodd" d="M0.824219 6.22993C0.824219 5.75345 1.2263 5.36719 1.72229 5.36719H39.1418C39.6378 5.36719 40.0399 5.75345 40.0399 6.22993C40.0399 6.70641 39.6378 7.09268 39.1418 7.09268H1.72229C1.2263 7.09268 0.824219 6.70641 0.824219 6.22993Z" fill="#333333"/>
<path fill-rule="evenodd" clip-rule="evenodd" d="M34.0282 0.935821C34.3782 0.568268 34.9458 0.568268 35.2958 0.935821L39.7776 5.6417C40.1276 6.00926 40.1276 6.60518 39.7776 6.97273L35.2958 11.6786C34.9458 12.0462 34.3782 12.0462 34.0282 11.6786C33.6781 11.3111 33.6781 10.7151 34.0282 10.3476L37.8761 6.30722L34.0282 2.26685C33.6781 1.89929 33.6781 1.30337 34.0282 0.935821Z" fill="#333333"/>
</svg>
