<svg width="27" height="27" viewBox="0 0 27 27" fill="none" xmlns="http://www.w3.org/2000/svg">
<path d="M17.5138 27H9.48734C4.26924 27 0 22.7309 0 17.5119V9.48694C0 4.26907 4.26924 0 9.48734 0H17.5127C22.7308 0 27 4.26907 27 9.48694V17.5119C27.0011 22.7309 22.7319 27 17.5138 27Z" fill="#623AD6"/>
<path opacity="0.6" d="M18.5461 14.1117L10.7505 9.61103C9.78197 9.05203 8.53238 9.38722 7.97335 10.3546C7.41432 11.323 7.74953 12.5726 8.71695 13.1316L16.5126 17.6323C17.4811 18.1913 18.7307 17.8561 19.2897 16.8887C19.8498 15.9202 19.5146 14.6707 18.5461 14.1117Z" fill="white"/>
<path opacity="0.6" d="M18.5554 8.63941L10.7597 13.1401C9.79125 13.6991 8.54166 13.3639 7.98263 12.3965C7.4236 11.4281 7.75881 10.1785 8.72623 9.61953L16.5218 5.11885C17.4903 4.55984 18.7399 4.89503 19.299 5.86242C19.858 6.83087 19.5238 8.08041 18.5554 8.63941Z" fill="white"/>
<path opacity="0.6" d="M18.5553 17.6448L10.7597 22.1454C9.79125 22.7044 8.54166 22.3692 7.98263 21.4019C7.4236 20.4334 7.75881 19.1839 8.72623 18.6249L16.5218 14.1242C17.4903 13.5652 18.7399 13.9004 19.299 14.8678C19.858 15.8373 19.5238 17.0858 18.5553 17.6448Z" fill="white"/>
<path d="M18.5864 8.62847C19.5794 8.05518 19.9117 6.80792 19.3287 5.84263C18.7457 4.87734 17.4681 4.55957 16.4752 5.13286C15.4822 5.70615 15.1499 6.95342 15.7329 7.9187C16.3158 8.88399 17.5934 9.20176 18.5864 8.62847Z" fill="white"/>
<path d="M17.5354 17.9212C18.6579 17.9212 19.5678 17.0112 19.5678 15.8888C19.5678 14.7664 18.6579 13.8564 17.5354 13.8564C16.4129 13.8564 15.5029 14.7664 15.5029 15.8888C15.5029 17.0112 16.4129 17.9212 17.5354 17.9212Z" fill="white"/>
<path d="M11.7244 20.8547C11.9844 19.7627 11.3098 18.6671 10.2177 18.4076C9.12554 18.1481 8.02947 18.8229 7.76952 19.9149C7.50956 21.0069 8.18416 22.1025 9.27628 22.362C10.3684 22.6215 11.4645 21.9467 11.7244 20.8547Z" fill="white"/>
<path d="M9.74435 13.4119C10.8668 13.4119 11.7768 12.502 11.7768 11.3795C11.7768 10.2571 10.8668 9.34717 9.74435 9.34717C8.62187 9.34717 7.71191 10.2571 7.71191 11.3795C7.71191 12.502 8.62187 13.4119 9.74435 13.4119Z" fill="white"/>
</svg>
