<svg width="100" height="101" viewBox="0 0 100 101" fill="none" xmlns="http://www.w3.org/2000/svg">
<g clip-path="url(#clip0)">
<rect y="0.212402" width="100" height="100" rx="50" fill="#30C0FE"/>
<path d="M58.9961 45.7877C58.9961 53.5653 52.6911 59.8702 44.9136 59.8702C37.136 59.8702 30.8311 53.5653 30.8311 45.7877C30.8311 38.0102 37.136 31.7052 44.9136 31.7052C52.6911 31.7052 58.9961 38.0102 58.9961 45.7877Z" fill="#F28539"/>
<path d="M53.6365 45.7886C53.6365 50.6062 49.7311 54.5116 44.9135 54.5116C40.0959 54.5116 36.1904 50.6062 36.1904 45.7886C36.1904 40.971 40.0959 37.0656 44.9135 37.0656C49.7311 37.0656 53.6365 40.971 53.6365 45.7886Z" fill="white" fill-opacity="0.2"/>
<path d="M49.7611 45.7872C49.7611 48.4636 47.5914 50.6333 44.915 50.6333C42.2385 50.6333 40.0688 48.4636 40.0688 45.7872C40.0688 43.1107 42.2385 40.941 44.915 40.941C47.5914 40.941 49.7611 43.1107 49.7611 45.7872Z" fill="white" fill-opacity="0.2"/>
<path d="M61.1964 21.3293C61.1964 24.541 58.5928 27.1446 55.381 27.1446C52.1693 27.1446 49.5657 24.541 49.5657 21.3293C49.5657 18.1175 52.1693 15.5139 55.381 15.5139C58.5928 15.5139 61.1964 18.1175 61.1964 21.3293Z" fill="#623AD6"/>
<path fill-rule="evenodd" clip-rule="evenodd" d="M20.0696 54.4346C22.6657 52.9358 25.9852 53.8253 27.484 56.4213C33.0633 66.085 45.4202 69.396 55.0839 63.8166C64.7476 58.2373 68.0586 45.8804 62.4793 36.2167C60.9805 33.6207 61.8699 30.3012 64.466 28.8024C67.062 27.3036 70.3815 28.193 71.8803 30.789C80.4572 45.6448 75.3673 64.6407 60.5116 73.2176C45.6559 81.7946 26.6599 76.7046 18.083 61.8489C16.5842 59.2529 17.4736 55.9334 20.0696 54.4346Z" fill="#0C8FC6"/>
<path fill-rule="evenodd" clip-rule="evenodd" d="M100.474 77.3416C98.2028 79.6126 94.5207 79.6126 92.2497 77.3416C85.3349 70.4267 74.1237 70.4267 67.2089 77.3416C60.294 84.2564 60.294 95.4676 67.2089 102.382C69.4799 104.653 69.4799 108.336 67.2089 110.607C64.9378 112.878 61.2557 112.878 58.9847 110.607C47.5278 99.1497 47.5278 80.5743 58.9847 69.1174C70.4416 57.6605 89.0169 57.6605 100.474 69.1174C102.745 71.3885 102.745 75.0705 100.474 77.3416Z" fill="#FFCE21"/>
</g>
<defs>
<clipPath id="clip0">
<rect y="0.212402" width="100" height="100" rx="50" fill="white"/>
</clipPath>
</defs>
</svg>
