<svg width="32" height="10" viewBox="0 0 32 10" fill="none" xmlns="http://www.w3.org/2000/svg">
<path fill-rule="evenodd" clip-rule="evenodd" d="M0 4.93593C0 4.54713 0.328097 4.23193 0.732824 4.23193H31.2672C31.6719 4.23193 32 4.54713 32 4.93593C32 5.32474 31.6719 5.63993 31.2672 5.63993H0.732824C0.328097 5.63993 0 5.32474 0 4.93593Z" fill="white"/>
<path fill-rule="evenodd" clip-rule="evenodd" d="M27.0941 0.617032C27.3798 0.317109 27.8429 0.317109 28.1285 0.617032L31.7857 4.45703C32.0713 4.75695 32.0713 5.24323 31.7857 5.54315L28.1285 9.38315C27.8429 9.68307 27.3798 9.68307 27.0941 9.38315C26.8085 9.08323 26.8085 8.59695 27.0941 8.29703L30.2341 5.00009L27.0941 1.70315C26.8085 1.40323 26.8085 0.916955 27.0941 0.617032Z" fill="white"/>
</svg>
