<svg width="31" height="31" viewBox="0 0 31 31" fill="none" xmlns="http://www.w3.org/2000/svg">
<rect x="0.527344" y="0.603516" width="30" height="30" rx="15" fill="#3D63EA"/>
<path fill-rule="evenodd" clip-rule="evenodd" d="M13.6225 19.2434C13.6225 18.0987 13.618 16.9547 13.6264 15.8107C13.6277 15.6181 13.5734 15.5573 13.3808 15.5651C13.024 15.5793 12.6666 15.5638 12.3098 15.5715C12.165 15.5754 12.112 15.5353 12.1133 15.3821C12.1204 14.6679 12.1198 13.9537 12.114 13.2395C12.1127 13.1025 12.154 13.0572 12.293 13.0598C12.6582 13.0682 13.024 13.0495 13.3885 13.0676C13.5999 13.0779 13.6432 13.0029 13.6393 12.8071C13.6264 12.2635 13.6264 11.7193 13.6387 11.1757C13.6529 10.5119 13.8313 9.89207 14.2269 9.35237C14.7265 8.66983 15.4375 8.35765 16.2583 8.3208C17.1012 8.28332 17.9459 8.304 18.7901 8.29495C18.9077 8.29366 18.9426 8.33567 18.9426 8.45007C18.9387 9.17204 18.9381 9.89466 18.9433 10.6166C18.9445 10.7453 18.9025 10.7847 18.7765 10.7821C18.3706 10.7756 17.9647 10.7789 17.5594 10.7802C17.0191 10.7821 16.6959 11.06 16.6623 11.5946C16.6351 12.0231 16.6552 12.4542 16.6448 12.8847C16.641 13.0378 16.7321 13.0275 16.8336 13.0275C17.4502 13.0269 18.0675 13.0333 18.6841 13.023C18.865 13.0197 18.9245 13.0618 18.9038 13.2518C18.8263 13.9692 18.7597 14.688 18.6983 15.4074C18.6841 15.5696 18.6104 15.6006 18.4643 15.598C17.9776 15.5903 17.4909 15.5929 17.0036 15.5961C16.6539 15.598 16.6881 15.545 16.6881 15.9018C16.6862 18.1414 16.6836 20.3816 16.6933 22.6212C16.6946 22.8578 16.6339 22.9166 16.3999 22.9121C15.5642 22.8966 14.7278 22.8959 13.8921 22.9127C13.6568 22.9173 13.618 22.8378 13.6199 22.6277C13.627 21.4992 13.6225 20.3713 13.6225 19.2434Z" fill="white"/>
</svg>
