<svg width="31" height="31" viewBox="0 0 31 31" fill="none" xmlns="http://www.w3.org/2000/svg">
<rect x="0.527344" y="0.603516" width="30" height="30" rx="15" fill="#EC2929"/>
<path fill-rule="evenodd" clip-rule="evenodd" d="M21.5182 10.5591C22.1774 10.735 22.6966 11.255 22.8733 11.9142C23.1941 13.1093 23.1933 15.6044 23.1933 15.6044C23.1933 15.6044 23.1933 18.0987 22.8733 19.2946C22.6974 19.9538 22.1774 20.473 21.5182 20.6497C20.3223 20.9697 15.5287 20.9697 15.5287 20.9697C15.5287 20.9697 10.7351 20.9697 9.53921 20.6497C8.87917 20.4738 8.35997 19.9546 8.1833 19.2946C7.86328 18.0987 7.86328 15.6044 7.86328 15.6044C7.86328 15.6044 7.86328 13.1093 8.1833 11.9142C8.35997 11.2542 8.87917 10.735 9.53921 10.5591C10.7343 10.2383 15.5287 10.2383 15.5287 10.2383C15.5287 10.2383 20.3223 10.2383 21.5182 10.5591ZM17.9814 15.6057L13.9978 17.905V13.3056L17.9814 15.6057Z" fill="white"/>
</svg>
