<svg width="31" height="31" viewBox="0 0 31 31" fill="none" xmlns="http://www.w3.org/2000/svg">
<rect x="0.527344" y="0.603516" width="30" height="30" rx="15" fill="black"/>
<path d="M20.0241 15.4732L12.576 11.1732C11.6507 10.6391 10.4568 10.9593 9.92271 11.8836C9.3886 12.8089 9.70886 14.0027 10.6332 14.5368L18.0813 18.8369C19.0066 19.3709 20.2005 19.0507 20.7346 18.1264C21.2697 17.2012 20.9494 16.0073 20.0241 15.4732Z" stroke="white"/>
<path d="M20.0319 10.2443L12.5838 14.5444C11.6585 15.0785 10.4646 14.7582 9.93052 13.8339C9.39641 12.9087 9.71668 11.7148 10.641 11.1808L18.0891 6.88071C19.0144 6.34662 20.2083 6.66687 20.7424 7.59113C21.2765 8.51641 20.9573 9.71024 20.0319 10.2443Z" stroke="white"/>
<path d="M20.0319 18.8481L12.5838 23.1481C11.6585 23.6822 10.4646 23.362 9.93052 22.4377C9.39641 21.5124 9.71668 20.3186 10.641 19.7845L18.0891 15.4845C19.0144 14.9504 20.2083 15.2706 20.7424 16.1949C21.2765 17.1212 20.9573 18.314 20.0319 18.8481Z" stroke="white"/>
<path d="M20.0611 10.232C21.0098 9.68431 21.3273 8.49265 20.7703 7.5704C20.2133 6.64814 18.9927 6.34454 18.044 6.89227C17.0953 7.44001 16.7777 8.63167 17.3347 9.55392C17.8917 10.4762 19.1124 10.7798 20.0611 10.232Z" fill="black" stroke="white"/>
<path d="M19.061 19.113C20.1334 19.113 21.0028 18.2437 21.0028 17.1713C21.0028 16.0988 20.1334 15.2295 19.061 15.2295C17.9885 15.2295 17.1191 16.0988 17.1191 17.1713C17.1191 18.2437 17.9885 19.113 19.061 19.113Z" fill="black" stroke="white"/>
<path d="M13.5057 21.918C13.754 20.8747 13.1095 19.828 12.0661 19.58C11.0226 19.3321 9.97542 19.9768 9.72705 21.0201C9.47869 22.0634 10.1232 23.1102 11.1666 23.3581C12.2101 23.6061 13.2573 22.9613 13.5057 21.918Z" fill="black" stroke="white"/>
<path d="M11.6137 14.8093C12.6862 14.8093 13.5556 13.9399 13.5556 12.8675C13.5556 11.7951 12.6862 10.9258 11.6137 10.9258C10.5413 10.9258 9.67188 11.7951 9.67188 12.8675C9.67188 13.9399 10.5413 14.8093 11.6137 14.8093Z" fill="black" stroke="white"/>
</svg>
