<svg width="31" height="31" viewBox="0 0 31 31" fill="none" xmlns="http://www.w3.org/2000/svg">
<rect x="0.527344" y="0.603516" width="30" height="30" rx="15" fill="url(#paint0_linear_3000_24870)"/>
<path d="M18.769 7.93945H12.288C9.84419 7.93945 7.86328 9.92036 7.86328 12.3642V18.8447C7.86328 21.2885 9.84419 23.2695 12.288 23.2695H18.7686C21.2124 23.2695 23.1933 21.2885 23.1933 18.8447V12.3642C23.1937 9.92036 21.2128 7.93945 18.769 7.93945ZM21.7819 18.9591C21.7819 20.5811 20.4669 21.8962 18.8448 21.8962H12.2122C10.5901 21.8962 9.2751 20.5811 9.2751 18.9591V12.3265C9.2751 10.7044 10.5901 9.38938 12.2122 9.38938H18.8444C20.4664 9.38938 21.7815 10.7044 21.7815 12.3265V18.9591H21.7819Z" fill="white"/>
<path d="M15.5265 11.6628C13.3298 11.6628 11.5488 13.4438 11.5488 15.6405C11.5488 17.8372 13.3298 19.6182 15.5265 19.6182C17.7232 19.6182 19.5042 17.8372 19.5042 15.6405C19.5042 13.4438 17.7232 11.6628 15.5265 11.6628ZM15.5265 18.2192C14.1023 18.2192 12.9478 17.0647 12.9478 15.6405C12.9478 14.2163 14.1023 13.0618 15.5265 13.0618C16.9507 13.0618 18.1052 14.2163 18.1052 15.6405C18.1048 17.0647 16.9503 18.2192 15.5265 18.2192Z" fill="white"/>
<path d="M19.6376 12.438C20.1494 12.438 20.5642 12.0231 20.5642 11.5114C20.5642 10.9996 20.1494 10.5847 19.6376 10.5847C19.1258 10.5847 18.7109 10.9996 18.7109 11.5114C18.7109 12.0231 19.1258 12.438 19.6376 12.438Z" fill="white"/>
<defs>
<linearGradient id="paint0_linear_3000_24870" x1="6.75" y1="2.64258" x2="23" y2="31.8926" gradientUnits="userSpaceOnUse">
<stop stop-color="#273FFF"/>
<stop offset="0.552083" stop-color="#FC3D59"/>
<stop offset="1" stop-color="#FFC337"/>
</linearGradient>
</defs>
</svg>
