<svg width="800" height="800" viewBox="0 0 800 800" fill="none" xmlns="http://www.w3.org/2000/svg">
<circle cx="378" cy="374" r="260" fill="#EAE5F7"/>
<circle cx="378" cy="374" r="158" fill="#D9D2ED"/>
<g filter="url(#filter0_d_3586_66902)">
<rect x="288" y="284" width="180" height="180" rx="90" fill="#623AD6"/>
<rect x="288" y="284" width="180" height="180" rx="90" fill="url(#paint0_linear_3586_66902)" fill-opacity="0.2"/>
<path opacity="0.6" d="M398.184 376.766L364.094 357.549C359.859 355.163 354.394 356.594 351.949 360.724C349.505 364.859 350.971 370.194 355.201 372.581L389.292 391.798C393.527 394.184 398.991 392.753 401.436 388.623C403.885 384.488 402.42 379.153 398.184 376.766Z" fill="white"/>
<path opacity="0.6" d="M398.228 353.397L364.138 372.613C359.903 375 354.438 373.569 351.993 369.438C349.549 365.303 351.015 359.968 355.245 357.581L389.336 338.365C393.571 335.978 399.035 337.409 401.48 341.54C403.925 345.675 402.463 351.01 398.228 353.397Z" fill="white"/>
<path opacity="0.6" d="M398.228 391.848L364.138 411.064C359.903 413.451 354.438 412.02 351.993 407.889C349.549 403.754 351.015 398.419 355.245 396.032L389.336 376.816C393.571 374.429 399.035 375.86 401.48 379.991C403.925 384.13 402.463 389.461 398.228 391.848Z" fill="white"/>
<path d="M398.36 353.355C402.701 350.907 404.155 345.582 401.605 341.461C399.056 337.34 393.47 335.984 389.128 338.431C384.786 340.879 383.333 346.204 385.882 350.325C388.432 354.446 394.018 355.802 398.36 353.355Z" fill="white"/>
<path d="M393.765 393.027C398.673 393.027 402.652 389.142 402.652 384.35C402.652 379.558 398.673 375.674 393.765 375.674C388.857 375.674 384.878 379.558 384.878 384.35C384.878 389.142 388.857 393.027 393.765 393.027Z" fill="white"/>
<path d="M368.351 405.558C369.488 400.897 366.538 396.219 361.763 395.111C356.987 394.003 352.195 396.884 351.058 401.546C349.921 406.208 352.871 410.885 357.647 411.993C362.422 413.101 367.215 410.22 368.351 405.558Z" fill="white"/>
<path d="M359.697 373.776C364.605 373.776 368.584 369.891 368.584 365.099C368.584 360.307 364.605 356.422 359.697 356.422C354.788 356.422 350.81 360.307 350.81 365.099C350.81 369.891 354.788 373.776 359.697 373.776Z" fill="white"/>
</g>
<g filter="url(#filter1_d_3586_66902)">
<rect x="313" y="44" width="130" height="130" rx="65" fill="white"/>
<rect x="313" y="44" width="130" height="130" rx="65" fill="url(#paint1_linear_3586_66902)" fill-opacity="0.1"/>
<path d="M343.013 134.645C343.013 133.46 343.883 132.68 345.083 132.68C346.253 132.68 347.123 133.46 347.123 134.645C347.123 135.815 346.253 136.595 345.083 136.595C343.883 136.595 343.013 135.815 343.013 134.645ZM351.038 133.73V135.56H348.458C348.548 135.275 348.593 134.975 348.593 134.645C348.593 134.315 348.548 134.015 348.473 133.73H351.038ZM351.038 136.805V138.59H352.583V130.595H351.038V132.47H347.768C347.138 131.795 346.193 131.375 345.083 131.375C343.058 131.375 341.543 132.725 341.543 134.645C341.543 136.55 343.058 137.9 345.083 137.9C346.178 137.9 347.138 137.495 347.768 136.805H351.038ZM348.068 142.94C346.148 142.94 345.023 142.445 345.023 141.515C345.023 140.615 346.148 140.105 348.068 140.105C350.003 140.105 351.113 140.615 351.113 141.515C351.113 142.445 350.003 142.94 348.068 142.94ZM348.068 138.89C345.248 138.89 343.508 139.865 343.508 141.515C343.508 143.18 345.248 144.155 348.068 144.155C350.888 144.155 352.643 143.18 352.643 141.515C352.643 139.865 350.888 138.89 348.068 138.89ZM364.252 142.745H358.507V141.245H364.252V142.745ZM364.252 140.045H358.507V138.515H356.977V143.99H365.782V138.515H364.252V140.045ZM358.282 136.28C357.082 136.28 356.227 135.515 356.227 134.375C356.227 133.22 357.082 132.485 358.282 132.485C359.452 132.485 360.322 133.22 360.322 134.375C360.322 135.515 359.452 136.28 358.282 136.28ZM364.237 130.61V133.73H361.732C361.432 132.215 360.067 131.21 358.282 131.21C356.242 131.21 354.742 132.515 354.742 134.375C354.742 136.25 356.242 137.555 358.282 137.555C360.082 137.555 361.462 136.52 361.732 134.99H364.237V137.87H365.782V130.61H364.237ZM374.01 138.71C374.67 138.71 375.18 138.185 375.18 137.51C375.18 136.79 374.67 136.28 374.01 136.28C373.38 136.28 372.87 136.79 372.87 137.51C372.87 138.185 373.38 138.71 374.01 138.71ZM386.307 143.195C387.732 143.195 388.857 142.625 389.742 141.605L388.812 140.51C388.152 141.23 387.372 141.68 386.367 141.68C384.417 141.68 383.187 140.075 383.187 137.45C383.187 134.855 384.507 133.265 386.412 133.265C387.312 133.265 388.002 133.67 388.572 134.255L389.517 133.145C388.842 132.41 387.762 131.75 386.382 131.75C383.592 131.75 381.402 133.91 381.402 137.51C381.402 141.125 383.532 143.195 386.307 143.195ZM392.839 133.355H394.504C396.109 133.355 396.979 133.82 396.979 135.155C396.979 136.49 396.109 137.15 394.504 137.15H392.839V133.355ZM399.094 143L396.394 138.32C397.789 137.885 398.704 136.865 398.704 135.155C398.704 132.77 396.994 131.96 394.714 131.96H391.099V143H392.839V138.545H394.624L397.129 143H399.094ZM400.328 143H401.888V137.54C401.888 136.55 401.753 135.125 401.678 134.12H401.738L402.608 136.67L404.543 141.935H405.623L407.543 136.67L408.428 134.12H408.488C408.398 135.125 408.263 136.55 408.263 137.54V143H409.883V131.96H407.873L405.878 137.54C405.623 138.275 405.413 139.025 405.158 139.775H405.083C404.828 139.025 404.603 138.275 404.348 137.54L402.323 131.96H400.328V143Z" fill="#555555"/>
<path fill-rule="evenodd" clip-rule="evenodd" d="M371.736 78.876C371.349 78.876 371.036 79.1894 371.036 79.576V83.5281H361.867C360.215 83.5281 358.876 84.8674 358.876 86.5196V107.178V109.492C358.876 111.144 360.215 112.484 361.867 112.484H394.133C395.785 112.484 397.124 111.144 397.124 109.492V107.178V86.5196C397.124 84.8674 395.785 83.5281 394.133 83.5281H384.953V79.576C384.953 79.1894 384.64 78.876 384.253 78.876H371.736ZM395.724 106.478V91.6209C395.177 92.6318 394.478 93.5652 393.646 94.3873L392.922 95.1003C392.36 95.6604 391.606 95.9596 390.828 95.9596H387.912V96.6414C387.912 96.8125 387.85 96.9777 387.736 97.1057L385.675 99.4318C385.542 99.5817 385.351 99.6675 385.151 99.6675C384.951 99.6675 384.76 99.5817 384.627 99.4318L382.566 97.1057C382.453 96.9777 382.39 96.8125 382.39 96.6414V95.9481H373.611V96.6414C373.611 96.8105 373.549 96.9738 373.438 97.1013L371.412 99.4273C371.278 99.5802 371.086 99.6678 370.883 99.6675C370.68 99.6672 370.488 99.5791 370.355 99.4259L368.34 97.0998C368.229 96.9725 368.169 96.8098 368.169 96.6414V95.9481H364.977C364.167 95.9481 363.385 95.6194 362.825 95.0301L362.148 94.3304C361.403 93.5617 360.776 92.7001 360.276 91.7739V106.478H395.724ZM360.276 107.878H395.724V109.492C395.724 110.371 395.012 111.084 394.133 111.084H361.867C360.989 111.084 360.276 110.371 360.276 109.492V107.878ZM371.731 84.9281L371.736 84.9281H384.253L384.258 84.9281H394.133C395.012 84.9281 395.724 85.6406 395.724 86.5196V86.7509C395.708 86.8025 395.697 86.8569 395.692 86.9134C395.498 89.3572 394.421 91.6538 392.662 93.3913L391.938 94.1043L391.934 94.1083C391.643 94.3989 391.247 94.5596 390.828 94.5596H387.912V93.5093C387.912 93.1227 387.599 92.8093 387.212 92.8093H383.09C382.703 92.8093 382.39 93.1227 382.39 93.5093V94.5481H373.611V93.5093C373.611 93.1227 373.297 92.8093 372.911 92.8093H368.869C368.482 92.8093 368.169 93.1227 368.169 93.5093V94.5481H364.977C364.543 94.5481 364.129 94.3711 363.838 94.0639L363.153 93.3561C361.473 91.6219 360.471 89.3484 360.309 86.9561C360.305 86.8967 360.294 86.8395 360.276 86.7854V86.5196C360.276 85.6406 360.989 84.9281 361.867 84.9281H371.731ZM383.79 96.3759V95.2585L383.79 95.2481L383.79 95.2377V94.2093H386.512V96.3759L385.151 97.912L383.79 96.3759ZM369.569 95.255L369.569 95.2481L369.569 95.2412V94.2093H372.211V96.3793L370.885 97.9002L369.569 96.3804V95.255ZM383.553 83.5281V80.276H372.436V83.5281H383.553Z" fill="#3EA4EE"/>
<rect x="313.5" y="44.5" width="129" height="129" rx="64.5" stroke="#F3F3F3"/>
</g>
<g filter="url(#filter2_d_3586_66902)">
<rect x="495" y="126" width="130" height="130" rx="65" fill="white"/>
<rect x="495" y="126" width="130" height="130" rx="65" fill="url(#paint2_linear_3586_66902)" fill-opacity="0.1"/>
<path d="M542.936 215.16H546.221V221.55H542.936V215.16ZM541.406 222.78H547.751V213.93H541.406V222.78ZM553.541 217.905H551.426V212.61H549.881V226.17H551.426V219.18H553.541V217.905ZM561.43 217.845H559.63C559.96 216.69 560.08 215.46 560.08 214.17H554.845V215.415H558.595C558.55 216.075 558.445 216.69 558.295 217.305L554.185 217.545L554.395 218.88L557.875 218.505C557.23 219.99 556.06 221.25 554.155 222.33L555.025 223.41C557.14 222.21 558.415 220.74 559.165 219.105H561.43V225.495H562.87V212.925H561.43V217.845ZM564.235 212.595V226.155H565.72V212.595H564.235ZM578.499 212.625H576.954V220.92H578.499V212.625ZM575.589 218.52C573.789 218.82 572.244 218.88 569.634 218.88V217.425H574.194V216.21H569.634V214.815H574.584V213.57H568.104V220.11H569.229C572.139 220.11 573.804 220.065 575.739 219.75L575.589 218.52ZM573.984 224.955C572.049 224.955 570.939 224.49 570.939 223.635C570.939 222.78 572.049 222.315 573.984 222.315C575.904 222.315 577.029 222.78 577.029 223.635C577.029 224.49 575.904 224.955 573.984 224.955ZM573.984 221.115C571.134 221.115 569.394 222.045 569.394 223.635C569.394 225.225 571.134 226.155 573.984 226.155C576.834 226.155 578.574 225.225 578.574 223.635C578.574 222.045 576.834 221.115 573.984 221.115Z" fill="#555555"/>
<path fill-rule="evenodd" clip-rule="evenodd" d="M541.576 158.876C541.189 158.876 540.876 159.189 540.876 159.576C540.876 159.963 541.189 160.276 541.576 160.276H543.3V186.72H541.576C541.189 186.72 540.876 187.033 540.876 187.42C540.876 187.806 541.189 188.12 541.576 188.12H559.3V190.786L550.246 195.291C549.9 195.463 549.759 195.883 549.931 196.23C550.103 196.576 550.523 196.717 550.869 196.544L559.3 192.35V196.424C559.3 196.811 559.614 197.124 560 197.124C560.387 197.124 560.7 196.811 560.7 196.424V192.35L569.131 196.544C569.477 196.717 569.897 196.576 570.069 196.23C570.241 195.883 570.1 195.463 569.754 195.291L560.7 190.786V188.12H578.424C578.811 188.12 579.124 187.806 579.124 187.42C579.124 187.033 578.811 186.72 578.424 186.72H576.7V160.276H578.424C578.811 160.276 579.124 159.963 579.124 159.576C579.124 159.189 578.811 158.876 578.424 158.876H541.576ZM544.7 186.7V160.3H575.3V186.7H544.7ZM552.567 176.278C550.883 176.098 549.457 174.695 549.233 173.016C548.966 170.928 550.373 169.122 552.3 168.764V172.5C552.3 172.887 552.613 173.2 553 173.2H556.756C556.454 175.139 554.643 176.492 552.567 176.278ZM553 167.3C549.888 167.3 547.437 170.019 547.845 173.196L547.845 173.199C548.152 175.513 550.086 177.421 552.42 177.67L552.422 177.671C555.494 177.988 558.287 175.699 558.198 172.481C558.188 172.102 557.878 171.8 557.498 171.8H553.7V168C553.7 167.614 553.386 167.3 553 167.3ZM555.3 165C555.3 164.614 555.613 164.3 556 164.3C558.597 164.3 560.7 166.403 560.7 169C560.7 169.387 560.386 169.7 560 169.7H556C555.613 169.7 555.3 169.387 555.3 169V165ZM556.7 165.775V168.3H559.226C558.954 167.039 557.961 166.047 556.7 165.775ZM571.7 174C571.7 173.614 571.387 173.3 571 173.3C570.614 173.3 570.3 173.614 570.3 174V181C570.3 181.387 570.614 181.7 571 181.7C571.387 181.7 571.7 181.387 571.7 181V174ZM567 170.3C567.387 170.3 567.7 170.614 567.7 171L567.7 181C567.7 181.387 567.387 181.7 567 181.7C566.614 181.7 566.3 181.387 566.3 181V171C566.3 170.614 566.614 170.3 567 170.3ZM563.7 176C563.7 175.614 563.387 175.3 563 175.3C562.614 175.3 562.3 175.614 562.3 176V181C562.3 181.387 562.614 181.7 563 181.7C563.387 181.7 563.7 181.387 563.7 181V176Z" fill="#5CBB52"/>
<rect x="495.5" y="126.5" width="129" height="129" rx="64.5" stroke="#F3F3F3"/>
</g>
<g filter="url(#filter3_d_3586_66902)">
<rect x="131" y="126" width="130" height="130" rx="65" fill="white"/>
<rect x="131" y="126" width="130" height="130" rx="65" fill="url(#paint3_linear_3586_66902)" fill-opacity="0.1"/>
<path d="M169.556 215.355H171.791V214.08H165.671V215.355H168.056V216.33C168.056 218.745 167.156 221.19 165.236 222.39L166.166 223.53C167.471 222.705 168.341 221.25 168.821 219.54C169.301 221.115 170.141 222.45 171.416 223.2L172.316 222.075C170.426 220.98 169.556 218.64 169.556 216.33V215.355ZM172.796 217.365H170.801V218.625H172.796V225.495H174.251V212.865H172.796V217.365ZM175.526 212.595V226.14H176.996V212.595H175.526ZM179.814 220.59C182.004 220.17 183.894 218.88 184.764 217.14C185.649 218.865 187.554 220.125 189.789 220.545L190.419 219.315C187.734 218.895 185.574 217.065 185.574 215.025V214.995H189.879V213.75H179.649V214.995H183.954V215.025C183.954 217.065 181.809 218.94 179.169 219.36L179.814 220.59ZM185.559 223.23V220.065H183.999V223.23H178.644V224.49H190.914V223.23H185.559ZM195.323 220.71C195.983 220.71 196.493 220.185 196.493 219.51C196.493 218.79 195.983 218.28 195.323 218.28C194.693 218.28 194.183 218.79 194.183 219.51C194.183 220.185 194.693 220.71 195.323 220.71ZM205.962 214.35C207.897 214.35 209.172 215.01 209.172 216.09C209.172 217.185 207.897 217.845 205.962 217.845C204.012 217.845 202.737 217.185 202.737 216.09C202.737 215.01 204.012 214.35 205.962 214.35ZM205.962 219.09C208.812 219.09 210.762 217.92 210.762 216.09C210.762 214.275 208.812 213.105 205.962 213.105C203.097 213.105 201.147 214.275 201.147 216.09C201.147 217.92 203.097 219.09 205.962 219.09ZM212.127 220.245H199.842V221.52H202.842V226.155H204.417V221.52H207.507V226.155H209.082V221.52H212.142L212.127 220.245ZM219.145 225C217.105 225 216.04 224.67 216.04 223.95C216.04 223.26 217.105 222.915 219.145 222.915C221.2 222.915 222.265 223.26 222.265 223.95C222.265 224.67 221.2 225 219.145 225ZM219.145 221.775C216.205 221.775 214.48 222.525 214.48 223.95C214.48 225.39 216.205 226.155 219.145 226.155C222.1 226.155 223.81 225.39 223.81 223.95C223.81 222.525 222.1 221.775 219.145 221.775ZM219.94 219.69V218.58H223.915V217.395H216.145V216.345H223.495V215.19H216.145V214.17H223.825V212.985H214.6V218.58H218.38V219.69H213.025V220.935H225.28V219.69H219.94Z" fill="#555555"/>
<path fill-rule="evenodd" clip-rule="evenodd" d="M203.949 160.464C202.813 160.464 201.883 161.385 201.883 162.53V164.767C201.892 164.811 201.896 164.857 201.896 164.903C201.896 164.95 201.892 164.995 201.883 165.039V165.882H204.005C204.008 165.882 204.012 165.882 204.015 165.882C204.018 165.882 204.022 165.882 204.025 165.882H206.134V162.53C206.134 161.394 205.213 160.464 204.067 160.464H203.949ZM204.715 167.282H207.534V162.53C207.534 160.625 205.99 159.064 204.067 159.064H203.949C202.39 159.064 201.06 160.099 200.63 161.529H188.87C188.029 160.176 186.529 159.274 184.82 159.274C182.192 159.274 180.056 161.409 180.056 164.038C180.056 166.143 181.426 167.932 183.322 168.561L185.72 178.178C184.692 179.083 184.042 180.408 184.042 181.882C184.042 183.143 184.518 184.296 185.3 185.169V188.799H179.649C177.725 188.799 176.3 190.524 176.3 192.475V192.593C176.3 194.545 177.725 196.27 179.649 196.27H212.351C214.275 196.27 215.7 194.545 215.7 192.593V192.475C215.7 190.524 214.275 188.799 212.351 188.799H192.7V185.117C193.454 184.25 193.911 183.118 193.911 181.882C193.911 179.612 192.369 177.694 190.278 177.121L187.905 167.667C188.545 167.123 189.039 166.413 189.321 165.603H200.483V167.282H203.315V169.684H201.582L198.357 173.002L199.519 176.666C199.636 177.034 200.03 177.238 200.398 177.121C200.767 177.004 200.971 176.611 200.854 176.242L199.945 173.377L202.174 171.084H205.868L208.087 173.377L207.189 176.245C207.073 176.614 207.278 177.007 207.647 177.122C208.016 177.238 208.409 177.032 208.525 176.663L209.672 173.002L206.462 169.684H204.715V167.282ZM200.483 162.929V164.203H189.582C189.584 164.148 189.585 164.093 189.585 164.038C189.585 163.656 189.54 163.285 189.455 162.929H200.483ZM181.456 164.038C181.456 162.183 182.965 160.674 184.82 160.674C186.676 160.674 188.185 162.183 188.185 164.038C188.185 165.893 186.676 167.402 184.82 167.402C182.965 167.402 181.456 165.893 181.456 164.038ZM189.769 178.437C189.645 178.447 189.525 178.424 189.417 178.374C189.273 178.356 189.126 178.347 188.977 178.347C187.03 178.347 185.442 179.935 185.442 181.882C185.442 183.829 187.03 185.417 188.977 185.417C190.924 185.417 192.511 183.829 192.511 181.882C192.511 180.207 191.337 178.798 189.769 178.437ZM186.655 168.436L188.791 176.95C188.142 176.975 187.525 177.125 186.963 177.377L184.825 168.802C185.473 168.802 186.091 168.671 186.655 168.436ZM188.977 186.817C189.816 186.817 190.607 186.606 191.3 186.234V188.3H186.7V186.259C187.381 186.615 188.156 186.817 188.977 186.817ZM177.7 192.475C177.7 191.14 178.647 190.199 179.649 190.199H212.351C213.353 190.199 214.3 191.14 214.3 192.475V192.593C214.3 193.929 213.353 194.87 212.351 194.87H179.649C178.647 194.87 177.7 193.929 177.7 192.593V192.475ZM181 191.828C180.613 191.828 180.3 192.141 180.3 192.528C180.3 192.915 180.613 193.228 181 193.228H211C211.386 193.228 211.7 192.915 211.7 192.528C211.7 192.141 211.386 191.828 211 191.828H181Z" fill="#FA6262"/>
<rect x="131.5" y="126.5" width="129" height="129" rx="64.5" stroke="#F3F3F3"/>
</g>
<g filter="url(#filter4_d_3586_66902)">
<rect x="495" y="492" width="130" height="130" rx="65" fill="white"/>
<rect x="495" y="492" width="130" height="130" rx="65" fill="url(#paint4_linear_3586_66902)" fill-opacity="0.1"/>
<path d="M537.333 591H539.073V579.96H537.333V591ZM543.612 591H545.352V581.415H548.607V579.96H540.372V581.415H543.612V591ZM555.477 586.71C556.137 586.71 556.647 586.185 556.647 585.51C556.647 584.79 556.137 584.28 555.477 584.28C554.847 584.28 554.337 584.79 554.337 585.51C554.337 586.185 554.847 586.71 555.477 586.71ZM560.505 580.32V581.58H564.3C564.09 584.31 562.86 586.53 559.935 588.225L560.835 589.32C564.645 587.13 565.83 583.935 565.83 580.32H560.505ZM570.06 578.61V583.905H568.515V578.97H567.06V591.525H568.515V585.165H570.06V592.155H571.53V578.61H570.06ZM578.534 583.875H575.219V582.15H578.534V583.875ZM580.064 579.18H578.534V580.965H575.219V579.18H573.674V585.105H580.064V579.18ZM576.584 589.62H583.784V586.155H575.039V587.355H582.254V588.48H575.069V592.035H584.234V590.82H576.584V589.62ZM583.784 581.385V578.61H582.239V585.555H583.784V582.66H585.689V581.385H583.784Z" fill="#555555"/>
<path fill-rule="evenodd" clip-rule="evenodd" d="M541.4 553.411V553.4H554.706L555.175 553.694L555.18 553.696C555.855 554.125 556.637 554.365 557.442 554.365H562.543C563.345 554.365 564.125 554.126 564.799 553.701L565.29 553.4H578.6V553.411C578.6 554.465 578.193 555.312 577.663 555.775L577.059 556.285C576.758 556.52 576.492 556.6 576.294 556.6H543.721C543.488 556.6 543.217 556.514 542.955 556.297L542.953 556.295L542.337 555.775C541.809 555.314 541.4 554.449 541.4 553.411ZM564.734 552.098L564.059 552.512C563.594 552.807 563.069 552.965 562.543 552.965H557.442C556.916 552.965 556.391 552.807 555.926 552.512L555.266 552.098C555.176 552.039 555.056 552 554.951 552H545.4V532.18C545.4 531.722 545.755 531.4 546.137 531.4H573.863C574.245 531.4 574.6 531.722 574.6 532.18V552H565.049C564.944 552 564.839 552.039 564.734 552.098ZM577.944 557.37L578.574 556.838C579.46 556.07 580 554.81 580 553.411V552.985C580 552.433 579.67 552 579.25 552H576V532.18C576 531.577 575.761 531.032 575.374 530.638C574.987 530.244 574.453 530 573.863 530H546.137C544.956 530 544 530.975 544 532.18V552H540.75C540.33 552 540 552.433 540 552.985V553.411C540 554.79 540.54 556.07 541.426 556.838L542.056 557.37C542.551 557.783 543.136 558 543.721 558H576.294C576.879 558 577.449 557.764 577.944 557.37ZM557.717 536.867C557.99 537.14 557.99 537.584 557.717 537.857L553.626 541.948L557.717 546.04C557.99 546.313 557.99 546.756 557.717 547.03C557.444 547.303 557.001 547.303 556.727 547.03L552.141 542.443C551.867 542.17 551.867 541.727 552.141 541.453L556.727 536.867C557.001 536.594 557.444 536.594 557.717 536.867ZM562.268 536.867C561.994 537.14 561.994 537.584 562.268 537.857L566.359 541.948L562.268 546.04C561.994 546.313 561.994 546.756 562.268 547.03C562.541 547.303 562.984 547.303 563.258 547.03L567.844 542.443C568.117 542.17 568.117 541.727 567.844 541.453L563.258 536.867C562.984 536.594 562.541 536.594 562.268 536.867Z" fill="#FA6262"/>
<rect x="495.5" y="492.5" width="129" height="129" rx="64.5" stroke="#F3F3F3"/>
</g>
<g filter="url(#filter5_d_3586_66902)">
<rect x="131" y="492" width="130" height="130" rx="65" fill="white"/>
<rect x="131" y="492" width="130" height="130" rx="65" fill="url(#paint5_linear_3586_66902)" fill-opacity="0.1"/>
<path d="M190.271 582.675V583.95H192.941V588.585H194.486V578.61H192.941V582.675H190.271ZM184.136 579.645V580.905H188.681C188.396 583.125 186.416 584.925 183.431 585.9L184.106 587.13C187.961 585.87 190.346 583.215 190.346 579.645H184.136ZM187.346 590.64V587.58H185.801V591.9H194.831V590.64H187.346ZM206.14 585.555H207.685V578.595H206.14V580.86H203.395V582.105H206.14V585.555ZM204.46 584.13C202.435 583.47 201.265 581.88 201.265 580.17V579.03H199.72V580.17C199.72 582.03 198.535 583.725 196.42 584.415L197.215 585.63C198.805 585.075 199.93 583.98 200.53 582.57C201.1 583.83 202.18 584.835 203.65 585.33L204.46 584.13ZM200.425 590.775V589.62H207.685V586.2H198.865V587.4H206.155V588.48H198.895V591.99H208.15V590.775H200.425Z" fill="#555555"/>
<path fill-rule="evenodd" clip-rule="evenodd" d="M187.984 527.391C187.597 527.391 187.284 527.704 187.284 528.091V531.385H179.314C178.927 531.385 178.614 531.699 178.614 532.085V559.467H177C176.613 559.467 176.3 559.78 176.3 560.167C176.3 560.553 176.613 560.867 177 560.867H179.309L179.314 560.867H187.984L187.988 560.867H193.207L193.21 560.867H198.79L198.793 560.867H204.015H204.368L204.372 560.867H212.686L212.69 560.867H215C215.386 560.867 215.7 560.553 215.7 560.167C215.7 559.78 215.386 559.467 215 559.467H213.386V532.085C213.386 531.699 213.073 531.385 212.686 531.385H204.715V528.091C204.715 527.704 204.402 527.391 204.015 527.391H187.984ZM198.09 559.467H193.91V554.606H198.09V559.467ZM199.49 553.906V559.467H203.315V528.791H188.684V532.076L188.684 532.085L188.684 532.095V559.467H192.51V553.906C192.51 553.519 192.823 553.206 193.21 553.206H198.79C199.176 553.206 199.49 553.519 199.49 553.906ZM180.014 532.785H187.284V559.467L180.014 559.467V532.785ZM204.715 532.785V559.467L211.986 559.467V532.785H204.715ZM192.744 532.302C192.357 532.302 192.044 532.616 192.044 533.002C192.044 533.389 192.357 533.702 192.744 533.702H199.255C199.642 533.702 199.955 533.389 199.955 533.002C199.955 532.616 199.642 532.302 199.255 532.302H192.744ZM192.044 537.654C192.044 537.267 192.357 536.954 192.744 536.954H199.255C199.642 536.954 199.955 537.267 199.955 537.654C199.955 538.04 199.642 538.354 199.255 538.354H192.744C192.357 538.354 192.044 538.04 192.044 537.654ZM192.744 541.605C192.357 541.605 192.044 541.918 192.044 542.305C192.044 542.691 192.357 543.005 192.744 543.005H199.255C199.642 543.005 199.955 542.691 199.955 542.305C199.955 541.918 199.642 541.605 199.255 541.605H192.744ZM192.744 547.186C192.357 547.186 192.044 547.5 192.044 547.886C192.044 548.273 192.357 548.586 192.744 548.586H199.255C199.642 548.586 199.955 548.273 199.955 547.886C199.955 547.5 199.642 547.186 199.255 547.186H192.744ZM182.294 536.447C182.294 536.06 182.607 535.747 182.994 535.747H184.303C184.69 535.747 185.003 536.06 185.003 536.447C185.003 536.833 184.69 537.147 184.303 537.147H182.994C182.607 537.147 182.294 536.833 182.294 536.447ZM182.994 540.527C182.607 540.527 182.294 540.841 182.294 541.227C182.294 541.614 182.607 541.927 182.994 541.927H184.303C184.69 541.927 185.003 541.614 185.003 541.227C185.003 540.841 184.69 540.527 184.303 540.527H182.994ZM182.294 546.008C182.294 545.621 182.607 545.308 182.994 545.308H184.303C184.69 545.308 185.003 545.621 185.003 546.008C185.003 546.395 184.69 546.708 184.303 546.708H182.994C182.607 546.708 182.294 546.395 182.294 546.008ZM182.994 550.102C182.607 550.102 182.294 550.415 182.294 550.802C182.294 551.188 182.607 551.502 182.994 551.502H184.303C184.69 551.502 185.003 551.188 185.003 550.802C185.003 550.415 184.69 550.102 184.303 550.102H182.994ZM182.294 555.582C182.294 555.196 182.607 554.882 182.994 554.882H184.303C184.69 554.882 185.003 555.196 185.003 555.582C185.003 555.969 184.69 556.282 184.303 556.282H182.994C182.607 556.282 182.294 555.969 182.294 555.582ZM207.696 535.747C207.31 535.747 206.996 536.06 206.996 536.447C206.996 536.833 207.31 537.147 207.696 537.147H209.006C209.393 537.147 209.706 536.833 209.706 536.447C209.706 536.06 209.393 535.747 209.006 535.747H207.696ZM206.996 541.227C206.996 540.841 207.31 540.527 207.696 540.527H209.006C209.393 540.527 209.706 540.841 209.706 541.227C209.706 541.614 209.393 541.927 209.006 541.927H207.696C207.31 541.927 206.996 541.614 206.996 541.227ZM207.696 545.308C207.31 545.308 206.996 545.621 206.996 546.008C206.996 546.395 207.31 546.708 207.696 546.708H209.006C209.393 546.708 209.706 546.395 209.706 546.008C209.706 545.621 209.393 545.308 209.006 545.308H207.696ZM206.996 550.802C206.996 550.415 207.31 550.102 207.696 550.102H209.006C209.393 550.102 209.706 550.415 209.706 550.802C209.706 551.188 209.393 551.502 209.006 551.502H207.696C207.31 551.502 206.996 551.188 206.996 550.802ZM207.696 554.882C207.31 554.882 206.996 555.196 206.996 555.582C206.996 555.969 207.31 556.282 207.696 556.282H209.006C209.393 556.282 209.706 555.969 209.706 555.582C209.706 555.196 209.393 554.882 209.006 554.882H207.696Z" fill="#5CBB52"/>
<rect x="131.5" y="492.5" width="129" height="129" rx="64.5" stroke="#F3F3F3"/>
</g>
<g filter="url(#filter6_d_3586_66902)">
<rect x="48" y="309" width="130" height="130" rx="65" fill="white"/>
<rect x="48" y="309" width="130" height="130" rx="65" fill="url(#paint6_linear_3586_66902)" fill-opacity="0.1"/>
<path d="M86.0607 405.33H92.2857V407.76H86.0607V405.33ZM84.5457 408.99H93.8007V404.1H84.5457V408.99ZM93.4557 401.205C93.8007 399.585 93.8007 398.385 93.8007 397.32V396.27H84.6057V397.53H92.2857C92.2857 398.55 92.2557 399.69 91.9107 401.205H83.0607V402.465H95.3307V401.205H93.4557ZM102.38 397.065C104.39 397.065 105.605 397.545 105.605 398.43C105.605 399.3 104.39 399.795 102.38 399.795C100.37 399.795 99.1395 399.3 99.1395 398.43C99.1395 397.545 100.37 397.065 102.38 397.065ZM102.38 400.98C105.335 400.98 107.21 400.02 107.21 398.43C107.21 396.825 105.335 395.865 102.38 395.865C99.4095 395.865 97.5495 396.825 97.5495 398.43C97.5495 400.02 99.4095 400.98 102.38 400.98ZM104.06 404.4C103.55 404.325 102.98 404.28 102.35 404.28C101.765 404.28 101.21 404.325 100.715 404.4V403.08H104.06V404.4ZM102.35 407.97C100.37 407.97 99.2595 407.55 99.2595 406.725C99.2595 405.915 100.37 405.48 102.35 405.48C104.33 405.48 105.455 405.915 105.455 406.725C105.455 407.55 104.33 407.97 102.35 407.97ZM108.5 403.08V401.835H96.2445V403.08H99.1845V404.805C98.2245 405.225 97.6845 405.885 97.6845 406.725C97.6845 408.285 99.4395 409.17 102.35 409.17C105.275 409.17 107.015 408.285 107.015 406.725C107.015 405.9 106.52 405.255 105.59 404.835V403.08H108.5ZM112.938 403.71C113.598 403.71 114.108 403.185 114.108 402.51C114.108 401.79 113.598 401.28 112.938 401.28C112.308 401.28 111.798 401.79 111.798 402.51C111.798 403.185 112.308 403.71 112.938 403.71ZM127.822 400.995C128.197 399.6 128.197 398.475 128.197 397.395V396.255H118.897V397.5H126.667C126.667 398.52 126.652 399.495 126.307 400.83L127.822 400.995ZM123.547 407.97C121.537 407.97 120.307 407.475 120.307 406.62C120.307 405.78 121.537 405.285 123.547 405.285C125.542 405.285 126.742 405.78 126.742 406.62C126.742 407.475 125.542 407.97 123.547 407.97ZM123.547 404.1C120.622 404.1 118.777 405.06 118.777 406.62C118.777 408.195 120.622 409.155 123.547 409.155C126.427 409.155 128.287 408.195 128.287 406.62C128.287 405.06 126.427 404.1 123.547 404.1ZM123.847 401.805V399.315H122.287V401.805H117.487V403.05H129.697V401.805H123.847ZM141.02 400.995C141.395 399.6 141.395 398.475 141.395 397.395V396.255H132.095V397.5H139.865C139.865 398.52 139.85 399.495 139.505 400.83L141.02 400.995ZM136.745 407.97C134.735 407.97 133.505 407.475 133.505 406.62C133.505 405.78 134.735 405.285 136.745 405.285C138.74 405.285 139.94 405.78 139.94 406.62C139.94 407.475 138.74 407.97 136.745 407.97ZM136.745 404.1C133.82 404.1 131.975 405.06 131.975 406.62C131.975 408.195 133.82 409.155 136.745 409.155C139.625 409.155 141.485 408.195 141.485 406.62C141.485 405.06 139.625 404.1 136.745 404.1ZM137.045 401.805V399.315H135.485V401.805H130.685V403.05H142.895V401.805H137.045Z" fill="#555555"/>
<path fill-rule="evenodd" clip-rule="evenodd" d="M98.2838 344.136C98.2838 343.671 98.6707 343.284 99.1361 343.284H101.482V349.447C101.482 349.833 101.796 350.147 102.182 350.147H102.194C102.358 350.147 102.516 350.09 102.642 349.985L104.891 348.115L107.152 349.986C107.277 350.09 107.435 350.147 107.598 350.147H107.61C107.996 350.147 108.31 349.833 108.31 349.447V343.284H120.46C120.683 343.284 120.902 343.374 121.062 343.534L126.466 348.938C126.627 349.098 126.717 349.317 126.717 349.54V378.381C126.717 378.855 126.333 379.233 125.864 379.233H99.1361C98.6624 379.233 98.2838 378.85 98.2838 378.381V344.136ZM106.91 343.284V347.968L105.337 346.667C105.077 346.452 104.702 346.452 104.443 346.667L102.882 347.964V343.284H106.91ZM107.61 341.884H120.46C121.054 341.884 121.629 342.121 122.052 342.544L127.456 347.948C127.88 348.371 128.117 348.946 128.117 349.54V378.381C128.117 379.635 127.099 380.633 125.864 380.633H99.1361C97.8824 380.633 96.8838 379.616 96.8838 378.381V344.136C96.8838 342.897 97.8975 341.884 99.1361 341.884H102.182H107.61ZM101.809 353.894C101.809 353.507 102.123 353.194 102.509 353.194H108.135C108.522 353.194 108.835 353.507 108.835 353.894C108.835 354.28 108.522 354.594 108.135 354.594H102.509C102.123 354.594 101.809 354.28 101.809 353.894ZM102.509 358.364C102.123 358.364 101.809 358.678 101.809 359.064C101.809 359.451 102.123 359.764 102.509 359.764H107.26C107.646 359.764 107.96 359.451 107.96 359.064C107.96 358.678 107.646 358.364 107.26 358.364H102.509ZM101.809 374.587C101.809 374.201 102.123 373.887 102.509 373.887H122.491C122.878 373.887 123.191 374.201 123.191 374.587C123.191 374.974 122.878 375.287 122.491 375.287H102.509C102.123 375.287 101.809 374.974 101.809 374.587ZM102.509 363.535C102.123 363.535 101.809 363.848 101.809 364.235C101.809 364.621 102.123 364.935 102.509 364.935H108.135C108.522 364.935 108.835 364.621 108.835 364.235C108.835 363.848 108.522 363.535 108.135 363.535H102.509ZM101.809 369.417C101.809 369.03 102.123 368.717 102.509 368.717H122.491C122.878 368.717 123.191 369.03 123.191 369.417C123.191 369.804 122.878 370.117 122.491 370.117H102.509C102.123 370.117 101.809 369.804 101.809 369.417ZM112.78 359.414C112.78 357.473 114.281 355.877 116.184 355.726H116.777C118.679 355.877 120.18 357.473 120.18 359.414C120.18 361.455 118.521 363.114 116.48 363.114C115.62 363.114 114.828 362.82 114.199 362.326L113.568 361.696C113.075 361.067 112.78 360.274 112.78 359.414ZM115.78 364.467C114.893 364.345 114.078 363.994 113.397 363.476L112.272 364.601C111.998 364.875 111.555 364.875 111.282 364.601C111.008 364.328 111.008 363.885 111.282 363.611L112.409 362.484C111.896 361.806 111.549 360.996 111.428 360.114H109.839C109.452 360.114 109.139 359.801 109.139 359.414C109.139 359.028 109.452 358.714 109.839 358.714H111.428C111.549 357.833 111.896 357.022 112.409 356.344L111.282 355.217C111.008 354.944 111.008 354.501 111.282 354.227C111.555 353.954 111.998 353.954 112.272 354.227L113.397 355.353C114.078 354.835 114.893 354.484 115.78 354.362V352.761C115.78 352.375 116.094 352.061 116.48 352.061C116.867 352.061 117.18 352.375 117.18 352.761V354.362C118.065 354.483 118.877 354.832 119.557 355.348L120.677 354.227C120.951 353.954 121.394 353.954 121.667 354.227C121.941 354.501 121.941 354.944 121.667 355.217L120.547 356.338C121.062 357.017 121.411 357.83 121.533 358.714H123.11C123.496 358.714 123.81 359.028 123.81 359.414C123.81 359.801 123.496 360.114 123.11 360.114H121.533C121.411 360.999 121.062 361.811 120.547 362.491L121.668 363.611C121.941 363.885 121.941 364.328 121.668 364.601C121.394 364.875 120.951 364.875 120.678 364.601L119.557 363.481C118.877 363.996 118.065 364.345 117.18 364.467V366.056C117.18 366.442 116.867 366.756 116.48 366.756C116.094 366.756 115.78 366.442 115.78 366.056V364.467Z" fill="#E3AB19"/>
<rect x="48.5" y="309.5" width="129" height="129" rx="64.5" stroke="#F3F3F3"/>
</g>
<g filter="url(#filter7_d_3586_66902)">
<rect x="313" y="574" width="130" height="130" rx="65" fill="white"/>
<rect x="313" y="574" width="130" height="130" rx="65" fill="url(#paint7_linear_3586_66902)" fill-opacity="0.1"/>
<path d="M350.044 673H351.784V667.975H356.509V673H358.249V661.96H356.509V666.46H351.784V661.96H350.044V673ZM362.288 663.355H363.953C365.558 663.355 366.428 663.82 366.428 665.155C366.428 666.49 365.558 667.15 363.953 667.15H362.288V663.355ZM368.543 673L365.843 668.32C367.238 667.885 368.153 666.865 368.153 665.155C368.153 662.77 366.443 661.96 364.163 661.96H360.548V673H362.288V668.545H364.073L366.578 673H368.543ZM375.336 668.71C375.996 668.71 376.506 668.185 376.506 667.51C376.506 666.79 375.996 666.28 375.336 666.28C374.706 666.28 374.196 666.79 374.196 667.51C374.196 668.185 374.706 668.71 375.336 668.71ZM383.994 663.37H386.259V662.095H380.049V663.37H382.494V664.12C382.494 666.805 381.639 669.16 379.674 670.3L380.619 671.455C381.954 670.66 382.824 669.28 383.289 667.555C383.784 669.055 384.624 670.285 385.914 670.99L386.814 669.805C384.849 668.785 383.994 666.565 383.994 664.12V663.37ZM390.024 660.595V665.95H388.539V660.85H387.084V673.525H388.539V667.225H390.024V674.155H391.494V660.595H390.024ZM402.278 665.44H396.083V662.56H402.278V665.44ZM403.808 661.33H394.553V666.685H403.808V661.33ZM405.338 668.35H393.053V669.595H398.378V674.155H399.923V669.595H405.338V668.35Z" fill="#555555"/>
<path fill-rule="evenodd" clip-rule="evenodd" d="M375.457 605.919C375.087 605.919 374.781 606.206 374.758 606.575L374.523 610.342C373.215 610.674 371.937 611.192 370.746 611.904L367.92 609.408C367.643 609.164 367.223 609.177 366.962 609.438L363.356 613.044C363.095 613.305 363.082 613.725 363.327 614.002L365.823 616.829C365.111 618.025 364.593 619.297 364.26 620.605L360.494 620.84C360.125 620.863 359.837 621.169 359.837 621.539V626.637C359.837 627.007 360.125 627.313 360.494 627.336L362.429 627.456C363.449 627.519 364.697 627.597 365.72 627.661C365.723 627.767 365.73 627.875 365.74 627.982C365.844 629.404 366.219 630.798 366.838 632.087L366.839 632.09L367.346 633.135C367.027 634.377 366.101 635.383 364.873 635.809L364.87 635.81C364.168 636.056 363.341 636.365 362.403 636.76C360.726 637.462 358.941 638.908 358.334 640.784C358.215 641.152 358.417 641.547 358.785 641.666C359.153 641.785 359.547 641.583 359.666 641.215C360.103 639.862 361.49 638.66 362.944 638.051L362.946 638.05C363.852 637.669 364.651 637.37 365.332 637.131C366.644 636.676 367.705 635.733 368.312 634.525C369.062 635.238 370.068 635.653 371.135 635.653C371.842 635.653 372.479 635.47 373.039 635.154C373.213 635.737 373.433 636.307 373.697 636.858L373.698 636.861L374.264 638.026C373.921 639.086 373.076 639.896 371.86 640.282C371.141 640.505 370.278 640.801 369.294 641.183C368.458 641.502 367.492 641.975 366.66 642.582C365.842 643.179 365.071 643.966 364.762 644.938C364.646 645.307 364.849 645.7 365.218 645.817C365.586 645.934 365.98 645.73 366.097 645.362C366.274 644.805 366.766 644.238 367.486 643.712C368.192 643.197 369.041 642.778 369.795 642.49L369.798 642.489C370.754 642.118 371.589 641.832 372.278 641.618L372.282 641.617C373.557 641.213 374.593 640.419 375.211 639.334C375.957 640.024 376.946 640.424 377.994 640.424C379.04 640.424 380.023 640.026 380.764 639.348C381.406 640.481 382.55 641.229 383.825 641.64L383.829 641.642C384.502 641.854 385.301 642.14 386.216 642.489C386.96 642.778 387.798 643.192 388.502 643.698C389.219 644.215 389.718 644.772 389.91 645.32C390.038 645.685 390.437 645.878 390.802 645.75C391.167 645.623 391.359 645.223 391.232 644.858C390.901 643.913 390.132 643.147 389.32 642.562C388.494 641.968 387.542 641.502 386.721 641.183L386.717 641.182C385.789 640.828 384.962 640.531 384.253 640.307C382.921 639.877 382.012 639.098 381.725 638.025L382.29 636.861L382.291 636.858C382.551 636.317 382.768 635.758 382.94 635.186C383.517 635.497 384.168 635.665 384.853 635.665C385.931 635.665 386.942 635.243 387.69 634.527C388.296 635.734 389.357 636.677 390.668 637.131C391.349 637.37 392.148 637.669 393.055 638.05L393.056 638.051C394.511 638.66 395.896 639.862 396.334 641.215C396.453 641.583 396.847 641.785 397.215 641.666C397.583 641.547 397.785 641.152 397.666 640.784C397.059 638.908 395.275 637.462 393.597 636.76C392.659 636.365 391.833 636.056 391.13 635.81L391.128 635.809C389.897 635.382 388.97 634.373 388.652 633.126L389.149 632.102L389.15 632.099C389.769 630.81 390.144 629.416 390.249 627.994C390.27 627.77 390.274 627.543 390.275 627.337H395.475C395.862 627.337 396.175 627.024 396.175 626.637V621.539C396.175 621.169 395.887 620.863 395.518 620.84L391.752 620.605C391.42 619.297 390.902 618.019 390.19 616.828L392.686 614.002C392.93 613.725 392.917 613.305 392.656 613.044L389.05 609.438C388.789 609.177 388.369 609.164 388.092 609.408L385.265 611.905C384.069 611.193 382.797 610.674 381.489 610.342L381.254 606.575C381.231 606.206 380.925 605.919 380.555 605.919H375.457ZM372.655 628.861C372.619 629.039 372.595 629.218 372.583 629.398C372.57 629.493 372.56 629.598 372.56 629.696V631.92V631.92C372.56 632.124 372.56 632.361 372.575 632.601C372.572 632.636 372.571 632.673 372.573 632.709C372.591 633.038 372.623 633.382 372.673 633.724C372.219 634.067 371.709 634.253 371.135 634.253C370.147 634.253 369.239 633.713 368.766 632.845C368.741 632.752 368.697 632.664 368.638 632.589L368.1 631.481L368.1 631.48C367.555 630.344 367.226 629.119 367.135 627.873L367.134 627.858C367.114 627.642 367.113 627.408 367.113 627.147V624.865C367.113 624.458 367.192 624.075 367.362 623.743C367.569 623.349 367.918 622.871 368.495 622.492C369.067 622.115 369.904 621.808 371.132 621.814C373.293 621.825 374.311 622.819 374.782 623.554C375.043 623.964 375.17 624.438 375.17 624.95V625.775C374.857 625.923 374.564 626.098 374.304 626.301L374.292 626.31C374.276 626.32 374.26 626.332 374.245 626.344C373.771 626.72 373.416 627.13 373.157 627.533C373.128 627.577 373.105 627.623 373.088 627.672C373.05 627.73 373.006 627.8 372.974 627.866C372.88 628.053 372.816 628.263 372.775 628.4L372.775 628.4L372.761 628.446C372.759 628.452 372.757 628.458 372.756 628.463C372.755 628.468 372.753 628.472 372.752 628.477L372.749 628.483L372.748 628.486C372.743 628.5 372.732 628.528 372.721 628.558C372.71 628.591 372.694 628.639 372.683 628.697C372.672 628.752 372.663 628.807 372.655 628.861ZM373.976 629.546C373.978 629.537 373.98 629.527 373.981 629.516L373.981 629.516C373.99 629.47 374 629.411 374.012 629.329C374.015 629.315 374.016 629.301 374.018 629.286C374.024 629.211 374.03 629.148 374.037 629.095C374.099 628.812 374.206 628.549 374.356 628.318L374.359 628.313C374.831 627.577 375.837 626.583 378.01 626.572C378.739 626.569 379.329 626.675 379.807 626.839L382.029 629.611V631.788C382.021 631.831 382.017 631.874 382.017 631.918C382.017 632.179 382.016 632.412 381.995 632.628L381.994 632.644C381.984 632.777 381.972 632.91 381.957 633.043C381.919 633.309 381.868 633.585 381.813 633.866C381.804 633.911 381.8 633.956 381.8 634.001C381.634 634.775 381.375 635.531 381.03 636.251L381.029 636.252L380.424 637.5L380.422 637.503C379.98 638.425 379.037 639.024 377.994 639.024C376.963 639.024 376.018 638.436 375.565 637.5L374.959 636.252L374.958 636.251C374.414 635.115 374.085 633.89 373.994 632.644L373.993 632.628C373.972 632.412 373.972 632.179 373.972 631.918V629.708C373.972 629.654 373.973 629.6 373.976 629.546ZM379.807 626.839L382.029 629.602C382.026 629.203 381.946 628.828 381.78 628.502C381.729 628.405 381.669 628.303 381.6 628.199C381.57 628.157 381.538 628.114 381.502 628.07C381.478 628.039 381.456 628.007 381.437 627.973C381.325 627.83 381.193 627.687 381.04 627.549C380.982 627.499 380.922 627.448 380.857 627.398C380.601 627.201 380.275 627.016 379.877 626.869C379.853 626.86 379.83 626.85 379.807 626.839ZM376.57 625.313V624.95C376.57 624.2 376.381 623.46 375.963 622.802L375.962 622.8C375.371 621.877 374.245 620.808 372.264 620.5C372.512 620.105 372.804 619.73 373.142 619.381C373.17 619.361 373.196 619.339 373.22 619.314C375.86 616.674 380.139 616.674 382.779 619.314C382.805 619.34 382.832 619.363 382.86 619.384C383.193 619.728 383.486 620.104 383.732 620.498C381.74 620.803 380.62 621.874 380.028 622.798C379.605 623.449 379.419 624.205 379.419 624.95V625.294C378.989 625.214 378.518 625.17 378.003 625.172C377.478 625.175 377.002 625.225 376.57 625.313ZM370.704 620.423C371.087 619.658 371.596 618.946 372.231 618.312C375.417 615.125 380.583 615.125 383.77 618.312C384.398 618.941 384.913 619.661 385.293 620.423C386.558 620.485 387.53 620.836 388.269 621.323C389.087 621.863 389.578 622.544 389.867 623.094C389.883 623.125 389.897 623.156 389.908 623.189C390.171 623.733 390.275 624.316 390.275 624.877V625.937H394.775V622.196L391.146 621.97C390.833 621.951 390.571 621.725 390.505 621.419C390.182 619.919 389.595 618.458 388.734 617.138C388.562 616.874 388.587 616.528 388.795 616.292L391.201 613.568L388.526 610.893L385.802 613.298C385.567 613.506 385.222 613.532 384.958 613.362C383.623 612.498 382.173 611.911 380.675 611.589C380.369 611.523 380.143 611.261 380.124 610.948L379.898 607.319H376.114L375.888 610.948C375.869 611.261 375.644 611.523 375.337 611.589C373.838 611.911 372.376 612.499 371.056 613.36C370.792 613.532 370.446 613.507 370.21 613.298L367.487 610.893L364.811 613.568L367.217 616.292C367.424 616.527 367.45 616.872 367.28 617.136C366.417 618.471 365.829 619.921 365.507 621.419C365.441 621.725 365.179 621.951 364.866 621.97L361.237 622.196V625.979L362.516 626.059C363.505 626.12 364.708 626.195 365.713 626.258L365.713 624.865C365.713 624.278 365.827 623.666 366.118 623.1L366.121 623.094C366.412 622.542 366.906 621.862 367.724 621.323C368.465 620.835 369.439 620.484 370.704 620.423ZM381.422 626.082C381.633 626.221 381.822 626.369 381.991 626.522L383.429 629.624V631.906L383.429 631.915C383.429 632.158 383.428 632.449 383.402 632.733C383.388 632.895 383.369 633.058 383.346 633.22C383.326 633.395 383.301 633.569 383.273 633.743C383.727 634.082 384.269 634.265 384.853 634.265C385.865 634.265 386.783 633.701 387.24 632.826C387.263 632.749 387.299 632.677 387.345 632.612L387.888 631.494L387.889 631.492C388.434 630.357 388.762 629.131 388.853 627.885L388.854 627.87C388.875 627.654 388.875 627.42 388.875 627.159V624.877C388.875 624.469 388.796 624.085 388.625 623.752C388.613 623.729 388.603 623.706 388.594 623.682C388.383 623.3 388.043 622.851 387.498 622.491C386.927 622.115 386.091 621.808 384.857 621.814C382.683 621.825 381.677 622.818 381.206 623.555L381.203 623.559C380.948 623.951 380.819 624.433 380.819 624.95V625.742C381.035 625.845 381.236 625.959 381.422 626.082ZM381.991 626.522L383.429 629.597C383.427 629.015 383.312 628.411 383.025 627.85C382.949 627.698 382.855 627.547 382.751 627.401C382.724 627.361 382.696 627.32 382.667 627.28C382.647 627.242 382.623 627.205 382.595 627.171C382.497 627.048 382.367 626.888 382.216 626.737L382.192 626.713C382.129 626.65 382.062 626.586 381.991 626.522Z" fill="#3EA4EE"/>
<rect x="313.5" y="574.5" width="129" height="129" rx="64.5" stroke="#F3F3F3"/>
</g>
<g filter="url(#filter8_d_3586_66902)">
<rect x="578" y="309" width="130" height="130" rx="65" fill="white"/>
<rect x="578" y="309" width="130" height="130" rx="65" fill="url(#paint8_linear_3586_66902)" fill-opacity="0.1"/>
<path d="M605.532 397.035V398.295H610.362C610.092 401.415 608.412 403.8 604.857 405.51L605.682 406.74C610.332 404.49 611.952 401.07 611.952 397.035H605.532ZM614.397 395.61V409.155H615.942V395.61H614.397ZM626.381 396.75H623.201V395.505H621.641V396.75H618.461V397.875H626.381V396.75ZM620.621 400.305C620.621 399.705 621.326 399.345 622.421 399.345C623.531 399.345 624.236 399.705 624.236 400.305C624.236 400.935 623.531 401.295 622.421 401.295C621.326 401.295 620.621 400.935 620.621 400.305ZM626.621 402.78C625.526 402.93 624.371 403.02 623.201 403.08V402.3C624.731 402.12 625.706 401.385 625.706 400.305C625.706 399.075 624.401 398.295 622.421 398.295C620.456 398.295 619.151 399.075 619.151 400.305C619.151 401.385 620.111 402.12 621.641 402.3V403.14C620.366 403.185 619.121 403.185 618.041 403.185L618.236 404.385C620.651 404.385 623.816 404.34 626.741 403.845L626.621 402.78ZM619.946 406.545H627.581V409.17H629.126V405.315H619.946V406.545ZM627.581 395.625V404.745H629.126V395.625H627.581ZM637.414 403.71C638.074 403.71 638.584 403.185 638.584 402.51C638.584 401.79 638.074 401.28 637.414 401.28C636.784 401.28 636.274 401.79 636.274 402.51C636.274 403.185 636.784 403.71 637.414 403.71ZM644.317 398.13H649.237V396.855H642.787V405.87H643.912C646.717 405.87 648.472 405.795 650.437 405.435L650.272 404.145C648.457 404.49 646.837 404.565 644.317 404.58V398.13ZM651.532 395.595V409.185H653.092V395.595H651.532ZM659.886 398.235H662.751V396.96H655.386V398.235H658.341V399.54C658.341 401.79 656.961 404.355 654.891 405.345L655.776 406.575C657.336 405.81 658.536 404.19 659.136 402.3C659.751 404.01 660.906 405.51 662.421 406.23L663.276 405.015C661.221 404.04 659.886 401.64 659.886 399.54V398.235ZM667.746 400.95H665.631V395.61H664.086V409.155H665.631V402.225H667.746V400.95ZM679.505 395.61H677.96V405.45H679.505V395.61ZM670.115 399.9C670.115 398.655 671 397.845 672.2 397.845C673.385 397.845 674.285 398.655 674.285 399.9C674.285 401.13 673.385 401.955 672.2 401.955C671 401.955 670.115 401.13 670.115 399.9ZM675.785 399.9C675.785 397.92 674.24 396.51 672.2 396.51C670.16 396.51 668.6 397.92 668.6 399.9C668.6 401.865 670.16 403.29 672.2 403.29C674.24 403.29 675.785 401.865 675.785 399.9ZM672.215 407.64V404.46H670.655V408.9H679.895V407.64H672.215Z" fill="#555555"/>
<path fill-rule="evenodd" clip-rule="evenodd" d="M642.966 341.1C643.352 341.1 643.666 341.413 643.666 341.8V345.409C643.666 345.796 643.352 346.109 642.966 346.109C642.579 346.109 642.266 345.796 642.266 345.409V341.8C642.266 341.413 642.579 341.1 642.966 341.1ZM630.776 359.342C630.776 352.616 636.226 347.152 642.954 347.152C649.681 347.152 655.144 352.615 655.144 359.342L655.143 359.36L655.119 360.298C655.119 360.312 655.118 360.326 655.117 360.34C655.002 361.686 654.656 362.953 654.133 364.126L654.132 364.127C653.376 365.82 652.655 366.944 652.09 367.824L652.09 367.824C651.853 368.195 651.643 368.522 651.47 368.83C650.891 369.86 650.524 370.951 650.524 373.466V373.539L650.524 373.543V374.994C650.524 376.455 649.341 377.619 647.899 377.619H647.339C647.331 377.862 647.313 378.106 647.276 378.342C647.202 378.822 647.043 379.319 646.686 379.753C645.97 380.626 644.672 381 642.629 381C640.586 381 639.288 380.626 638.572 379.753C638.215 379.319 638.056 378.822 637.982 378.342C637.945 378.105 637.927 377.86 637.919 377.617C636.512 377.557 635.408 376.399 635.408 374.994V373.539L635.408 373.534V373.466C635.408 370.947 635.032 369.851 634.446 368.811C634.273 368.505 634.065 368.182 633.831 367.817C633.261 366.928 632.535 365.796 631.775 364.079C631.25 362.913 630.918 361.658 630.803 360.341C630.801 360.327 630.801 360.312 630.8 360.298L630.776 359.36L630.776 359.342ZM649.124 373.466V373.533L649.124 373.539V374.994C649.124 375.676 648.574 376.219 647.899 376.219H638.033C637.352 376.219 636.808 375.669 636.808 374.994V373.543L636.808 373.539V373.466C636.808 373.386 636.808 373.306 636.807 373.228H649.125C649.124 373.306 649.124 373.386 649.124 373.466ZM649.185 371.828C649.323 370.168 649.69 369.14 650.249 368.144C650.481 367.732 650.724 367.354 650.983 366.952C651.527 366.106 652.139 365.155 652.854 363.556C653.315 362.522 653.617 361.414 653.72 360.241L653.744 359.333C653.739 353.383 648.905 348.552 642.954 348.552C637.004 348.552 632.181 353.382 632.176 359.333L632.199 360.24C632.302 361.393 632.594 362.488 633.053 363.506L633.055 363.51L633.055 363.51C633.771 365.129 634.391 366.093 634.943 366.951L634.943 366.951C635.197 367.346 635.437 367.719 635.665 368.123C636.231 369.126 636.605 370.159 636.746 371.828H649.185ZM645.938 377.619H639.32C639.327 377.801 639.341 377.969 639.365 378.127C639.416 378.456 639.508 378.687 639.654 378.865C639.942 379.216 640.654 379.6 642.629 379.6C644.604 379.6 645.316 379.216 645.604 378.865C645.75 378.687 645.842 378.456 645.893 378.127C645.917 377.969 645.931 377.801 645.938 377.619ZM631.045 346.454C630.771 346.181 630.328 346.181 630.055 346.454C629.781 346.728 629.781 347.171 630.055 347.444L632.605 349.995C632.879 350.268 633.322 350.268 633.595 349.995C633.869 349.722 633.869 349.278 633.595 349.005L631.045 346.454ZM624.7 359.366C624.7 358.979 625.014 358.666 625.4 358.666H629.01C629.396 358.666 629.71 358.979 629.71 359.366C629.71 359.752 629.396 360.066 629.01 360.066H625.4C625.014 360.066 624.7 359.752 624.7 359.366ZM655.877 347.444C656.15 347.171 656.15 346.728 655.877 346.454C655.604 346.181 655.16 346.181 654.887 346.454L652.336 349.005C652.063 349.278 652.063 349.722 652.336 349.995C652.61 350.268 653.053 350.268 653.326 349.995L655.877 347.444ZM656.222 359.366C656.222 358.979 656.536 358.666 656.922 358.666H660.531C660.918 358.666 661.231 358.979 661.231 359.366C661.231 359.752 660.918 360.066 660.531 360.066H656.922C656.536 360.066 656.222 359.752 656.222 359.366ZM642.966 351.784C642.579 351.784 642.266 352.097 642.266 352.484C642.266 352.87 642.579 353.184 642.966 353.184C646.369 353.184 649.124 355.938 649.124 359.342C649.124 359.728 649.437 360.042 649.824 360.042C650.21 360.042 650.524 359.728 650.524 359.342C650.524 355.165 647.142 351.784 642.966 351.784Z" fill="#E3AB19"/>
<rect x="578.5" y="309.5" width="129" height="129" rx="64.5" stroke="#F3F3F3"/>
</g>
<defs>
<filter id="filter0_d_3586_66902" x="240" y="240" width="320" height="320" filterUnits="userSpaceOnUse" color-interpolation-filters="sRGB">
<feFlood flood-opacity="0" result="BackgroundImageFix"/>
<feColorMatrix in="SourceAlpha" type="matrix" values="0 0 0 0 0 0 0 0 0 0 0 0 0 0 0 0 0 0 127 0" result="hardAlpha"/>
<feOffset dx="22" dy="26"/>
<feGaussianBlur stdDeviation="35"/>
<feComposite in2="hardAlpha" operator="out"/>
<feColorMatrix type="matrix" values="0 0 0 0 0 0 0 0 0 0 0 0 0 0 0 0 0 0 0.08 0"/>
<feBlend mode="normal" in2="BackgroundImageFix" result="effect1_dropShadow_3586_66902"/>
<feBlend mode="normal" in="SourceGraphic" in2="effect1_dropShadow_3586_66902" result="shape"/>
</filter>
<filter id="filter1_d_3586_66902" x="265" y="0" width="270" height="270" filterUnits="userSpaceOnUse" color-interpolation-filters="sRGB">
<feFlood flood-opacity="0" result="BackgroundImageFix"/>
<feColorMatrix in="SourceAlpha" type="matrix" values="0 0 0 0 0 0 0 0 0 0 0 0 0 0 0 0 0 0 127 0" result="hardAlpha"/>
<feOffset dx="22" dy="26"/>
<feGaussianBlur stdDeviation="35"/>
<feComposite in2="hardAlpha" operator="out"/>
<feColorMatrix type="matrix" values="0 0 0 0 0 0 0 0 0 0 0 0 0 0 0 0 0 0 0.08 0"/>
<feBlend mode="normal" in2="BackgroundImageFix" result="effect1_dropShadow_3586_66902"/>
<feBlend mode="normal" in="SourceGraphic" in2="effect1_dropShadow_3586_66902" result="shape"/>
</filter>
<filter id="filter2_d_3586_66902" x="447" y="82" width="270" height="270" filterUnits="userSpaceOnUse" color-interpolation-filters="sRGB">
<feFlood flood-opacity="0" result="BackgroundImageFix"/>
<feColorMatrix in="SourceAlpha" type="matrix" values="0 0 0 0 0 0 0 0 0 0 0 0 0 0 0 0 0 0 127 0" result="hardAlpha"/>
<feOffset dx="22" dy="26"/>
<feGaussianBlur stdDeviation="35"/>
<feComposite in2="hardAlpha" operator="out"/>
<feColorMatrix type="matrix" values="0 0 0 0 0 0 0 0 0 0 0 0 0 0 0 0 0 0 0.08 0"/>
<feBlend mode="normal" in2="BackgroundImageFix" result="effect1_dropShadow_3586_66902"/>
<feBlend mode="normal" in="SourceGraphic" in2="effect1_dropShadow_3586_66902" result="shape"/>
</filter>
<filter id="filter3_d_3586_66902" x="83" y="82" width="270" height="270" filterUnits="userSpaceOnUse" color-interpolation-filters="sRGB">
<feFlood flood-opacity="0" result="BackgroundImageFix"/>
<feColorMatrix in="SourceAlpha" type="matrix" values="0 0 0 0 0 0 0 0 0 0 0 0 0 0 0 0 0 0 127 0" result="hardAlpha"/>
<feOffset dx="22" dy="26"/>
<feGaussianBlur stdDeviation="35"/>
<feComposite in2="hardAlpha" operator="out"/>
<feColorMatrix type="matrix" values="0 0 0 0 0 0 0 0 0 0 0 0 0 0 0 0 0 0 0.08 0"/>
<feBlend mode="normal" in2="BackgroundImageFix" result="effect1_dropShadow_3586_66902"/>
<feBlend mode="normal" in="SourceGraphic" in2="effect1_dropShadow_3586_66902" result="shape"/>
</filter>
<filter id="filter4_d_3586_66902" x="447" y="448" width="270" height="270" filterUnits="userSpaceOnUse" color-interpolation-filters="sRGB">
<feFlood flood-opacity="0" result="BackgroundImageFix"/>
<feColorMatrix in="SourceAlpha" type="matrix" values="0 0 0 0 0 0 0 0 0 0 0 0 0 0 0 0 0 0 127 0" result="hardAlpha"/>
<feOffset dx="22" dy="26"/>
<feGaussianBlur stdDeviation="35"/>
<feComposite in2="hardAlpha" operator="out"/>
<feColorMatrix type="matrix" values="0 0 0 0 0 0 0 0 0 0 0 0 0 0 0 0 0 0 0.08 0"/>
<feBlend mode="normal" in2="BackgroundImageFix" result="effect1_dropShadow_3586_66902"/>
<feBlend mode="normal" in="SourceGraphic" in2="effect1_dropShadow_3586_66902" result="shape"/>
</filter>
<filter id="filter5_d_3586_66902" x="83" y="448" width="270" height="270" filterUnits="userSpaceOnUse" color-interpolation-filters="sRGB">
<feFlood flood-opacity="0" result="BackgroundImageFix"/>
<feColorMatrix in="SourceAlpha" type="matrix" values="0 0 0 0 0 0 0 0 0 0 0 0 0 0 0 0 0 0 127 0" result="hardAlpha"/>
<feOffset dx="22" dy="26"/>
<feGaussianBlur stdDeviation="35"/>
<feComposite in2="hardAlpha" operator="out"/>
<feColorMatrix type="matrix" values="0 0 0 0 0 0 0 0 0 0 0 0 0 0 0 0 0 0 0.08 0"/>
<feBlend mode="normal" in2="BackgroundImageFix" result="effect1_dropShadow_3586_66902"/>
<feBlend mode="normal" in="SourceGraphic" in2="effect1_dropShadow_3586_66902" result="shape"/>
</filter>
<filter id="filter6_d_3586_66902" x="0" y="265" width="270" height="270" filterUnits="userSpaceOnUse" color-interpolation-filters="sRGB">
<feFlood flood-opacity="0" result="BackgroundImageFix"/>
<feColorMatrix in="SourceAlpha" type="matrix" values="0 0 0 0 0 0 0 0 0 0 0 0 0 0 0 0 0 0 127 0" result="hardAlpha"/>
<feOffset dx="22" dy="26"/>
<feGaussianBlur stdDeviation="35"/>
<feComposite in2="hardAlpha" operator="out"/>
<feColorMatrix type="matrix" values="0 0 0 0 0 0 0 0 0 0 0 0 0 0 0 0 0 0 0.08 0"/>
<feBlend mode="normal" in2="BackgroundImageFix" result="effect1_dropShadow_3586_66902"/>
<feBlend mode="normal" in="SourceGraphic" in2="effect1_dropShadow_3586_66902" result="shape"/>
</filter>
<filter id="filter7_d_3586_66902" x="265" y="530" width="270" height="270" filterUnits="userSpaceOnUse" color-interpolation-filters="sRGB">
<feFlood flood-opacity="0" result="BackgroundImageFix"/>
<feColorMatrix in="SourceAlpha" type="matrix" values="0 0 0 0 0 0 0 0 0 0 0 0 0 0 0 0 0 0 127 0" result="hardAlpha"/>
<feOffset dx="22" dy="26"/>
<feGaussianBlur stdDeviation="35"/>
<feComposite in2="hardAlpha" operator="out"/>
<feColorMatrix type="matrix" values="0 0 0 0 0 0 0 0 0 0 0 0 0 0 0 0 0 0 0.08 0"/>
<feBlend mode="normal" in2="BackgroundImageFix" result="effect1_dropShadow_3586_66902"/>
<feBlend mode="normal" in="SourceGraphic" in2="effect1_dropShadow_3586_66902" result="shape"/>
</filter>
<filter id="filter8_d_3586_66902" x="530" y="265" width="270" height="270" filterUnits="userSpaceOnUse" color-interpolation-filters="sRGB">
<feFlood flood-opacity="0" result="BackgroundImageFix"/>
<feColorMatrix in="SourceAlpha" type="matrix" values="0 0 0 0 0 0 0 0 0 0 0 0 0 0 0 0 0 0 127 0" result="hardAlpha"/>
<feOffset dx="22" dy="26"/>
<feGaussianBlur stdDeviation="35"/>
<feComposite in2="hardAlpha" operator="out"/>
<feColorMatrix type="matrix" values="0 0 0 0 0 0 0 0 0 0 0 0 0 0 0 0 0 0 0.08 0"/>
<feBlend mode="normal" in2="BackgroundImageFix" result="effect1_dropShadow_3586_66902"/>
<feBlend mode="normal" in="SourceGraphic" in2="effect1_dropShadow_3586_66902" result="shape"/>
</filter>
<linearGradient id="paint0_linear_3586_66902" x1="301.05" y1="272.3" x2="397.8" y2="399.65" gradientUnits="userSpaceOnUse">
<stop stop-color="white"/>
<stop offset="1" stop-color="white" stop-opacity="0"/>
</linearGradient>
<linearGradient id="paint1_linear_3586_66902" x1="412.346" y1="165.221" x2="377.965" y2="101.516" gradientUnits="userSpaceOnUse">
<stop stop-opacity="0.3"/>
<stop offset="1" stop-opacity="0"/>
</linearGradient>
<linearGradient id="paint2_linear_3586_66902" x1="594.346" y1="247.221" x2="559.965" y2="183.516" gradientUnits="userSpaceOnUse">
<stop stop-opacity="0.3"/>
<stop offset="1" stop-opacity="0"/>
</linearGradient>
<linearGradient id="paint3_linear_3586_66902" x1="230.346" y1="247.221" x2="195.965" y2="183.516" gradientUnits="userSpaceOnUse">
<stop stop-opacity="0.3"/>
<stop offset="1" stop-opacity="0"/>
</linearGradient>
<linearGradient id="paint4_linear_3586_66902" x1="594.346" y1="613.221" x2="559.965" y2="549.516" gradientUnits="userSpaceOnUse">
<stop stop-opacity="0.3"/>
<stop offset="1" stop-opacity="0"/>
</linearGradient>
<linearGradient id="paint5_linear_3586_66902" x1="230.346" y1="613.221" x2="195.965" y2="549.516" gradientUnits="userSpaceOnUse">
<stop stop-opacity="0.3"/>
<stop offset="1" stop-opacity="0"/>
</linearGradient>
<linearGradient id="paint6_linear_3586_66902" x1="147.346" y1="430.221" x2="112.965" y2="366.516" gradientUnits="userSpaceOnUse">
<stop stop-opacity="0.3"/>
<stop offset="1" stop-opacity="0"/>
</linearGradient>
<linearGradient id="paint7_linear_3586_66902" x1="412.346" y1="695.221" x2="377.965" y2="631.516" gradientUnits="userSpaceOnUse">
<stop stop-opacity="0.3"/>
<stop offset="1" stop-opacity="0"/>
</linearGradient>
<linearGradient id="paint8_linear_3586_66902" x1="677.346" y1="430.221" x2="642.965" y2="366.516" gradientUnits="userSpaceOnUse">
<stop stop-opacity="0.3"/>
<stop offset="1" stop-opacity="0"/>
</linearGradient>
</defs>
</svg>
